<?xml version="1.0" encoding="UTF-8" standalone="no"?>
<svg width="20px" height="20px" viewBox="0 0 20 20" version="1.1" xmlns="http://www.w3.org/2000/svg" xmlns:xlink="http://www.w3.org/1999/xlink">
    <!-- Generator: Sketch 3.8.3 (29802) - http://www.bohemiancoding.com/sketch -->
    <title>add</title>
    <desc>Created with Sketch.</desc>
    <defs></defs>
    <g id="Icons" stroke="none" stroke-width="1" fill="none" fill-rule="evenodd">
        <g id="add" fill="#505F79">
            <g transform="translate(4.000000, 4.000000)" id="Combined-Shape">
                <path d="M7,5 L7,1.00247329 C7,0.455760956 6.55228475,0 6,0 C5.44386482,0 5,0.448822582 5,1.00247329 L5,5 L1.00247329,5 C0.455760956,5 0,5.44771525 0,6 C0,6.55613518 0.448822582,7 1.00247329,7 L5,7 L5,10.9975267 C5,11.544239 5.44771525,12 6,12 C6.55613518,12 7,11.5511774 7,10.9975267 L7,7 L10.9975267,7 C11.544239,7 12,6.55228475 12,6 C12,5.44386482 11.5511774,5 10.9975267,5 L7,5 Z"></path>
            </g>
        </g>
    </g>
</svg>