<?xml version="1.0" encoding="UTF-8" standalone="no"?>
<svg width="20px" height="20px" viewBox="0 0 20 20" version="1.1" xmlns="http://www.w3.org/2000/svg" xmlns:xlink="http://www.w3.org/1999/xlink">
    <!-- Generator: Sketch 3.8.3 (29802) - http://www.bohemiancoding.com/sketch -->
    <title>align-left</title>
    <desc>Created with Sketch.</desc>
    <defs></defs>
    <g id="Icons" stroke="none" stroke-width="1" fill="none" fill-rule="evenodd">
        <g id="align-left" fill="#505F79">
            <g transform="translate(4.000000, 5.000000)" id="Combined-Shape">
                <path d="M0,1 C0,0.44771525 0.455760956,0 1.00247329,0 L10.9975267,0 C11.5511774,0 12,0.443864822 12,1 C12,1.55228475 11.544239,2 10.9975267,2 L1.00247329,2 C0.448822582,2 0,1.55613518 0,1 Z M0,5 C0,4.44771525 0.455760956,4 1.00247329,4 L10.9975267,4 C11.5511774,4 12,4.44386482 12,5 C12,5.55228475 11.544239,6 10.9975267,6 L1.00247329,6 C0.448822582,6 0,5.55613518 0,5 Z M0,9 C0,8.44771525 0.45097518,8 0.990777969,8 L5.00922203,8 C5.55641359,8 6,8.44386482 6,9 C6,9.55228475 5.54902482,10 5.00922203,10 L0.990777969,10 C0.443586406,10 0,9.55613518 0,9 Z"></path>
            </g>
        </g>
    </g>
</svg>