<?xml version="1.0" encoding="UTF-8" standalone="no"?>
<svg width="20px" height="20px" viewBox="0 0 20 20" version="1.1" xmlns="http://www.w3.org/2000/svg" xmlns:xlink="http://www.w3.org/1999/xlink">
    <!-- Generator: Sketch 3.8.3 (29802) - http://www.bohemiancoding.com/sketch -->
    <title>bullet-list</title>
    <desc>Created with Sketch.</desc>
    <defs></defs>
    <g id="Icons" stroke="none" stroke-width="1" fill="none" fill-rule="evenodd">
        <g id="bullet-list" fill="#505F79">
            <g transform="translate(4.000000, 5.000000)" id="Combined-Shape">
                <path d="M0,1 C0,0.44771525 0.443864822,0 1,0 C1.55228475,0 2,0.443864822 2,1 C2,1.55228475 1.55613518,2 1,2 C0.44771525,2 0,1.55613518 0,1 Z M4,1 C4,0.44771525 4.45303631,0 4.99703014,0 L11.0029699,0 C11.5536144,0 12,0.443864822 12,1 C12,1.55228475 11.5469637,2 11.0029699,2 L4.99703014,2 C4.4463856,2 4,1.55613518 4,1 Z M0,5 C0,4.44771525 0.443864822,4 1,4 C1.55228475,4 2,4.44386482 2,5 C2,5.55228475 1.55613518,6 1,6 C0.44771525,6 0,5.55613518 0,5 Z M4,5 C4,4.44771525 4.45303631,4 4.99703014,4 L11.0029699,4 C11.5536144,4 12,4.44386482 12,5 C12,5.55228475 11.5469637,6 11.0029699,6 L4.99703014,6 C4.4463856,6 4,5.55613518 4,5 Z M0,9 C0,8.44771525 0.443864822,8 1,8 C1.55228475,8 2,8.44386482 2,9 C2,9.55228475 1.55613518,10 1,10 C0.44771525,10 0,9.55613518 0,9 Z M4,9 C4,8.44771525 4.45303631,8 4.99703014,8 L11.0029699,8 C11.5536144,8 12,8.44386482 12,9 C12,9.55228475 11.5469637,10 11.0029699,10 L4.99703014,10 C4.4463856,10 4,9.55613518 4,9 Z"></path>
            </g>
        </g>
    </g>
</svg>