<?xml version="1.0" encoding="UTF-8" standalone="no"?>
<svg width="20px" height="20px" viewBox="0 0 20 20" version="1.1" xmlns="http://www.w3.org/2000/svg" xmlns:xlink="http://www.w3.org/1999/xlink">
    <!-- Generator: Sketch 3.8.3 (29802) - http://www.bohemiancoding.com/sketch -->
    <title>date</title>
    <desc>Created with Sketch.</desc>
    <defs></defs>
    <g id="Icons" stroke="none" stroke-width="1" fill="none" fill-rule="evenodd">
        <g id="date" fill="#505F79">
            <g transform="translate(4.000000, 4.000000)" id="Combined-Shape">
                <path d="M0,2.99539757 C0,2.44565467 0.455760956,2 1.00247329,2 L10.9975267,2 C11.5511774,2 12,2.4556644 12,2.99539757 L12,11.0046024 C12,11.5543453 11.544239,12 10.9975267,12 L1.00247329,12 C0.448822582,12 0,11.5443356 0,11.0046024 L0,2.99539757 Z M2,5 L4,5 L4,7 L2,7 L2,5 Z M5,5 L7,5 L7,7 L5,7 L5,5 Z M2,8 L4,8 L4,10 L2,10 L2,8 Z M1.5,2 L4.5,2 L4.5,3 L1.5,3 L1.5,2 Z M7.5,2 L10.5,2 L10.5,3 L7.5,3 L7.5,2 Z M8,0 L10,0 L10,2 L8,2 L8,0 Z M2,0 L4,0 L4,2 L2,2 L2,0 Z"></path>
            </g>
        </g>
    </g>
</svg>