<?xml version="1.0" encoding="UTF-8" standalone="no"?>
<svg width="20px" height="20px" viewBox="0 0 20 20" version="1.1" xmlns="http://www.w3.org/2000/svg" xmlns:xlink="http://www.w3.org/1999/xlink">
    <!-- Generator: Sketch 3.8.3 (29802) - http://www.bohemiancoding.com/sketch -->
    <title>help</title>
    <desc>Created with Sketch.</desc>
    <defs></defs>
    <g id="Icons" stroke="none" stroke-width="1" fill="none" fill-rule="evenodd">
        <g id="help" fill="#505F79">
            <g transform="translate(6.000000, 4.000000)" id="Shape">
                <path d="M0.5,3.5 L2.5,3.5 C2.5,2 3.092,1.6 4.292,1.6 C5.348,1.6 5.972,2.144 5.972,2.976 C5.972,3.68 5.812,4.032 4.804,4.944 C3.508,6.096 2.98799992,6.61600018 2.98799992,8.11600018 C2.98799992,8.26000018 2.97199992,8.824 2.98799992,9 L5,9 C5,7.432 5.044,6.768 6.228,5.76 C7.572,4.624 7.892,4.032 7.892,2.928 C7.892,1.136 6.5,0 4.292,0 C1.94,0 0.5,1 0.5,3.5 Z M4.9999999,12 L5,10 L3,10 L3,12 L4.9999999,12 Z"></path>
            </g>
        </g>
    </g>
</svg>