<?xml version="1.0" encoding="UTF-8" standalone="no"?>
<svg width="20px" height="20px" viewBox="0 0 20 20" version="1.1" xmlns="http://www.w3.org/2000/svg" xmlns:xlink="http://www.w3.org/1999/xlink">
    <!-- Generator: Sketch 3.8.3 (29802) - http://www.bohemiancoding.com/sketch -->
    <title>link</title>
    <desc>Created with Sketch.</desc>
    <defs></defs>
    <g id="Icons" stroke="none" stroke-width="1" fill="none" fill-rule="evenodd">
        <g id="link" fill="#505F79">
            <g transform="translate(1.000000, 2.000000)" id="Group">
                <g transform="translate(8.717514, 8.217514) rotate(-315.000000) translate(-8.717514, -8.217514) translate(4.717514, 0.717514)">
                    <path d="M2.25,5 L2.25,3.49916726 C2.25,2.53282956 3.03289421,1.75 4,1.75 C4.96839511,1.75 5.75,2.53033121 5.75,3.49916726 L5.75,5 L5.75,5.99359751 C5.75,6.96441665 4.96661971,7.75 4,7.75 C3.58578644,7.75 3.25,8.08578644 3.25,8.5 C3.25,8.91421356 3.58578644,9.25 4,9.25 C5.79599128,9.25 7.25,7.79190225 7.25,5.99359751 L7.25,5 L7.25,3.49916726 C7.25,1.70135596 5.7962751,0.25 4,0.25 C2.20449481,0.25 0.75,1.70437471 0.75,3.49916726 L0.75,5 C0.75,5.41421356 1.08578644,5.75 1.5,5.75 C1.91421356,5.75 2.25,5.41421356 2.25,5 Z M5.75,9.5 L5.75,11.0008327 C5.75,11.9671704 4.96710579,12.75 4,12.75 C3.03160489,12.75 2.25,11.9696688 2.25,11.0008327 L2.25,9.5 L2.25,8.50640249 C2.25,7.53558335 3.03338029,6.75 4,6.75 C4.41421356,6.75 4.75,6.41421356 4.75,6 C4.75,5.58578644 4.41421356,5.25 4,5.25 C2.20400872,5.25 0.75,6.70809775 0.75,8.50640249 L0.75,9.5 L0.75,11.0008327 C0.75,12.798644 2.2037249,14.25 4,14.25 C5.79550519,14.25 7.25,12.7956253 7.25,11.0008327 L7.25,9.5 C7.25,9.08578644 6.91421356,8.75 6.5,8.75 C6.08578644,8.75 5.75,9.08578644 5.75,9.5 Z" id="Combined-Shape"></path>
                </g>
            </g>
        </g>
    </g>
</svg>