<?xml version="1.0" encoding="UTF-8" standalone="no"?>
<svg width="20px" height="20px" viewBox="0 0 20 20" version="1.1" xmlns="http://www.w3.org/2000/svg" xmlns:xlink="http://www.w3.org/1999/xlink">
    <!-- Generator: Sketch 3.8.3 (29802) - http://www.bohemiancoding.com/sketch -->
    <title>mention</title>
    <desc>Created with Sketch.</desc>
    <defs></defs>
    <g id="Icons" stroke="none" stroke-width="1" fill="none" fill-rule="evenodd">
        <g id="mention" fill="#505F79">
            <g transform="translate(4.000000, 4.000000)" id="Combined-Shape">
                <path d="M2.87731452,7 L2.0085302,7 C0.901950359,7 -1.82182446e-15,7.89761602 -1.33009981e-15,9.0048815 L-4.44003719e-16,11.0001925 C-1.97049774e-16,11.5562834 0.448822582,12 1.00247329,12 L10.9975267,12 C11.544239,12 12,11.5523709 12,11.0001925 L12,9.0048815 C12,7.8938998 11.1007504,7 9.9914698,7 L9.12268548,7 C8.38962496,7.91446248 7.26319229,8.5 6,8.5 C4.73680771,8.5 3.61037504,7.91446248 2.87731452,7 Z M6,6 C7.65685425,6 9,4.65685425 9,3 C9,1.34314575 7.65685425,0 6,0 C4.34314575,0 3,1.34314575 3,3 C3,4.65685425 4.34314575,6 6,6 Z"></path>
            </g>
        </g>
    </g>
</svg>