<svg width="20" height="20" viewBox="0 0 20 20" xmlns="http://www.w3.org/2000/svg"><path d="M8 6c0-.552.453-1 .997-1h6.006c.55 0 .997.444.997 1 0 .552-.453 1-.997 1H8.997A.996.996 0 0 1 8 6zm0 4c0-.552.453-1 .997-1h6.006c.55 0 .997.444.997 1 0 .552-.453 1-.997 1H8.997A.996.996 0 0 1 8 10zm0 4c0-.552.453-1 .997-1h6.006c.55 0 .997.444.997 1 0 .552-.453 1-.997 1H8.997A.996.996 0 0 1 8 14zm-4-1v1h2.5v-1H4zm0 2v1h2.5v-1H4zm1-9v2h1V5H4v1h1zM4 9v1h1v.5h1V10h.5V9H4zm0 2v1h3v-1H4zm1.5 3H7v1H5.5v-1z" fill="#505F79" fill-rule="evenodd"/></svg>