<?xml version="1.0" encoding="UTF-8" standalone="no"?>
<svg width="20px" height="20px" viewBox="0 0 20 20" version="1.1" xmlns="http://www.w3.org/2000/svg" xmlns:xlink="http://www.w3.org/1999/xlink">
    <!-- Generator: Sketch 3.8.3 (29802) - http://www.bohemiancoding.com/sketch -->
    <title>number-list</title>
    <desc>Created with Sketch.</desc>
    <defs></defs>
    <g id="Icons" stroke="none" stroke-width="1" fill="none" fill-rule="evenodd">
        <g id="number-list" fill="#505F79">
            <g transform="translate(4.000000, 5.000000)" id="Combined-Shape">
                <path d="M4,1 C4,0.44771525 4.45303631,0 4.99703014,0 L11.0029699,0 C11.5536144,0 12,0.443864822 12,1 C12,1.55228475 11.5469637,2 11.0029699,2 L4.99703014,2 C4.4463856,2 4,1.55613518 4,1 Z M4,5 C4,4.44771525 4.45303631,4 4.99703014,4 L11.0029699,4 C11.5536144,4 12,4.44386482 12,5 C12,5.55228475 11.5469637,6 11.0029699,6 L4.99703014,6 C4.4463856,6 4,5.55613518 4,5 Z M4,9 C4,8.44771525 4.45303631,8 4.99703014,8 L11.0029699,8 C11.5536144,8 12,8.44386482 12,9 C12,9.55228475 11.5469637,10 11.0029699,10 L4.99703014,10 C4.4463856,10 4,9.55613518 4,9 Z M0,8 L0,9 L2.5,9 L2.5,8 L0,8 Z M0,10 L0,11 L2.5,11 L2.5,10 L0,10 Z M1,1 L1,3 L2,3 L2,0 L0,0 L0,1 L1,1 Z M0,4 L0,5 L1,5 L1,5.5 L2,5.5 L2,5 L2.5,5 L2.5,4 L0,4 Z M0,6 L0,7 L3,7 L3,6 L0,6 Z M1.5,9 L3,9 L3,10 L1.5,10 L1.5,9 Z"></path>
            </g>
        </g>
    </g>
</svg>