<?xml version="1.0" encoding="UTF-8" standalone="no"?>
<svg width="20px" height="20px" viewBox="0 0 20 20" version="1.1" xmlns="http://www.w3.org/2000/svg" xmlns:xlink="http://www.w3.org/1999/xlink">
    <!-- Generator: Sketch 3.8.3 (29802) - http://www.bohemiancoding.com/sketch -->
    <title>table</title>
    <desc>Created with Sketch.</desc>
    <defs>
        <path d="M0,1.00247329 C0,0.448822582 0.455760956,0 1.00247329,0 L10.9975267,0 C11.5511774,0 12,0.455760956 12,1.00247329 L12,10.9975267 C12,11.5511774 11.544239,12 10.9975267,12 L1.00247329,12 C0.448822582,12 0,11.544239 0,10.9975267 L0,1.00247329 Z M1.5,6.5 L5.5,6.5 L5.5,10.5 L1.5,10.5 L1.5,6.5 Z M6.5,1.5 L10.5,1.5 L10.5,5.5 L6.5,5.5 L6.5,1.5 Z M6.5,6.5 L10.5,6.5 L10.5,10.5 L6.5,10.5 L6.5,6.5 Z M1.5,1.5 L5.5,1.5 L5.5,5.5 L1.5,5.5 L1.5,1.5 Z" id="path-1"></path>
        <mask id="mask-2" maskContentUnits="userSpaceOnUse" maskUnits="objectBoundingBox" x="0" y="0" width="12" height="12" fill="white">
            <use xlink:href="#path-1"></use>
        </mask>
    </defs>
    <g id="Icons" stroke="none" stroke-width="1" fill="none" fill-rule="evenodd" stroke-linecap="square">
        <g id="table" stroke="#505F79" stroke-width="3" fill="#FFFFFF">
            <g transform="translate(4.000000, 4.000000)" id="Combined-Shape">
                <use mask="url(#mask-2)" xlink:href="#path-1"></use>
            </g>
        </g>
    </g>
</svg>