<?xml version="1.0" encoding="UTF-8" standalone="no"?>
<svg width="20px" height="20px" viewBox="0 0 20 20" version="1.1" xmlns="http://www.w3.org/2000/svg" xmlns:xlink="http://www.w3.org/1999/xlink">
    <!-- Generator: Sketch 3.8.3 (29802) - http://www.bohemiancoding.com/sketch -->
    <title>task</title>
    <desc>Created with Sketch.</desc>
    <defs></defs>
    <g id="Icons" stroke="none" stroke-width="1" fill="none" fill-rule="evenodd">
        <g id="task" fill="#505F79">
            <g transform="translate(4.000000, 4.000000)" id="Combined-Shape">
                <path d="M0,1.00247329 C0,0.448822582 0.455760956,0 1.00247329,0 L10.9975267,0 C11.5511774,0 12,0.455760956 12,1.00247329 L12,10.9975267 C12,11.5511774 11.544239,12 10.9975267,12 L1.00247329,12 C0.448822582,12 0,11.544239 0,10.9975267 L0,1.00247329 Z M4.46966991,9.03033009 L5.06218917,9.62284934 L5.58565161,8.96852129 L9.58565161,3.96852129 C9.84440877,3.64507483 9.79196774,3.17310555 9.46852129,2.91434839 C9.14507483,2.65559123 8.67310555,2.70803226 8.41434839,3.03147871 L4.93896046,7.37830029 L3.53033009,5.96966991 C3.23743687,5.6767767 2.76256313,5.6767767 2.46966991,5.96966991 C2.1767767,6.26256313 2.1767767,6.73743687 2.46966991,7.03033009 L4.46966991,9.03033009 Z"></path>
            </g>
        </g>
    </g>
</svg>