<?xml version="1.0" encoding="UTF-8" standalone="no"?>
<svg width="20px" height="20px" viewBox="0 0 20 20" version="1.1" xmlns="http://www.w3.org/2000/svg" xmlns:xlink="http://www.w3.org/1999/xlink">
    <!-- Generator: Sketch 3.8.3 (29802) - http://www.bohemiancoding.com/sketch -->
    <title>bold</title>
    <desc>Created with Sketch.</desc>
    <defs></defs>
    <g id="Icons" stroke="none" stroke-width="1" fill="none" fill-rule="evenodd">
        <g id="bold" fill="#505F79">
            <g transform="translate(5.000000, 4.000000)" id="opaque">
                <path d="M2,5.02521014 L5.52941176,5.02521008 C6.03361597,5.02521008 7.42321777,4.63137686 7.42321777,3.12780762 C7.42321777,1.62423837 6.00000286,1.5 5.42857143,1.5 L2,1.5 L2,5.02521014 Z M0,0 L5.83193277,0 C6.9075684,0 7.77030487,0.246496134 8.42016807,0.739495798 C9.07003126,1.23249546 9.39495798,1.97758605 9.39495798,2.97478992 C9.39495798,3.57983496 9.24650008,4.09803706 8.94957983,4.52941176 C8.65265958,4.96078647 8.22969462,5.29411647 7.68067227,5.52941176 C8.42017176,5.71988874 8.98039025,6.07002529 9.36134454,6.61344538 C9.74229882,7.15686546 10,7.68206874 10,8.5 C10,8.97059059 9.84874034,9.56582429 9.68067227,9.97478992 C9.5126042,10.3837555 9.24930151,10.7366932 8.8907563,11.0336134 C8.53221109,11.3305337 8.07283193,11.5658255 7.51260504,11.7394958 C6.95237815,11.9131661 6.28571815,12 5.51260504,12 L0,12 L0,0 Z M2,10.25354 L6,10.25354 C7,10.25354 8.02435303,9.57495117 8.02435303,8.37677002 C8.02435303,7.01971435 6.89611816,6.5 6,6.5 L2,6.5 L2,10.25354 Z"></path>
            </g>
        </g>
    </g>
</svg>