<?xml version="1.0" encoding="UTF-8" standalone="no"?>
<svg width="20px" height="20px" viewBox="0 0 20 20" version="1.1" xmlns="http://www.w3.org/2000/svg" xmlns:xlink="http://www.w3.org/1999/xlink">
    <!-- Generator: Sketch 3.8.3 (29802) - http://www.bohemiancoding.com/sketch -->
    <title>indent</title>
    <desc>Created with Sketch.</desc>
    <defs></defs>
    <g id="Icons" stroke="none" stroke-width="1" fill="none" fill-rule="evenodd">
        <g id="indent" fill="#505F79">
            <g transform="translate(3.000000, 5.000000)" id="Combined-Shape">
                <path d="M3,2.00004182 C2.99688039,2.00001396 2.99375741,2 2.9906311,2 L1.0093689,2 C0.443353176,2 0,2.44771525 0,3 C0,3.55613518 0.451909848,4 1.0093689,4 L2.9906311,4 C2.99375783,4 2.99688081,3.99998634 3,3.99995907 L3,6 L6,3 L3,0 L3,2.00003785 Z M7,1 C7,0.44771525 7.45097518,0 7.99077797,0 L12.009222,0 C12.5564136,0 13,0.443864822 13,1 C13,1.55228475 12.5490248,2 12.009222,2 L7.99077797,2 C7.44358641,2 7,1.55613518 7,1 Z M7,5 C7,4.44771525 7.45097518,4 7.99077797,4 L12.009222,4 C12.5564136,4 13,4.44386482 13,5 C13,5.55228475 12.5490248,6 12.009222,6 L7.99077797,6 C7.44358641,6 7,5.55613518 7,5 Z M1,9 C1,8.44771525 1.45576096,8 2.00247329,8 L11.9975267,8 C12.5511774,8 13,8.44386482 13,9 C13,9.55228475 12.544239,10 11.9975267,10 L2.00247329,10 C1.44882258,10 1,9.55613518 1,9 Z"></path>
            </g>
        </g>
    </g>
</svg>