<?xml version="1.0" encoding="UTF-8"?>
<svg width="9px" height="9px" viewBox="0 0 9 9" version="1.1" xmlns="http://www.w3.org/2000/svg" xmlns:xlink="http://www.w3.org/1999/xlink">
    <!-- Generator: Sketch 41.2 (35397) - http://www.bohemiancoding.com/sketch -->
    <title>Integrations</title>
    <desc>Created with Sketch.</desc>
    <defs></defs>
    <g id="Symbols" stroke="none" stroke-width="1" fill="none" fill-rule="evenodd">
        <g id="New-card---pdf-uploading---no-preview" transform="translate(-152.000000, -93.000000)" fill="#42526E">
            <path d="M160.723773,94.4589727 C161.061303,94.1214423 161.062657,93.5773758 160.727922,93.2426407 C160.390853,92.9055719 159.848617,92.9097631 159.51159,93.2467897 L156.485281,96.2730983 L153.458973,93.2467897 C153.121442,92.9092593 152.577376,92.9079056 152.242641,93.2426407 C151.905572,93.5797095 151.909763,94.1219462 152.24679,94.4589727 L155.273098,97.4852814 L152.24679,100.51159 C151.909259,100.84912 151.907906,101.393187 152.242641,101.727922 C152.57971,102.064991 153.121946,102.0608 153.458973,101.723773 L156.485281,98.6974644 L159.51159,101.723773 C159.84912,102.061303 160.393187,102.062657 160.727922,101.727922 C161.064991,101.390853 161.0608,100.848617 160.723773,100.51159 L157.697464,97.4852814 L160.723773,94.4589727 Z" id="Integrations"></path>
        </g>
    </g>
</svg>