<?xml version="1.0" encoding="UTF-8"?>
<svg width="23px" height="27px" viewBox="0 0 23 27" version="1.1" xmlns="http://www.w3.org/2000/svg" xmlns:xlink="http://www.w3.org/1999/xlink">
    <!-- Generator: Sketch 41.2 (35397) - http://www.bohemiancoding.com/sketch -->
    <title>Combined Shape</title>
    <desc>Created with Sketch.</desc>
    <defs>
        <path d="M0,1.4895 L0,25.5105 C0,26.3325 0.682333333,27 1.5226,27 L21.4559333,27 C22.3038667,27 23,26.3205 23,25.488 L23,8.046 C23,7.6485 22.839,7.266 22.5507333,6.9855 L15.8592667,0.4395 C15.5725333,0.159 15.1815333,0 14.7752,0 L1.5226,0 C0.682333333,0 0,0.6675 0,1.4895 Z M14.8848333,2.52064286 C14.6471667,2.2815 14.3270833,1.92857143 13.9916667,1.92857143 L13.4166667,1.92857143 L13.4166667,7.71428571 C13.4166667,8.78078571 14.2753333,9.64285714 15.3333333,9.64285714 L21.0833333,9.64285714 L21.0833333,9.49435714 C21.0833333,9.14142857 20.9319167,8.69785714 20.68275,8.44714286 L14.8848333,2.52064286 Z" id="path-1"></path>
    </defs>
    <g id="Symbols" stroke="none" stroke-width="1" fill="none" fill-rule="evenodd">
        <g id="New-card---unkown-uploading" transform="translate(-76.000000, -43.000000)">
            <g id="Group-2" transform="translate(76.000000, 43.000000)">
                <mask id="mask-2" fill="white">
                    <use xlink:href="#path-1"></use>
                </mask>
                <use id="Combined-Shape" fill="#CFD4DB" xlink:href="#path-1"></use>
            </g>
        </g>
    </g>
</svg>