<?xml version="1.0" encoding="UTF-8"?>
<svg width="12px" height="12px" viewBox="0 0 12 12" version="1.1" xmlns="http://www.w3.org/2000/svg" xmlns:xlink="http://www.w3.org/1999/xlink">
    <!-- Generator: Sketch 41.2 (35397) - http://www.bohemiancoding.com/sketch -->
    <title>Image icon</title>
    <desc>Created with Sketch.</desc>
    <defs></defs>
    <g id="Symbols" stroke="none" stroke-width="1" fill="none" fill-rule="evenodd">
        <g id="Image-icon">
            <g>
                <rect id="Rectangle-2" fill="#FFFFFF" x="1" y="1" width="10" height="10"></rect>
                <path d="M5,9 L4,8 L2,10 L5,10 L10,10 L10,8.19999981 L8,6 L5,9 Z M0,1.00247329 C0,0.448822582 0.455760956,0 1.00247329,0 L10.9975267,0 C11.5511774,0 12,0.455760956 12,1.00247329 L12,10.9975267 C12,11.5511774 11.544239,12 10.9975267,12 L1.00247329,12 C0.448822582,12 0,11.544239 0,10.9975267 L0,1.00247329 Z M3.5,5 C4.32842712,5 5,4.32842712 5,3.5 C5,2.67157288 4.32842712,2 3.5,2 C2.67157288,2 2,2.67157288 2,3.5 C2,4.32842712 2.67157288,5 3.5,5 Z" id="Shape" fill="#FFC400"></path>
            </g>
        </g>
    </g>
</svg>