<?xml version="1.0" encoding="UTF-8"?>
<svg width="16px" height="4px" viewBox="0 0 16 4" version="1.1" xmlns="http://www.w3.org/2000/svg" xmlns:xlink="http://www.w3.org/1999/xlink">
    <g id="Symbols" stroke="none" stroke-width="1" fill="none" fill-rule="evenodd">
        <g id="New-card---video-with-duration-hover" transform="translate(-142.000000, -95.000000)" fill="#FFFFFF">
            <g id="ellipse-btn" transform="translate(130.000000, 82.000000)">
                <path d="M28,15 C28,14.4479139 27.8046895,13.9765645 27.4140625,13.5859375 C27.0234355,13.1953105 26.5520861,13 26,13 C25.4479139,13 24.9765645,13.1953105 24.5859375,13.5859375 C24.1953105,13.9765645 24,14.4479139 24,15 C24,15.5520861 24.1953105,16.0234355 24.5859375,16.4140625 C24.9765645,16.8046895 25.4479139,17 26,17 C26.5520861,17 27.0234355,16.8046895 27.4140625,16.4140625 C27.8046895,16.0234355 28,15.5520861 28,15 Z M22,15 C22,14.4479139 21.8046895,13.9765645 21.4140625,13.5859375 C21.0234355,13.1953105 20.5520861,13 20,13 C19.4479139,13 18.9765645,13.1953105 18.5859375,13.5859375 C18.1953105,13.9765645 18,14.4479139 18,15 C18,15.5520861 18.1953105,16.0234355 18.5859375,16.4140625 C18.9765645,16.8046895 19.4479139,17 20,17 C20.5520861,17 21.0234355,16.8046895 21.4140625,16.4140625 C21.8046895,16.0234355 22,15.5520861 22,15 Z M16,15 C16,14.4479139 15.8046895,13.9765645 15.4140625,13.5859375 C15.0234355,13.1953105 14.5520861,13 14,13 C13.4479139,13 12.9765645,13.1953105 12.5859375,13.5859375 C12.1953105,13.9765645 12,14.4479139 12,15 C12,15.5520861 12.1953105,16.0234355 12.5859375,16.4140625 C12.9765645,16.8046895 13.4479139,17 14,17 C14.5520861,17 15.0234355,16.8046895 15.4140625,16.4140625 C15.8046895,16.0234355 16,15.5520861 16,15 Z" id="Combined-Shape"></path>
            </g>
        </g>
    </g>
</svg>