<svg width="24" height="24" viewBox="0 0 24 24"><path d="M19.927 4.156A.376.376 0 0 0 19.624 4a.357.357 0 0 0-.174.046c-2.223 1.249-4.799 1.91-7.45 1.91s-5.228-.66-7.45-1.91A.356.356 0 0 0 4.376 4a.377.377 0 0 0-.303.156.388.388 0 0 0 .07.528A13.058 13.058 0 0 0 7.79 6.657a12.78 12.78 0 0 0 8.42 0 13.062 13.062 0 0 0 3.648-1.974.388.388 0 0 0 .07-.527zm-2.554 3.56a.293.293 0 0 0-.287-.043c-.644.253-1.298.445-1.895.588a.376.376 0 0 0-.261.233c-.435 1.224-1.546 2.389-2.711 3.61-.047.045-.112.105-.219.105-.106 0-.171-.058-.219-.105-1.165-1.221-2.276-2.382-2.71-3.606a.376.376 0 0 0-.261-.233 14.423 14.423 0 0 1-1.897-.594.293.293 0 0 0-.286.042.31.31 0 0 0-.116.27c.099 1.018.49 2.012 1.197 3.055.664.98 1.53 1.887 2.368 2.765 1.543 1.616 3 3.143 3.129 4.914a.3.3 0 0 0 .297.283h1.813c.082 0 .16-.035.216-.095a.31.31 0 0 0 .082-.226c-.057-1.184-.491-2.37-1.326-3.624a12.386 12.386 0 0 0-.559-.77.227.227 0 0 1 .015-.292l.181-.19c.838-.878 1.704-1.785 2.368-2.765.707-1.043 1.098-2.032 1.197-3.05a.318.318 0 0 0-.116-.273zm-7.318 7.464a.273.273 0 0 0-.212-.093.298.298 0 0 0-.246.143c-.763 1.192-1.156 2.317-1.21 3.447a.315.315 0 0 0 .081.228c.057.06.136.095.217.095h1.81a.304.304 0 0 0 .298-.285c.04-.545.205-1.09.506-1.665a.44.44 0 0 0-.037-.464c-.299-.399-.664-.824-1.207-1.406zm1.947-6.553c.568 0 .897-.035 1.013-.035a.28.28 0 0 1 .274.284.313.313 0 0 1-.022.113 4.964 4.964 0 0 1-1.058 1.59.288.288 0 0 1-.209.085.287.287 0 0 1-.21-.085c-.639-.639-.982-1.383-1.057-1.59a.308.308 0 0 1-.023-.113.28.28 0 0 1 .275-.284c.116 0 .445.035 1.013.035h.004z" fill="currentColor" fill-rule="evenodd"/></svg>