
<svg width="22px" height="22px" viewBox="-1 -1 22 22" version="1.1" xmlns="http://www.w3.org/2000/svg" xmlns:xlink="http://www.w3.org/1999/xlink">
    <!-- Generator: Sketch 39.1 (31720) - http://www.bohemiancoding.com/sketch -->
    <desc>Created with Sketch.</desc>
    <defs></defs>
    <g id="addons" stroke="none" stroke-width="1" fill="none" fill-rule="evenodd">
        <g id="Boards" transform="translate(2.000000, 1.000000)" fill="currentColor">
            <path d="M8,18 C7.7,18 7.3,17.9 7,17.7 L1,14.2 C0.4,13.8 0,13.2 0,12.5 L0,5.6 C0,4.9 0.4,4.2 1,3.9 L7,0.4 C7.6,-5.55111512e-16 8.4,-5.55111512e-16 9,0.4 L15,3.9 C15.6,4.3 16,4.9 16,5.6 L16,12.5 C16,13.2 15.6,13.9 15,14.2 L9,17.7 C8.7,17.9 8.3,18 8,18 L8,18 Z M8,2.2 L2,5.6 L2,12.5 L8,16 L14,12.5 L14.5,13.4 L14,12.5 L14,5.6 L8,2.2 L8,2.2 Z" id="Shape"></path>
            <path d="M8,12 C6.4,12 5,10.7 5,9 C5,7.3 6.3,6 8,6 C9.7,6 11,7.3 11,9 C11,10.7 9.6,12 8,12 L8,12 Z M8,8 C7.5,8 7,8.4 7,9 C7,9.6 7.4,10 8,10 C8.6,10 9,9.6 9,9 C9,8.4 8.5,8 8,8 L8,8 Z" id="Shape"></path>
        </g>
    </g>
</svg>