
<svg width="22px" height="22px" viewBox="-1 -1 22 22" version="1.1" xmlns="http://www.w3.org/2000/svg" xmlns:xlink="http://www.w3.org/1999/xlink">
    <!-- Generator: Sketch 39.1 (31720) - http://www.bohemiancoding.com/sketch -->
    <desc>Created with Sketch.</desc>
    <defs></defs>
    <g id="commits" stroke="none" stroke-width="1" fill="none" fill-rule="evenodd">
        <g id="Group" fill="currentColor">
            <g id="Boards" transform="translate(6.000000, 1.000000)">
                <path d="M8,9 C8,7.1 6.7,5.6 5,5.1 L5,1 C5,0.4 4.6,0 4,0 C3.4,0 3,0.4 3,1 L3,5.1 C1.3,5.5 0,7.1 0,9 C0,10.9 1.3,12.4 3,12.9 L3,17 C3,17.6 3.4,18 4,18 C4.6,18 5,17.6 5,17 L5,12.9 C6.7,12.4 8,10.9 8,9 L8,9 Z M4,11 C2.9,11 2,10.1 2,9 C2,7.9 2.9,7 4,7 L4,7 L4,7 C5.1,7 6,7.9 6,9 C6,10.1 5.1,11 4,11 L4,11 Z" id="Shape"></path>
            </g>
        </g>
    </g>
</svg>