
<svg width="9px" height="17px" viewBox="6 1 9 17" version="1.1" xmlns="http://www.w3.org/2000/svg" xmlns:xlink="http://www.w3.org/1999/xlink">
    <!-- Generator: Sketch 39.1 (31720) - http://www.bohemiancoding.com/sketch -->
    <desc>Created with Sketch.</desc>
    <defs></defs>
    <path d="M11.75,5.17588333 L11.75,3.73960866 L11.75,2.24155239 C11.75,1.55440069 11.1903559,1 10.5,1 C9.80483103,1 9.25,1.55966671 9.25,2.25005059 L9.25,5.17588333 C7.37285911,5.71755557 6,7.44845357 6,9.5 C6,11.5515464 7.37285911,13.2824444 9.25,13.8241167 L9.25,16.7499494 C9.25,17.4343796 9.80964406,18 10.5,18 C11.195169,18 11.75,17.444578 11.75,16.7594301 L11.75,13.8241167 C13.6271409,13.2824444 15,11.5515464 15,9.5 C15,7.44845357 13.6271409,5.71755557 11.75,5.17588333 Z M13,9.5 C13,8.11928813 11.8807119,7 10.5,7 C9.11928813,7 8,8.11928813 8,9.5 C8,10.8807119 9.11928813,12 10.5,12 C11.8807119,12 13,10.8807119 13,9.5 Z" id="Combined-Shape" stroke="none" fill="currentColor" fill-rule="evenodd"></path>
</svg>
