
<svg width="22px" height="22px" viewBox="-1 -1 22 22" version="1.1" xmlns="http://www.w3.org/2000/svg" xmlns:xlink="http://www.w3.org/1999/xlink">
    <!-- Generator: Sketch 39.1 (31720) - http://www.bohemiancoding.com/sketch -->
    <desc>Created with Sketch.</desc>
    <defs></defs>
    <g id="dashboard" stroke="none" stroke-width="1" fill="none" fill-rule="evenodd">
        <g id="Layer_1" fill="#000000">
            <path d="M17,2 L6,2 L3,2 C1.9,2 1,2.9 1,4 L1,16 C1,17.1 1.9,18 3,18 L17,18 C18.1,18 19,17.1 19,16 L19,8 L19,4 C19,2.8 18.2,2 17,2 L17,2 Z M8,4 L17,4 L17,6 L8,6 L8,4 L8,4 Z M3,4 L6,4 L6,8 L6,16 L3,16 L3,4 L3,4 Z M17,16 L8,16 L8,8 L17,8 L17,16 L17,16 Z" id="Shape"></path>
        </g>
    </g>
</svg>