
<svg width="19px" height="16px" viewBox="90 287 19 16" version="1.1" xmlns="http://www.w3.org/2000/svg" xmlns:xlink="http://www.w3.org/1999/xlink">
    <!-- Generator: Sketch 39.1 (31720) - http://www.bohemiancoding.com/sketch -->
    <desc>Created with Sketch.</desc>
    <defs></defs>
    <g id="Group-11" stroke="none" stroke-width="1" fill="none" fill-rule="evenodd" transform="translate(91.000000, 288.000000)" stroke-linecap="round" stroke-linejoin="round">
        <path d="M12.24704,10.0992832 L13.3442963,10.0992832 C13.3442963,10.0992832 16.5908177,9.67621737 16.5908177,6.49228862 C16.5908177,4.47499602 14.9249488,2.81666837 12.8541131,2.89208118 C12.0449337,1.18398108 10.3104391,0 8.29540886,0 C5.60769639,0 3.41770845,2.09949257 3.26084981,4.74648212 C1.57763594,4.39430431 0,5.67632204 0,7.39422581 C0,10.1415144 2.88529403,10.0992832 2.88529403,10.0992832 L4.32266214,10.0992832" id="Stroke-246" stroke="currentColor" stroke-width="2"></path>
        <g id="Group-22" transform="translate(5.857143, 3.714286)" stroke="currentColor" stroke-width="2">
            <g id="Group-15">
                <g id="Group-12" transform="translate(2.500000, 4.500000) rotate(-180.000000) translate(-2.500000, -4.500000) ">
                    <path d="M2.14285714,8 L2.14285714,-1.64947421e-15" id="Stroke-247"></path>
                    <polyline id="Stroke-248" points="8.8817842e-16 6 2.28571429 8.28571429 4.57142857 6"></polyline>
                </g>
            </g>
        </g>
    </g>
</svg>
