
<svg width="22px" height="22px" viewBox="-1 -1 22 22" version="1.1" xmlns="http://www.w3.org/2000/svg" xmlns:xlink="http://www.w3.org/1999/xlink">
    <!-- Generator: Sketch 39.1 (31720) - http://www.bohemiancoding.com/sketch -->
    <desc>Created with Sketch.</desc>
    <defs></defs>
    <g id="downloads" stroke="none" stroke-width="1" fill="none" fill-rule="evenodd">
        <g id="Group" fill="currentColor">
            <g id="Boards" transform="translate(0.000000, 1.000000)">
                <g id="Group">
                    <path d="M14.8,2.4 C14.5,2.4 14.3,2.4 14,2.5 C12.9,0.9 11,0 9,0 C6.2,0 3.8,1.9 3.1,4.6 C1.3,5 0,6.7 0,8.6 C0,10.9 1.9,13 4,13 L8,13 L8,11 L4,11 C3,11 2,9.9 2,8.6 C2,7.4 2.8,6.5 4,6.5 L4.3,6.5 L4.3,6.5 C4.8,6.5 4.9,6 4.9,6 L4.9,5.7 C5.2,3.5 6.9,2 9,2 C10.5,2 12,2.8 12.7,4.1 L12.9,4.4 C12.9,4.4 13.2,4.9 13.8,4.6 L13.8,4.6 L14,4.5 C14.3,4.4 14.6,4.4 15,4.4 L15,4.4 C16.6,4.4 18.1,5.7 18.1,7.5 C18.1,9.3 16.6,11 15,11 L12,11 L12,13 L14.9,13 C17.6,13 20,10.4 20,7.5 C20,4.6 17.6,2.4 14.8,2.4 L14.8,2.4 Z" id="Shape"></path>
                    <path d="M13,14.3 C12.7,14 12.2,14 11.9,14.3 L11,15.2 L11,7.1 C11,6.5 10.6,6.1 10,6.1 C9.4,6.1 9,6.5 9,7.1 L9,15.2 L8.1,14.3 C7.8,14 7.3,14 7,14.3 C6.7,14.6 6.7,15.1 7,15.4 L9.4,17.8 C9.8,18.1 10.4,18.1 10.7,17.8 L13.1,15.4 C13.3,15.2 13.3,15 13.3,14.8 C13.3,14.6 13.2,14.5 13,14.3 L13,14.3 Z" id="Shape"></path>
                </g>
            </g>
        </g>
    </g>
</svg>