<?xml version="1.0" encoding="UTF-8" standalone="no"?>
<svg width="21px" height="16px" viewBox="0 0 21 16" version="1.1" xmlns="http://www.w3.org/2000/svg" xmlns:xlink="http://www.w3.org/1999/xlink">
    <!-- Generator: Sketch 3.8.2 (29753) - http://www.bohemiancoding.com/sketch -->
    <title>Group 8</title>
    <desc>Created with Sketch.</desc>
    <defs></defs>
    <g id="Blue-theme" stroke="none" stroke-width="1" fill="none" fill-rule="evenodd" stroke-linecap="round" stroke-linejoin="round">
        <g id="Settings-sidebar-–-blue-theme-–-with-fade" transform="translate(-22.000000, -271.000000)" stroke="currentColor" stroke-width="2">
            <g id="Group-8" transform="translate(23.000000, 272.000000)">
                <g id="Group-6" transform="translate(13.000000, 4.000000)">
                    <g id="Group-32" transform="translate(0.631579, 0.213636)">
                        <path d="M0,1.94318182 L5.36842105,1.94318182" id="Stroke-4"></path>
                        <polyline id="Stroke-5" points="2.06477733 3.88636364 0 1.94318182 2.06477733 0"></polyline>
                    </g>
                </g>
                <g id="Group-5-Copy-2">
                    <path d="M9.45948718,3.61 C9.45948718,5.605 7.80102564,7.221 5.75589744,7.221 C3.70871795,7.221 2.05128205,5.605 2.05128205,3.61 C2.05128205,1.616 3.70871795,0 5.75589744,0 C7.80102564,0 9.45948718,1.616 9.45948718,3.61 L9.45948718,3.61 Z" id="Stroke-6529"></path>
                    <path d="M11.8512821,13.778 L0,13.778 C0,10.587 2.65128205,8 5.92615385,8 C9.19897436,8 11.8512821,10.587 11.8512821,13.778 L11.8512821,13.778 Z" id="Stroke-6530"></path>
                </g>
            </g>
        </g>
    </g>
</svg>
