
<svg width="15px" height="18px" viewBox="0 0 15 18" version="1.1" xmlns="http://www.w3.org/2000/svg" xmlns:xlink="http://www.w3.org/1999/xlink">
    <!-- Generator: Sketch 39.1 (31720) - http://www.bohemiancoding.com/sketch -->
    <desc>Created with Sketch.</desc>
    <defs></defs>
    <g id="following" stroke="none" stroke-width="1" fill="none" fill-rule="evenodd">
        <g id="Layer_1" fill="#505F79">
            <g id="Snippet---personal">
                <g id="Group-2">
                    <g id="Page-1-Copy">
                        <g id="Group-5">
                            <path d="M6,0 C3.790861,-1.3527075e-16 2,1.790861 2,4 C2,6.209139 3.790861,8 6,8 C8.209139,8 10,6.209139 10,4 C10,1.790861 8.209139,1.02344917e-15 6,8.8817842e-16 M6,2 C7.1045695,2 8,2.8954305 8,4 C8,5.1045695 7.1045695,6 6,6 C4.8954305,6 4,5.1045695 4,4 C4,2.8954305 4.8954305,2 6,2" id="Fill-3"></path>
                            <path d="M9,9 L3,9 C1.34314575,9 2.02906125e-16,10.3431458 0,12 L0,15.7 C1.6264701,17.1506041 3.72087797,17.9670682 5.9,18 C8.16273587,17.9952621 10.3406617,17.1383733 12,15.6 L12,12 C12,10.3431458 10.6568542,9 9,9 M9,11 C9.27030296,10.9821181 9.53517976,11.0817185 9.72673061,11.2732694 C9.91828145,11.4648202 10.0178819,11.729697 10,12 L10,14.6 C8.79245734,15.4302624 7.36533203,15.8827656 5.9,15.9 C4.50656321,15.9172291 3.14272435,15.4975863 2,14.7 L2,12 C1.98211806,11.729697 2.08171855,11.4648202 2.27326939,11.2732694 C2.46482024,11.0817185 2.72969704,10.9821181 3,11 L9,11" id="Fill-5"></path>
                        </g>
                    </g>
                </g>
            </g>
            <path d="M14.84,4 C14.8415368,4.26580298 14.7371865,4.52128117 14.55,4.71 L13.2,6 L14.5,7.32 C14.7853762,7.56438988 14.9096819,7.9481184 14.8218101,8.31341897 C14.7339383,8.67871955 14.4487195,8.96393833 14.083419,9.05181013 C13.7181184,9.13968194 13.3343899,9.01537616 13.09,8.73 L11.09,6.73 C10.7022764,6.33996255 10.7022764,5.71003745 11.09,5.32 L13.15,3.26 C13.4417269,2.98179729 13.8719701,2.90595901 14.2412363,3.06764953 C14.6105025,3.22934005 14.8465779,3.59693912 14.84,4 L14.84,4 Z" id="Shape"></path>
        </g>
    </g>
</svg>