
<svg width="22px" height="22px" viewBox="-1 -1 22 22" version="1.1" xmlns="http://www.w3.org/2000/svg" xmlns:xlink="http://www.w3.org/1999/xlink">
    <!-- Generator: Sketch 39.1 (31720) - http://www.bohemiancoding.com/sketch -->
    <desc>Created with Sketch.</desc>
    <defs></defs>
    <g id="issues" stroke="none" stroke-width="1" fill="none" fill-rule="evenodd">
        <g id="Layer_1" fill="currentColor">
            <g id="Boards" transform="translate(1.000000, 1.000000)">
                <g id="Group">
                    <path d="M16,0 L2,0 C0.9,0 0,0.9 0,2 L0,9 C0,10.1 0.9,11 2,11 L16,11 C17.1,11 18,10.1 18,9 L18,2 C18,0.9 17.1,0 16,0 L16,0 Z M16,9 L2,9 L2,2 L16,2 L16,9 L16,9 Z" id="Shape"></path>
                    <path d="M14,13 L4,13 L4,12 L2,12 L2,13 C2,14.1 2.9,15 4,15 L14,15 C15.1,15 16,14.1 16,13 L16,12 L14,12 L14,13 L14,13 Z" id="Shape"></path>
                    <path d="M5,16.2 C5,17.2 5.9,18 7,18 L11,18 C12.1,18 13,17.2 13,16.2 L13,16 L5,16 L5,16.2 L5,16.2 Z" id="Shape"></path>
                    <path d="M7.3,7.7 C7.7,8.1 8.3,8.1 8.7,7.7 L11.7,4.7 C12.1,4.3 12.1,3.7 11.7,3.3 C11.3,2.9 10.7,2.9 10.3,3.3 L8,5.6 L7.2,4.8 C6.8,4.4 6.2,4.4 5.8,4.8 C5.4,5.2 5.4,5.8 5.8,6.2 L7.3,7.7 L7.3,7.7 Z" id="Shape"></path>
                </g>
            </g>
        </g>
    </g>
</svg>