
<svg width="18px" height="18px" viewBox="0 0 18 18" version="1.1" xmlns="http://www.w3.org/2000/svg" xmlns:xlink="http://www.w3.org/1999/xlink">
    <!-- Generator: Sketch 39.1 (31720) - http://www.bohemiancoding.com/sketch -->
    <desc>Created with Sketch.</desc>
    <defs></defs>
    <g id="members" stroke="none" stroke-width="1" fill="none" fill-rule="evenodd">
        <g id="Layer_1" fill="#4D5C76">
            <g id="Page-1_1_">
                <g id="Team-snippet-context">
                    <g id="Group-2">
                        <g id="Group-24">
                            <g id="Group-20">
                                <g id="Page-1">
                                    <g id="Group-3">
                                        <path d="M9,3 C7.3,3 6,4.3 6,6 C6,7.7 7.3,9 9,9 C10.7,9 12,7.7 12,6 C12,4.3 10.7,3 9,3 M9,5 C9.6,5 10,5.4 10,6 C10,6.6 9.6,7 9,7 C8.4,7 8,6.6 8,6 C8,5.5 8.4,5 9,5" id="Fill-1"></path>
                                        <path d="M9,0 C4,0 0,4 0,9 C0,14 4,18 9,18 C14,18 18,14 18,9 C18,4 14,0 9,0 M9,2 C12.9,2 16,5.1 16,9 C16,12.9 12.9,16 9,16 C5.1,16 2,12.9 2,9 C2,5.1 5.1,2 9,2" id="Fill-3"></path>
                                        <path d="M11.5,10 L6.5,10 C5.1,10 4,11.1 4,12.5 L4,16.5 C5.4,17.5 7.1,18 9,18 C10.9,18 12.6,17.4 14,16.5 L14,12.5 C14,11.1 12.9,10 11.5,10 M11.5,12 C11.8,12 12,12.2 12,12.5 L12,15.3 C11.1,15.7 10,16 9,16 C8,16 6.9,15.8 6,15.3 L6,12.5 C6,12.2 6.2,12 6.5,12 L11.5,12" id="Fill-5"></path>
                                    </g>
                                </g>
                            </g>
                        </g>
                    </g>
                </g>
            </g>
        </g>
    </g>
</svg>