<?xml version="1.0" encoding="UTF-8" standalone="no"?>
<svg width="18px" height="18px" viewBox="0 0 18 18" version="1.1" xmlns="http://www.w3.org/2000/svg" xmlns:xlink="http://www.w3.org/1999/xlink">
    <!-- Generator: Sketch 3.8.2 (29753) - http://www.bohemiancoding.com/sketch -->
    <title>Stroke 2172 + Stroke 2173</title>
    <desc>Created with Sketch.</desc>
    <defs></defs>
    <g id="Blue-theme" stroke="none" stroke-width="1" fill="none" fill-rule="evenodd">
        <g id="Repo-sidebar-–-blue-theme" transform="translate(-21.000000, -800.000000)">
            <g id="Group-2" transform="translate(21.000000, 761.000000)">
                <g id="Stroke-2172-+-Stroke-2173" transform="translate(1.000000, 40.000000)">
                    <polygon id="Stroke-2173" stroke="currentColor" stroke-width="2" stroke-linecap="round" stroke-linejoin="round" points="0 11.328 0 4.752 4.69147826 0 11.2681739 0 16 4.752 16 11.328 11.2681739 16 4.69147826 16"></polygon>
                    <path d="M6.24008979,8 L4.63115601,6.39106622 C4.14517022,5.90508043 4.14517022,5.11714179 4.63115601,4.63115601 C5.11714179,4.14517022 5.90508043,4.14517022 6.39106622,4.63115601 L8,6.24008979 L9.60893378,4.63115601 C10.0949196,4.14517022 10.8828582,4.14517022 11.368844,4.63115601 C11.8548298,5.11714179 11.8548298,5.90508043 11.368844,6.39106622 L9.75991021,8 L11.368844,9.60893378 C11.8548298,10.0949196 11.8548298,10.8828582 11.368844,11.368844 C10.8828582,11.8548298 10.0949196,11.8548298 9.60893378,11.368844 L8,9.75991021 L6.39106622,11.368844 C5.90508043,11.8548298 5.11714179,11.8548298 4.63115601,11.368844 C4.14517022,10.8828582 4.14517022,10.0949196 4.63115601,9.60893378 L6.24008979,8 Z" id="Combined-Shape" fill="currentColor"></path>
                </g>
            </g>
        </g>
    </g>
</svg>
