
<svg width="22px" height="22px" viewBox="-1 -1 22 22" version="1.1" xmlns="http://www.w3.org/2000/svg" xmlns:xlink="http://www.w3.org/1999/xlink">
    <!-- Generator: Sketch 39.1 (31720) - http://www.bohemiancoding.com/sketch -->
    <desc>Created with Sketch.</desc>
    <defs></defs>
    <g id="projects" stroke="none" stroke-width="1" fill="none" fill-rule="evenodd">
        <g id="Layer_1" fill="#505F79">
            <g id="Boards" transform="translate(1.000000, 2.000000)">
                <path d="M16,16 L2,16 C0.8,16 0,15.2 0,14 L0,2 C0,0.8 0.8,0 2,0 L6.5,0 C7,0 7.5,0.2 7.9,0.6 L9.4,2 L16,2 C17.2,2 18,2.8 18,4 L18,14 C18,15.2 17.2,16 16,16 L16,16 Z M2,2 L2,14 L16,14 L16,14 L16,4 L9.4,4 C8.9,4 8.4,3.8 8,3.4 L6.5,2 L2,2 L2,2 Z" id="Shape"></path>
            </g>
        </g>
    </g>
</svg>