
<svg width="22px" height="22px" viewBox="-1 -1 22 22" version="1.1" xmlns="http://www.w3.org/2000/svg" xmlns:xlink="http://www.w3.org/1999/xlink">
    <!-- Generator: Sketch 39.1 (31720) - http://www.bohemiancoding.com/sketch -->
    <desc>Created with Sketch.</desc>
    <defs></defs>
    <g id="pullrequests" stroke="none" stroke-width="1" fill="none" fill-rule="evenodd">
        <g id="Group" fill="currentColor">
            <g id="Boards" transform="translate(2.000000, 1.000000)">
                <g id="Group">
                    <path d="M14,12.2 L14,8 C14,6.3 12.7,5 11,5 L9.1,5 L9.9,4.2 C10.2,3.9 10.2,3.4 9.9,3.1 C9.6,2.8 9.1,2.8 8.8,3.1 L6.5,5.4 C6.2,5.8 6.2,6.3 6.5,6.6 L8.8,8.9 C9,9.1 9.1,9.1 9.3,9.1 C9.5,9.1 9.7,9 9.9,8.8 C10.2,8.5 10.2,8 9.9,7.7 L9.2,7 L11,7 C11.6,7 12,7.4 12,8 L12,12.2 C10.8,12.6 10,13.7 10,15 C10,16.7 11.3,18 13,18 C14.7,18 16,16.7 16,15 C16,13.7 15.2,12.6 14,12.2 L14,12.2 Z M13,16 C12.4,16 12,15.6 12,15 C12,14.4 12.4,14 13,14 C13.6,14 14,14.4 14,15 C14,15.6 13.6,16 13,16 L13,16 Z" id="Shape"></path>
                    <path d="M3,0 C1.4,0 0,1.3 0,3 C0,4.3 0.8,5.4 2,5.8 L2,17 C2,17.6 2.4,18 3,18 C3.6,18 4,17.6 4,17 L4,5.8 C5.2,5.4 6,4.3 6,3 C6,1.3 4.7,0 3,0 L3,0 Z M3,4 C2.5,4 2,3.6 2,3 C2,2.4 2.4,2 3,2 C3.6,2 4,2.4 4,3 C4,3.6 3.6,4 3,4 L3,4 Z" id="Shape"></path>
                </g>
            </g>
        </g>
    </g>
</svg>