<?xml version="1.0" encoding="UTF-8" standalone="no"?>
<svg width="19px" height="15px" viewBox="0 0 19 15" version="1.1" xmlns="http://www.w3.org/2000/svg" xmlns:xlink="http://www.w3.org/1999/xlink">
    <!-- Generator: Sketch 3.8.2 (29753) - http://www.bohemiancoding.com/sketch -->
    <title>Group 56</title>
    <desc>Created with Sketch.</desc>
    <defs>
        <path d="M2.10294118,5.23721591 C2.71207877,5.23721591 3.20588235,4.73639807 3.20588235,4.11860795 C3.20588235,3.50081784 2.71207877,3 2.10294118,3 C1.49380358,3 1,3.50081784 1,4.11860795 C1,4.73639807 1.49380358,5.23721591 2.10294118,5.23721591 Z" id="path-1"></path>
        <mask id="mask-2" maskContentUnits="userSpaceOnUse" maskUnits="objectBoundingBox" x="-2" y="-2" width="6.20588235" height="6.23721591">
            <rect x="-1" y="1" width="6.20588235" height="6.23721591" fill="white"></rect>
            <use xlink:href="#path-1" fill="black"></use>
        </mask>
        <path d="M1.11860795,12.2215491 C1.72774555,12.2215491 2.22154913,11.7207313 2.22154913,11.1029412 C2.22154913,10.4851511 1.72774555,9.98433322 1.11860795,9.98433322 C0.509470363,9.98433322 0.0156667781,10.4851511 0.0156667781,11.1029412 C0.0156667781,11.7207313 0.509470363,12.2215491 1.11860795,12.2215491 Z" id="path-3"></path>
        <mask id="mask-4" maskContentUnits="userSpaceOnUse" maskUnits="objectBoundingBox" x="-2" y="-2" width="6.20588235" height="6.23721591">
            <rect x="-1.98433322" y="7.98433322" width="6.20588235" height="6.23721591" fill="white"></rect>
            <use xlink:href="#path-3" fill="black"></use>
        </mask>
    </defs>
    <g id="Blue-theme" stroke="none" stroke-width="1" fill="none" fill-rule="evenodd">
        <g id="Repo-sidebar-–-blue-theme" transform="translate(-22.000000, -549.000000)" stroke="currentColor">
            <g id="Group-17" transform="translate(22.000000, 178.000000)">
                <g id="Group-56" transform="translate(9.000000, 378.500000) rotate(-270.000000) translate(-9.000000, -378.500000) translate(3.000000, 370.000000)">
                    <g id="Group-44-Copy-2">
                        <g id="l0020_pull-request-new-20-copy">
                            <g id="Group-38">
                                <g id="Group-40">
                                    <path d="M2,6.93408735 L2.00000007,16" id="Line" stroke-width="2" stroke-linecap="round"></path>
                                    <path d="M3.4770813,0.5 L1.5,0.5" id="Line-Copy-9" stroke-width="2" stroke-linecap="round" transform="translate(2.500000, 1.000000) rotate(-90.000000) translate(-2.500000, -1.000000) "></path>
                                    <use id="Oval-18" mask="url(#mask-2)" stroke-width="4" transform="translate(2.102941, 4.118608) rotate(-90.000000) translate(-2.102941, -4.118608) " xlink:href="#path-1"></use>
                                    <g id="Group-53" transform="translate(9.000000, 0.000000)">
                                        <path d="M3,15 L1,15" id="Line-Copy-10" stroke-width="2" stroke-linecap="round" transform="translate(1.500000, 15.500000) rotate(-90.000000) translate(-1.500000, -15.500000) "></path>
                                        <path d="M5.4770813,3.5 L-2.5,3.5" id="Line-Copy-11" stroke-width="2" stroke-linecap="round" transform="translate(1.500000, 4.000000) rotate(-90.000000) translate(-1.500000, -4.000000) "></path>
                                        <use id="Oval-18-Copy-2" mask="url(#mask-4)" stroke-width="4" transform="translate(1.118608, 11.102941) rotate(-90.000000) translate(-1.118608, -11.102941) " xlink:href="#path-3"></use>
                                    </g>
                                </g>
                            </g>
                        </g>
                    </g>
                </g>
            </g>
        </g>
    </g>
</svg>
