
<svg width="22px" height="22px" viewBox="-1 -1 22 22" version="1.1" xmlns="http://www.w3.org/2000/svg" xmlns:xlink="http://www.w3.org/1999/xlink">
    <!-- Generator: Sketch 39.1 (31720) - http://www.bohemiancoding.com/sketch -->
    <desc>Created with Sketch.</desc>
    <defs></defs>
    <g id="snippets" stroke="none" stroke-width="1" fill="none" fill-rule="evenodd">
        <g id="Layer_1" fill="currentColor">
            <g id="Boards" transform="translate(3.000000, 1.000000)">
                <path d="M11,6 C11.8,6 12.6,5.7 13.1,5.1 C13.7,4.5 14,3.8 14,3 C14,2.2 13.7,1.4 13.1,0.9 C12,-0.2 10,-0.2 8.9,0.9 C8.3,1.4 8,2.2 8,3 C8,3.8 8.3,4.5 8.8,5 L7,8.1 L5.2,5 C5.7,4.5 6,3.8 6,3 C6,2.2 5.7,1.4 5.1,0.9 C4,-0.3 2,-0.3 0.9,0.9 C0.3,1.4 0,2.2 0,3 C0,3.8 0.3,4.6 0.9,5.1 C1.5,5.7 2.2,6 3,6 L3.4,6 L10.1,17.5 C10.3,17.8 10.6,18 11,18 C11.2,18 11.3,18 11.5,17.9 C12,17.6 12.1,17 11.9,16.5 L8.2,10.1 L10.6,5.9 C10.7,6 10.9,6 11,6 L11,6 Z M3.7,3.7 C3.3,4.1 2.7,4.1 2.3,3.7 C2.1,3.5 2,3.3 2,3 C2,2.7 2.1,2.5 2.3,2.3 C2.5,2.1 2.7,2 3,2 C3.3,2 3.5,2.1 3.7,2.3 C3.9,2.5 4,2.7 4,3 C4,3.3 3.9,3.5 3.7,3.7 L3.7,3.7 Z M10.3,2.3 C10.5,2.1 10.7,2 11,2 C11.3,2 11.5,2.1 11.7,2.3 C11.9,2.5 12,2.7 12,3 C12,3.3 11.9,3.5 11.7,3.7 C11.3,4.1 10.7,4.1 10.3,3.7 C10.1,3.5 10,3.3 10,3 C10,2.7 10.1,2.5 10.3,2.3 L10.3,2.3 Z" id="Shape"></path>
                <path d="M5.3,11.1 L2.2,16.5 C1.9,17 2,17.6 2.5,17.8 C2.7,17.9 2.8,18 3,18 C3.3,18 3.7,17.8 3.9,17.5 L6.5,13.1 L5.3,11.1 L5.3,11.1 Z" id="Shape"></path>
            </g>
        </g>
    </g>
</svg>