
<svg width="16px" height="20px" viewBox="2 0 16 20" version="1.1" xmlns="http://www.w3.org/2000/svg" xmlns:xlink="http://www.w3.org/1999/xlink">
    <!-- Generator: Sketch 39.1 (31720) - http://www.bohemiancoding.com/sketch -->
    <desc>Created with Sketch.</desc>
    <defs></defs>
    <g id="source" stroke="none" stroke-width="1" fill="none" fill-rule="evenodd" transform="translate(2.000000, 0.000000)">
        <g id="Layer_1" fill="#505F79">
            <path d="M4,9 C3.8,9 3.5,8.9 3.3,8.7 L0.4,5.8 C-1.38777878e-17,5.4 -1.38777878e-17,4.7 0.4,4.2 L3.4,1.2 C3.8,0.8 4.4,0.8 4.8,1.2 C5.2,1.6 5.2,2.2 4.8,2.6 L2.4,5 L4.7,7.3 C5.1,7.7 5.1,8.3 4.7,8.7 C4.5,8.9 4.3,9 4,9 L4,9 Z" id="Shape"></path>
            <path d="M3.5,19 C3.3,19 3.2,19 3,18.9 C2.5,18.6 2.3,18 2.6,17.5 L11.1,1.5 C11.4,1 12,0.9 12.5,1.1 C13,1.4 13.1,2 12.9,2.5 L4.4,18.5 C4.2,18.8 3.9,19 3.5,19 L3.5,19 Z" id="Shape"></path>
            <path d="M11.2,11 C11.5,11 11.7,11.1 11.9,11.3 L14.8,14.2 C15.2,14.6 15.2,15.3 14.8,15.8 L11.8,18.8 C11.4,19.2 10.8,19.2 10.4,18.8 C10,18.4 10,17.8 10.4,17.4 L12.7,15.1 L10.4,12.8 C10,12.4 10,11.8 10.4,11.4 C10.7,11.1 11,11 11.2,11 L11.2,11 Z" id="Shape"></path>
        </g>
    </g>
</svg>