
<svg width="18px" height="18px" viewBox="0 0 18 18" version="1.1" xmlns="http://www.w3.org/2000/svg" xmlns:xlink="http://www.w3.org/1999/xlink">
    <!-- Generator: Sketch 39.1 (31720) - http://www.bohemiancoding.com/sketch -->
    <desc>Created with Sketch.</desc>
    <defs></defs>
    <g id="teams" stroke="none" stroke-width="1" fill="none" fill-rule="evenodd">
        <g id="Layer_1" fill="currentColor">
            <g id="Snippet---personal">
                <g id="Group-4">
                    <g id="Page-1" transform="translate(8.000000, 10.000000)">
                        <path d="M8,5 C6.1908315,6.21785373 3.8292134,6.23753388 2,5.05 L2,2.5 C2,2.22385763 2.22385763,2 2.5,2 L7.5,2 C7.77614237,2 8,2.22385763 8,2.5 L8,5 L8,5 Z M7.5,0 L2.5,0 C1.11928813,0 0,1.11928813 0,2.5 L0,6 C1.36263391,7.2610301 3.14358917,7.9734122 5,8 C6.86538971,7.95246979 8.64689278,7.21492752 10,5.93 L10,2.5 C10,1.11928813 8.88071187,0 7.5,0 L7.5,0 L7.5,0 Z" id="Fill-1"></path>
                    </g>
                    <g id="Page-1-2" transform="translate(2.000000, 0.000000)">
                        <g id="Group-3" transform="translate(8.000000, 3.000000)">
                            <path d="M3,2 C3.55228475,2 4,2.44771525 4,3 C4,3.55228475 3.55228475,4 3,4 C2.44771525,4 2,3.55228475 2,3 C2,2.44771525 2.44771525,2 3,2 M3,6 C4.65685425,6 6,4.65685425 6,3 C6,1.34314575 4.65685425,0 3,0 C1.34314575,0 0,1.34314575 0,3 C-1.77635684e-15,4.65685425 1.34314575,6 3,6" id="Fill-1-2"></path>
                        </g>
                        <path d="M3,2 C3.55228475,2 4,2.44771525 4,3 C4,3.55228475 3.55228475,4 3,4 C2.44771525,4 2,3.55228475 2,3 C2,2.44771525 2.44771525,2 3,2 M3,6 C4.65685425,6 6,4.65685425 6,3 C6,1.34314575 4.65685425,1.01453063e-16 3,0 C1.34314575,-1.01453063e-16 0,1.34314575 -4.4408921e-16,3 C-8.8817842e-16,4.65685425 1.34314575,6 3,6" id="Fill-4"></path>
                    </g>
                    <g id="Page-1-3" transform="translate(0.000000, 7.000000)">
                        <path d="M7.5,-4.4408921e-16 L2.5,-4.4408921e-16 C1.11928813,4.44089216e-16 1.69088438e-16,1.11928813 0,2.5 L0,4.85 C1.35477878,6.13501438 3.13374169,6.87862087 5,6.94 C5.67677252,6.93499744 6.34967888,6.83742602 7,6.65 L7,4.53 C5.36013913,5.21506993 3.48733938,5.04277236 2,4.07 L2,2.5 C2,2.36739176 2.05267842,2.2402148 2.14644661,2.14644661 C2.2402148,2.05267842 2.36739176,2 2.5,2 L9.95,2 C9.71236571,0.835834364 8.68817155,-0.000242504196 7.5,1.33226763e-15" id="Fill-1-3"></path>
                    </g>
                </g>
            </g>
        </g>
    </g>
</svg>