
<svg width="22px" height="22px" viewBox="-1 -1 22 22" version="1.1" xmlns="http://www.w3.org/2000/svg" xmlns:xlink="http://www.w3.org/1999/xlink">
    <!-- Generator: Sketch 39.1 (31720) - http://www.bohemiancoding.com/sketch -->
    <desc>Created with Sketch.</desc>
    <defs></defs>
    <g id="wiki" stroke="none" stroke-width="1" fill="none" fill-rule="evenodd">
        <g id="Group" fill="currentColor">
            <g id="Boards" transform="translate(3.000000, 1.000000)">
                <path d="M12,7 L12,16 L2,16 L2,2 L8,2 L8,4.5 C8,5.3 8.7,6 9.5,6 L14,6 L14,5.5 C14,5.2 13.9,4.9 13.6,4.7 L8.5,0.5 C8.2,0.2 7.7,0 7.3,0 L2,0 C0.9,0 0,0.9 0,2 L0,16 C0,17.1 0.9,18 2,18 L12,18 C13.1,18 14,17.1 14,16 L14,7 L12,7 L12,7 Z" id="Shape"></path>
            </g>
        </g>
    </g>
</svg>