<svg width="24" height="24" viewBox="0 0 24 24" xmlns="http://www.w3.org/2000/svg"><title>date</title><path d="M6 8.51c0-.282.229-.51.5-.51h11c.276 0 .5.228.5.51v8.98c0 .282-.229.51-.5.51h-11a.505.505 0 0 1-.5-.51V8.51zm2 2.995c0-.279.214-.505.505-.505h.99c.279 0 .505.214.505.505v.99a.497.497 0 0 1-.505.505h-.99A.497.497 0 0 1 8 12.495v-.99zm3 0c0-.279.214-.505.505-.505h.99c.279 0 .505.214.505.505v.99a.497.497 0 0 1-.505.505h-.99a.497.497 0 0 1-.505-.505v-.99zm-3 3c0-.279.214-.505.505-.505h.99c.279 0 .505.214.505.505v.99a.497.497 0 0 1-.505.505h-.99A.497.497 0 0 1 8 15.495v-.99zM7.5 8h3v1h-3V8zm6 0h3v1h-3V8zm.5-1.495c0-.279.214-.505.505-.505h.99c.279 0 .505.214.505.505V8h-2V6.505zm-6 0C8 6.226 8.214 6 8.505 6h.99c.279 0 .505.214.505.505V8H8V6.505z" fill="currentColor" fill-rule="evenodd"/></svg>