<svg width="24" height="24" viewBox="0 0 24 24" xmlns="http://www.w3.org/2000/svg" xmlns:xlink="http://www.w3.org/1999/xlink"><title>file</title><defs><path d="M0 2.997C0 2.447.444 2 1 2h1v8H1c-.552 0-1-.453-1-.997V2.997zm11.994.778v-.13a.679.679 0 0 0-.231-.512L8.5.31a1.279 1.279 0 0 0-.332-.204L8.143.093A1.252 1.252 0 0 0 7.677 0H4.286C3.576 0 3 .597 3 1.333v9.334C3 11.403 3.575 12 4.286 12h6.428c.71 0 1.286-.597 1.286-1.333V3.775h-.006zM7.997 4c-.274 0-.497-.287-.497-.64V1L11 4H7.997zm.028 6H6.083C5.485 10 5 9.528 5 8.946c0-.582.485-1.054 1.083-1.054.18 0 .351.043.5.119A1.54 1.54 0 0 1 8.043 7c.851 0 1.541.672 1.541 1.5v.05c.248.13.417.386.417.68 0 .425-.354.77-.792.77H8.025h.017-.017z" id="a"/></defs><use fill="currentColor" xlink:href="#a" transform="translate(6 6)" fill-rule="evenodd"/></svg>