
<svg width="20px" height="27px" viewBox="10 6 20 27" version="1.1" xmlns="http://www.w3.org/2000/svg" xmlns:xlink="http://www.w3.org/1999/xlink">
    <!-- Generator: Sketch 39.1 (31720) - http://www.bohemiancoding.com/sketch -->
    <desc>Created with Sketch.</desc>
    <defs></defs>
    <path d="M14.2507439,7.5781015 C13.3060206,7.5781015 12.5410651,8.35031663 12.5410651,9.30756479 C12.5410651,10.2624306 13.3060206,11.0373457 14.2507439,11.0373457 C15.1962529,11.0373457 15.9604228,10.2624306 15.9604228,9.30756479 C15.9604228,8.35031663 15.1962529,7.5781015 14.2507439,7.5781015 Z M25.4830826,7.5781015 C24.5378879,7.5781015 23.7738751,8.35031663 23.7738751,9.30756479 C23.7738751,10.2624306 24.5378879,11.0373457 25.4830826,11.0373457 C26.4256059,11.0373457 27.1924472,10.2624306 27.1924472,9.30756479 C27.1924472,8.35031663 26.4256059,7.57937211 25.4830826,7.5781015 Z M19.8669132,6 C18.92219,6 18.1572344,6.7720563 18.1572344,7.72962212 C18.1572344,8.68448788 18.92219,9.45956189 19.8669132,9.45956189 C20.8122651,9.45956189 21.5762778,8.68448788 21.5762778,7.72962212 C21.5762778,6.7720563 20.8122651,6 19.8669132,6 Z M29.5248702,12.3973783 C29.4296437,12.324318 29.3154032,12.2863584 29.1994341,12.2863584 C29.1350069,12.2863584 29.0699511,12.2982704 29.0083524,12.3222533 C27.8507049,12.7696679 26.6751436,13.1093981 25.6021944,13.3620913 C25.3832989,13.4137099 25.2065169,13.5779367 25.1332898,13.7751994 C24.3515203,15.93953 22.355376,18.0004645 20.2610194,20.1590774 C20.1769497,20.2397613 20.0592521,20.3461751 19.8675418,20.3461751 C19.6763029,20.3461751 19.5597053,20.2430966 19.4740642,20.1590774 C17.3800219,18.0004645 15.3838776,15.9466772 14.6017938,13.7821877 C14.5284096,13.5850839 14.3516275,13.4208571 14.1332035,13.3690796 C13.0596257,13.1163865 11.8810787,12.7661737 10.7248456,12.3187591 C10.6629326,12.2949351 10.5978768,12.2830231 10.5332924,12.2830231 C10.4173234,12.2830231 10.3051257,12.3198709 10.2102134,12.3930899 C10.0618736,12.5074451 9.98487518,12.6929546 10.0024748,12.8711581 C10.1797283,14.6709816 10.8833994,16.4304631 12.1532445,18.2742816 C13.3468769,20.0077156 14.9038161,21.6123411 16.4090563,23.1639186 C19.1825703,26.0232746 21.8025588,28.723804 22.0324541,31.8553888 C22.0531965,32.1377826 22.2860774,32.3568045 22.5668859,32.3568045 L25.8253326,32.3568045 C25.972101,32.3568045 26.1122695,32.2958151 26.2136246,32.1882895 C26.3145082,32.0809227 26.3679357,31.9367081 26.3605501,31.788364 C26.2580951,29.6947112 25.4785255,27.5980407 23.9773709,25.3792326 C23.6627774,24.9140293 23.3258701,24.4613734 22.9735632,24.0184059 C22.830409,23.8379788 22.8902792,23.6138744 22.9998055,23.5007899 C23.1080747,23.3888171 23.2168153,23.277162 23.3261844,23.1639186 C24.8315818,21.6121823 26.3882067,20.0077156 27.5821534,18.2742816 C28.8518413,16.4303043 29.5551982,14.6811465 29.7326088,12.8816407 C29.7503656,12.7007371 29.6691244,12.5088746 29.5248702,12.3973783 Z M16.3708714,25.5998428 C16.293873,25.5183647 16.1805754,25.4351395 15.9904364,25.4351395 C15.7471843,25.4351395 15.6029302,25.605084 15.5484027,25.6892622 C14.1778311,27.7973682 13.4699172,29.7869895 13.3720193,31.7864581 C13.364948,31.9338492 13.4186897,32.0802873 13.5195734,32.1879718 C13.6209284,32.295021 13.7629826,32.3568045 13.9094367,32.3568045 L17.1623836,32.3568045 C17.4422492,32.3568045 17.6779586,32.1354002 17.6985439,31.8533241 C17.7694139,30.8897228 18.0662506,29.9237392 18.6066537,28.9086782 C18.7939641,28.5575125 18.6484528,28.2276295 18.540655,28.0865915 C18.0044947,27.3818777 17.3478083,26.6301512 16.3708714,25.5998428 Z M19.8705275,14.0108981 C20.8917777,14.0108981 21.4840369,13.9489557 21.6920897,13.9489557 C21.9441416,13.9489557 22.1850366,14.1576539 22.1850366,14.4498949 C22.1850366,14.5351848 22.1650799,14.5961743 22.1452803,14.6500165 C22.009826,15.0159531 21.3925816,16.3326259 20.2434197,17.4620422 C20.1145653,17.5887858 19.9684254,17.612451 19.8678561,17.612451 L19.866599,17.612451 C19.7661868,17.612451 19.6202041,17.5887858 19.4913496,17.4620422 C18.3421877,16.3326259 17.7247862,15.0159531 17.5896462,14.6500165 C17.5696894,14.5961743 17.5497327,14.5351848 17.5497327,14.4498949 C17.5497327,14.1576539 17.790942,13.9489557 18.0429939,13.9489557 C18.2510467,13.9489557 18.8429916,14.0108981 19.8637705,14.0108981 L19.8705275,14.0108981 Z" id="Combined-Shape" stroke="none" fill="currentColor" fill-rule="evenodd"></path>
</svg>
