<?xml version="1.0" encoding="UTF-8" standalone="no"?>
<svg width="8px" height="8px" viewBox="0 0 8 8" version="1.1" xmlns="http://www.w3.org/2000/svg" xmlns:xlink="http://www.w3.org/1999/xlink">
    <!-- Generator: Sketch 39.1 (31720) - http://www.bohemiancoding.com/sketch -->
    <title>Busy</title>
    <desc>Created with Sketch.</desc>
    <defs></defs>
    <g id="User---presence" stroke="none" stroke-width="1" fill="none" fill-rule="evenodd">
        <g id="Busy" fill="#ED5451">
            <path d="M4,8 C6.209139,8 8,6.209139 8,4 C8,1.790861 6.209139,0 4,0 C1.790861,0 0,1.790861 0,4 C0,6.209139 1.790861,8 4,8 Z M2.58247403,1.88199206 C2.77956557,1.68490052 3.0912573,1.67704374 3.29126601,1.87705245 L6.12294755,4.70873399 C6.31731101,4.90309745 6.32352811,5.2120058 6.11800794,5.41752597 L5.41752597,6.11800794 C5.22043443,6.31509948 4.9087427,6.32295626 4.70873399,6.12294755 L1.87705245,3.29126601 C1.68268899,3.09690255 1.67647189,2.7879942 1.88199206,2.58247403 L2.58247403,1.88199206 Z" id="Combined-Shape-Copy-5"></path>
        </g>
    </g>
</svg>