<?xml version="1.0" encoding="UTF-8" standalone="no"?>
<svg width="8px" height="8px" viewBox="0 0 8 8" version="1.1" xmlns="http://www.w3.org/2000/svg" xmlns:xlink="http://www.w3.org/1999/xlink">
    <!-- Generator: Sketch 39.1 (31720) - http://www.bohemiancoding.com/sketch -->
    <title>Unavailable</title>
    <desc>Created with Sketch.</desc>
    <defs></defs>
    <g id="User---presence" stroke="none" stroke-width="1" fill="none" fill-rule="evenodd">
        <g id="Unavailable">
            <g id="presence---offline">
                <path d="M4,8 C6.209139,8 8,6.209139 8,4 C8,1.790861 6.209139,0 4,0 C1.790861,0 0,1.790861 0,4 C0,6.209139 1.790861,8 4,8 Z M4,6 C5.1045695,6 6,5.1045695 6,4 C6,2.8954305 5.1045695,2 4,2 C2.8954305,2 2,2.8954305 2,4 C2,5.1045695 2.8954305,6 4,6 Z" id="Combined-Shape-Copy-14" fill="#6C798E"></path>
                <path d="M4,6 C5.1045695,6 6,5.1045695 6,4 C6,2.8954305 5.1045695,2 4,2 C2.8954305,2 2,2.8954305 2,4 C2,5.1045695 2.8954305,6 4,6 Z" id="Combined-Shape-Copy-14" fill="#CFD4DB"></path>
            </g>
        </g>
    </g>
</svg>