<?xml version="1.0" encoding="UTF-8" standalone="no"?>
<svg width="24px" height="24px" viewBox="0 0 24 24" version="1.1" xmlns="http://www.w3.org/2000/svg" xmlns:xlink="http://www.w3.org/1999/xlink">
    <!-- Generator: Sketch 41 (35326) - http://www.bohemiancoding.com/sketch -->
    <title>editor 24x20/editor-addon</title>
    <desc>Created with Sketch.</desc>
    <defs></defs>
    <g id="24-x-20" stroke="none" stroke-width="1" fill="none" fill-rule="evenodd">
        <g id="editor-24x20/editor-addon" fill="#42526E">
            <g id="addon" transform="translate(2.000000, 4.000000)">
                <path d="M5.27333204,12.6531705 C5.0096209,13.4266472 4.79278211,13.7823965 4.24630107,14.0864129 C3.02990752,14.7633284 2.04620789,14.5093457 1.34083121,13.331561 C0.630277142,12.1458145 0.899159445,11.1790308 2.12355756,10.4980645 C2.67669572,10.1903446 3.0839788,10.1913848 3.91026027,10.3585746 C4.02084723,10.3809661 4.10813681,10.3979324 4.18204054,10.4108295 L2.13258817,6.9912033 C1.99583697,6.76302624 2.07553514,6.4679377 2.30898368,6.33808556 L5.19851832,4.73082659 C5.47879315,4.57492805 5.83111866,4.73343648 5.89741927,5.04525652 C5.93148882,5.20548989 5.9915185,5.35674511 6.0806128,5.5052568 C6.7069184,6.54984799 7.51671234,6.75885732 8.60698289,6.15259046 C9.68903541,5.55074232 9.90077776,4.78951207 9.27919592,3.752799 C9.18964536,3.60310032 9.0830975,3.47649427 8.95607583,3.36841937 C8.70501198,3.15480464 8.74467622,2.75865943 9.03319701,2.5981742 L11.9227316,0.990915228 C12.1480522,0.865584181 12.4330492,0.941279575 12.5650387,1.16151238 L14.6331675,4.61231598 C14.6597023,4.54183158 14.6893733,4.45712779 14.7267009,4.34738691 C14.9906683,3.57366152 15.2073613,3.21815163 15.7536989,2.91456849 C16.9700157,2.23769577 17.9537057,2.49156729 18.6591688,3.66909329 C19.3697327,4.85485621 19.100823,5.82196043 17.8765581,6.50285258 C17.5064763,6.70886959 17.13229,6.77584988 16.7115003,6.74196899 C16.5303178,6.72738065 16.394581,6.70407906 16.0903995,6.64273393 C15.9798849,6.62035708 15.892606,6.60338455 15.8185935,6.59045354 L17.866759,10.008154 C18.0034966,10.2363232 17.9238059,10.531394 17.6903751,10.6612498 L14.6764707,12.3378633 C14.3648732,12.5112028 13.9789147,12.2951614 13.9675472,11.9410413 C13.9593966,11.6871336 13.8941969,11.4533944 13.7527447,11.2179018 C13.1267171,10.1733203 12.3166375,9.96411297 11.2267065,10.5703432 C10.1445807,11.172081 9.9328013,11.9335657 10.5538748,12.9698809 C10.6961063,13.206904 10.8759063,13.3803224 11.1032325,13.5160906 C11.4161457,13.7029748 11.4091095,14.1552383 11.0905315,14.3324609 L8.07662715,16.0090744 C7.85130278,16.1344208 7.56628997,16.0587258 7.43429806,15.8384818 L5.36675472,12.388543 C5.34024611,12.458969 5.31060646,12.543586 5.27333204,12.6531705 Z" id="Shape"></path>
            </g>
        </g>
    </g>
</svg>