
<svg width="17px" height="17px" viewBox="92 367 17 17" version="1.1" xmlns="http://www.w3.org/2000/svg" xmlns:xlink="http://www.w3.org/1999/xlink">
    <!-- Generator: Sketch 39.1 (31720) - http://www.bohemiancoding.com/sketch -->
    <desc>Created with Sketch.</desc>
    <defs></defs>
    <path d="M107.183,375.4 C107.183,374.351 107.829,373.525 108.8,372.957 C108.624,372.373 108.393,371.812 108.108,371.285 C107.019,371.57 106.138,371.144 105.397,370.402 C104.656,369.662 104.429,368.781 104.714,367.691 C104.187,367.406 103.626,367.173 103.042,367 C102.474,367.97 101.447,368.615 100.4,368.615 C99.352,368.615 98.326,367.97 97.757,367 C97.172,367.173 96.613,367.406 96.086,367.691 C96.371,368.781 96.145,369.662 95.402,370.402 C94.662,371.144 93.781,371.57 92.691,371.285 C92.406,371.812 92.174,372.373 92,372.957 C92.97,373.525 93.615,374.351 93.615,375.4 C93.615,376.447 92.97,377.474 92,378.043 C92.175,378.627 92.406,379.187 92.691,379.715 C93.781,379.43 94.662,379.656 95.402,380.397 C96.143,381.139 96.371,382.02 96.086,383.108 C96.613,383.393 97.173,383.626 97.758,383.801 C98.326,382.828 99.353,382.184 100.401,382.184 C101.448,382.184 102.475,382.829 103.044,383.801 C103.628,383.625 104.188,383.393 104.716,383.108 C104.431,382.02 104.657,381.139 105.399,380.397 C106.14,379.657 107.021,379.231 108.11,379.514 C108.395,378.987 108.627,378.428 108.802,377.842 C107.829,377.273 107.183,376.447 107.183,375.4 L107.183,375.4 Z M100.4,379.052 C98.382,379.052 96.747,377.417 96.747,375.4 C96.747,373.382 98.383,371.746 100.4,371.746 C102.418,371.746 104.052,373.383 104.052,375.4 C104.052,377.418 102.418,379.052 100.4,379.052 L100.4,379.052 Z" id="Shape-Copy-6" stroke="none" fill="currentColor" fill-rule="evenodd"></path>
</svg>
