<?xml version="1.0" encoding="UTF-8" standalone="no"?>
<svg width="20px" height="20px" viewBox="0 0 9 16" version="1.1" xmlns="http://www.w3.org/2000/svg" xmlns:xlink="http://www.w3.org/1999/xlink">
    <!-- Generator: Sketch 40.1 (33804) - http://www.bohemiancoding.com/sketch -->
    <title>right-chevron</title>
    <desc>Created with Sketch.</desc>
    <defs></defs>
    <g id="Page-1" stroke="none" stroke-width="1" fill="none" fill-rule="evenodd">
        <g id="right-chevron" transform="translate(4.000000, 8.000000) rotate(180.000000) translate(-4.000000, -8.000000) translate(-1.000000, 0.000000)" fill="#243759">
            <path d="M2.4139,8.0013 L8.7089,1.7063 C9.0979,1.3173 9.0979,0.6803 8.7089,0.2913 C8.3209,-0.0977 7.6839,-0.0977 7.2949,0.2913 L0.2989,7.2883 C0.2959,7.2903 0.2939,7.2913 0.2919,7.2933 C0.0969,7.4873 -0.0001,7.7443 -0.0001,8.0013 C-0.0001,8.2583 0.0969,8.5153 0.2919,8.7093 C0.2939,8.7113 0.2969,8.7123 0.2989,8.7143 L7.2929,15.7083 C7.6819,16.0973 8.3179,16.0973 8.7069,15.7083 C9.0959,15.3193 9.0959,14.6833 8.7069,14.2943 L2.4139,8.0013 Z" id="Fill-1"></path>
        </g>
    </g>
</svg>
