<?xml version="1.0" encoding="UTF-8" standalone="no"?>
<svg width="20px" height="19px" viewBox="0 0 20 19" version="1.1" xmlns="http://www.w3.org/2000/svg" xmlns:xlink="http://www.w3.org/1999/xlink">
    <!-- Generator: Sketch 40 (33762) - http://www.bohemiancoding.com/sketch -->
    <title>Atlassian logo</title>
    <desc>Created with Sketch.</desc>
    <defs></defs>
    <g id="Page-1" stroke="none" stroke-width="1" fill="none" fill-rule="evenodd">
        <g id="charlie-dark-20px" fill="currentColor">
            <path d="M19.8884969,0.245970377 C19.8000038,0.1270215 19.6584271,0.0561414238 19.5105514,0.0561414238 C19.4341061,0.0561414238 19.3586393,0.0753444816 19.2927129,0.111487817 C16.5198892,1.62938557 13.3055786,2.43206116 9.99720975,2.4329785 C6.6888409,2.43206116 3.47453034,1.62944673 0.701828954,0.111671285 C0.63578022,0.0754056378 0.560435738,0.0562637363 0.483990444,0.0562637363 C0.335808887,0.0562637363 0.194476828,0.127082656 0.105983755,0.245542284 C-0.0252575251,0.420082179 -0.0294161491,0.71277592 0.194171046,0.887376971 C1.58284568,1.92269087 3.1136474,2.73087052 4.74407262,3.28366173 C6.43412518,3.85706259 8.20129575,4.14816627 9.99647587,4.14902246 L9.99776015,4.14902246 C11.7931849,4.14816627 13.5603555,3.85700143 15.2501634,3.28366173 C16.8808333,2.73074821 18.4115738,1.92269087 19.802022,0.88609269 C20.0238356,0.71277592 20.0194935,0.419959866 19.8884969,0.245970377 Z M16.7018901,4.56959388 C16.6358414,4.51932346 16.5564606,4.49339322 16.4759178,4.49339322 C16.4312738,4.49339322 16.3860793,4.50140468 16.3433311,4.51785571 C15.5396159,4.8252881 14.7234247,5.0586603 13.9786641,5.23209938 C13.8266297,5.26769231 13.7039503,5.38040325 13.6530683,5.51592547 C13.1103067,7.00251123 11.7245065,8.41797229 10.2704558,9.90076636 C10.2121739,9.95617391 10.1304692,10.0292556 9.99733206,10.0292556 C9.86474534,10.0292556 9.78359102,9.95855901 9.72426947,9.90076636 C8.27034114,8.41797229 6.88460201,7.00752604 6.34171811,5.52069565 C6.29083612,5.38541806 6.16809556,5.27252365 6.01630578,5.23699188 C5.27099474,5.06343048 4.45284663,4.82271954 3.6502322,4.51547062 C3.6070559,4.49908075 3.56198376,4.49100812 3.51715624,4.49100812 C3.43673579,4.49100812 3.35882274,4.51638796 3.29289632,4.56659723 C3.18990922,4.64512183 3.13651983,4.77257143 3.14862876,4.89506737 C3.27179742,6.13121835 3.76025227,7.33978786 4.6418194,8.60621118 C5.47048638,9.79686192 6.55136168,10.8989584 7.59633827,11.9647893 C9.52178118,13.9287606 11.3406899,15.7836904 11.50043,17.9346163 C11.5147406,18.1284816 11.6762542,18.2789871 11.8712814,18.2789871 L14.1334505,18.2789871 C14.2353368,18.2789871 14.3326976,18.2370339 14.4029661,18.1632183 C14.4731734,18.0894028 14.5102341,17.990452 14.505097,17.8885045 C14.4339723,16.4504768 13.8926785,15.0103698 12.8506374,13.4863564 C12.6321873,13.1667539 12.3982647,12.855958 12.1536398,12.5515834 C12.0543832,12.427742 12.0959694,12.2737506 12.1719255,12.1962656 C12.2470865,12.1191476 12.3225533,12.0425189 12.398387,11.9647893 C13.4435471,10.8988361 14.5243,9.79686192 15.3531505,8.60621118 C16.2345342,7.3396044 16.7229279,6.13819016 16.8460965,4.90210033 C16.8583889,4.77795318 16.8020029,4.64610033 16.7018901,4.56959388 Z M7.56979646,13.6378404 C7.51628476,13.5818825 7.437699,13.5247014 7.30572384,13.5247014 C7.13693263,13.5247014 7.03669756,13.6415098 6.9987807,13.6993636 C6.04731199,15.1472375 5.55592164,16.5138347 5.48791591,17.8871591 C5.48302341,17.9884338 5.52026756,18.0889747 5.59041376,18.1630349 C5.66068227,18.2365447 5.75938844,18.2789871 5.8610301,18.2789871 L8.11940755,18.2789871 C8.31370091,18.2789871 8.47735499,18.1268304 8.49154324,17.9330874 C8.54077401,17.2712547 8.74680936,16.6077707 9.12200287,15.9105284 C9.25208218,15.6693282 9.15105208,15.4427444 9.07613569,15.3459341 C8.70381653,14.8618825 8.24801911,14.3455404 7.56979646,13.6378404 Z M9.99947253,5.67780602 C10.7083956,5.67780602 11.1196101,5.63524128 11.264,5.63524128 C11.4390291,5.63524128 11.6062303,5.7785915 11.6062303,5.97930626 C11.6062303,6.03783278 11.592409,6.07978595 11.5787711,6.11672432 C11.4845294,6.36819876 11.0560688,7.27251601 10.258408,8.04828285 C10.1688141,8.13524701 10.0674171,8.15157573 9.99763784,8.15157573 L9.9967205,8.15157573 C9.92694123,8.15157573 9.82566651,8.13524701 9.73619494,8.04828285 C8.93841185,7.27251601 8.50982895,6.36819876 8.41595413,6.11672432 C8.40201051,6.07978595 8.38825036,6.03783278 8.38825036,5.97930626 C8.38825036,5.7785915 8.55569613,5.63524128 8.73072527,5.63524128 C8.87511515,5.63524128 9.2861462,5.67780602 9.99482465,5.67780602 L9.99947253,5.67780602 Z" id="Combined-Shape"></path>
        </g>
    </g>
</svg>
