<?xml version="1.0" encoding="UTF-8" standalone="no"?>
<svg width="24px" height="24px" viewBox="0 0 24 24" version="1.1" xmlns="http://www.w3.org/2000/svg" xmlns:xlink="http://www.w3.org/1999/xlink">
    <!-- Generator: Sketch 41 (35326) - http://www.bohemiancoding.com/sketch -->
    <title>Attachment</title>
    <desc>Created with Sketch.</desc>
    <defs></defs>
    <g id="24-x-20" stroke="none" stroke-width="1" fill="none" fill-rule="evenodd">
        <g id="editor-24x20/editor-attachment" fill="currentColor">
            <g id="attachment" transform="translate(2.000000, 2.000000)">
                <path d="M9.60399043,16.5546882 C8.0127653,18.1179971 5.4287678,18.1186393 3.84150498,16.5592232 C2.25483706,15.0003915 2.25758349,12.4585023 3.84317772,10.9007255 L11.2759515,3.59835132 C12.2088124,2.68185634 13.7045863,2.67904197 14.6375103,3.59559885 C15.5661082,4.50790557 15.5677562,5.98150472 14.6412815,6.89172551 L7.67092703,13.739793 C7.41020662,13.9959394 6.98926536,13.9949054 6.72043973,13.730796 C6.45131512,13.4663929 6.4501774,13.0535079 6.72043973,12.787987 L13.1980429,6.42402598 C13.5955409,6.03350168 13.5955409,5.40033671 13.1980429,5.00981241 C12.800545,4.61928812 12.1560735,4.61928812 11.7585755,5.00981241 L5.28097236,11.3737734 C4.21396423,12.4220621 4.21859134,14.1012669 5.28097236,15.1450096 C6.34318707,16.188589 8.05306241,16.1927889 9.11039441,15.1540066 L16.0807488,8.30593907 C17.8029284,6.61397319 17.7998642,3.87404577 16.0769777,2.18138529 C14.347821,0.482564662 11.5631093,0.487804223 9.8364841,2.18413775 L2.40371034,9.48651197 C0.0238035477,11.824666 0.0196888919,15.6328836 2.4020376,17.9734367 C4.78445937,20.3140616 8.65739978,20.3130991 11.0434578,17.9689018 L17.9962675,11.1380712 C18.3937655,10.7475469 18.3937655,10.1143819 17.9962675,9.72385762 C17.5987696,9.33333333 16.9542981,9.33333333 16.5568001,9.72385762 L9.60399043,16.5546882 Z" id="Shape"></path>
            </g>
        </g>
    </g>
</svg>