<?xml version="1.0" encoding="UTF-8" standalone="no"?>
<svg width="24px" height="24px" viewBox="0 0 24 24" version="1.1" xmlns="http://www.w3.org/2000/svg" xmlns:xlink="http://www.w3.org/1999/xlink">
    <!-- Generator: Sketch 41 (35326) - http://www.bohemiancoding.com/sketch -->
    <title>Photo</title>
    <desc>Created with Sketch.</desc>
    <defs></defs>
    <g id="24-x-20" stroke="none" stroke-width="1" fill="none" fill-rule="evenodd">
        <g id="editor-24x20/editor-photo" fill="currentColor">
            <g id="photo" transform="translate(2.000000, 4.000000)">
                <path d="M0,1.95523292 C0,1.67871087 0.224609375,1.45454545 0.494384766,1.45454545 L19.5056152,1.45454545 C19.7786564,1.45454545 20,1.68301981 20,1.95523292 L20,15.4993125 C20,15.7758346 19.7753906,16 19.5056152,16 L0.494384766,16 C0.221343599,16 0,15.7715256 0,15.4993125 L0,1.95523292 Z M7.14285714,0.492442738 C7.14285714,0.220474124 7.35988617,0 7.64996188,0 L12.3500381,0 C12.6301043,0 12.8571429,0.227272727 12.8571429,0.492442738 L12.8571429,1.45454545 L7.14285714,1.45454545 L7.14285714,0.492442738 Z M10,13.8181818 C12.7614237,13.8181818 15,11.5389042 15,8.72727273 C15,5.91564127 12.7614237,3.63636364 10,3.63636364 C7.23857625,3.63636364 5,5.91564127 5,8.72727273 C5,11.5389042 7.23857625,13.8181818 10,13.8181818 Z M10,11.6363636 C11.5779564,11.6363636 12.8571429,10.3339193 12.8571429,8.72727273 C12.8571429,7.12062618 11.5779564,5.81818182 10,5.81818182 C8.42204357,5.81818182 7.14285714,7.12062618 7.14285714,8.72727273 C7.14285714,10.3339193 8.42204357,11.6363636 10,11.6363636 Z" id="Shape"></path>
            </g>
        </g>
    </g>
</svg>