<?xml version="1.0" encoding="UTF-8" standalone="no"?>
<svg width="20px" height="20px" viewBox="31 324 19 17" version="1.1" xmlns="http://www.w3.org/2000/svg" xmlns:xlink="http://www.w3.org/1999/xlink">
    <!-- Generator: Sketch 3.8.2 (29753) - http://www.bohemiancoding.com/sketch -->
    <desc>Created with Sketch.</desc>
    <defs></defs>
    <path fill="currentColor" d="M45.9403988,324.709263 C42.4123988,323.523263 38.8743988,323.748263 35.2203988,325.983263 C32.3673988,327.726263 30.5023988,332.059263 31.1173988,335.165263 C31.8453988,338.836263 35.4683988,341.160263 40.3603988,339.816263 C45.6353988,338.367263 46.9093988,335.270263 46.7393988,334.482263 C46.5693988,333.694263 44.0743988,332.830263 45.0213988,330.984263 C46.2093988,328.671263 48.1503988,329.835263 49.0033988,329.362263 C49.8583988,328.890263 49.5423988,325.920263 45.9403988,324.709263 L45.9403988,324.709263 Z M42.2943988,335.415263 C41.4963988,335.633263 40.6713988,335.159263 40.4513988,334.356263 C40.2303988,333.551263 40.6993988,332.725263 41.4973988,332.507263 C42.2953988,332.289263 43.1193988,332.761263 43.3403988,333.566263 C43.5603988,334.369263 43.0923988,335.197263 42.2943988,335.415263 L42.2943988,335.415263 Z" id="Shape" stroke="none" fill-rule="evenodd"></path>
</svg>
