<?xml version="1.0" encoding="UTF-8" standalone="no"?>
<svg width="24px" height="24px" viewBox="0 0 24 24" version="1.1" xmlns="http://www.w3.org/2000/svg" xmlns:xlink="http://www.w3.org/1999/xlink">
    <!-- Generator: Sketch 41 (35326) - http://www.bohemiancoding.com/sketch -->
    <title>Date</title>
    <desc>Created with Sketch.</desc>
    <defs></defs>
    <g id="24-x-20" stroke="none" stroke-width="1" fill="none" fill-rule="evenodd">
        <g id="editor-24x20/editor-date" fill="currentColor">
            <g id="date" transform="translate(2.000000, 2.000000)">
                <path d="M0,3.83213356 C0,3.5566538 0.224609375,3.33333333 0.494384766,3.33333333 L19.5056152,3.33333333 C19.7786564,3.33333333 20,3.55633542 20,3.83213356 L20,19.5011998 C20,19.7766795 19.7753906,20 19.5056152,20 L0.494384766,20 C0.221343599,20 0,19.7769979 0,19.5011998 L0,3.83213356 Z M3.33333333,8.82517815 C3.33333333,8.55353976 3.55204264,8.33333333 3.82517815,8.33333333 L6.17482185,8.33333333 C6.44646024,8.33333333 6.66666667,8.55204264 6.66666667,8.82517815 L6.66666667,11.1748219 C6.66666667,11.4464602 6.44795736,11.6666667 6.17482185,11.6666667 L3.82517815,11.6666667 C3.55353976,11.6666667 3.33333333,11.4479574 3.33333333,11.1748219 L3.33333333,8.82517815 Z M8.33333333,8.82517815 C8.33333333,8.55353976 8.55204264,8.33333333 8.82517815,8.33333333 L11.1748219,8.33333333 C11.4464602,8.33333333 11.6666667,8.55204264 11.6666667,8.82517815 L11.6666667,11.1748219 C11.6666667,11.4464602 11.4479574,11.6666667 11.1748219,11.6666667 L8.82517815,11.6666667 C8.55353976,11.6666667 8.33333333,11.4479574 8.33333333,11.1748219 L8.33333333,8.82517815 Z M3.33333333,13.8251781 C3.33333333,13.5535398 3.55204264,13.3333333 3.82517815,13.3333333 L6.17482185,13.3333333 C6.44646024,13.3333333 6.66666667,13.5520426 6.66666667,13.8251781 L6.66666667,16.1748219 C6.66666667,16.4464602 6.44795736,16.6666667 6.17482185,16.6666667 L3.82517815,16.6666667 C3.55353976,16.6666667 3.33333333,16.4479574 3.33333333,16.1748219 L3.33333333,13.8251781 Z M2.5,3.33333333 L7.5,3.33333333 L7.5,5 L2.5,5 L2.5,3.33333333 Z M12.5,3.33333333 L17.5,3.33333333 L17.5,5 L12.5,5 L12.5,3.33333333 Z M13.3333333,0.491844813 C13.3333333,0.220206424 13.5520426,0 13.8251781,0 L16.1748219,0 C16.4464602,0 16.6666667,0.21870931 16.6666667,0.491844813 L16.6666667,3.33333333 L13.3333333,3.33333333 L13.3333333,0.491844813 Z M3.33333333,0.491844813 C3.33333333,0.220206424 3.55204264,0 3.82517815,0 L6.17482185,0 C6.44646024,0 6.66666667,0.21870931 6.66666667,0.491844813 L6.66666667,3.33333333 L3.33333333,3.33333333 L3.33333333,0.491844813 Z" id="Shape"></path>
            </g>
        </g>
    </g>
</svg>