<?xml version="1.0" encoding="UTF-8" standalone="no"?>
<svg width="24px" height="24px" viewBox="0 0 24 24" version="1.1" xmlns="http://www.w3.org/2000/svg" xmlns:xlink="http://www.w3.org/1999/xlink">
    <!-- Generator: Sketch 41 (35326) - http://www.bohemiancoding.com/sketch -->
    <title>jira/global issue/detail view</title>
    <desc>Created with Sketch.</desc>
    <defs>
        <path d="M12,5 L20.000385,5 C21.1047419,5 22,5.89706013 22,7.00585866 L22,16.9941413 C22,18.1019465 21.1125667,19 20.000385,19 L12,19 L12,5 Z" id="path-1"></path>
        <mask id="mask-2" maskContentUnits="userSpaceOnUse" maskUnits="objectBoundingBox" x="0" y="0" width="10" height="14" fill="white">
            <use xlink:href="#path-1"></use>
        </mask>
    </defs>
    <g id="icons" stroke="none" stroke-width="1" fill="none" fill-rule="evenodd">
        <g id="jira/global-issue/detail-view">
            <g id="detail-view_icon_24x24_02">
                <g id="icon_container_transparent">
                    <rect x="0" y="0" width="24" height="24"></rect>
                </g>
                <use id="Rectangle-11-Copy" stroke="#243759" mask="url(#mask-2)" stroke-width="4" xlink:href="#path-1"></use>
                <path d="M2,7 L10,7 L10,5 L2.99703014,5 C2.4463856,5 2,5.44386482 2,6 L2,7 Z" id="Line" fill="#243759"></path>
                <path d="M3,10 L9,10" id="Line-Copy-2" stroke="#243759" stroke-width="2" stroke-linecap="square"></path>
                <path d="M2,18 C2,18.5522847 2.45303631,19 2.99703014,19 L10,19 L10,17 L2,17 L2,18 Z" id="Line-Copy-3" fill="#243759"></path>
                <path d="M3,14 L9,14" id="Line-Copy" stroke="#243759" stroke-width="2" stroke-linecap="square"></path>
            </g>
        </g>
    </g>
</svg>