<?xml version="1.0" encoding="UTF-8" standalone="no"?>
<svg width="24px" height="24px" viewBox="0 0 24 24" version="1.1" xmlns="http://www.w3.org/2000/svg" xmlns:xlink="http://www.w3.org/1999/xlink">
    <!-- Generator: Sketch 41 (35326) - http://www.bohemiancoding.com/sketch -->
    <title>Export</title>
    <desc>Created with Sketch.</desc>
    <defs>
        <path d="M15,9 L17,9 C18.1045695,9 19,9.90195036 19,11.0085302 L19,18.9914698 C19,20.1007504 18.1029399,21 16.9941413,21 L7.00585866,21 C5.89805351,21 5,20.0980496 5,18.9914698 L5,11.0085302 L5,11.0085302 C5,9.8992496 5.88772964,9 7,9 L9,9" id="path-1"></path>
        <mask id="mask-2" maskContentUnits="userSpaceOnUse" maskUnits="objectBoundingBox" x="0" y="0" width="14" height="12" fill="white">
            <use xlink:href="#path-1"></use>
        </mask>
    </defs>
    <g id="icons" stroke="none" stroke-width="1" fill="none" fill-rule="evenodd">
        <g id="jira/global-issue/export">
            <g id="export_icon_24x24">
                <g id="icon_container_transparent">
                    <rect x="0" y="0" width="24" height="24"></rect>
                </g>
                <polyline id="Rectangle-7-Copy" stroke="#243759" stroke-width="2" stroke-linecap="round" stroke-linejoin="round" transform="translate(12.000000, 7.000000) rotate(-45.000000) translate(-12.000000, -7.000000) " points="14 9 14 5 10 5"></polyline>
                <use id="Rectangle-12" stroke="#243759" mask="url(#mask-2)" stroke-width="4" xlink:href="#path-1"></use>
                <path d="M12,6 L12,16" id="Line" stroke="#243759" stroke-width="2" stroke-linecap="round"></path>
            </g>
        </g>
    </g>
</svg>