<?xml version="1.0" encoding="UTF-8" standalone="no"?>
<svg width="24px" height="24px" viewBox="0 0 24 24" version="1.1" xmlns="http://www.w3.org/2000/svg" xmlns:xlink="http://www.w3.org/1999/xlink">
    <!-- Generator: Sketch 41 (35326) - http://www.bohemiancoding.com/sketch -->
    <title>Favorite</title>
    <desc>Created with Sketch.</desc>
    <defs></defs>
    <g id="icons" stroke="none" stroke-width="1" fill="none" fill-rule="evenodd">
        <g id="jira/global-issue/favorite">
            <g id="favorite_icon_24x24">
                <g id="icon_container_transparent">
                    <rect x="0" y="0" width="24" height="24"></rect>
                </g>
                <path d="M12,16.5 L8.47144853,18.3550693 C7.49859022,18.8665312 6.86118679,18.3992741 7.04635231,17.3196763 L7.72024568,13.3905765 L4.86558757,10.6079725 C4.07852866,9.84077972 4.32594802,9.09018267 5.40992589,8.93267146 L9.35496636,8.35942353 L11.1192421,4.78461043 C11.6056713,3.79899731 12.3994503,3.80937471 12.8883317,4.79995672 L14.1236924,7.30307084 L14.6450336,8.35942353 L18.5900741,8.93267146 C19.6777628,9.09072187 19.9187862,9.8433971 19.1344124,10.6079725 L16.2797543,13.3905765 L16.9536477,17.3196763 C17.1394471,18.4029699 16.4980908,18.8647863 15.5285515,18.3550693 L12,16.5 Z" id="Star" stroke="#243759" stroke-width="2"></path>
            </g>
        </g>
    </g>
</svg>