
<svg width="16px" height="16px" viewBox="2 3 16 16" version="1.1" xmlns="http://www.w3.org/2000/svg" xmlns:xlink="http://www.w3.org/1999/xlink">
    <!-- Generator: Sketch 39.1 (31720) - http://www.bohemiancoding.com/sketch -->
    <desc>Created with Sketch.</desc>
    <defs></defs>
    <g id="feedback" stroke="none" stroke-width="1" fill="none" fill-rule="evenodd" transform="translate(2.000000, 3.000000)">
        <g id="Boards" fill="currentColor">
            <path d="M13.8,11.4 C15.2,10.2 15.9,8.6 16,6.8 C16,3 12.4,0 7.9,0 C3.4,0 0,3 0,6.8 C0,10.6 3.5,13.6 7.9,13.6 C8.8,13.6 9.7,13.5 10.5,13.2 C11.4,14.2 12.6,14.8 13.9,15.1 L13.9,15.1 L14.1,15.1 C14.4,15.1 14.6,14.9 14.6,14.6 L14.6,14.6 L14.6,14.4 L14.6,14.4 C14.6,14.3 13,12.1 13.8,11.4 L13.8,11.4 Z" id="Shape"></path>
        </g>
    </g>
</svg>