<svg width="16px" height="16px" viewBox="4 4 16 16" version="1.1" xmlns="http://www.w3.org/2000/svg" xmlns:xlink="http://www.w3.org/1999/xlink">
    <!-- Generator: Sketch 41.2 (35397) - http://www.bohemiancoding.com/sketch -->
    <desc>Created with Sketch.</desc>
    <defs></defs>
    <circle id="Oval" stroke="none" fill="currentColor" fill-rule="evenodd" cx="12" cy="12" r="8"></circle>
    <path d="M12,9 C11.4477448,9 11,8.55140187 11,7.99945025 C11,7.44749863 11.4477448,7 12,7 C12.5522552,7 13,7.44749863 13,7.99945025 C13,8.55140187 12.5522552,9 12,9 L12,9 Z" id="Path" stroke="none" fill="white" fill-rule="evenodd" transform="translate(12.000000, 8.000000) rotate(180.000000) translate(-12.000000, -8.000000) "></path>
    <path d="M13,16.0001571 C13,16.5501257 12.550055,17 12,17 C11.449945,17 11,16.5501257 11,16.0001571 L11,10.9998429 C11,10.4498743 11.449945,10 12,10 C12.550055,10 13,10.4498743 13,10.9998429 L13,16.0001571 Z" id="Path" stroke="none" fill="white" fill-rule="evenodd" transform="translate(12.000000, 13.500000) rotate(180.000000) translate(-12.000000, -13.500000) "></path>
</svg>
