<?xml version="1.0" encoding="UTF-8" standalone="no"?>
<svg width="24px" height="24px" viewBox="0 0 24 24" version="1.1" xmlns="http://www.w3.org/2000/svg" xmlns:xlink="http://www.w3.org/1999/xlink">
    <!-- Generator: Sketch 41 (35326) - http://www.bohemiancoding.com/sketch -->
    <title>Issues</title>
    <desc>Created with Sketch.</desc>
    <defs>
        <path d="M3,5.00585866 C3,3.89805351 3.89729366,3 4.99763019,3 L12.6096995,3 C12.8866215,3 13.2683767,3.1572656 13.4699978,3.35888672 L16.6411133,6.53000217 C16.8393209,6.72820983 17,7.11907115 17,7.39030046 L17,15.0023698 C17,16.1056305 16.1029399,17 14.9941413,17 L5.00585866,17 C3.89805351,17 3,16.1029399 3,14.9941413 L3,5.00585866 Z" id="path-1"></path>
        <mask id="mask-2" maskContentUnits="userSpaceOnUse" maskUnits="objectBoundingBox" x="0" y="0" width="14" height="14" fill="white">
            <use xlink:href="#path-1"></use>
        </mask>
    </defs>
    <g id="icons" stroke="none" stroke-width="1" fill="none" fill-rule="evenodd">
        <g id="jira/sidebar/issues">
            <g id="jira_issues_icon_24x24">
                <g id="issues_icon_24x24">
                    <g id="icon_container_transparent">
                        <rect x="0" y="0" width="24" height="24"></rect>
                    </g>
                    <use id="Rectangle-2" stroke="#243759" mask="url(#mask-2)" stroke-width="4" xlink:href="#path-1"></use>
                    <polyline id="Path-3" stroke="#243759" stroke-width="2" stroke-linecap="round" stroke-linejoin="round" points="8 10.3333333 9.33333333 11.6666667 12 9"></polyline>
                </g>
                <path d="M5,19 C5,20.1045695 5.89451376,21 6.99406028,21 L19.0059397,21 C20.1072288,21 21,20.1064574 21,18.9972399 L21,10.0027601 C21,8.89666625 20.1052949,8 19.0057373,8 L19,8 L19,18.0044225 C19,18.5542648 18.5500512,19 17.9931545,19 L5,19 L5,19 Z" id="Combined-Shape" fill="currentColour"></path>
            </g>
        </g>
    </g>
</svg>