
<svg width="18px" height="18px" viewBox="32 132 18 18" version="1.1" xmlns="http://www.w3.org/2000/svg" xmlns:xlink="http://www.w3.org/1999/xlink">
    <!-- Generator: Sketch 39.1 (31720) - http://www.bohemiancoding.com/sketch -->
    <desc>Created with Sketch.</desc>
    <defs></defs>
    <path d="M32,133.995089 C32,132.893232 32.8926228,132 33.9950893,132 L48.0049107,132 C49.1067681,132 50,132.892623 50,133.995089 L50,148.004911 C50,149.106768 49.1073772,150 48.0049107,150 L33.9950893,150 C32.8932319,150 32,149.107377 32,148.004911 L32,133.995089 Z M41,144 C42.6568542,144 44,142.656854 44,141 C44,139.343146 42.6568542,138 41,138 C39.3431458,138 38,139.343146 38,141 C38,142.656854 39.3431458,144 41,144 Z" id="Combined-Shape" stroke="none" fill="currentColor" fill-rule="evenodd"></path>
</svg>
