<?xml version="1.0" encoding="UTF-8" standalone="no"?>
<svg width="24px" height="24px" viewBox="0 0 24 24" version="1.1" xmlns="http://www.w3.org/2000/svg" xmlns:xlink="http://www.w3.org/1999/xlink">
    <!-- Generator: Sketch 41 (35326) - http://www.bohemiancoding.com/sketch -->
    <title>Link</title>
    <desc>Created with Sketch.</desc>
    <defs></defs>
    <g id="24-x-20" stroke="none" stroke-width="1" fill="none" fill-rule="evenodd">
        <g id="editor-24x20/editor-link" fill="currentColor">
            <g id="link" transform="translate(3.000000, 2.000000)">
                <path d="M6.96666667,7.1875 L6.96666667,5.31145908 C6.96666667,4.10353696 7.95833266,3.125 9.18333333,3.125 C10.4099671,3.125 11.4,4.10041402 11.4,5.31145908 L11.4,7.1875 L11.4,8.42949688 C11.4,9.64302081 10.4077183,10.625 9.18333333,10.625 C8.65866282,10.625 8.23333333,11.044733 8.23333333,11.5625 C8.23333333,12.080267 8.65866282,12.5 9.18333333,12.5 C11.4582556,12.5 13.3,10.6773778 13.3,8.42949688 L13.3,7.1875 L13.3,5.31145908 C13.3,3.06419496 11.4586151,1.25 9.18333333,1.25 C6.90902675,1.25 5.06666667,3.06796839 5.06666667,5.31145908 L5.06666667,7.1875 C5.06666667,7.70526695 5.49199615,8.125 6.01666667,8.125 C6.54133718,8.125 6.96666667,7.70526695 6.96666667,7.1875 Z M11.4,12.8125 L11.4,14.6885409 C11.4,15.896463 10.408334,16.875 9.18333333,16.875 C7.95669953,16.875 6.96666667,15.899586 6.96666667,14.6885409 L6.96666667,12.8125 L6.96666667,11.5705031 C6.96666667,10.3569792 7.95894837,9.375 9.18333333,9.375 C9.70800385,9.375 10.1333333,8.95526695 10.1333333,8.4375 C10.1333333,7.91973305 9.70800385,7.5 9.18333333,7.5 C6.90841104,7.5 5.06666667,9.32262219 5.06666667,11.5705031 L5.06666667,12.8125 L5.06666667,14.6885409 C5.06666667,16.935805 6.90805154,18.75 9.18333333,18.75 C11.4576399,18.75 13.3,16.9320316 13.3,14.6885409 L13.3,12.8125 C13.3,12.294733 12.8746705,11.875 12.35,11.875 C11.8253295,11.875 11.4,12.294733 11.4,12.8125 Z" id="Shape" transform="translate(9.183333, 10.000000) rotate(45.000000) translate(-9.183333, -10.000000) "></path>
            </g>
        </g>
    </g>
</svg>