<svg width="20" height="20" viewBox="0 0 24 24" version="1.1" xmlns="http://www.w3.org/2000/svg">
  <g id="Page-1" stroke="none" stroke-width="1" fill="none" fill-rule="evenodd">
    <g id="location" fill="currentColor">
      <path d="M18,9 C18,5.6862915 15.3137085,3 12,3 C8.6862915,3 6,5.6862915 6,9 C6,9 5.50203689,12.9837024 11.9603214,20.9511073 C11.9721164,21.0004543 11.9854233,21.0182953 12.0003762,21.0004559 C12.0153291,21.0182953 12.028636,21.0004543 12.0404311,20.9511073 C18.4987155,12.9837024 18.0007524,9 18.0007524,9 L18,9 Z M12,12 C13.6568542,12 15,10.6568542 15,9 C15,7.34314575 13.6568542,6 12,6 C10.3431458,6 9,7.34314575 9,9 C9,10.6568542 10.3431458,12 12,12 Z" id="Combined-Shape"></path>
    </g>
  </g>
</svg>
