<?xml version="1.0" encoding="UTF-8" standalone="no"?>
<svg width="24px" height="24px" viewBox="0 0 24 24" version="1.1" xmlns="http://www.w3.org/2000/svg" xmlns:xlink="http://www.w3.org/1999/xlink">
    <!-- Generator: Sketch 41 (35326) - http://www.bohemiancoding.com/sketch -->
    <title>Mention</title>
    <desc>Created with Sketch.</desc>
    <defs></defs>
    <g id="24-x-20" stroke="none" stroke-width="1" fill="none" fill-rule="evenodd">
        <g id="editor-24x20/editor-mention" fill="currentColor">
            <g id="mention" transform="translate(2.000000, 2.000000)">
                <path d="M6.42857143,7.14285714 C8.40151515,7.14285714 10,5.54437229 10,3.57142857 C10,1.59848485 8.40151515,0 6.42857143,0 C4.45562771,0 2.85714286,1.59848485 2.85714286,3.57142857 C2.85714286,5.54437229 4.45562771,7.14285714 6.42857143,7.14285714 Z M8.57090545,10 L2.49858035,10 C1.11868257,10 0,11.096475 0,12.4489796 L0,15.9588126 C1.59000568,17.5673469 3.81260647,18.5714286 6.2725724,18.5714286 C7.00165102,18.5714286 7.70854817,18.479988 8.38535249,18.3126154 C7.60137888,17.1661217 7.14285714,15.7794648 7.14285714,14.2857143 C7.14285714,12.6777058 7.67420689,11.1938008 8.57090545,10 L8.57090545,10 Z M19.1203276,10.7772114 C18.0745809,9.41716912 16.2322379,8.57142857 14.3121783,8.57142857 C11.1463657,8.57142857 8.57142857,11.1349368 8.57142857,14.2858918 C8.57142857,17.4368468 11.1463657,20.000355 14.3121783,20.000355 C14.8081937,20.000355 15.2104919,19.6003425 15.2104919,19.1066129 C15.2104919,18.6128833 14.8081937,18.2128709 14.3121783,18.2128709 C12.1372536,18.2128709 10.3680558,16.4505304 10.3680558,14.2858918 C10.3680558,12.1201102 12.1372536,10.3600556 14.3121783,10.3600556 C15.6642203,10.3600556 16.9922615,10.9497882 17.6939976,11.8629594 C18.1865843,12.505265 18.3248744,13.2424308 18.105439,14.0515988 C17.9054328,14.784193 17.6105665,15.2550647 17.253984,15.4150697 C16.8676862,15.5830749 16.433387,15.3842116 16.4288155,15.3842116 C16.4276726,15.3842116 16.4288155,15.3853545 16.4288155,15.3853545 C16.0310888,15.1487757 16.3739566,14.2253185 16.8288279,13.1327131 L16.9042588,12.9532789 C17.093979,12.4961219 16.8745436,11.97382 16.4151008,11.7863856 C16.1282347,11.6675247 15.8173679,11.7246694 15.5750747,11.8903888 C15.5202158,11.8538162 15.4825004,11.7978145 15.4230699,11.7680993 C14.3190357,11.2000816 12.8127032,11.8172437 12.0663943,13.1555709 C11.6126659,13.9704534 11.4778046,14.8630525 11.696097,15.6047899 C11.8481018,16.1213773 12.1749691,16.5351045 12.6126969,16.7693975 C12.8835625,16.9145448 13.1772859,16.9831184 13.4778667,16.9831184 C13.9738821,16.9831184 14.4847551,16.7831122 14.9499124,16.4425302 C15.1053458,16.6242501 15.295066,16.795684 15.5476452,16.9431172 C15.667649,17.008262 16.7693975,17.5671365 17.9522914,17.061978 C18.8494621,16.679109 19.4837675,15.8230824 19.8380642,14.5201848 C20.202647,13.1830004 19.946639,11.8538162 19.1203276,10.7772114 Z M15.0699161,14.6801897 C14.6401885,15.4459278 13.879022,15.8470831 13.3692919,15.5762176 C12.8584189,15.305352 12.793274,14.4653259 13.2230016,13.6995878 C13.6001562,13.027567 14.3818947,12.6161256 14.9236259,12.8938485 C15.4379275,13.1578567 15.4996437,13.9144517 15.0699161,14.6801897 Z" id="Shape"></path>
            </g>
        </g>
    </g>
</svg>