<?xml version="1.0" encoding="UTF-8"?>
<svg width="20px" height="20px" viewBox="0 0 20 20" version="1.1" xmlns="http://www.w3.org/2000/svg" xmlns:xlink="http://www.w3.org/1999/xlink">
    <!-- Generator: Sketch 40.3 (33839) - http://www.bohemiancoding.com/sketch -->
    <title>16</title>
    <desc>Created with Sketch.</desc>
    <defs></defs>
    <g id="Option-4---together-but-hidden" stroke="none" stroke-width="1" fill="none" fill-rule="evenodd">
        <g id="16" stroke="none" fill="currentColor" fill-rule="evenodd">
            <path d="M6,10 C6,9.44791391 5.80468945,8.97656445 5.4140625,8.5859375 C5.02343555,8.19531055 4.55208609,8 4,8 C3.44791391,8 2.97656445,8.19531055 2.5859375,8.5859375 C2.19531055,8.97656445 2,9.44791391 2,10 C2,10.5520861 2.19531055,11.0234355 2.5859375,11.4140625 C2.97656445,11.8046895 3.44791391,12 4,12 C4.55208609,12 5.02343555,11.8046895 5.4140625,11.4140625 C5.80468945,11.0234355 6,10.5520861 6,10 Z M12,10 C12,9.44791391 11.8046895,8.97656445 11.4140625,8.5859375 C11.0234355,8.19531055 10.5520861,8 10,8 C9.44791391,8 8.97656445,8.19531055 8.5859375,8.5859375 C8.19531055,8.97656445 8,9.44791391 8,10 C8,10.5520861 8.19531055,11.0234355 8.5859375,11.4140625 C8.97656445,11.8046895 9.44791391,12 10,12 C10.5520861,12 11.0234355,11.8046895 11.4140625,11.4140625 C11.8046895,11.0234355 12,10.5520861 12,10 Z M18,10 C18,9.44791391 17.8046895,8.97656445 17.4140625,8.5859375 C17.0234355,8.19531055 16.5520861,8 16,8 C15.4479139,8 14.9765645,8.19531055 14.5859375,8.5859375 C14.1953105,8.97656445 14,9.44791391 14,10 C14,10.5520861 14.1953105,11.0234355 14.5859375,11.4140625 C14.9765645,11.8046895 15.4479139,12 16,12 C16.5520861,12 17.0234355,11.8046895 17.4140625,11.4140625 C17.8046895,11.0234355 18,10.5520861 18,10 Z" id="i0127_more-16"></path>
        </g>
    </g>
</svg>