<?xml version="1.0" encoding="UTF-8" standalone="no"?>
<svg width="20px" height="20px" viewBox="30 162 20 20" version="1.1" xmlns="http://www.w3.org/2000/svg" xmlns:xlink="http://www.w3.org/1999/xlink">
    <!-- Generator: Sketch 3.8.2 (29753) - http://www.bohemiancoding.com/sketch -->
    <desc>Created with Sketch.</desc>
    <defs>
        <path d="M10,20 C15.5228475,20 20,15.5228475 20,10 C20,4.4771525 15.5228475,0 10,0 C4.4771525,0 0,4.4771525 0,10 C0,15.5228475 4.4771525,20 10,20 Z" id="path-1"></path>
    </defs>
    <g id="Mask" stroke="none" stroke-width="1" fill="none" fill-rule="evenodd" transform="translate(30.000000, 162.000000)">
        <mask id="mask-2" fill="white" fill-opacity="1">
            <use xlink:href="#path-1"></use>
        </mask>
        <use fill="currentColor" xlink:href="#path-1" fill-opacity="0.2"></use>
        <path fill="currentColor" d="M6.486,5.736 C6.55,6.515 6.708,7.529 6.708,7.529 C6.708,7.529 6.395,7.699 6.395,8.383 C6.504,10.1 7.078,9.359 7.196,10.112 C7.48,11.926 8.129,11.603 8.129,12.593 C8.129,14.242 7.449,15.013 5.326,15.927 C3.196,16.845 1,18 1,20 L1,21 L19,21 L19,20 C19,18 16.803,16.845 14.672,15.928 C12.549,15.014 11.871,14.244 11.871,12.594 C11.871,11.604 12.518,11.927 12.803,10.113 C12.922,9.36 13.495,10.101 13.606,8.384 C13.606,7.7 13.292,7.53 13.292,7.53 C13.292,7.53 13.45,6.516 13.513,5.737 C13.578,4.92 13.115,3.176 11.213,2.641 C10.88,2.301 8.918,2.284 7.725,3.146 C6.709,3.902 6.436,5.099 6.486,5.736 Z" fill="currentColor" mask="url(#mask-2)"></path>
    </g>
</svg>
