<?xml version="1.0" encoding="UTF-8" standalone="no"?>
<svg width="24px" height="24px" viewBox="0 0 24 24" version="1.1" xmlns="http://www.w3.org/2000/svg" xmlns:xlink="http://www.w3.org/1999/xlink">
    <!-- Generator: Sketch 41 (35326) - http://www.bohemiancoding.com/sketch -->
    <title>editor 24x20/editor-help</title>
    <desc>Created with Sketch.</desc>
    <defs></defs>
    <g id="24-x-20" stroke="none" stroke-width="1" fill="none" fill-rule="evenodd">
        <g id="editor-24x20/editor-help" fill="currentColor">
            <g id="help" transform="translate(5.000000, 2.000000)">
                <path d="M0,6.66666667 L4.0625,6.66666667 C4.0625,3.33333333 6.5,3.33333333 6.5,3.33333333 C8.9375,3.33333333 10.5625,5.83333333 7.3125,8.33333333 C4.875,10 4.875,10.8333333 4.875,13.3333333 C4.875,13.5733333 4.849,14.7066667 4.875,15 L8.125,15 C8.125,12.3866667 8.125,11.6666667 10.5625,10 C12.9125879,8.39310229 13,6.84 13,5 C13,1.66666667 10.5625,0 6.5,0 C3.25,0 0,1.66666667 0,6.66666667 Z M8.12499983,20 L8.125,16.6666667 L4.875,16.6666667 L4.875,20 L8.12499983,20 Z" id="Shape"></path>
            </g>
        </g>
    </g>
</svg>