<?xml version="1.0" encoding="UTF-8" standalone="no"?>
<svg width="20px" height="20px" viewBox="31 284 18 19" version="1.1" xmlns="http://www.w3.org/2000/svg" xmlns:xlink="http://www.w3.org/1999/xlink">
    <!-- Generator: Sketch 3.8.2 (29753) - http://www.bohemiancoding.com/sketch -->
    <desc>Created with Sketch.</desc>
    <defs></defs>
    <path fill="currentColor" d="M40,284.001 C35.029375,284.001 31,288.030375 31,293.001 C31,297.971625 35.029375,302.001 40,302.001 C44.9696875,302.001 49,297.971625 49,293.000063 C49,288.030375 44.9696875,284.001 40,284.001 L40,284.001 Z M39.8584375,298.250063 L39.810625,298.250063 C39.0775,298.2285 38.56,297.687563 38.5815625,296.96475 C38.6021875,296.254125 39.131875,295.737563 39.840625,295.737563 L39.88375,295.739438 C40.6375,295.761 41.149375,296.296313 41.1278125,297.03975 C41.10625,297.75225 40.5859375,298.250063 39.8584375,298.250063 L39.8584375,298.250063 Z M42.94375,292.12725 C42.77125,292.371 42.3925,292.676625 41.914375,293.048813 L41.3875,293.411625 C41.09875,293.636625 40.924375,293.849438 40.8596875,294.056625 C40.8071875,294.21975 40.7828125,294.263813 40.778125,294.596625 L40.778125,294.681 L38.7671875,294.681 L38.7728125,294.510375 C38.798125,293.812875 38.815,293.400375 39.1046875,293.060063 C39.559375,292.527563 40.5625,291.880688 40.6046875,291.8535 C40.7490625,291.745688 40.87,291.622875 40.96,291.490688 C41.1709375,291.199125 41.26375,290.970375 41.26375,290.74725 C41.26375,290.434125 41.171875,290.144438 40.9890625,289.8885 C40.8128125,289.639125 40.478125,289.515375 39.994375,289.515375 C39.514375,289.515375 39.1853125,289.66725 38.989375,289.980375 C38.786875,290.300063 38.6846875,290.636625 38.6846875,290.980688 L38.6846875,291.066938 L36.611875,291.066938 L36.615625,290.976938 C36.6690625,289.7085 37.1228125,288.794438 37.9609375,288.261 C38.48875,287.922563 39.1459375,287.751 39.911875,287.751 C40.913125,287.751 41.760625,287.99475 42.42625,288.47475 C43.1021875,288.961313 43.444375,289.690688 43.444375,290.641313 C43.4434375,291.172875 43.275625,291.672563 42.94375,292.12725 L42.94375,292.12725 Z" id="Shape" stroke="none" fill-rule="evenodd"></path>
</svg>
