<?xml version="1.0" encoding="UTF-8" standalone="no"?>
<svg width="24px" height="24px" viewBox="0 0 24 24" version="1.1" xmlns="http://www.w3.org/2000/svg" xmlns:xlink="http://www.w3.org/1999/xlink">
    <!-- Generator: Sketch 41 (35326) - http://www.bohemiancoding.com/sketch -->
    <title>jira/software/releases</title>
    <desc>Created with Sketch.</desc>
    <defs>
        <path d="M3.02143879,13.987195 C2.85637889,12.8896975 3.61115096,12 4.71473403,12 L19.6803812,12 C20.7806222,12 21.3040621,12.8166887 20.8509749,13.8208942 L18.9271114,18.0848722 C18.699075,18.5902833 18.056948,19 17.5127404,19 L4.77682235,19 C4.22372314,19 3.70949177,18.5621186 3.6267434,18.0119176 L3.02143879,13.987195 Z" id="path-1"></path>
        <mask id="mask-2" maskContentUnits="userSpaceOnUse" maskUnits="objectBoundingBox" x="0" y="0" width="18" height="7" fill="white">
            <use xlink:href="#path-1"></use>
        </mask>
        <rect id="path-3" x="5" y="8" width="12" height="6"></rect>
        <mask id="mask-4" maskContentUnits="userSpaceOnUse" maskUnits="objectBoundingBox" x="0" y="0" width="12" height="6" fill="white">
            <use xlink:href="#path-3"></use>
        </mask>
        <rect id="path-5" x="7" y="5" width="6" height="5"></rect>
        <mask id="mask-6" maskContentUnits="userSpaceOnUse" maskUnits="objectBoundingBox" x="0" y="0" width="6" height="5" fill="white">
            <use xlink:href="#path-5"></use>
        </mask>
    </defs>
    <g id="icons" stroke="none" stroke-width="1" fill="none" fill-rule="evenodd">
        <g id="jira/software/releases">
            <g id="releases_icon_24x24">
                <g id="icon_container_transparent">
                    <rect x="0" y="0" width="24" height="24"></rect>
                </g>
                <use id="Rectangle-14" stroke="#22355B" mask="url(#mask-2)" stroke-width="4" xlink:href="#path-1"></use>
                <use id="Rectangle-16" stroke="#21345C" mask="url(#mask-4)" stroke-width="4" xlink:href="#path-3"></use>
                <use id="Rectangle-19" stroke="#20335D" mask="url(#mask-6)" stroke-width="4" xlink:href="#path-5"></use>
            </g>
        </g>
    </g>
</svg>