
<svg width="22px" height="22px" viewBox="-1 -1 22 22" version="1.1" xmlns="http://www.w3.org/2000/svg" xmlns:xlink="http://www.w3.org/1999/xlink">
    <!-- Generator: Sketch 39.1 (31720) - http://www.bohemiancoding.com/sketch -->
    <desc>Created with Sketch.</desc>
    <defs></defs>
    <g id="settings" stroke="none" stroke-width="1" fill="none" fill-rule="evenodd">
        <g id="Layer_1" fill="currentColor">
            <g id="Boards" transform="translate(1.000000, 1.000000)">
                <path d="M17.4,10.9 C16.6,10.6 16.1,9.9 16.1,9 C16.1,8.1 16.7,7.4 17.4,7.1 C17.6,7 17.8,6.8 17.7,6.5 C17.5,5.8 17.2,5.1 16.9,4.5 C16.8,4.3 16.5,4.2 16.3,4.3 C15.9,4.5 15.5,4.5 15,4.4 C14.3,4.2 13.8,3.7 13.6,3 C13.5,2.5 13.5,2.1 13.7,1.7 C13.8,1.5 13.7,1.2 13.5,1.1 C12.9,0.8 12.2,0.5 11.5,0.3 C11.3,0.2 11,0.4 10.9,0.6 C10.6,1.4 9.9,1.9 9,1.9 C8.1,1.9 7.4,1.3 7.1,0.6 C7,0.4 6.8,0.2 6.5,0.3 C5.8,0.5 5.1,0.8 4.5,1.1 C4.3,1.2 4.3,1.5 4.3,1.7 C4.4,2.1 4.5,2.5 4.4,2.9 C4.3,3.6 3.7,4.2 3,4.4 C2.6,4.5 2.1,4.5 1.7,4.3 C1.5,4.2 1.2,4.3 1.1,4.5 C0.7,5.1 0.5,5.8 0.3,6.5 C0.3,6.8 0.4,7 0.6,7.1 C1.4,7.4 1.9,8.1 1.9,9 C1.9,9.9 1.3,10.6 0.6,10.9 C0.4,11 0.2,11.2 0.3,11.5 C0.5,12 0.7,12.6 1,13.2 C1.1,13.4 1.4,13.5 1.6,13.4 C2.2,13.1 2.9,13.1 3.7,13.6 C3.8,13.7 3.9,13.8 4,13.9 C4.5,14.7 4.5,15.5 4.2,16.1 C4.1,16.3 4.2,16.6 4.4,16.7 C5.1,17.1 5.8,17.4 6.5,17.6 C6.7,17.7 7,17.5 7.1,17.3 C7.4,16.5 8.1,15.9 9,15.9 C9.9,15.9 10.6,16.5 10.9,17.3 C11,17.5 11.2,17.7 11.5,17.6 C12.2,17.4 12.9,17.1 13.6,16.7 C13.8,16.6 13.9,16.3 13.8,16.1 C13.5,15.5 13.5,14.7 14,13.9 C14.1,13.8 14.2,13.7 14.3,13.6 C15.1,13.1 15.8,13.1 16.4,13.4 C16.6,13.5 16.9,13.4 17,13.2 C17.3,12.6 17.5,12 17.7,11.4 C17.8,11.2 17.6,10.9 17.4,10.9 L17.4,10.9 Z M9,14 C6.2,14 4,11.8 4,9 C4,6.2 6.2,4 9,4 C11.8,4 14,6.2 14,9 C14,11.7 11.8,14 9,14 L9,14 Z" id="Shape"></path>
            </g>
        </g>
    </g>
</svg>