<?xml version="1.0" encoding="UTF-8" standalone="no"?>
<svg width="24px" height="24px" viewBox="0 0 24 24" version="1.1" xmlns="http://www.w3.org/2000/svg" xmlns:xlink="http://www.w3.org/1999/xlink">
    <!-- Generator: Sketch 41 (35326) - http://www.bohemiancoding.com/sketch -->
    <title>Table</title>
    <desc>Created with Sketch.</desc>
    <defs></defs>
    <g id="24-x-20" stroke="none" stroke-width="1" fill="none" fill-rule="evenodd">
        <g id="editor-24x20/editor-table" fill="currentColor">
            <g id="table" transform="translate(2.000000, 2.000000)">
                <path d="M0,0.494384766 C0,0.221343599 0.224609375,0 0.494384766,0 L19.5056152,0 C19.7786564,0 20,0.224609375 20,0.494384766 L20,19.5056152 C20,19.7786564 19.7753906,20 19.5056152,20 L0.494384766,20 C0.221343599,20 0,19.7753906 0,19.5056152 L0,0.494384766 Z M3.33333333,11.6666667 L8.33333333,11.6666667 L8.33333333,16.6666667 L3.33333333,16.6666667 L3.33333333,11.6666667 Z M11.6666667,3.33333333 L16.6666667,3.33333333 L16.6666667,8.33333333 L11.6666667,8.33333333 L11.6666667,3.33333333 Z M11.6666667,11.6666667 L16.6666667,11.6666667 L16.6666667,16.6666667 L11.6666667,16.6666667 L11.6666667,11.6666667 Z M3.33333333,3.33333333 L8.33333333,3.33333333 L8.33333333,8.33333333 L3.33333333,8.33333333 L3.33333333,3.33333333 Z" id="Shape"></path>
            </g>
        </g>
    </g>
</svg>