<?xml version="1.0" encoding="UTF-8" standalone="no"?>
<svg width="24px" height="24px" viewBox="0 0 24 24" version="1.1" xmlns="http://www.w3.org/2000/svg" xmlns:xlink="http://www.w3.org/1999/xlink">
    <!-- Generator: Sketch 41 (35326) - http://www.bohemiancoding.com/sketch -->
    <title>editor 24x20/editor-task</title>
    <desc>Created with Sketch.</desc>
    <defs></defs>
    <g id="24-x-20" stroke="none" stroke-width="1" fill="none" fill-rule="evenodd">
        <g id="editor-24x20/editor-task" fill="currentColor">
            <g id="task" transform="translate(2.000000, 2.000000)">
                <path d="M0,0.494384766 C0,0.221343599 0.224609375,0 0.494384766,0 L19.5056152,0 C19.7786564,0 20,0.224609375 20,0.494384766 L20,19.5056152 C20,19.7786564 19.7753906,20 19.5056152,20 L0.494384766,20 C0.221343599,20 0,19.7753906 0,19.5056152 L0,0.494384766 Z M7.44944986,15.0505501 L8.43698194,16.0380822 L9.30941935,14.9475355 L15.976086,6.61420214 C16.4073479,6.07512472 16.3199462,5.28850926 15.7808688,4.85724732 C15.2417914,4.42598539 14.4551759,4.51338711 14.023914,5.05246452 L8.23160076,12.2971671 L5.88388348,9.94944986 C5.39572811,9.46129449 4.60427189,9.46129449 4.11611652,9.94944986 C3.62796116,10.4376052 3.62796116,11.2290614 4.11611652,11.7172168 L7.44944986,15.0505501 Z" id="Shape"></path>
            </g>
        </g>
    </g>
</svg>