
<svg width="18px" height="17px" viewBox="32 212 18 17" version="1.1" xmlns="http://www.w3.org/2000/svg" xmlns:xlink="http://www.w3.org/1999/xlink">
    <!-- Generator: Sketch 39.1 (31720) - http://www.bohemiancoding.com/sketch -->
    <desc>Created with Sketch.</desc>
    <defs></defs>
    <g id="Group-2" stroke="none" stroke-width="1" fill="none" fill-rule="evenodd" transform="translate(32.000000, 212.000000)">
        <path d="M5.0208,6 C6.6778,6 8.0208,4.657 8.0208,3 C8.0208,1.343 6.6778,0 5.0208,0 C3.3638,0 2.0208,1.343 2.0208,3 C2.0208,4.657 3.3638,6 5.0208,6" id="Fill-1" fill="currentColor"></path>
        <path d="M13.0208,8 C14.6778,8 16.0208,6.657 16.0208,5 C16.0208,3.343 14.6778,2 13.0208,2 C11.3638,2 10.0208,3.343 10.0208,5 C10.0208,6.657 11.3638,8 13.0208,8" id="Fill-3" fill="currentColor"></path>
        <path d="M16,10 L10,10 C8.895,10 8,10.895 8,12 L8,14.867 C9.273,16.18 11.052,17 13.021,17 C14.968,17 16.73,16.2 18,14.913 L18,12 C18,10.895 17.105,10 16,10" id="Fill-5" fill="currentColor"></path>
        <path d="M8,8 L2,8 C0.895,8 0,8.895 0,10 L0,11.867 C1.273,13.18 3.052,14 5.021,14 C5.709,14 6.372,13.895 7,13.709 L7,12 C7,10.436 8.208,9.162 9.737,9.027 C9.394,8.417 8.749,8 8,8" id="Fill-7" fill="currentColor"></path>
    </g>
</svg>
