<?xml version="1.0" encoding="UTF-8" standalone="no"?>
<svg width="24px" height="24px" viewBox="0 0 24 24" version="1.1" xmlns="http://www.w3.org/2000/svg" xmlns:xlink="http://www.w3.org/1999/xlink">
    <!-- Generator: Sketch 41 (35326) - http://www.bohemiancoding.com/sketch -->
    <title>Unlink</title>
    <desc>Created with Sketch.</desc>
    <defs></defs>
    <g id="24-x-20" stroke="none" stroke-width="1" fill="none" fill-rule="evenodd">
        <g id="editor-24x20/editor-unlink" fill="currentColor">
            <g id="unlink" transform="translate(2.000000, 2.000000)">
                <path d="M1.25,7.5 L3.75,7.5 L3.75,6.25 L1.25,6.25 L1.25,7.5 Z M6.25,1.25 L6.25,3.75 L7.5,3.75 L7.5,1.25 L6.25,1.25 Z M15.8080583,16.6919417 L18.3080583,19.1919417 L19.1919417,18.3080583 L16.6919417,15.8080583 L15.8080583,16.6919417 Z M16.25,13.75 L18.75,13.75 L18.75,12.5 L16.25,12.5 L16.25,13.75 Z M12.5,16.25 L12.5,18.75 L13.75,18.75 L13.75,16.25 L12.5,16.25 Z M4.19194174,3.30805826 L1.69194174,0.808058262 L0.808058262,1.69194174 L3.30805826,4.19194174 L4.19194174,3.30805826 Z M8.65123993,14.6031878 C7.79711001,15.4573178 6.41319264,15.4572606 5.5583838,14.6024518 C4.70243537,13.7465034 4.70130959,12.3659338 5.55764776,11.5095957 L6.88420902,10.1830344 L7.76243344,9.30480999 C8.65197597,8.41526746 7.42687903,7.19017052 6.43660822,7.97898478 L5.5583838,8.8572092 L4.23182255,10.1837705 C2.64276685,11.7728262 2.64486071,14.3405791 4.23255859,15.928277 C5.81957596,17.5152944 8.39067767,17.5154005 9.97706515,15.9290131 L11.3036264,14.6024518 C11.6697429,14.2363353 11.6697429,13.6427431 11.3036264,13.2766266 C10.9375099,12.9105101 10.3439177,12.9105101 9.97780119,13.2766266 L8.65123993,14.6031878 Z M11.9737601,5.09348336 C12.82789,4.23935344 14.2118074,4.23941057 15.0666162,5.09421941 C15.9225646,5.95016784 15.9236904,7.33073736 15.0673522,8.18707553 L13.740791,9.51363679 L12.8625666,10.3918612 C12.2123928,11.1546564 13.4819073,12.4241709 14.1883918,11.7176864 L15.0666162,10.839462 L16.3931775,9.51290075 C17.9822332,7.92384504 17.9801393,5.35609207 16.3924414,3.76839419 C14.805424,2.18137682 12.2343223,2.18127067 10.6479349,3.76765815 L9.3213736,5.09421941 C8.95525707,5.46033593 8.95525707,6.0539281 9.3213736,6.42004462 C9.68749012,6.78616114 10.2810823,6.78616114 10.6471988,6.42004462 L11.9737601,5.09348336 Z" id="Shape"></path>
            </g>
        </g>
    </g>
</svg>