<?xml version="1.0" encoding="UTF-8" standalone="no"?>
<svg width="20px" height="20px" viewBox="0 0 20 20" version="1.1" xmlns="http://www.w3.org/2000/svg" xmlns:xlink="http://www.w3.org/1999/xlink">
    <!-- Generator: Sketch 41.2 (35397) - http://www.bohemiancoding.com/sketch -->
    <title>Warning</title>
    <desc>Created with Sketch.</desc>
    <defs></defs>
    <g id="Symbols" stroke="none" stroke-width="1" fill="none" fill-rule="evenodd">
        <g id="warningicon-20x20">
            <g id="Group-2" transform="translate(2.000000, 2.000000)">
                <path d="M15.887814,14.5235424 L8.84584218,0.535518437 C8.4862154,-0.178506146 7.5137846,-0.178506146 7.15415782,0.535518437 L0.112186042,14.5235424 C-0.224424621,15.1931926 0.236856657,16 0.958028219,16 L15.0419718,16 C15.7631433,16 16.2244246,15.1931926 15.887814,14.5235424 L15.887814,14.5235424 Z" id="Fill-1" fill="currentColor"></path>
                <path d="M8,14 C7.44774477,14 7,13.5514019 7,12.9994502 C7,12.4474986 7.44774477,12 8,12 C8.55225523,12 9,12.4474986 9,12.9994502 C9,13.5514019 8.55225523,14 8,14 L8,14 Z" id="Path" fill="currentColor"></path>
                <path d="M9,10.0001571 C9,10.5501257 8.55005501,11 8,11 C7.44994499,11 7,10.5501257 7,10.0001571 L7,4.99984287 C7,4.44987429 7.44994499,4 8,4 C8.55005501,4 9,4.44987429 9,4.99984287 L9,10.0001571 Z" id="Path" fill="currentColor"></path>
            </g>
        </g>
    </g>
</svg>