<?xml version="1.0" encoding="UTF-8"?>
<svg width="304px" height="375px" viewBox="0 0 304 375" version="1.1" xmlns="http://www.w3.org/2000/svg" xmlns:xlink="http://www.w3.org/1999/xlink">
    <!-- Generator: Sketch 42 (36781) - http://www.bohemiancoding.com/sketch -->
    <title>Guides/ navigation top</title>
    <desc>Created with Sketch.</desc>
    <defs></defs>
    <g id="Symbols" stroke="none" stroke-width="1" fill="none" fill-rule="evenodd">
        <g id="Guides/-navigation-top" fill="#8777D9">
            <g>
                <path d="M0,0 L64,0 L64,375 L0,375 L0,0 Z M20,100 C20,106.628874 25.372583,112 32,112 C38.6288742,112 44,106.627417 44,100 C44,93.3711258 38.627417,88 32,88 C25.3711258,88 20,93.372583 20,100 Z M20,140 C20,146.628874 25.372583,152 32,152 C38.6288742,152 44,146.627417 44,140 C44,133.371126 38.627417,128 32,128 C25.3711258,128 20,133.372583 20,140 Z M12,44 C12,55.0481236 20.954305,64 32,64 C43.0481236,64 52,55.045695 52,44 C52,32.9518764 43.045695,24 32,24 C20.9518764,24 12,32.954305 12,44 Z" id="Combined-Shape" opacity="0.200000003"></path>
                <path d="M64,0 L304,0 L304,375 L64,375 L64,0 Z M132,26 L132,42 L288,42 L288,26 L132,26 Z M132,46 L132,62 L288,62 L288,46 L132,46 Z M84,27.0065012 L84,60.9934988 C84,62.6576906 85.3460564,64 87.0065012,64 L120.993499,64 C122.657691,64 124,62.6539436 124,60.9934988 L124,27.0065012 C124,25.3423094 122.653944,24 120.993499,24 L87.0065012,24 C85.3423094,24 84,25.3460564 84,27.0065012 Z M80,83.0065012 L80,116.993499 C80,118.657691 81.3433212,120 83.0003919,120 L284.999608,120 C286.658106,120 288,118.653944 288,116.993499 L288,83.0065012 C288,81.3423094 286.656679,80 284.999608,80 L83.0003919,80 C81.3418935,80 80,81.3460564 80,83.0065012 Z M92,128 L92,152 L116,152 L116,128 L92,128 Z M92,168 L92,192 L116,192 L116,168 L92,168 Z M92,208 L92,232 L116,232 L116,208 L92,208 Z M92,248 L92,272 L116,272 L116,248 L92,248 Z M92,288 L92,312 L116,312 L116,288 L92,288 Z M92,328 L92,352 L116,352 L116,328 L92,328 Z" id="Combined-Shape" opacity="0.5"></path>
                <rect id="Rectangle-4" opacity="0.5" x="92" y="88" width="24" height="24"></rect>
            </g>
        </g>
    </g>
</svg>