<svg width="20" height="20" viewBox="0 0 20 20" xmlns="http://www.w3.org/2000/svg"><path d="M4 6c0-.552.444-1 1-1 .552 0 1 .444 1 1 0 .552-.444 1-1 1-.552 0-1-.444-1-1zm4 0c0-.552.453-1 .997-1h6.006c.55 0 .997.444.997 1 0 .552-.453 1-.997 1H8.997A.996.996 0 0 1 8 6zm-4 4c0-.552.444-1 1-1 .552 0 1 .444 1 1 0 .552-.444 1-1 1-.552 0-1-.444-1-1zm4 0c0-.552.453-1 .997-1h6.006c.55 0 .997.444.997 1 0 .552-.453 1-.997 1H8.997A.996.996 0 0 1 8 10zm-4 4c0-.552.444-1 1-1 .552 0 1 .444 1 1 0 .552-.444 1-1 1-.552 0-1-.444-1-1zm4 0c0-.552.453-1 .997-1h6.006c.55 0 .997.444.997 1 0 .552-.453 1-.997 1H8.997A.996.996 0 0 1 8 14z" fill="currentColor" fill-rule="evenodd"/></svg>
