
<svg width="22px" height="22px" viewBox="-1 -1 22 22" version="1.1" xmlns="http://www.w3.org/2000/svg" xmlns:xlink="http://www.w3.org/1999/xlink">
    <!-- Generator: Sketch 39.1 (31720) - http://www.bohemiancoding.com/sketch -->
    <desc>Created with Sketch.</desc>
    <defs></defs>
    <g id="branches" stroke="none" stroke-width="1" fill="none" fill-rule="evenodd">
        <g id="Group" fill="currentColor">
            <g id="Boards" transform="translate(3.000000, 1.000000)">
                <path d="M14,8 C14,6.3 12.7,5 11,5 C9.3,5 8,6.3 8,8 C8,9.3 8.8,10.4 10,10.8 L10,12 C10,13.1 9.1,14 8,14 L5.8,14 C5.5,13.1 4.8,12.5 3.9,12.2 L3.9,12 L3.9,6 L3.9,5.8 C5.2,5.4 6,4.3 6,3 C6,1.3 4.7,0 3,0 C1.3,0 0,1.3 0,3 C0,4.3 0.9,5.4 2,5.8 L2,6 L2,12 L2,12.2 C0.8,12.6 0,13.7 0,15 C0,16.7 1.3,18 3,18 C4.3,18 5.4,17.2 5.8,16 L8,16 C10.2,16 12,14.2 12,12 L12,10.8 C13.2,10.4 14,9.3 14,8 L14,8 Z M3,2 C3.6,2 4,2.4 4,3 C4,3.6 3.6,4 3,4 C2.4,4 2,3.6 2,3 C2,2.4 2.5,2 3,2 L3,2 Z M3,16 C2.4,16 2,15.6 2,15 C2,14.4 2.4,14 3,14 C3.6,14 4,14.4 4,15 C4,15.6 3.6,16 3,16 L3,16 Z M11,9 C10.4,9 10,8.6 10,8 C10,7.4 10.4,7 11,7 C11.6,7 12,7.4 12,8 C12,8.6 11.6,9 11,9 L11,9 Z" id="Shape"></path>
            </g>
        </g>
    </g>
</svg>