
<svg width="22px" height="21px" viewBox="-1 0 22 21" version="1.1" xmlns="http://www.w3.org/2000/svg" xmlns:xlink="http://www.w3.org/1999/xlink">
    <!-- Generator: Sketch 39.1 (31720) - http://www.bohemiancoding.com/sketch -->
    <desc>Created with Sketch.</desc>
    <defs></defs>
    <g id="pipelines" stroke="none" stroke-width="1" fill="none" fill-rule="evenodd">
        <g id="Group" fill="currentColor">
            <g id="Boards" transform="translate(2.000000, 2.000000)">
                <g id="Group">
                    <path d="M4.9,0 L1,0 C0.4,0 0,0.4 0,1 C0,1.6 0.4,2 1,2 L2.7,2 C1,3.5 0,5.7 0,8 C0,11.1 1.8,13.9 4.6,15.2 C4.7,15.3 4.9,15.3 5,15.3 C5.4,15.3 5.7,15.1 5.9,14.7 C6.1,14.2 5.9,13.6 5.4,13.4 C3.3,12.4 2,10.3 2,8 C2,6.3 2.7,4.7 4,3.5 L4,5 C4,5.6 4.4,6 5,6 C5.6,6 6,5.6 6,5 L6,1.1 C6,0.5 5.5,0 4.9,0 L4.9,0 Z" id="Shape"></path>
                    <path d="M15,13 L14.2,13 C15.3,11.6 16,9.9 16,8 C16,4.9 14.2,2.1 11.4,0.8 C11,0.6 10.6,0.5 10.3,0.4 C9.8,0.2 9.2,0.5 9,1 C8.8,1.5 9.1,2.1 9.7,2.2 C10,2.3 10.3,2.4 10.6,2.5 C12.7,3.5 14,5.6 14,7.9 C14,9.6 13.3,11.2 12,12.4 L12,10 C12,9.4 11.6,9 11,9 C10.4,9 10,9.4 10,10 L10,13.9 C10,14.5 10.5,15 11.1,15 L15,15 C15.6,15 16,14.6 16,14 C16,13.5 15.6,13 15,13 L15,13 Z" id="Shape"></path>
                </g>
            </g>
        </g>
    </g>
</svg>