<?xml version="1.0" encoding="UTF-8" standalone="no"?>
<svg viewBox="0 0 130 40" version="1.1" xmlns="http://www.w3.org/2000/svg" xmlns:xlink="http://www.w3.org/1999/xlink">
    <!-- Generator: Sketch 42 (36781) - http://www.bohemiancoding.com/sketch -->
    <title>template</title>
    <desc>Created with Sketch.</desc>
    <defs></defs>
    <g id="Page-1" stroke="none" stroke-width="1" fill="none" fill-rule="evenodd">
        <g id="template" fill-rule="nonzero" fill="currentColor">
            <g id="logo" transform="translate(6.000000, 6.000000)">
                <g class="logo-type" transform="translate(24.640000, 5.600000)">
                    <path d="M11.2784,1.63184 C11.21456,1.42352 11.0264,1.28128 10.8136,1.28128 L6.25744,1.28128 C6.04464,1.28128 5.85648,1.42352 5.79264,1.63184 L0.0448,20.3392 C-1.41137102e-14,20.49152 0.02464,20.65728 0.1176,20.7872 C0.20944,20.91488 0.35504,20.99104 0.5096,20.99104 L3.6456,20.99104 C3.86288,20.99104 4.05328,20.84544 4.116,20.63264 L8.07296,6.87344 C8.07296,6.87344 8.176,6.5296 8.5344,6.5296 C8.89952,6.5296 8.988,6.888 8.988,6.888 L10.8248,13.41088 L8.3552,13.41088 C8.1368,13.41088 7.94416,13.55984 7.8848,13.776 L7.17696,16.35984 C7.13552,16.51104 7.16576,16.67344 7.25872,16.79664 C7.35056,16.92208 7.49392,16.996 7.64736,16.996 L11.84736,16.996 L12.95616,20.63936 C13.01776,20.84768 13.20704,20.99104 13.42096,20.99104 L16.55696,20.99104 C16.71376,20.99104 16.85936,20.91488 16.95232,20.78608 C17.04416,20.65616 17.06992,20.4904 17.024,20.33808 L11.2784,1.63184" id="Shape"></path>
                    <path d="M24.9424,18.10816 C24.92,17.96816 24.84496,17.84384 24.7296,17.76544 C24.61536,17.68704 24.47536,17.6624 24.34096,17.696 C23.83248,17.82592 23.34416,17.8976 22.96784,17.8976 C22.2544,17.8976 21.93744,17.58064 21.93744,16.8672 L21.93744,9.6992 L24.73744,9.6992 C25.00624,9.6992 25.22464,9.4752 25.22464,9.19968 L25.22464,6.96416 C25.22464,6.68752 25.00624,6.46352 24.73632,6.46352 L21.93632,6.46352 L21.93632,3.0128 C21.93632,2.8672 21.87472,2.72944 21.76832,2.63424 C21.66192,2.53904 21.51968,2.49536 21.3808,2.51552 L18.49792,2.92768 C18.256,2.96128 18.0768,3.17408 18.0768,3.42384 L18.0768,6.46352 L16.50656,6.46352 C16.23776,6.46352 16.01824,6.68752 16.01824,6.96528 L16.01824,9.2008 C16.01824,9.47744 16.23664,9.70144 16.50656,9.70144 L18.0768,9.70144 L18.0768,17.33312 C18.0768,19.95392 19.41856,21.28224 22.064,21.28224 C22.81888,21.28224 24.09792,21.10304 24.93456,20.80624 C25.15632,20.72784 25.29296,20.496 25.25712,20.25744 L24.94352,18.1104" id="Shape"></path>
                    <path d="M30.28032,0.91616 L27.3952,0.91616 C27.1264,0.91616 26.908,1.14016 26.908,1.41792 L26.908,20.48928 C26.908,20.76704 27.12752,20.99104 27.39632,20.99104 L30.28144,20.99104 C30.55024,20.99104 30.76864,20.76704 30.76864,20.48928 L30.76864,1.41792 C30.76864,1.14016 30.55136,0.91616 30.28256,0.91616" id="Shape"></path>
                    <path d="M39.62896,15.66432 L39.62896,17.40704 C39.15072,17.668 38.28496,18.0432 37.24336,18.0432 C36.344,18.0432 36.07072,17.7632 36.07072,16.8392 C36.07072,15.9432 36.23872,15.6632 37.29936,15.6632 L39.62896,15.6632 L39.62896,15.66432 Z M37.6936,6.17344 C36.23424,6.17344 34.4568,6.40864 33.1688,6.776 C32.928,6.8432 32.7768,7.08624 32.81712,7.33824 L33.15536,9.4864 C33.17776,9.6208 33.24944,9.73952 33.35696,9.81792 C33.4656,9.89632 33.6,9.92432 33.73104,9.89856 C34.92944,9.65888 36.16704,9.52672 37.21424,9.52672 C39.29744,9.52672 39.63008,9.97808 39.63008,11.42512 L39.63008,12.68848 L36.53888,12.68848 C33.58544,12.68848 32.32432,13.9384 32.32432,16.86944 C32.32432,19.67392 33.7064,21.28224 36.11552,21.28224 C37.50992,21.28224 38.90432,20.88576 40.07808,20.15888 L40.20128,20.62368 C40.25952,20.84208 40.45216,20.99328 40.67168,20.99328 L43.00128,20.99328 C43.27008,20.99328 43.4896,20.76928 43.4896,20.49152 L43.4896,11.48672 C43.4896,7.61488 41.91824,6.17568 37.6936,6.17568 L37.6936,6.17344 Z" id="Shape"></path>
                    <path d="M50.7136,11.99968 C48.92384,11.52592 48.92384,11.50688 48.92384,10.49888 C48.92384,9.8224 48.99104,9.4976 50.46384,9.4976 C51.47408,9.4976 52.96368,9.67904 53.92016,9.84704 C54.05232,9.86944 54.18672,9.83584 54.29424,9.7552 C54.40064,9.67344 54.4712,9.55024 54.48688,9.41472 L54.75792,7.15904 C54.78816,6.9048 54.628,6.66624 54.38384,6.61024 C53.27728,6.3448 51.7384,6.17344 50.46384,6.17344 C46.02864,6.17344 45.12144,7.89152 45.12144,10.46976 C45.12144,13.3056 45.63328,14.25872 49.03024,15.10656 C51.27024,15.66096 51.27024,16.06976 51.27024,16.75296 C51.27024,17.64672 51.19408,17.95584 49.72912,17.95584 C48.54976,17.95584 47.18672,17.76768 45.98496,17.4384 C45.85056,17.40256 45.71168,17.42496 45.59632,17.5 C45.48096,17.57392 45.40256,17.69488 45.37792,17.83264 L44.99712,19.97184 C44.95232,20.22048 45.09344,20.4624 45.3264,20.53968 C46.6368,20.97424 48.51504,21.27888 49.896,21.27888 C54.1912,21.27888 55.0704,19.43424 55.0704,16.66448 C55.0704,13.60688 54.54176,13.03904 50.71136,11.99856" id="Shape"></path>
                    <path d="M61.85424,11.99968 C60.0656,11.52592 60.0656,11.50688 60.0656,10.49888 C60.0656,9.8224 60.13056,9.4976 61.60448,9.4976 C62.61472,9.4976 64.10432,9.67904 65.06192,9.84704 C65.19408,9.86944 65.33072,9.83584 65.436,9.7552 C65.54352,9.67344 65.61296,9.55024 65.62976,9.41472 L65.9008,7.15904 C65.93104,6.9048 65.76976,6.66624 65.52672,6.61024 C64.42016,6.3448 62.88016,6.17344 61.60448,6.17344 C57.16928,6.17344 56.26208,7.89152 56.26208,10.46976 C56.26208,13.3056 56.77504,14.25872 60.17424,15.10656 C62.41088,15.66096 62.41088,16.06976 62.41088,16.75296 C62.41088,17.64672 62.33696,17.95584 60.872,17.95584 C59.69264,17.95584 58.32736,17.76768 57.12672,17.4384 C56.99568,17.40256 56.85456,17.42496 56.74032,17.5 C56.62608,17.57392 56.54656,17.69488 56.52192,17.83264 L56.14112,19.97184 C56.09632,20.22048 56.23744,20.4624 56.4704,20.53968 C57.77856,20.97424 59.65904,21.27888 61.04,21.27888 C65.33408,21.27888 66.2144,19.43424 66.2144,16.66448 C66.2144,13.60688 65.68464,13.03904 61.85424,11.99856" id="Shape"></path>
                    <path d="M71.1872,0.91616 L68.30208,0.91616 C68.03328,0.91616 67.81376,1.14016 67.81376,1.4168 L67.81376,4.032 C67.81376,4.30976 68.03328,4.53376 68.30208,4.53376 L71.18608,4.53376 C71.45488,4.53376 71.67328,4.30976 71.67328,4.03312 L71.67328,1.41792 C71.67328,1.14128 71.45376,0.91728 71.18496,0.91728" id="Shape"></path>
                    <path d="M71.1872,6.4624 L68.30208,6.4624 C68.03328,6.4624 67.81376,6.6864 67.81376,6.96416 L67.81376,20.48928 C67.81376,20.76704 68.03328,20.99104 68.30208,20.99104 L71.18608,20.99104 C71.45488,20.99104 71.67328,20.76704 71.67328,20.48928 L71.67328,6.96416 C71.67328,6.68752 71.45376,6.46352 71.18496,6.46352" id="Shape"></path>
                    <path d="M80.6064,15.66432 L80.6064,17.40704 C80.12928,17.668 79.2624,18.0432 78.2208,18.0432 C77.32256,18.0432 77.04816,17.7632 77.04816,16.8392 C77.04816,15.9432 77.2184,15.6632 78.27792,15.6632 L80.60752,15.6632 L80.6064,15.66432 Z M78.67216,6.17344 C77.2128,6.17344 75.43536,6.40864 74.14736,6.776 C73.90656,6.8432 73.75536,7.08624 73.79456,7.33824 L74.1328,9.4864 C74.1552,9.6208 74.22688,9.73952 74.3344,9.81792 C74.44304,9.89632 74.57744,9.92432 74.70736,9.89856 C75.90576,9.65888 77.14448,9.52672 78.1928,9.52672 C80.27376,9.52672 80.6064,9.97808 80.6064,11.42512 L80.6064,12.68848 L77.5152,12.68848 C74.56176,12.68848 73.30176,13.9384 73.30176,16.86944 C73.30176,19.67392 74.68384,21.28224 77.09296,21.28224 C78.48624,21.28224 79.88176,20.88576 81.05552,20.15888 L81.17872,20.62368 C81.23808,20.84208 81.43072,20.99328 81.64912,20.99328 L83.97872,20.99328 C84.24752,20.99328 84.46816,20.76928 84.46816,20.49152 L84.46816,11.48672 C84.46816,7.61488 82.8968,6.17568 78.67328,6.17568 L78.67216,6.17344 Z" id="Shape"></path>
                    <path d="M95.13056,6.17344 C93.60288,6.17344 91.5208,6.7144 89.7624,7.56224 L89.55184,6.82304 C89.49136,6.61024 89.29984,6.46464 89.08368,6.46464 L86.94672,6.46464 C86.67792,6.46464 86.4584,6.68864 86.4584,6.96416 L86.4584,20.48928 C86.4584,20.76704 86.67792,20.99104 86.94672,20.99104 L89.83072,20.99104 C90.09952,20.99104 90.31904,20.76704 90.31904,20.48928 L90.31904,11.1216 C91.35728,10.57952 92.81664,10.01952 93.69024,10.01952 C94.33984,10.01952 94.58176,10.26592 94.58176,10.93344 L94.58176,20.48928 C94.58176,20.76704 94.80016,20.99104 95.06896,20.99104 L97.95296,20.99104 C98.22176,20.99104 98.44016,20.76704 98.44016,20.48928 L98.44016,10.55712 C98.44016,7.64848 97.32688,6.17344 95.12832,6.17344" id="Shape"></path>
                </g>
                <g class="logo-icon">
                    <path d="M28.23072,0.2968 C28.10528,0.12432 27.90368,0.02016 27.69312,0.02016 C27.58448,0.02016 27.47808,0.04816 27.384,0.1008 C23.44496,2.31392 18.87872,3.4832 14.1792,3.48544 C9.47968,3.48544 4.91456,2.31392 0.9744,0.10304 C0.88144,0.04704 0.77504,0.02016 0.6664,0.02016 C0.45584,0.02016 0.25424,0.12432 0.1288,0.2968 C-0.05712,0.55104 -0.0616,0.97776 0.25424,1.232 C2.22544,2.74176 4.4016,3.92 6.71664,4.7264 C9.11792,5.56192 11.62896,5.9864 14.1792,5.98752 C16.73056,5.98752 19.2416,5.56192 21.64176,4.7264 C23.95792,3.92 26.13296,2.74176 28.10752,1.232 C28.42112,0.97776 28.41664,0.55104 28.23072,0.2968" id="Shape"></path>
                    <path d="M14.18256,8.21632 C15.19056,8.21632 15.77296,8.15472 15.97904,8.15472 C16.22768,8.15472 16.46512,8.36528 16.46512,8.65872 C16.46512,8.74272 16.4472,8.80432 16.42704,8.85808 C16.29264,9.22432 15.68448,10.54256 14.55216,11.67376 C14.42448,11.80032 14.28112,11.82496 14.18256,11.82496 L14.18032,11.82496 C14.08176,11.82496 13.93728,11.80032 13.81072,11.67376 C12.67728,10.54256 12.068,9.22432 11.93472,8.85808 C11.91456,8.80432 11.89552,8.74272 11.89552,8.65648 C11.89552,8.36528 12.13296,8.15584 12.3816,8.15584 C12.58656,8.15584 13.1712,8.21856 14.17696,8.21856 L14.18368,8.21856" id="Shape"></path>
                    <path d="M23.70368,6.60128 C23.6096,6.52736 23.4976,6.48928 23.38336,6.48928 C23.31952,6.48928 23.25568,6.50048 23.19296,6.52512 C22.0528,6.97312 20.8936,7.3136 19.8352,7.56672 C19.62016,7.61824 19.44544,7.78288 19.37264,7.98112 C18.60208,10.14832 16.63312,12.21136 14.56784,14.37408 C14.48496,14.45472 14.36848,14.56112 14.18032,14.56112 C13.99216,14.56112 13.87792,14.46032 13.7928,14.3752 C11.72752,12.2136 9.7608,10.15616 8.988,7.98896 C8.91632,7.79184 8.7416,7.6272 8.52544,7.57456 C7.46816,7.32256 6.3056,6.96976 5.16544,6.52176 C5.10496,6.49936 5.04224,6.48816 4.97728,6.48816 C4.86304,6.48816 4.75328,6.524 4.65808,6.59792 C4.51248,6.71216 4.43632,6.89808 4.45312,7.07616 C4.62784,8.87936 5.32224,10.64112 6.5744,12.48576 C7.7504,14.22176 9.28704,15.83008 10.77104,17.38352 C13.5072,20.24736 16.09104,22.95216 16.31728,26.08816 C16.33744,26.3704 16.56704,26.58992 16.84368,26.58992 L20.05808,26.58992 C20.20368,26.58992 20.34032,26.52832 20.44112,26.42192 C20.53856,26.31328 20.5912,26.1688 20.58448,26.02096 C20.48368,23.92432 19.71424,21.82432 18.23472,19.60336 C17.92448,19.13632 17.59184,18.68272 17.24464,18.2392 C17.10352,18.06 17.16176,17.836 17.2704,17.72176 L17.59072,17.38352 C19.07584,15.83008 20.61024,14.22288 21.78848,12.48688 C23.04064,10.64112 23.73392,8.88944 23.90864,7.08848 C23.92656,6.90592 23.84592,6.71328 23.70368,6.6024" id="Shape"></path>
                    <path d="M10.73184,19.82176 C10.65568,19.74112 10.54368,19.65712 10.35664,19.65712 C10.11696,19.65712 9.97584,19.82848 9.91984,19.91248 C8.56912,22.02368 7.87024,24.01616 7.77392,26.01872 C7.76832,26.16656 7.82096,26.31328 7.91952,26.42192 C8.02032,26.52832 8.16032,26.58992 8.3048,26.58992 L11.5136,26.58992 C11.788,26.58992 12.02096,26.36816 12.04,26.08592 C12.11056,25.12048 12.404,24.1528 12.936,23.13696 C13.1208,22.78528 12.97744,22.45376 12.87104,22.31376 C12.3424,21.60816 11.69504,20.85552 10.73184,19.82288" id="Shape"></path>
                </g>
            </g>
        </g>
    </g>
</svg>
