<?xml version="1.0" encoding="UTF-8" standalone="no"?>
<svg width="20px" height="20px" viewBox="0 0 20 20" version="1.1" xmlns="http://www.w3.org/2000/svg" xmlns:xlink="http://www.w3.org/1999/xlink">
    <!-- Generator: Sketch 3.8.3 (29802) - http://www.bohemiancoding.com/sketch -->
    <title>align-center</title>
    <desc>Created with Sketch.</desc>
    <defs></defs>
    <g id="Icons" stroke="none" stroke-width="1" fill="none" fill-rule="evenodd">
        <g id="align-center" fill="#505F79">
            <g transform="translate(4.000000, 5.000000)" id="Combined-Shape">
                <path d="M3,1 C3,0.44771525 3.45097518,0 3.99077797,0 L8.00922203,0 C8.55641359,0 9,0.443864822 9,1 C9,1.55228475 8.54902482,2 8.00922203,2 L3.99077797,2 C3.44358641,2 3,1.55613518 3,1 Z M0,5 C0,4.44771525 0.455760956,4 1.00247329,4 L10.9975267,4 C11.5511774,4 12,4.44386482 12,5 C12,5.55228475 11.544239,6 10.9975267,6 L1.00247329,6 C0.448822582,6 0,5.55613518 0,5 Z M3,9 C3,8.44771525 3.45097518,8 3.99077797,8 L8.00922203,8 C8.55641359,8 9,8.44386482 9,9 C9,9.55228475 8.54902482,10 8.00922203,10 L3.99077797,10 C3.44358641,10 3,9.55613518 3,9 Z"></path>
            </g>
        </g>
    </g>
</svg>