<?xml version="1.0" encoding="UTF-8" standalone="no"?>
<svg width="20px" height="20px" viewBox="0 0 20 20" version="1.1" xmlns="http://www.w3.org/2000/svg" xmlns:xlink="http://www.w3.org/1999/xlink">
    <!-- Generator: Sketch 3.8.3 (29802) - http://www.bohemiancoding.com/sketch -->
    <title>attachment</title>
    <desc>Created with Sketch.</desc>
    <defs></defs>
    <g id="Icons" stroke="none" stroke-width="1" fill="none" fill-rule="evenodd">
        <g id="attachment" fill="#505F79">
            <g transform="translate(2.000000, 2.000000)" id="Path-41">
                <path d="M13.1997475,7.29289322 L8.07662452,12.4160162 C6.90414286,13.5884978 5.00014469,13.5889795 3.83058262,12.4194174 C2.66145889,11.2502937 2.66348257,9.34387673 3.83181516,8.17554415 L9.30859582,2.69876349 C9.99596705,2.01139226 11.0981163,2.00928148 11.7855339,2.69669914 C12.4697639,3.38092918 12.4709782,4.48612854 11.7883126,5.16879413 L6.65226202,10.3048448 C6.46015225,10.4969545 6.149985,10.4961791 5.95190296,10.298097 C5.75360062,10.0997947 5.7527623,9.79013092 5.95190296,9.59099026 L10.7248737,4.81801948 C11.017767,4.52512626 11.017767,4.05025253 10.7248737,3.75735931 C10.4319805,3.46446609 9.95710678,3.46446609 9.66421356,3.75735931 L4.89124279,8.53033008 C4.10502627,9.3165466 4.10843572,10.5759501 4.89124279,11.3587572 C5.67392731,12.1414417 6.93383546,12.1445917 7.71292219,11.3655049 L12.8489728,6.2294543 C14.1179472,4.96047989 14.1156894,2.90553433 12.8461941,1.63603896 C11.5720786,0.361923497 9.5201858,0.365853168 8.24793565,1.63810332 L2.77115499,7.11488398 C1.01753946,8.86849951 1.0145076,11.7246627 2.76992245,13.4800776 C4.52539111,15.2355462 7.37913668,15.2348244 9.1372847,13.4766763 L14.2604076,8.35355339 C14.5533009,8.06066017 14.5533009,7.58578644 14.2604076,7.29289322 C13.9675144,7 13.4926407,7 13.1997475,7.29289322 L13.1997475,7.29289322 Z"></path>
            </g>
        </g>
    </g>
</svg>