<?xml version="1.0" encoding="UTF-8" standalone="no"?>
<svg width="20px" height="20px" viewBox="0 0 20 20" version="1.1" xmlns="http://www.w3.org/2000/svg" xmlns:xlink="http://www.w3.org/1999/xlink">
    <!-- Generator: Sketch 3.8.3 (29802) - http://www.bohemiancoding.com/sketch -->
    <title>code</title>
    <desc>Created with Sketch.</desc>
    <defs></defs>
    <g id="Icons" stroke="none" stroke-width="1" fill="none" fill-rule="evenodd">
        <g id="code" fill="#505F79">
            <g transform="translate(2.000000, 5.000000)" id="Combined-Shape">
                <path d="M5.46966991,0.469669914 L1.46966991,4.46966991 L0.939339828,5 L1.46966991,5.53033009 L5.46966991,9.53033009 C5.76256313,9.8232233 6.23743687,9.8232233 6.53033009,9.53033009 C6.8232233,9.23743687 6.8232233,8.76256313 6.53033009,8.46966991 L2.53033009,4.46966991 L2.53033009,5.53033009 L6.53033009,1.53033009 C6.8232233,1.23743687 6.8232233,0.762563133 6.53033009,0.469669914 C6.23743687,0.176776695 5.76256313,0.176776695 5.46966991,0.469669914 Z M9.46966991,1.53033009 L13.4696699,5.53033009 L13.4696699,4.46966991 L9.46966991,8.46966991 C9.1767767,8.76256313 9.1767767,9.23743687 9.46966991,9.53033009 C9.76256313,9.8232233 10.2374369,9.8232233 10.5303301,9.53033009 L14.5303301,5.53033009 L15.0606602,5 L14.5303301,4.46966991 L10.5303301,0.469669914 C10.2374369,0.176776695 9.76256313,0.176776695 9.46966991,0.469669914 C9.1767767,0.762563133 9.1767767,1.23743687 9.46966991,1.53033009 Z"></path>
            </g>
        </g>
    </g>
</svg>