<svg width="24" height="24" viewBox="0 0 24 24"><defs><linearGradient x1="99.688%" y1="15.804%" x2="39.843%" y2="97.441%" id="a"><stop stop-color="#172B4D" offset="0%" stop-opacity=".4"/><stop stop-color="currentColor" offset="92%" stop-opacity="0"/></linearGradient></defs><path d="M8.703 11.475c-.237-.253-.61-.239-.767.087L4.05 19.33a.464.464 0 0 0 .415.672h5.412a.448.448 0 0 0 .415-.26c1.167-2.408.46-6.077-1.59-8.267z" fill="currentColor"/><path d="M4.703 7.475c-.237-.253-.61-.239-.767.087L.05 15.33a.464.464 0 0 0 .415.672h5.412a.448.448 0 0 0 .415-.26c1.167-2.408.46-6.077-1.59-8.267z" fill="url(#a)" transform="translate(4 4)"/><path d="M11.554 4.41c-2.174 3.443-2.03 7.257-.598 10.12l2.608 5.217c.078.159.24.26.416.26h5.411a.464.464 0 0 0 .416-.671s-7.28-14.567-7.46-14.93c-.167-.325-.583-.332-.793.003z" fill="currentColor"/></svg>