<svg width="24" height="24" viewBox="0 0 24 24"><defs><linearGradient x1="97.526%" y1="25.488%" x2="46.927%" y2="78.776%" id="a"><stop stop-color="#172B4D" offset="0%" stop-opacity=".4"/><stop stop-color="currentColor" offset="100%" stop-opacity="0"/></linearGradient></defs><path d="M3.844 4a.563.563 0 0 0-.563.651L5.67 19.12a.765.765 0 0 0 .748.637h11.456a.562.562 0 0 0 .562-.472l2.388-14.63A.56.56 0 0 0 20.269 4H3.844zm10.054 10.456h-3.656l-.99-5.16h5.532l-.886 5.16z" fill="currentColor"/><path d="M17.063 5.297h-5.279l-.886 5.16H7.242l-4.317 5.116a.763.763 0 0 0 .492.186h11.458a.562.562 0 0 0 .563-.472l1.625-9.99z" fill="url(#a)" transform="translate(3 4)"/></svg>