<svg width="24" height="24" viewBox="0 0 24 24"><path d="M9.782 13.269c.62.638 1.036 1.105 1.377 1.542.068.087.16.292.042.51-.343.629-.532 1.228-.577 1.825a.34.34 0 0 1-.34.313H8.217a.338.338 0 0 1-.34-.354 6.07 6.07 0 0 1 .156-1.094l-.001-.002a.136.136 0 0 0-.132-.17l-.018.001c-1.683.245-2.747.634-2.749 1.063 0 .405.96 1.016 2.519 1.464v.002c.139.04.24.161.24.308a.328.328 0 0 1-.41.314H7.48C5.38 18.512 4 17.709 4 16.799c0-1.078 1.875-2.041 4.668-2.477.17-.331.367-.666.593-1.005a.338.338 0 0 1 .521-.048zm5.543 1.052C18.122 14.756 20 15.72 20 16.8c0 .909-1.39 1.714-3.485 2.193a.328.328 0 0 1-.407-.315c0-.147.101-.27.24-.31 1.56-.448 2.519-1.059 2.519-1.463v-.001c-.002-.43-1.069-.82-2.756-1.064l-.02-.002a.135.135 0 0 0-.13.17h-.001c.087.368.14.733.16 1.1a.333.333 0 0 1-.094.247.342.342 0 0 1-.246.105h-2.067a.338.338 0 0 1-.34-.311c-.145-1.942-1.807-3.617-3.566-5.39-.955-.961-1.943-1.956-2.7-3.031-.806-1.144-1.252-2.242-1.364-3.358a.334.334 0 0 1 .132-.3.342.342 0 0 1 .327-.047c.734.278 1.48.506 2.16.663.14.032.252.134.298.256.496 1.342 1.762 2.616 3.09 3.954a.344.344 0 0 0 .25.117.347.347 0 0 0 .25-.117c1.328-1.338 2.595-2.616 3.09-3.958a.423.423 0 0 1 .298-.257 16.85 16.85 0 0 0 2.16-.644.343.343 0 0 1 .328.046c.092.07.143.188.132.3-.113 1.116-.559 2.201-1.364 3.345-.757 1.075-1.745 2.07-2.7 3.032l-.207.209a.24.24 0 0 0-.016.32c.223.275.437.555.636.844.279.402.517.798.718 1.19zm-3.563-6.098c-.73-.7-1.12-1.517-1.207-1.744a.314.314 0 0 1 .288-.435c.132 0 .508.039 1.155.039h.004c.648 0 1.024-.039 1.156-.039a.314.314 0 0 1 .287.435c-.086.227-.477 1.044-1.206 1.744a.335.335 0 0 1-.239.093.334.334 0 0 1-.238-.093z" fill="currentColor" fill-rule="evenodd"/></svg>