<svg width="24" height="24" viewBox="0 0 24 24"><defs><linearGradient x1="87.389%" y1="99.249%" x2="33.859%" y2="37.768%" id="a"><stop stop-color="#172B4D" offset="0%" stop-opacity=".4"/><stop stop-color="currentColor" offset="100%" stop-opacity="0"/></linearGradient><linearGradient x1="14.184%" y1="5.8%" x2="61.142%" y2="70.966%" id="b"><stop stop-color="#172B4D" offset="0%" stop-opacity=".4"/><stop stop-color="currentColor" offset="100%" stop-opacity="0"/></linearGradient></defs><path d="M4.808 16.017c-.163.265-.345.573-.5.818a.5.5 0 0 0 .167.68l3.25 2a.5.5 0 0 0 .693-.17c.13-.217.297-.5.48-.802 1.287-2.125 2.582-1.865 4.917-.75l3.223 1.532a.5.5 0 0 0 .672-.25l1.547-3.5a.5.5 0 0 0-.25-.655c-.68-.32-2.032-.957-3.25-1.545-4.38-2.125-8.102-1.985-10.95 2.643z" fill="currentColor"/><path d="M19.38 8.078c.163-.265.345-.573.5-.818a.5.5 0 0 0-.167-.68l-3.25-2a.5.5 0 0 0-.713.17c-.13.218-.297.5-.48.802-1.287 2.126-2.582 1.866-4.917.75L7.14 4.772a.5.5 0 0 0-.673.25l-1.547 3.5a.5.5 0 0 0 .25.656c.68.32 2.032.957 3.25 1.545 4.39 2.122 8.112 1.982 10.96-2.645z" fill="currentColor"/><path d="M.807 11.768c-.162.264-.345.572-.5.817a.5.5 0 0 0 .168.68l3.25 2a.5.5 0 0 0 .693-.17c.13-.218.297-.5.48-.803 1.287-2.124 2.582-1.864 4.917-.75l3.223 1.533a.5.5 0 0 0 .672-.25l1.547-3.5a.5.5 0 0 0-.25-.655c-.68-.32-2.032-.957-3.25-1.545C7.378 7 3.655 7.14.808 11.768z" fill="url(#a)" transform="translate(4 4.25)"/><path d="M15.38 3.828c.162-.265.345-.573.5-.818a.5.5 0 0 0-.168-.68l-3.25-2a.5.5 0 0 0-.712.17c-.13.218-.297.5-.48.802-1.287 2.125-2.582 1.865-4.917.75L3.14.523a.5.5 0 0 0-.673.25L.92 4.272a.5.5 0 0 0 .25.655c.68.32 2.033.958 3.25 1.546 4.39 2.122 8.113 1.982 10.96-2.645z" fill="url(#b)" transform="translate(4 4.25)"/></svg>