<svg width="24" height="24" viewBox="0 0 24 24"><path d="M16.45 18.356c.026.033.04.062.04.093 0 .046-.045.078-.1.078-.401 0-1.638-.666-2.289-1.215-.089-.076-.213-.103-.39-.065a7.994 7.994 0 0 1-1.7.182c-3.683 0-6.668-2.464-6.668-5.505 0-3.04 2.985-5.504 6.667-5.504s6.667 2.464 6.667 5.504c0 1.814-1.063 3.423-2.702 4.426-.11.067-.227.193-.227.351 0 .324.304 1.126.703 1.655zm2.145.672c-.566-.322-1.103-.868-1.35-1.614a.295.295 0 0 1 .108-.352c1.637-1.266 2.667-3.103 2.667-5.15 0-3.816-3.586-6.91-8.01-6.91-4.424 0-8.01 3.094-8.01 6.91 0 3.819 3.586 6.913 8.01 6.913.578 0 1.142-.053 1.685-.153a.453.453 0 0 1 .33.06c1.097.674 2.73 1.238 4.161 1.238.461 0 .639-.293.639-.56a.433.433 0 0 0-.23-.382zm-2.21-5.572a.32.32 0 0 0-.53-.237c-.807.725-2.18 1.366-3.841 1.37h-.007a6.105 6.105 0 0 1-3.841-1.37.398.398 0 0 0-.218-.074c-.198 0-.312.167-.313.352 0 .143.1.262.182.385.477.715 1.953 1.929 4.176 1.929h.035c2.222 0 3.699-1.214 4.175-1.929.082-.123.182-.283.182-.426" fill="currentColor" fill-rule="evenodd"/></svg>