<svg width="24" height="24" viewBox="0 0 24 24"><defs><linearGradient x1="50%" y1="107%" x2="50%" y2="38.7%" id="a"><stop stop-color="#172B4D" offset="18%" stop-opacity=".4"/><stop stop-color="currentColor" offset="100%" stop-opacity="0"/></linearGradient></defs><g fill-rule="evenodd"><path d="M17.225 16.723s.07-.048.185-.138c1.675-1.295 2.728-3.175 2.728-5.268 0-3.902-3.67-7.067-8.195-7.067S3.75 7.415 3.75 11.317c0 3.903 3.668 7.073 8.193 7.073.577 0 1.154-.053 1.722-.158l.178-.032c1.152.75 2.827 1.36 4.292 1.36.458 0 .67-.372.38-.75-.442-.56-1.052-1.417-1.29-2.087zm-1-3.09c-.487.73-2 1.972-4.27 1.972h-.03c-2.272 0-3.785-1.25-4.27-1.973a.763.763 0 0 1-.187-.382.332.332 0 0 1 .32-.36.41.41 0 0 1 .222.075 6.25 6.25 0 0 0 3.93 1.402 6 6 0 0 0 3.935-1.415.328.328 0 0 1 .543.242.893.893 0 0 1-.185.439h-.008z" fill="currentColor"/><path d="M13.475 12.473s.07-.048.185-.138c1.675-1.295 2.727-3.175 2.727-5.268C16.387 3.165 12.717 0 8.193 0 3.668 0 0 3.165 0 7.067c0 3.903 3.667 7.073 8.193 7.073.577 0 1.154-.053 1.722-.158l.178-.032c1.152.75 2.827 1.36 4.292 1.36.457 0 .67-.373.38-.75-.443-.56-1.053-1.418-1.29-2.088zm-1-3.09c-.487.73-2 1.972-4.27 1.972h-.03c-2.273 0-3.785-1.25-4.27-1.973A.763.763 0 0 1 3.717 9a.332.332 0 0 1 .32-.36c.08.003.158.029.223.075a6.25 6.25 0 0 0 3.93 1.402 6 6 0 0 0 3.935-1.415.328.328 0 0 1 .543.242.893.893 0 0 1-.185.439h-.008z" fill="url(#a)" transform="translate(3.75 4.25)"/></g></svg>