<svg width="24" height="24" viewBox="0 0 24 24"><defs><linearGradient x1="80.418%" y1="47.767%" x2="28.264%" y2="81.66%" id="a"><stop stop-color="#172B4D" offset="0%" stop-opacity=".4"/><stop stop-color="currentColor" offset="100%" stop-opacity="0"/></linearGradient><linearGradient x1="19.808%" y1="58.982%" x2="79.678%" y2="20.787%" id="b"><stop stop-color="#172B4D" offset="0%" stop-opacity=".4"/><stop stop-color="currentColor" offset="100%" stop-opacity="0"/></linearGradient></defs><path d="M21.568 11.396l-8.811-8.794-.854-.852L5.27 8.37l-3.032 3.026a.808.808 0 0 0 0 1.143l6.06 6.048 3.605 3.598 6.632-6.62.103-.102 2.93-2.924a.808.808 0 0 0 0-1.143zm-9.665 3.593l-3.027-3.021 3.027-3.021 3.027 3.02-3.027 3.022z" fill="currentColor"/><path d="M9.903 7.197A5.08 5.08 0 0 1 9.88.024L3.257 6.633l3.605 3.598 3.04-3.034z" fill="url(#a)" transform="translate(2 1.75)"/><path d="M12.938 10.21l-3.035 3.029a5.082 5.082 0 0 1 0 7.196l6.64-6.627-3.605-3.598z" fill="url(#b)" transform="translate(2 1.75)"/></svg>