<svg width="24" height="24" viewBox="0 0 24 24"><defs><linearGradient x1="38.041%" y1="6.637%" x2="59.856%" y2="63.778%" id="a"><stop stop-color="#172B4D" offset="0%" stop-opacity=".4"/><stop stop-color="currentColor" offset="100%" stop-opacity="0"/></linearGradient></defs><path d="M13.335 9.98l5.152.02a.803.803 0 0 1 .638 1.285L11.52 21.44a5.403 5.403 0 0 1-1.095-7.563l2.91-3.897z" fill="currentColor"/><path d="M8.835 7.48l5.152.02a.803.803 0 0 1 .638 1.285L7.02 18.94a5.403 5.403 0 0 1-1.095-7.563l2.91-3.897z" fill="url(#a)" transform="translate(4.5 2.5)"/><path d="M10.422 13.877L5.3 13.845a.802.802 0 0 1-.638-1.285l7.53-10.06a5.403 5.403 0 0 1 1.095 7.563l-2.865 3.814z" fill="currentColor"/></svg>