<svg width="24" height="24" viewBox="0 0 24 24"><defs><linearGradient x1="98.031%" y1=".161%" x2="58.888%" y2="40.766%" id="a"><stop stop-color="#172B4D" offset="18%" stop-opacity=".4"/><stop stop-color="currentColor" offset="100%" stop-opacity="0"/></linearGradient></defs><path d="M21.114 2h-9.606a4.336 4.336 0 0 0 4.336 4.336h1.77v1.708a4.336 4.336 0 0 0 4.333 4.334V2.833A.833.833 0 0 0 21.114 2z" fill="currentColor"/><path d="M16.361 6.786H6.756a4.336 4.336 0 0 0 4.333 4.333h1.77v1.714a4.336 4.336 0 0 0 4.335 4.33V7.62a.833.833 0 0 0-.833-.833z" fill="currentColor"/><path d="M11.606 11.57H2a4.336 4.336 0 0 0 4.336 4.336h1.775v1.708a4.336 4.336 0 0 0 4.328 4.333v-9.544a.833.833 0 0 0-.833-.834z" fill="currentColor"/><path d="M14.361 4.786H4.756A4.336 4.336 0 0 0 9.089 9.12h1.77v1.714a4.336 4.336 0 0 0 4.335 4.33V5.62a.833.833 0 0 0-.833-.833z" fill="url(#a)" transform="translate(2 2)"/><path d="M9.606 9.57H0a4.336 4.336 0 0 0 4.336 4.336h1.775v1.708a4.336 4.336 0 0 0 4.328 4.333v-9.544a.833.833 0 0 0-.833-.834z" fill="url(#a)" transform="translate(2 2)"/></svg>