<svg width="24" height="24" viewBox="0 0 24 24"><g fill="currentColor" fill-rule="evenodd"><path d="M7.977 11A.99.99 0 0 0 7 12.001c0 .551.437.999.977.999h11.047a.988.988 0 0 0 .976-.999.99.99 0 0 0-.976-1.001H7.977z"/><path d="M8.497 3H4.994C3.894 3 3 3.893 3 4.995v14.01C3 20.108 3.893 21 4.994 21H12v-2H5V5h7V3H8.497zm7.806 5.305a1.053 1.053 0 0 0 0 1.478L18.5 12l-2.197 2.217a1.05 1.05 0 0 0 0 1.476c.404.409 1.06.409 1.465 0l2.93-2.955a1.055 1.055 0 0 0 0-1.477l-2.93-2.956a1.034 1.034 0 0 0-1.465 0z"/></g></svg>