<svg width="24" height="24" viewBox="0 0 24 24"><path d="M22.552 10.774l-6.113-2.162-2.282-7.147A.684.684 0 0 0 13.5 1a.684.684 0 0 0-.657.465l-2.281 7.147-6.113 2.161A.659.659 0 0 0 4 11.39c0 .274.179.52.449.616l6.11 2.16 2.282 7.365c.087.28.355.47.659.47a.683.683 0 0 0 .659-.47l2.283-7.365 6.11-2.16A.658.658 0 0 0 23 11.39a.659.659 0 0 0-.449-.615" fill="#AA8ED6"/><path d="M9.595 18.263l-1.437-.571-.559-2.2A.63.63 0 0 0 7 15a.63.63 0 0 0-.6.492l-.558 2.2-1.437.57a.666.666 0 0 0-.405.625c0 .279.161.529.405.626l1.43.568.562 2.415A.63.63 0 0 0 7 23a.632.632 0 0 0 .602-.504l.564-2.415 1.428-.568a.666.666 0 0 0 .406-.626.666.666 0 0 0-.406-.624" fill="#FCAB40"/><path d="M6.595 3.417l-1.47-.543-.543-1.469a.621.621 0 0 0-1.164 0l-.545 1.468-1.468.544a.62.62 0 0 0 0 1.165l1.468.544.544 1.468a.62.62 0 0 0 1.165 0l.544-1.468 1.468-.543a.622.622 0 0 0 0-1.166" fill="#5DADEC"/></svg>