<svg width="24" height="24" viewBox="0 0 24 24"><defs><linearGradient x1="50%" y1="82.77%" x2="50%" y2="-5.81%" id="a"><stop stop-color="currentColor" offset="0%" stop-opacity="0"/><stop stop-color="#172B4D" offset="82%" stop-opacity=".4"/></linearGradient></defs><g transform="translate(3 6)"><ellipse fill="currentColor" cx="9.073" cy="8.861" rx="4.138" ry="4.129"/><ellipse fill="url(#a)" cx="9.073" cy="8.861" rx="4.138" ry="4.129"/><path d="M.348 4.084L2.57 6.71a.474.474 0 0 0 .672.05c3.598-3.215 8.065-3.215 11.66 0a.474.474 0 0 0 .673-.05l2.221-2.626a.472.472 0 0 0-.054-.664c-5.22-4.56-12.12-4.56-17.34-.002a.472.472 0 0 0-.054.666z" fill="currentColor"/></g></svg>