<svg width="24" height="24" viewBox="0 0 24 24"><defs><linearGradient x1="76.008%" y1="30.816%" x2="3.205%" y2="70.705%" id="a"><stop stop-color="#172B4D" offset="18%" stop-opacity=".4"/><stop stop-color="currentColor" offset="100%" stop-opacity="0"/></linearGradient></defs><path d="M8.443 6v2.554c0 3.535-1.772 4.9-4.026 5.107a.464.464 0 0 0-.417.464v4.179a.465.465 0 0 0 .49.464c5.643-.288 9.043-4.41 9.043-9.53h.016V6H8.443z" fill="currentColor"/><path d="M4.443 0v2.554c0 3.535-1.772 4.9-4.026 5.107A.464.464 0 0 0 0 8.125v4.179a.465.465 0 0 0 .49.464c5.643-.288 9.043-4.41 9.043-9.53h.016V0H4.443z" fill="url(#a)" transform="translate(4 6)"/><path d="M19.768 18.097L13.792 6h-5.35l6.313 12.39a.696.696 0 0 0 .619.378h3.984a.464.464 0 0 0 .41-.671z" fill="currentColor"/></svg>