<svg style="height: 100%" id="Layer_1" data-name="Layer 1" xmlns="http://www.w3.org/2000/svg" viewBox="0 0 309.98 132.2">
  <defs>
    <style>.cls-1{fill:currentColor;}</style>
  </defs>
  <title>jira</title>
  <path class="cls-1" d="M235.9,330H216.6a3.14,3.14,0,0,0-3.1,3.2V450.8a3.12,3.12,0,0,0,3.1,3.1h19.3a3.12,3.12,0,0,0,3.1-3.1V333.2A3.14,3.14,0,0,0,235.9,330Z" transform="translate(-150.36 -330)"/><path class="cls-1" d="M359.8,448.7l-26.9-38.8c11.6-4.8,17.5-14.9,17.5-30V364.1c0-23.6-12.3-34.1-39.9-34.1H262.6a3.14,3.14,0,0,0-3.1,3.2V450.8a3.12,3.12,0,0,0,3.1,3.1h19.3a3.12,3.12,0,0,0,3.1-3.1V413.9h19.8l26.9,38.7a3.42,3.42,0,0,0,2.6,1.4h23.1a3.12,3.12,0,0,0,3.1-3.1A3.84,3.84,0,0,0,359.8,448.7ZM285,352.9h24.5c12.7,0,15.2,5,15.2,13v12c0,10-3.8,13.4-15.2,13.4H285V352.9Z" transform="translate(-150.36 -330)"/><path class="cls-1" d="M423.2,332.2a3.12,3.12,0,0,0-3-2.2H390.8a3.12,3.12,0,0,0-3,2.2L350.7,449.8a3.21,3.21,0,0,0,3,4.1H374a3.09,3.09,0,0,0,3-2.3l25.5-86.5a3.25,3.25,0,0,1,3-2.2,2.93,2.93,0,0,1,2.9,2.2l11.9,41H404a3.09,3.09,0,0,0-3,2.3l-4.6,16.2a3.15,3.15,0,0,0,.5,2.8,3,3,0,0,0,2.5,1.2h27.5l7.1,22.9a3.12,3.12,0,0,0,3,2.2h20.2a3.21,3.21,0,0,0,3-4.1Z" transform="translate(-150.36 -330)"/><path class="cls-1" d="M190.6,330H171a3,3,0,0,0-3,3v92c0,11.6-8.8,15.4-14.8,15.7a3.07,3.07,0,0,0-2.3,1.3,3,3,0,0,0-.4,2.6l4.8,15.5c0.4,1.3,1.8,2.1,4,2.1a34.06,34.06,0,0,0,34.3-34.4V333a2.72,2.72,0,0,0-.9-2.1A2.88,2.88,0,0,0,190.6,330Z" transform="translate(-150.36 -330)"/>
</svg>
