<?xml version="1.0" encoding="UTF-8" standalone="no"?>
<svg width="24px" height="24px" viewBox="0 0 24 24" version="1.1" xmlns="http://www.w3.org/2000/svg" xmlns:xlink="http://www.w3.org/1999/xlink">
    <!-- Generator: Sketch 45.1 (43504) - http://www.bohemiancoding.com/sketch -->
    <title>icons/atlassian</title>
    <desc>Created with Sketch.</desc>
    <defs></defs>
    <g id="Global" stroke="none" stroke-width="1" fill="none" fill-rule="evenodd">
        <g id="icons/atlassian" fill="#42526E">
            <path d="M20.6491963,4.21610053 C20.7638183,4.36834133 20.7676177,4.62455537 20.5735307,4.77620755 C19.3568886,5.68323096 18.0174906,6.39028113 16.5906544,6.87408046 C15.1120725,7.3757527 13.5657983,7.63052193 11.9948016,7.63127109 L11.9936779,7.63127109 C10.4228953,7.63052193 8.876621,7.37580621 7.39782502,6.87408046 C5.97120294,6.39038815 4.63175144,5.68323096 3.41666114,4.77733129 C3.22102234,4.62455537 3.22466114,4.36844835 3.33949726,4.21572594 C3.4169287,4.11207377 3.54059425,4.05010721 3.67025311,4.05010721 C3.73714274,4.05010721 3.80306916,4.06685638 3.86086181,4.09858882 C6.28697552,5.42664233 9.09949726,6.12892996 11.99432,6.12973263 C14.8891427,6.12892996 17.7016645,5.42658882 20.1278852,4.09842828 C20.1855708,4.06680287 20.2516043,4.05000019 20.3184939,4.05000019 C20.4478852,4.05000019 20.5717648,4.11202026 20.6491963,4.21610053 Z M17.8609153,7.99927109 C17.948514,8.06621424 17.9978518,8.18158548 17.9870959,8.29021424 C17.8793233,9.37179283 17.4519789,10.4230303 16.6807682,11.5313112 C15.955524,12.5731306 15.0098652,13.5373581 14.0953501,14.4700671 C14.0289956,14.5380805 13.9629621,14.6051306 13.8971963,14.6726089 C13.8307347,14.7404082 13.7943468,14.8751507 13.8811963,14.9835119 C14.0952431,15.2498397 14.2999254,15.5217861 14.4910692,15.8014383 C15.4028551,17.13495 15.8764872,18.3950437 15.9387213,19.6533179 C15.9432163,19.7425219 15.9107882,19.8291039 15.8493568,19.8936925 C15.7878718,19.9582811 15.7026812,19.9949902 15.6135307,19.9949902 L13.6341327,19.9949902 C13.4634839,19.9949902 13.3221595,19.8632978 13.3096377,19.6936657 C13.1698652,17.8116055 11.57832,16.188542 9.89355746,14.4700671 C8.97920294,13.5374651 8.03343706,12.5731306 7.30835345,11.5313112 C6.53698221,10.4231908 6.10958421,9.3656925 6.00181164,8.28406039 C5.99121632,8.17687644 6.03793204,8.06535805 6.12804575,7.99664902 C6.18573137,7.95271591 6.25390529,7.93050855 6.32427318,7.93050855 C6.36349726,7.93050855 6.40293539,7.9375721 6.44071465,7.95191323 C7.14300227,8.22075604 7.85888187,8.43137812 8.51102903,8.58324434 C8.64384508,8.61433464 8.75124308,8.71311725 8.79576482,8.83148514 C9.27078823,10.1324617 10.48331,11.3666022 11.7554973,12.664047 C11.8074036,12.7146156 11.8784136,12.7764751 11.994427,12.7764751 C12.110922,12.7764751 12.1824136,12.7125286 12.2334103,12.664047 C13.5057046,11.3666022 14.7182799,10.1280738 15.1931963,8.82731123 C15.237718,8.70872929 15.3450625,8.61010721 15.4780926,8.5789634 C16.1297581,8.4272042 16.8439254,8.22300354 17.5471762,7.95400019 C17.5845809,7.93960554 17.624126,7.93259551 17.6631896,7.93259551 C17.7336645,7.93259551 17.8031227,7.95528447 17.8609153,7.99927109 Z M9.87033338,15.9339868 C10.4637782,16.5532243 10.8626009,17.0050236 11.1883802,17.4285688 C11.253932,17.5132778 11.3423334,17.7115387 11.228514,17.9225888 C10.9002197,18.5326758 10.7199387,19.1132243 10.6768618,19.6923279 C10.6644471,19.861853 10.5212498,19.9949902 10.3512431,19.9949902 L8.37516281,19.9949902 C8.28622636,19.9949902 8.19985846,19.957853 8.13837351,19.893532 C8.07699559,19.8287293 8.04440696,19.740756 8.04868789,19.6521407 C8.10819291,18.4504818 8.53815947,17.2547092 9.37069458,15.9878196 C9.40387184,15.9371975 9.49157753,15.8349902 9.63926983,15.8349902 C9.75474809,15.8349902 9.82351064,15.8850236 9.87033338,15.9339868 Z M11.9962999,8.96895671 C12.6166076,8.96895671 12.9764203,8.93171257 13.1027615,8.93171257 C13.255912,8.93171257 13.402213,9.057144 13.402213,9.23276942 C13.402213,9.28398012 13.3901193,9.32068915 13.3781862,9.35301022 C13.2957247,9.57305036 12.9208217,10.3643279 12.2228685,11.0431239 C12.1444738,11.1192176 12.0557514,11.1335052 11.9946946,11.1335052 L11.9938919,11.1335052 C11.9328351,11.1335052 11.8442197,11.1192176 11.765932,11.0431239 C11.0678718,10.3643279 10.6928618,9.57305036 10.6107213,9.35301022 C10.5985207,9.32068915 10.5864805,9.28398012 10.5864805,9.23276942 C10.5864805,9.057144 10.7329956,8.93171257 10.8861461,8.93171257 C11.0124872,8.93171257 11.3721394,8.96895671 11.992233,8.96895671 L11.9962999,8.96895671 Z" id="Combined-Shape"></path>
        </g>
    </g>
</svg>
