<?xml version="1.0" encoding="UTF-8"?>
<svg width="24px" height="24px" viewBox="0 0 24 24" version="1.1" xmlns="http://www.w3.org/2000/svg" xmlns:xlink="http://www.w3.org/1999/xlink">
    <!-- Generator: Sketch 46.2 (44496) - http://www.bohemiancoding.com/sketch -->
    <title>Status page blue - small  Copy 2</title>
    <desc>Created with Sketch.</desc>
    <defs>
        <linearGradient x1="97.5261587%" y1="25.4884818%" x2="46.9265964%" y2="78.7761408%" id="linearGradient-1">
            <stop stop-color="#172B4D" offset="0%" stop-opacity="0.4"></stop>
            <stop stop-color="currentColor" offset="100%" stop-opacity="0"></stop>
        </linearGradient>
    </defs>
    <g id="24px-(small-/-icon)" stroke="none" stroke-width="1" fill="none" fill-rule="evenodd">
        <g id="Status-page-blue---small--Copy-2">
            <g id="Bitbucket-icon-neutral" transform="translate(3.000000, 4.000000)">
                <path d="M0.84375,-1.29033611e-16 C0.677577527,-0.00213903857 0.518962249,0.0691684345 0.410452633,0.194794226 C0.301943017,0.320420017 0.254646372,0.487504765 0.28125,0.65122807 L2.6690625,15.1185965 C2.73047347,15.4840408 3.04592806,15.7527198 3.4171875,15.7557895 L14.8725,15.7557895 C15.1511584,15.759369 15.390434,15.5587693 15.435,15.2842105 L17.8228125,0.654035088 C17.850084,0.491337236 17.8042805,0.324902131 17.6975671,0.198933786 C17.5908536,0.0729654407 17.4340309,0.000213362244 17.26875,-1.29033611e-16 L0.84375,-1.29033611e-16 Z M10.8984375,10.4561404 L7.2421875,10.4561404 L6.2521875,5.29684211 L11.784375,5.29684211 L10.8984375,10.4561404 Z" id="Shape" fill="currentColor" fill-rule="nonzero"></path>
                <path d="M17.0634375,5.29684211 L11.784375,5.29684211 L10.8984375,10.4561404 L7.2421875,10.4561404 L2.925,15.5733333 C3.06183577,15.6914253 3.23629527,15.7570932 3.4171875,15.7585965 L14.8753125,15.7585965 C15.1539709,15.762176 15.3932465,15.5615763 15.4378125,15.2870175 L17.0634375,5.29684211 Z" fill="url(#linearGradient-1)" fill-rule="nonzero"></path>
            </g>
        </g>
    </g>
</svg>
