<?xml version="1.0" encoding="UTF-8"?>
<svg width="24px" height="24px" viewBox="0 0 24 24" version="1.1" xmlns="http://www.w3.org/2000/svg" xmlns:xlink="http://www.w3.org/1999/xlink">
    <!-- Generator: Sketch 46.2 (44496) - http://www.bohemiancoding.com/sketch -->
    <title>Bitbucket neutral - small</title>
    <desc>Created with Sketch.</desc>
    <defs>
        <linearGradient x1="87.3894879%" y1="99.2494383%" x2="33.8589812%" y2="37.7675389%" id="linearGradient-1">
            <stop stop-color="#172B4D" offset="0%" stop-opacity="0.4"></stop>
            <stop stop-color="currentColor" offset="100%" stop-opacity="0"></stop>
        </linearGradient>
        <linearGradient x1="14.1838118%" y1="5.80047897%" x2="61.141783%" y2="70.9663868%" id="linearGradient-2">
            <stop stop-color="#172B4D" offset="0%" stop-opacity="0.4"></stop>
            <stop stop-color="currentColor" offset="100%" stop-opacity="0"></stop>
        </linearGradient>
    </defs>
    <g id="24px-(small-/-icon)" stroke="none" stroke-width="1" fill="none" fill-rule="evenodd">
        <g id="Bitbucket-neutral---small" fill-rule="nonzero">
            <g id="Confluence-icon-neutral" transform="translate(4.000000, 4.250000)">
                <path d="M0.8075,11.7675 C0.645,12.0325 0.4625,12.34 0.3075,12.585 C0.168762967,12.8194483 0.243242559,13.1218132 0.475,13.265 L3.725,15.265 C3.83908168,15.335436 3.97667193,15.3571041 4.10687997,15.3251397 C4.237088,15.2931753 4.3490035,15.2102566 4.4175,15.095 C4.5475,14.8775 4.715,14.595 4.8975,14.2925 C6.185,12.1675 7.48,12.4275 9.815,13.5425 L13.0375,15.075 C13.1595475,15.1330911 13.2999147,15.1392941 13.4266107,15.0921952 C13.5533066,15.0450964 13.6555361,14.9487087 13.71,14.825 L15.2575,11.325 C15.3668334,11.0750261 15.2555848,10.7835547 15.0075,10.67 C14.3275,10.35 12.975,9.7125 11.7575,9.125 C7.3775,7 3.655,7.14 0.8075,11.7675 Z" fill="currentColor"></path>
                <path d="M15.38,3.8275 C15.5425,3.5625 15.725,3.255 15.88,3.01 C16.018737,2.7755517 15.9442574,2.47318679 15.7125,2.33 L12.4625,0.33 C12.3468608,0.252946135 12.2043712,0.22749168 12.0692059,0.259741645 C11.9340406,0.291991609 11.818393,0.379036709 11.75,0.5 C11.62,0.7175 11.4525,1 11.27,1.3025 C9.9825,3.4275 8.6875,3.1675 6.3525,2.0525 L3.14,0.5225 C3.01795251,0.464408873 2.87758527,0.458205884 2.75088931,0.505304753 C2.62419336,0.552403622 2.5219639,0.648791258 2.4675,0.7725 L0.92,4.2725 C0.810666606,4.5224739 0.921915217,4.81394526 1.17,4.9275 C1.85,5.2475 3.2025,5.885 4.42,6.4725 C8.81,8.595 12.5325,8.455 15.38,3.8275 Z" fill="currentColor"></path>
                <path d="M0.8075,11.7675 C0.645,12.0325 0.4625,12.34 0.3075,12.585 C0.168762967,12.8194483 0.243242559,13.1218132 0.475,13.265 L3.725,15.265 C3.83908168,15.335436 3.97667193,15.3571041 4.10687997,15.3251397 C4.237088,15.2931753 4.3490035,15.2102566 4.4175,15.095 C4.5475,14.8775 4.715,14.595 4.8975,14.2925 C6.185,12.1675 7.48,12.4275 9.815,13.5425 L13.0375,15.075 C13.1595475,15.1330911 13.2999147,15.1392941 13.4266107,15.0921952 C13.5533066,15.0450964 13.6555361,14.9487087 13.71,14.825 L15.2575,11.325 C15.3668334,11.0750261 15.2555848,10.7835547 15.0075,10.67 C14.3275,10.35 12.975,9.7125 11.7575,9.125 C7.3775,7 3.655,7.14 0.8075,11.7675 Z" fill="url(#linearGradient-1)"></path>
                <path d="M15.38,3.8275 C15.5425,3.5625 15.725,3.255 15.88,3.01 C16.018737,2.7755517 15.9442574,2.47318679 15.7125,2.33 L12.4625,0.33 C12.3468608,0.252946135 12.2043712,0.22749168 12.0692059,0.259741645 C11.9340406,0.291991609 11.818393,0.379036709 11.75,0.5 C11.62,0.7175 11.4525,1 11.27,1.3025 C9.9825,3.4275 8.6875,3.1675 6.3525,2.0525 L3.14,0.5225 C3.01795251,0.464408873 2.87758527,0.458205884 2.75088931,0.505304753 C2.62419336,0.552403622 2.5219639,0.648791258 2.4675,0.7725 L0.92,4.2725 C0.810666606,4.5224739 0.921915217,4.81394526 1.17,4.9275 C1.85,5.2475 3.2025,5.885 4.42,6.4725 C8.81,8.595 12.5325,8.455 15.38,3.8275 Z" fill="url(#linearGradient-2)"></path>
            </g>
        </g>
    </g>
</svg>
