<?xml version="1.0" encoding="UTF-8"?>
<svg width="24px" height="24px" viewBox="0 0 24 24" version="1.1" xmlns="http://www.w3.org/2000/svg" xmlns:xlink="http://www.w3.org/1999/xlink">
    <!-- Generator: Sketch 46.2 (44496) - http://www.bohemiancoding.com/sketch -->
    <title>Bamboo neutral - small</title>
    <desc>Created with Sketch.</desc>
    <defs>
        <linearGradient x1="50%" y1="107%" x2="50%" y2="38.7%" id="linearGradient-1">
            <stop stop-color="#172B4D" offset="18%" stop-opacity="0.4"></stop>
            <stop stop-color="currentColor" offset="100%" stop-opacity="0"></stop>
        </linearGradient>
    </defs>
    <g stroke="none" stroke-width="1" fill="none" fill-rule="evenodd" transform="translate(3.750000, 4.250000)">
        <path d="M13.475,12.4725 C13.475,12.4725 13.545,12.425 13.66,12.335 C15.335,11.04 16.3875,9.16 16.3875,7.0675 C16.3875,3.165 12.7175,0 8.1925,0 C3.6675,0 0,3.165 0,7.0675 C0,10.97 3.6675,14.14 8.1925,14.14 C8.77026588,14.1400853 9.34683055,14.0873661 9.915,13.9825 L10.0925,13.95 C11.245,14.7 12.92,15.31 14.385,15.31 C14.8425,15.31 15.055,14.9375 14.765,14.56 C14.3225,14 13.7125,13.1425 13.475,12.4725 Z M12.475,9.3825 C11.9875,10.1125 10.475,11.355 8.205,11.355 L8.175,11.355 C5.9025,11.355 4.39,10.105 3.905,9.3825 C3.80743089,9.27540206 3.74239249,9.14272373 3.7175,9 C3.70991855,8.90929047 3.73985685,8.81943897 3.80033111,8.75140543 C3.86080536,8.68337189 3.94652719,8.64310575 4.0375,8.64 C4.11741877,8.64262842 4.19479816,8.66871136 4.26,8.715 C5.3706481,9.61891338 6.75801309,10.1140226 8.19,10.1175 L8.19,10.1175 C9.62890931,10.1329635 11.0254531,9.63077564 12.125,8.7025 C12.1839455,8.64927221 12.2605786,8.61986648 12.34,8.62 C12.5199014,8.61999476 12.6661267,8.76510382 12.6675,8.945 C12.6464857,9.10486729 12.5825547,9.25605553 12.4825,9.3825 L12.475,9.3825 Z" fill="currentColor"></path>
        <path d="M13.475,12.4725 C13.475,12.4725 13.545,12.425 13.66,12.335 C15.335,11.04 16.3875,9.16 16.3875,7.0675 C16.3875,3.165 12.7175,0 8.1925,0 C3.6675,0 0,3.165 0,7.0675 C0,10.97 3.6675,14.14 8.1925,14.14 C8.77026588,14.1400853 9.34683055,14.0873661 9.915,13.9825 L10.0925,13.95 C11.245,14.7 12.92,15.31 14.385,15.31 C14.8425,15.31 15.055,14.9375 14.765,14.56 C14.3225,14 13.7125,13.1425 13.475,12.4725 Z M12.475,9.3825 C11.9875,10.1125 10.475,11.355 8.205,11.355 L8.175,11.355 C5.9025,11.355 4.39,10.105 3.905,9.3825 C3.80743089,9.27540206 3.74239249,9.14272373 3.7175,9 C3.70991855,8.90929047 3.73985685,8.81943897 3.80033111,8.75140543 C3.86080536,8.68337189 3.94652719,8.64310575 4.0375,8.64 C4.11741877,8.64262842 4.19479816,8.66871136 4.26,8.715 C5.3706481,9.61891338 6.75801309,10.1140226 8.19,10.1175 L8.19,10.1175 C9.62890931,10.1329635 11.0254531,9.63077564 12.125,8.7025 C12.1839455,8.64927221 12.2605786,8.61986648 12.34,8.62 C12.5199014,8.61999476 12.6661267,8.76510382 12.6675,8.945 C12.6464857,9.10486729 12.5825547,9.25605553 12.4825,9.3825 L12.475,9.3825 Z" fill="url(#linearGradient-1)"></path>
    </g>
</svg>
