<?xml version="1.0" encoding="UTF-8"?>
<svg width="24px" height="24px" viewBox="0 0 24 24" version="1.1" xmlns="http://www.w3.org/2000/svg" xmlns:xlink="http://www.w3.org/1999/xlink">
    <!-- Generator: Sketch 46.2 (44496) - http://www.bohemiancoding.com/sketch -->
    <title>Jira</title>
    <desc>Created with Sketch.</desc>
    <defs>
        <linearGradient x1="98.0308675%" y1="0.160599572%" x2="58.8877062%" y2="40.7655246%" id="linearGradient-1">
            <stop stop-color="#172B4D" offset="18%" stop-opacity="0.4"></stop>
            <stop stop-color="currentColor" offset="100%" stop-opacity="0"></stop>
        </linearGradient>
    </defs>
    <g stroke="none" stroke-width="1" fill="none" fill-rule="evenodd">
        <g fill-rule="nonzero">
            <g transform="translate(2.000000, 2.000000)">
                <path d="M19.1138889,0 L9.50833333,0 C9.50833333,1.15000817 9.9651723,2.252915 10.7783509,3.06609357 C11.5915294,3.87927214 12.6944363,4.33611111 13.8444444,4.33611111 L15.6138889,4.33611111 L15.6138889,6.04444444 C15.6154211,8.4370434 17.5546233,10.3762455 19.9472222,10.3777778 L19.9472222,0.833333333 C19.9472222,0.373096042 19.5741262,2.81814063e-17 19.1138889,0 Z" fill="currentColor"></path>
                <path d="M14.3611111,4.78611111 L4.75555556,4.78611111 C4.7570878,7.17871006 6.69628994,9.1179122 9.08888889,9.11944444 L10.8583333,9.11944444 L10.8583333,10.8333333 C10.8613988,13.2259315 12.8018443,15.1638909 15.1944444,15.1638889 L15.1944444,5.61944444 C15.1944444,5.15920715 14.8213484,4.78611111 14.3611111,4.78611111 Z" fill="currentColor"></path>
                <path d="M9.60555556,9.56944444 L0,9.56944444 C2.93274502e-16,11.9642125 1.94134307,13.9055556 4.33611111,13.9055556 L6.11111111,13.9055556 L6.11111111,15.6138889 C6.11263805,18.0043219 8.0484598,19.9426287 10.4388889,19.9472222 L10.4388889,10.4027778 C10.4388889,9.94254049 10.0657928,9.56944444 9.60555556,9.56944444 Z" fill="currentColor"></path>
                <path d="M14.3611111,4.78611111 L4.75555556,4.78611111 C4.7570878,7.17871006 6.69628994,9.1179122 9.08888889,9.11944444 L10.8583333,9.11944444 L10.8583333,10.8333333 C10.8613988,13.2259315 12.8018443,15.1638909 15.1944444,15.1638889 L15.1944444,5.61944444 C15.1944444,5.15920715 14.8213484,4.78611111 14.3611111,4.78611111 Z" fill="url(#linearGradient-1)"></path>
                <path d="M9.60555556,9.56944444 L0,9.56944444 C2.93274502e-16,11.9642125 1.94134307,13.9055556 4.33611111,13.9055556 L6.11111111,13.9055556 L6.11111111,15.6138889 C6.11263805,18.0043219 8.0484598,19.9426287 10.4388889,19.9472222 L10.4388889,10.4027778 C10.4388889,9.94254049 10.0657928,9.56944444 9.60555556,9.56944444 Z" fill="url(#linearGradient-1)"></path>
            </g>
        </g>
    </g>
</svg>
