<?xml version="1.0" encoding="UTF-8"?>
<svg width="24px" height="24px" viewBox="0 0 24 24" version="1.1" xmlns="http://www.w3.org/2000/svg" xmlns:xlink="http://www.w3.org/1999/xlink">
    <!-- Generator: Sketch 46.2 (44496) - http://www.bohemiancoding.com/sketch -->
    <title>Jira Core</title>
    <desc>Created with Sketch.</desc>
    <defs>
        <linearGradient x1="17.1933086%" y1="20.0326493%" x2="88.2434944%" y2="53.9179104%" id="jira-core-icon-gradient">
            <stop stop-color="#172B4D" offset="17%" stop-opacity="0.4"></stop>
            <stop stop-color="currentColor" offset="100%" stop-opacity="0"></stop>
        </linearGradient>
    </defs>
    <g stroke="none" stroke-width="1" fill="none" fill-rule="evenodd">
        <g fill-rule="nonzero">
            <g transform="translate(4.500000, 3.000000)">
                <path d="M9.11727273,12.1309091 C9.11727273,15.3723185 11.7449542,18 14.9863636,18 L14.9863636,18 L14.9863636,6.30545455 L9.11727273,10.3254545 L9.11727273,12.1309091 Z" fill="currentColor"></path>
                <path d="M9.11727273,12.1309091 C9.11727273,15.3723185 11.7449542,18 14.9863636,18 L14.9863636,18 L14.9863636,6.30545455 L9.11727273,10.3254545 L9.11727273,12.1309091 Z" fill="url(#jira-core-icon-gradient)"></path>
                <path d="M14.9863636,6.30545455 L14.9863636,0.875454545 C14.9857834,0.552405469 14.8067988,0.256102075 14.5211249,0.10526624 C14.235451,-0.0455695944 13.8898234,-0.0262613744 13.6227273,0.155454545 L0,9.45545455 C1.82298907,12.1343549 5.47206663,12.8290104 8.15181818,11.0072727 L14.9863636,6.30545455 Z" fill="currentColor"></path>
            </g>
        </g>
    </g>
</svg>
