<?xml version="1.0" encoding="UTF-8"?>
<svg width="24px" height="24px" viewBox="0 0 24 24" version="1.1" xmlns="http://www.w3.org/2000/svg" xmlns:xlink="http://www.w3.org/1999/xlink">
    <!-- Generator: Sketch 46.2 (44496) - http://www.bohemiancoding.com/sketch -->
    <title>Jira Service Desk</title>
    <desc>Created with Sketch.</desc>
    <defs>
        <linearGradient x1="38.0412357%" y1="6.63683429%" x2="59.8560262%" y2="63.7778713%" id="jsd-logo-gradient">
            <stop stop-color="#172B4D" offset="0%" stop-opacity="0.4"></stop>
            <stop stop-color="currentColor" offset="100%" stop-opacity="0"></stop>
        </linearGradient>
    </defs>
    <g stroke="none" stroke-width="1" fill="none" fill-rule="evenodd">
        <g fill-rule="nonzero">
            <g transform="translate(4.500000, 2.500000)">
                <path d="M8.835,7.48 L13.9875,7.5 C14.2910145,7.50141536 14.5677607,7.67394544 14.702651,7.94584191 C14.8375413,8.21773838 14.8074922,8.54247234 14.625,8.785 L7.02,18.94 C5.87177401,18.0824807 5.11130464,16.803882 4.90594345,15.385577 C4.70058226,13.967272 5.06715774,12.5254848 5.925,11.3775 L8.835,7.48 Z" fill="currentColor"></path>
                <path d="M8.835,7.48 L13.9875,7.5 C14.2910145,7.50141536 14.5677607,7.67394544 14.702651,7.94584191 C14.8375413,8.21773838 14.8074922,8.54247234 14.625,8.785 L7.02,18.94 C5.87177401,18.0824807 5.11130464,16.803882 4.90594345,15.385577 C4.70058226,13.967272 5.06715774,12.5254848 5.925,11.3775 L8.835,7.48 Z" fill="url(#jsd-logo-gradient)"></path>
                <path d="M5.9225,11.3775 L0.8,11.345 C0.496485468,11.3435846 0.219739255,11.1710546 0.0848489839,10.8991581 C-0.050041287,10.6272616 -0.0199922146,10.3025277 0.1625,10.06 L7.6925,0 C8.84072599,0.857519333 9.60119536,2.13611796 9.80655655,3.55442297 C10.0119177,4.97272798 9.64534226,6.41451525 8.7875,7.5625 L5.9225,11.3775 Z" fill="currentColor"></path>
            </g>
        </g>
    </g>
</svg>
