<?xml version="1.0" encoding="UTF-8"?>
<svg width="24px" height="24px" viewBox="0 0 24 24" version="1.1" xmlns="http://www.w3.org/2000/svg" xmlns:xlink="http://www.w3.org/1999/xlink">
    <!-- Generator: Sketch 46.2 (44496) - http://www.bohemiancoding.com/sketch -->
    <title>Jira software neutral - small</title>
    <desc>Created with Sketch.</desc>
    <defs>
        <linearGradient x1="80.4180561%" y1="47.7674419%" x2="28.2635218%" y2="81.6596195%" id="jsw-logo-gradient-1">
            <stop stop-color="#172B4D" offset="0%" stop-opacity="0.4"></stop>
            <stop stop-color="currentColor" offset="100%" stop-opacity="0"></stop>
        </linearGradient>
        <linearGradient x1="19.8080421%" y1="58.981696%" x2="79.677643%" y2="20.7873088%" id="jsw-logo-gradient-2">
            <stop stop-color="#172B4D" offset="0%" stop-opacity="0.4"></stop>
            <stop stop-color="currentColor" offset="100%" stop-opacity="0"></stop>
        </linearGradient>
    </defs>
    <g stroke="none" stroke-width="1" fill="none" fill-rule="evenodd">
        <g fill-rule="nonzero">
            <g transform="translate(2.000000, 1.750000)">
                <path d="M19.5675676,9.64578947 L10.7567568,0.852368421 L9.9027027,0 L3.27027027,6.61934211 L0.237837838,9.64578947 C-0.0783279763,9.9617242 -0.0783279763,10.473539 0.237837838,10.7894737 L6.2972973,16.8369737 L9.9027027,20.4352632 L16.5351351,13.8159211 L16.6378378,13.7134211 L19.5675676,10.7894737 C19.8837334,10.473539 19.8837334,9.9617242 19.5675676,9.64578947 Z M9.9027027,13.2386842 L6.87567568,10.2176316 L9.9027027,7.19657895 L12.9297297,10.2176316 L9.9027027,13.2386842 Z" fill="currentColor"></path>
                <path d="M9.9027027,7.19657895 C7.92083196,5.21838612 7.91117303,2.01433519 9.88108108,0.0242763158 L3.25675676,6.63282895 L6.86216216,10.2311184 L9.9027027,7.19657895 Z" fill="url(#jsw-logo-gradient-1)"></path>
                <path d="M12.9378378,10.2095395 L9.9027027,13.2386842 C10.8592873,14.192813 11.3967388,15.4872302 11.3967388,16.8369737 C11.3967388,18.1867171 10.8592873,19.4811343 9.9027027,20.4352632 L16.5432432,13.8078289 L12.9378378,10.2095395 Z" fill="url(#jsw-logo-gradient-2)"></path>
            </g>
        </g>
    </g>
</svg>
