<?xml version="1.0" encoding="UTF-8" standalone="no"?>
<svg width="24px" height="24px" viewBox="0 0 24 24" version="1.1" xmlns="http://www.w3.org/2000/svg" xmlns:xlink="http://www.w3.org/1999/xlink">
    <!-- Generator: Sketch 45.1 (43504) - http://www.bohemiancoding.com/sketch -->
    <title>icons/sign-out</title>
    <desc>Created with Sketch.</desc>
    <defs></defs>
    <g id="Global" stroke="none" stroke-width="1" fill="none" fill-rule="evenodd">
        <g id="icons/sign-out" fill="#42526E">
            <path d="M7.977,11 C7.437,11 7,11.449 7,12.001 C7,12.552 7.437,13 7.977,13 L19.024,13 C19.563,13 20,12.552 20,12.001 C20,11.449 19.563,11 19.024,11 L7.977,11 Z" id="Clip-5"></path>
            <path d="M8.497,3 L4.994,3 C3.894,3 3,3.893 3,4.995 L3,19.005 C3,20.108 3.893,21 4.994,21 L8.497,21 L12,21 L12,19 L5,19 L5,5 L12,5 L12,3 L8.497,3 Z" id="Clip-8"></path>
            <path d="M16.303,8.305 C15.899,8.714 15.899,9.375 16.303,9.783 L18.5,12 L16.303,14.217 C15.899,14.624 15.899,15.286 16.303,15.693 C16.707,16.102 17.363,16.102 17.768,15.693 L20.698,12.738 C21.1,12.33 21.1,11.669 20.698,11.261 L17.768,8.305 C17.565,8.102 17.3,8 17.035,8 C16.77,8 16.505,8.102 16.303,8.305 Z" id="Clip-2"></path>
        </g>
    </g>
</svg>