<?xml version="1.0"?>
<svg xmlns="http://www.w3.org/2000/svg" width="24" height="24" viewBox="0 0 24 24">
  <title>sparkle-colour</title>
  <g fill-rule="nonzero" fill="none">
    <path d="M22.5515 10.7735L16.439 8.6118l-2.2824-7.1472C14.0686 1.189 13.8022 1 13.5 1c-.3015 0-.5687.189-.6566.4646l-2.2818 7.1472-6.113 2.1617c-.27.0958-.4486.3413-.4486.6156 0 .2744.1786.5205.4485.6157l6.1104 2.1603 2.2823 7.365c.0865.279.3544.47.6587.47.3043 0 .5722-.191.6587-.47l2.283-7.365 6.1105-2.1603c.2692-.0952.4478-.3413.4478-.6156 0-.2742-.1786-.5197-.4485-.6155" fill="#AA8ED6"/>
    <path d="M9.5945 18.2627L8.158 17.692l-.5587-2.2C7.5253 15.2013 7.28 15 7 15c-.28 0-.5254.2013-.5993.492l-.5588 2.2-1.4365.5707c-.244.0966-.4055.3466-.4055.6246 0 .2787.1615.5287.4055.6254l1.429.5686.563 2.4147c.069.296.3175.504.6025.504.2844 0 .5328-.208.6024-.504l.5632-2.4147 1.429-.5686c.244-.0967.4054-.3467.4054-.6254 0-.278-.1615-.528-.4055-.6246" fill="#FCAB40"/>
    <path d="M6.5945 3.4175l-1.4686-.544-.5435-1.468C4.4918 1.1615 4.2595 1 4 1c-.2602 0-.4924.1615-.5825.4055l-.544 1.468-1.468.544C1.1615 3.5075 1 3.7405 1 4c0 .2596.1615.4918.4055.5825l1.468.5434.544 1.4685C3.5075 6.8385 3.7398 7 4 7c.2596 0 .4918-.1615.5825-.4055L5.126 5.126l1.4685-.5435C6.8385 4.4918 7 4.2595 7 4c0-.2596-.1615-.4924-.4055-.5825" fill="#5DADEC"/>
  </g>
</svg>
