<?xml version="1.0" encoding="UTF-8"?>
<svg width="24px" height="24px" viewBox="0 0 24 24" version="1.1" xmlns="http://www.w3.org/2000/svg" xmlns:xlink="http://www.w3.org/1999/xlink">
    <!-- Generator: Sketch 46.2 (44496) - http://www.bohemiancoding.com/sketch -->
    <title>Statuspage</title>
    <desc>Created with Sketch.</desc>
    <defs>
        <linearGradient x1="50%" y1="82.7704637%" x2="50%" y2="-5.80995993%" id="statuspage-icon-gradient-1">
            <stop stop-color="currentColor" offset="0%" stop-opacity="0"></stop>
            <stop stop-color="#172B4D" offset="82%" stop-opacity="0.4"></stop>
        </linearGradient>
    </defs>
    <g stroke="none" stroke-width="1" fill="none" fill-rule="evenodd">
        <g fill-rule="nonzero">
            <g transform="translate(3.000000, 6.000000)">
                <ellipse fill="currentColor" cx="9.07342105" cy="8.86127273" rx="4.13763158" ry="4.12927273"></ellipse>
                <ellipse fill="url(#statuspage-icon-gradient-1)" cx="9.07342105" cy="8.86127273" rx="4.13763158" ry="4.12927273"></ellipse>
                <path d="M0.348157895,4.08436364 L2.56973684,6.71036364 C2.65185232,6.80672838 2.7692422,6.86622863 2.89565177,6.87555693 C3.02206134,6.88488524 3.1469437,6.84326329 3.24236842,6.76 C6.84,3.54545455 11.3068421,3.54545455 14.9021053,6.76 C14.99753,6.84326329 15.1224123,6.88488524 15.2488219,6.87555693 C15.3752315,6.86622863 15.4926214,6.80672838 15.5747368,6.71036364 L17.7963158,4.08436364 C17.9641974,3.88566895 17.9398647,3.58898755 17.7418421,3.42018182 C12.5218421,-1.13927273 5.62263158,-1.13927273 0.402631579,3.41781818 C0.306802897,3.49897511 0.247221239,3.61481234 0.237004404,3.73982656 C0.226787568,3.86484077 0.266773213,3.98878234 0.348157895,4.08436364 Z" fill="currentColor"></path>
            </g>
        </g>
    </g>
</svg>
