<?xml version="1.0" encoding="UTF-8"?>
<svg width="24px" height="24px" viewBox="0 0 24 24" version="1.1" xmlns="http://www.w3.org/2000/svg" xmlns:xlink="http://www.w3.org/1999/xlink">
    <!-- Generator: Sketch 46.2 (44496) - http://www.bohemiancoding.com/sketch -->
    <title>Stride</title>
    <desc>Created with Sketch.</desc>
    <defs>
        <linearGradient x1="76.0077856%" y1="30.8164837%" x2="3.20549956%" y2="70.7051948%" id="linearGradient-1">
            <stop stop-color="#172B4D" offset="18%" stop-opacity="0.4"></stop>
            <stop stop-color="currentColor" offset="100%" stop-opacity="0"></stop>
        </linearGradient>
    </defs>
    <g stroke="none" stroke-width="1" fill="none" fill-rule="evenodd">
        <g fill-rule="nonzero">
            <g transform="translate(4.000000, 6.000000)">
                <path d="M4.44289855,0 L4.44289855,2.55357143 C4.44289855,6.08910714 2.67130435,7.45410714 0.417391304,7.66071429 C0.179524038,7.68464449 -0.00119802814,7.8856709 5.14835096e-17,8.125 C5.14835096e-17,9.07678571 5.14835096e-17,11.32625 5.14835096e-17,12.3035714 C-0.000193071709,12.4312624 0.0521537364,12.5533965 0.144725062,12.6412397 C0.237296389,12.729083 0.361919644,12.7748803 0.489275362,12.7678571 C6.13333333,12.48 9.53275362,8.35714286 9.53275362,3.23839286 L9.54898551,3.23839286 L9.54898551,0 L4.44289855,0 Z" fill="currentColor"></path>
                <path d="M4.44289855,0 L4.44289855,2.55357143 C4.44289855,6.08910714 2.67130435,7.45410714 0.417391304,7.66071429 C0.179524038,7.68464449 -0.00119802814,7.8856709 5.14835096e-17,8.125 C5.14835096e-17,9.07678571 5.14835096e-17,11.32625 5.14835096e-17,12.3035714 C-0.000193071709,12.4312624 0.0521537364,12.5533965 0.144725062,12.6412397 C0.237296389,12.729083 0.361919644,12.7748803 0.489275362,12.7678571 C6.13333333,12.48 9.53275362,8.35714286 9.53275362,3.23839286 L9.54898551,3.23839286 L9.54898551,0 L4.44289855,0 Z" fill="url(#linearGradient-1)"></path>
                <path d="M15.7681159,12.0969643 L9.79246377,0 L4.44289855,0 L10.7547826,12.3894643 C10.8739409,12.6218571 11.1129825,12.7679517 11.373913,12.7678571 L15.3576812,12.7678571 C15.5173387,12.7661783 15.6649067,12.6823974 15.7482981,12.5460866 C15.8316894,12.4097758 15.8391763,12.2401056 15.7681159,12.0969643 Z" fill="currentColor"></path>
            </g>
        </g>
    </g>
</svg>
