<?xml version="1.0" encoding="UTF-8" standalone="no"?>
<svg width="24px" height="24px" viewBox="0 0 24 24" version="1.1" xmlns="http://www.w3.org/2000/svg" xmlns:xlink="http://www.w3.org/1999/xlink">
    <!-- Generator: Sketch 45.1 (43504) - http://www.bohemiancoding.com/sketch -->
    <title>icons/subtask</title>
    <desc>Created with Sketch.</desc>
    <defs></defs>
    <g id="Global" stroke="none" stroke-width="1" fill="none" fill-rule="evenodd">
        <g id="icons/subtask" fill-rule="nonzero" fill="#42526E">
            <path d="M19,5 L19.0059397,5 C20.1072288,5 21,5.89451376 21,6.99406028 L21,19.0059397 C21,20.1072288 20.1054862,21 19.0059397,21 L6.99406028,21 C5.8927712,21 5,20.1054862 5,19.0059397 L5,19 L17.9991283,19 C18.5553691,19 19,18.5518945 19,17.9991283 L19,5 Z M3,5.00585866 C3,3.89805351 3.89706013,3 5.00585866,3 L14.9941413,3 C16.1019465,3 17,3.89706013 17,5.00585866 L17,14.9941413 C17,16.1019465 16.1029399,17 14.9941413,17 L5.00585866,17 C3.89805351,17 3,16.1029399 3,14.9941413 L3,5.00585866 Z M5,5 L5,15 L15,15 L15,5 L5,5 Z" id="Combined-Shape"></path>
            <path d="M7.70710678,9.29289322 C7.31658249,8.90236893 6.68341751,8.90236893 6.29289322,9.29289322 C5.90236893,9.68341751 5.90236893,10.3165825 6.29289322,10.7071068 L8.29289322,12.7071068 C8.68341751,13.0976311 9.31658249,13.0976311 9.70710678,12.7071068 L13.7071068,8.70710678 C14.0976311,8.31658249 14.0976311,7.68341751 13.7071068,7.29289322 C13.3165825,6.90236893 12.6834175,6.90236893 12.2928932,7.29289322 L9,10.5857864 L7.70710678,9.29289322 Z" id="Path-3"></path>
        </g>
    </g>
</svg>