<?xml version="1.0" encoding="UTF-8" standalone="no"?>
<svg width="24px" height="24px" viewBox="0 0 24 24" version="1.1" xmlns="http://www.w3.org/2000/svg" xmlns:xlink="http://www.w3.org/1999/xlink">
    <!-- Generator: Sketch 41 (35326) - http://www.bohemiancoding.com/sketch -->
    <title>Flags</title>
    <desc>Created with Sketch.</desc>
    <defs></defs>
    <g id="Symbols" stroke="none" stroke-width="1" fill="none" fill-rule="evenodd">
        <g id="Flags" fill="currentColor">
            <path d="M6.0001,12.5770877 L6.0001,19.0230102 C6.0001,19.5603546 6.4501,20 7.0001,20 C7.5501,20 8.0001,19.5603546 8.0001,19.0230102 L8.0001,13.2453653 C9.16955916,12.9043382 10.388722,13.199969 11.768,13.5348873 C12.75,13.7728873 13.804,14.0298873 14.898,14.0298873 C15.73,14.0298873 16.585,13.8808873 17.445,13.4628873 C17.79,13.2948873 18.008,12.9468873 18.008,12.5628873 L18.008,5.80788729 C18.008,5.46388729 17.831,5.14288729 17.539,4.96088729 C17.248,4.77788729 16.882,4.75888729 16.571,4.90888729 C15.226,5.56188729 13.84,5.22488729 12.24,4.83688729 C10.511,4.41688729 8.553,3.94188729 6.562,4.90888729 C6.218,5.07588729 6,5.42588729 6,5.80788729 L6,12.5628873 C6,12.5676256 6.00003339,12.5723591 6.0001,12.5770877 Z M9.111,11.0968873 C10.205,11.0968873 11.259,11.3528873 12.24,11.5918873 C13.621,11.9268873 14.84,12.2228873 16.008,11.8808873 L16.008,7.17788729 C14.52,7.44888729 13.078,7.09788729 11.768,6.77988729 C10.389,6.44488729 9.17,6.14788729 8,6.49088729 L8,11.1938873 C8.374,11.1258873 8.745,11.0968873 9.111,11.0968873 Z" id="Shape"></path>
        </g>
    </g>
</svg>
