<?xml version="1.0" encoding="UTF-8" standalone="no"?>
<svg width="24px" height="24px" viewBox="0 0 24 24" version="1.1" xmlns="http://www.w3.org/2000/svg" xmlns:xlink="http://www.w3.org/1999/xlink">
    <!-- Generator: Sketch 41 (35326) - http://www.bohemiancoding.com/sketch -->
    <title>Symbols</title>
    <desc>Created with Sketch.</desc>
    <defs></defs>
    <g id="Symbols" stroke="none" stroke-width="1" fill="none" fill-rule="evenodd">
        <g id="Shape" fill="currentColor">
            <path d="M12.0355339,9.5 L13.8029927,7.73254122 L13.8031468,7.73238716 C14.7796116,6.75592232 16.362524,6.75592232 17.3388348,7.73223305 C18.3151455,8.70854378 18.3151455,10.2914562 17.3388348,11.267767 L12.0355339,16.5710678 L6.73254122,11.2680751 L6.73238716,11.267921 C5.75592232,10.2914562 5.75592232,8.70854378 6.73223305,7.73223305 C7.70854378,6.75592232 9.29145622,6.75592232 10.267767,7.73223305 L10.2680751,7.73254122 L10.267921,7.73238714 L12.0355339,9.5 Z M5.32144334,12.6853735 L5.32484272,12.6888038 L11.6751573,19.0391183 C11.7748562,19.1388173 11.9052851,19.1885736 12.035669,19.188527 C12.166978,19.1893977 12.2963972,19.1386317 12.3959105,19.0391183 L18.7462251,12.6888038 L18.7496242,12.6853731 L18.7530483,12.6819805 C20.5104076,10.9246212 20.5104076,8.0753788 18.7530483,6.31801948 C16.995689,4.56066017 14.1464466,4.56066017 12.3890873,6.31801948 L12.3856771,6.32143331 L12.3822641,6.32484272 L12.0355339,6.67157288 L11.6888038,6.32484272 L11.6853731,6.32144364 L11.6819805,6.31801948 C9.9246212,4.56066017 7.0753788,4.56066017 5.31801948,6.31801948 C3.56066017,8.0753788 3.56066017,10.9246212 5.31801948,12.6819805 L5.32143331,12.6853908 L5.32144334,12.6853735 Z"></path>
        </g>
    </g>
</svg>
