<svg width="24" height="24" viewBox="0 0 24 24" xmlns="http://www.w3.org/2000/svg"><title>code</title><path d="M13.294 15.645a.501.501 0 0 0 .004.714l.343.343a.501.501 0 0 0 .707.01l4.365-4.364a.493.493 0 0 0 0-.696l-4.365-4.365a.496.496 0 0 0-.707.011l-.343.343a.499.499 0 0 0-.004.714l3.29 3.29a.496.496 0 0 1 0 .71l-3.29 3.29zm-2.588-7.29a.501.501 0 0 0-.004-.714l-.343-.343a.501.501 0 0 0-.707-.01l-4.365 4.364a.493.493 0 0 0 0 .696l4.365 4.365a.496.496 0 0 0 .707-.011l.343-.343a.499.499 0 0 0 .004-.714l-3.29-3.29a.496.496 0 0 1 0-.71l3.29-3.29z" fill="currentColor" fill-rule="evenodd"/></svg>