<svg width="24" height="24" viewBox="0 0 24 24" xmlns="http://www.w3.org/2000/svg"><title>link</title><path d="M12.604 9.172l1.06-1.062a1.749 1.749 0 0 1 2.475 0c.685.686.686 1.79 0 2.475l-1.06 1.061-.703.703a1.753 1.753 0 0 1-2.48.005.75.75 0 0 0-1.06 1.06 3.253 3.253 0 0 0 4.6-.004l.703-.703 1.061-1.061a3.247 3.247 0 0 0 0-4.596 3.249 3.249 0 0 0-4.596 0l-1.061 1.06a.75.75 0 0 0 1.06 1.062zm-.708 5.656l-1.06 1.062a1.749 1.749 0 0 1-2.475 0 1.747 1.747 0 0 1 0-2.475l1.06-1.061.703-.703a1.753 1.753 0 0 1 2.48-.005.75.75 0 0 0 1.06-1.06 3.253 3.253 0 0 0-4.6.004l-.703.703L7.3 12.354a3.247 3.247 0 0 0 0 4.596 3.249 3.249 0 0 0 4.596 0l1.061-1.06a.75.75 0 1 0-1.06-1.062z" fill="currentColor" fill-rule="evenodd"/></svg>