<svg width="24" height="24" viewBox="0 0 24 24" xmlns="http://www.w3.org/2000/svg"><title>location</title><path d="M16.74 11.573c.077-.237.139-.48.181-.73.113-.598.072-.896.072-.896h-.001A4.995 4.995 0 0 0 12 5a4.995 4.995 0 0 0-4.992 4.947s-.04.288.065.863c.044.27.11.531.194.784.448 1.464 1.63 3.903 4.7 7.319.01.037.02.05.033.037.012.013.024 0 .033-.037 3.086-3.432 4.263-5.88 4.706-7.34zm-4.74.924a2.498 2.498 0 0 0 2.496-2.499A2.498 2.498 0 0 0 12 7.499a2.498 2.498 0 0 0-2.496 2.499A2.498 2.498 0 0 0 12 12.497z" fill="currentColor" fill-rule="evenodd"/></svg>