<svg width="24" height="24" viewBox="0 0 24 24" xmlns="http://www.w3.org/2000/svg"><title>mention</title><path d="M9.5 10a2.5 2.5 0 1 0 0-5 2.5 2.5 0 0 0 0 5zm1.5 2H6.749C5.783 12 5 12.768 5 13.714v2.457a6.158 6.158 0 0 0 5.87 1.648A4.977 4.977 0 0 1 10 15c0-1.126.372-2.164 1-3zm7.384.544C17.652 11.592 16.363 11 15.02 11 12.802 11 11 12.794 11 15s1.802 4 4.019 4c.347 0 .628-.28.628-.625a.627.627 0 0 0-.628-.626A2.758 2.758 0 0 1 12.258 15a2.757 2.757 0 0 1 2.76-2.748c.947 0 1.877.413 2.368 1.052.345.45.441.966.288 1.532-.14.513-.347.843-.596.955-.27.117-.575-.022-.578-.022-.278-.165-.038-.811.28-1.576l.053-.126a.618.618 0 1 0-.93-.744c-.039-.025-.065-.065-.107-.085-.773-.398-1.827.034-2.35.97-.317.571-.412 1.196-.259 1.715.107.362.335.652.642.816.19.101.395.15.606.15.347 0 .704-.14 1.03-.38.109.128.242.248.418.351.084.046.856.437 1.684.083.628-.268 1.072-.867 1.32-1.779.255-.936.076-1.866-.503-2.62zm-2.835 2.732c-.3.536-.834.817-1.19.627-.358-.19-.404-.777-.103-1.313.264-.47.811-.759 1.19-.564.36.184.404.714.103 1.25z" fill="currentColor" fill-rule="evenodd"/></svg>