<svg width="24" height="24" viewBox="0 0 24 24" xmlns="http://www.w3.org/2000/svg"><title>number-list</title><path d="M10 7.505c0-.279.23-.505.5-.505h7c.276 0 .5.214.5.505v.99c0 .279-.23.505-.5.505h-7a.495.495 0 0 1-.5-.505v-.99zm0 4c0-.279.23-.505.5-.505h7c.276 0 .5.214.5.505v.99c0 .279-.23.505-.5.505h-7a.495.495 0 0 1-.5-.505v-.99zm0 4c0-.279.23-.505.5-.505h7c.276 0 .5.214.5.505v.99c0 .279-.23.505-.5.505h-7a.495.495 0 0 1-.5-.505v-.99zM6 15v1h2.5v-1H6zm0 2v1h2.5v-1H6zm1-9v2h1V7H6v1h1zm-1 3v1h1v.5h1V12h.5v-1H6zm0 2v1h3v-1H6zm1.5 3H9v1H7.5v-1z" fill="currentColor" fill-rule="evenodd"/></svg>