<svg width="24" height="24" viewBox="0 0 24 24" xmlns="http://www.w3.org/2000/svg"><title>unlink</title><path d="M5 10h2V9H5v1zm4-5v2h1V5H9zm7.646 12.354l2 2 .708-.708-2-2-.708.708zM17 15h2v-1h-2v1zm-3 2v2h1v-2h-1zM7.354 6.646l-2-2-.708.708 2 2 .708-.708zm3.567 9.037a1.749 1.749 0 0 1-2.474-.001 1.747 1.747 0 0 1 0-2.474l1.06-1.062.703-.702c.712-.712-.268-1.692-1.06-1.06l-.703.702-1.062 1.061a3.247 3.247 0 0 0 .001 4.596 3.249 3.249 0 0 0 4.596 0l1.06-1.061a.75.75 0 1 0-1.06-1.06l-1.061 1.06zm2.658-7.608a1.749 1.749 0 0 1 2.474 0c.685.685.686 1.79 0 2.475l-1.06 1.06-.703.703c-.52.61.496 1.626 1.06 1.061l.703-.702 1.062-1.062a3.247 3.247 0 0 0-.001-4.595 3.249 3.249 0 0 0-4.596 0l-1.06 1.06a.75.75 0 0 0 1.06 1.061l1.061-1.061z" fill="currentColor" fill-rule="evenodd"/></svg>