<?xml version="1.0" encoding="UTF-8" standalone="no"?>
<svg width="24px" height="24px" viewBox="0 0 24 24" version="1.1" xmlns="http://www.w3.org/2000/svg" xmlns:xlink="http://www.w3.org/1999/xlink">
    <!-- Generator: Sketch 41 (35326) - http://www.bohemiancoding.com/sketch -->
    <title>add item</title>
    <desc>Created with Sketch.</desc>
    <defs>
        <path d="M21,13 L21,19.0020869 C21,20.1055038 20.1073772,21 19.0049107,21 L4.99508929,21 C3.8932319,21 3,20.1054862 3,19.0059397 L3,4.99406028 C3,3.8927712 3.89585781,3 4.9973917,3 L11,3" id="path-1"></path>
        <mask id="mask-2" maskContentUnits="userSpaceOnUse" maskUnits="objectBoundingBox" x="0" y="0" width="18" height="18" fill="white">
            <use xlink:href="#path-1"></use>
        </mask>
    </defs>
    <g id="icons" stroke="none" stroke-width="1" fill="none" fill-rule="evenodd">
        <g id="Add-item">
            <g id="add-item_icon_24x24_02">
                <g id="icon_container_transparent">
                    <rect x="0" y="0" width="24" height="24"></rect>
                </g>
                <use id="Rectangle-25" stroke="#243759" mask="url(#mask-2)" stroke-width="4" xlink:href="#path-1"></use>
                <path d="M16,8 L16,4.00247329 C16,3.45576096 15.5522847,3 15,3 C14.4438648,3 14,3.44882258 14,4.00247329 L14,8 L10.0024733,8 C9.45576096,8 9,8.44771525 9,9 C9,9.55613518 9.44882258,10 10.0024733,10 L14,10 L14,13.9975267 C14,14.544239 14.4477153,15 15,15 C15.5561352,15 16,14.5511774 16,13.9975267 L16,10 L19.9975267,10 C20.544239,10 21,9.55228475 21,9 C21,8.44386482 20.5511774,8 19.9975267,8 L16,8 Z" id="Combined-Shape" fill="currentColor"></path>
            </g>
        </g>
    </g>
</svg>