<?xml version="1.0" encoding="UTF-8" standalone="no"?>
<svg width="24px" height="24px" viewBox="0 0 24 24" version="1.1" xmlns="http://www.w3.org/2000/svg" xmlns:xlink="http://www.w3.org/1999/xlink">
    <!-- Generator: Sketch 41 (35326) - http://www.bohemiancoding.com/sketch -->
    <title>add</title>
    <desc>Created with Sketch.</desc>
    <defs></defs>
    <g id="24-x-20" stroke="none" stroke-width="1" fill="none" fill-rule="evenodd">
        <g id="editor-24x20/editor-add" fill="currentColor">
            <g id="add" transform="translate(2.000000, 2.000000)">
                <path d="M11.6666667,8.33333333 L11.6666667,0.494384766 C11.6666667,0.224609375 11.4464602,0 11.1748219,0 L8.82517815,0 C8.55204264,0 8.33333333,0.221343599 8.33333333,0.494384766 L8.33333333,8.33333333 L0.494384766,8.33333333 C0.224609375,8.33333333 -3.55271368e-15,8.55353976 -3.55271368e-15,8.82517815 L-3.55271368e-15,11.1748219 C-3.55271368e-15,11.4479574 0.221343599,11.6666667 0.494384766,11.6666667 L8.33333333,11.6666667 L8.33333333,19.5056152 C8.33333333,19.7753906 8.55353976,20 8.82517815,20 L11.1748219,20 C11.4479574,20 11.6666667,19.7786564 11.6666667,19.5056152 L11.6666667,11.6666667 L19.5056152,11.6666667 C19.7753906,11.6666667 20,11.4464602 20,11.1748219 L20,8.82517815 C20,8.55204264 19.7786564,8.33333333 19.5056152,8.33333333 L11.6666667,8.33333333 Z" id="Shape"></path>
            </g>
        </g>
    </g>
</svg>