<?xml version="1.0" encoding="UTF-8" standalone="no"?>
<svg width="24px" height="24px" viewBox="0 0 24 24" version="1.1" xmlns="http://www.w3.org/2000/svg" xmlns:xlink="http://www.w3.org/1999/xlink">
    <!-- Generator: Sketch 41 (35326) - http://www.bohemiancoding.com/sketch -->
    <title>Addon</title>
    <desc>Created with Sketch.</desc>
    <defs></defs>
    <g id="icons" stroke="none" stroke-width="1" fill="none" fill-rule="evenodd">
        <g id="addon" fill="currentColor">
            <g id="addon_icon_24x24_04" transform="translate(4.000000, 3.000000)">
                <path d="M8.36345343,2.36454047 L13.5647498,5.36751033 C13.7298017,5.46280307 13.9282032,5.80750025 13.9282032,5.99703014 L13.9282032,12.0029699 C13.9282032,12.1935553 13.7288875,12.5377247 13.5647498,12.6324897 L8.36345343,15.6354595 C8.19840157,15.7307523 7.80068427,15.7302245 7.63654657,15.6354595 L2.4352502,12.6324897 C2.27019834,12.5371969 2.07179677,12.1924997 2.07179677,12.0029699 L2.07179677,5.99703014 C2.07179677,5.80644467 2.2711125,5.46227528 2.4352502,5.36751033 L7.63654657,2.36454047 C7.80159843,2.26924774 8.19931573,2.26977553 8.36345343,2.36454047 Z M1.4352502,3.63545953 C0.653184478,4.08698538 0.0717967697,5.09089939 0.0717967697,5.99703014 L0.0717967697,12.0029699 C0.0717967697,12.9060216 0.650517951,13.9114751 1.4352502,14.3645405 L6.63654657,17.3675103 C7.41861229,17.8190362 8.57872118,17.8205757 9.36345343,17.3675103 L14.5647498,14.3645405 C15.3468155,13.9130146 15.9282032,12.9091006 15.9282032,12.0029699 L15.9282032,5.99703014 C15.9282032,5.09397843 15.349482,4.0885249 14.5647498,3.63545953 L9.36345343,0.632489666 C8.58138771,0.180963811 7.42127882,0.179424291 6.63654657,0.632489666 L1.4352502,3.63545953 Z" id="Polygon-2"></path>
                <path d="M8,13 C10.209139,13 12,11.209139 12,9 C12,6.790861 10.209139,5 8,5 C5.790861,5 4,6.790861 4,9 C4,11.209139 5.790861,13 8,13 Z M8,11 C6.8954305,11 6,10.1045695 6,9 C6,7.8954305 6.8954305,7 8,7 C9.1045695,7 10,7.8954305 10,9 C10,10.1045695 9.1045695,11 8,11 Z" id="Oval-7"></path>
            </g>
        </g>
    </g>
</svg>