<?xml version="1.0" encoding="UTF-8"?>
<svg width="12px" height="12px" viewBox="0 0 12 12" version="1.1" xmlns="http://www.w3.org/2000/svg" xmlns:xlink="http://www.w3.org/1999/xlink">
    <g id="Symbols" stroke="none" stroke-width="1" fill="none" fill-rule="evenodd">
        <g id="audio-icon">
            <g>
                <rect id="Rectangle-2" fill="#FFFFFF" x="1" y="1" width="10" height="10"></rect>
                <path d="M0,1.00247329 C0,0.448822582 0.455760956,0 1.00247329,0 L10.9975267,0 C11.5511774,0 12,0.455760956 12,1.00247329 L12,10.9975267 C12,11.5511774 11.544239,12 10.9975267,12 L1.00247329,12 C0.448822582,12 0,11.544239 0,10.9975267 L0,1.00247329 Z M9.02821317,2.18181818 C9.01158621,2.18181818 8.99691536,2.18821023 8.98126646,2.19178977 L8.9802884,2.18693182 L4.57903448,3.20965909 L4.58001254,3.21451705 C4.46826959,3.23803977 4.38244514,3.33647727 4.38244514,3.46022727 L4.38244514,8.06838068 C4.17778683,7.90678977 3.92544828,7.80681818 3.64890282,7.80681818 L3.40438871,7.80681818 C2.72928527,7.80681818 2.18181818,8.37903409 2.18181818,9.08522727 C2.18181818,9.79142045 2.72928527,10.3636364 3.40438871,10.3636364 L3.64890282,10.3636364 C4.32400627,10.3636364 4.87147335,9.79142045 4.87147335,9.08522727 L4.87147335,5.199375 L8.78369906,4.29017045 L8.78369906,7.04565341 C8.57904075,6.8840625 8.32670219,6.78409091 8.05015674,6.78409091 L7.80564263,6.78409091 C7.13053918,6.78409091 6.5830721,7.35630682 6.5830721,8.0625 C6.5830721,8.76869318 7.13053918,9.34090909 7.80564263,9.34090909 L8.05015674,9.34090909 C8.72526019,9.34090909 9.27272727,8.76869318 9.27272727,8.0625 L9.27272727,2.4375 C9.27272727,2.29610795 9.16318495,2.18181818 9.02821317,2.18181818 Z" id="Combined-Shape" fill="currentColor"></path>
            </g>
        </g>
    </g>
</svg>