
<svg width="22px" height="24px" viewBox="9 8 22 24" version="1.1" xmlns="http://www.w3.org/2000/svg" xmlns:xlink="http://www.w3.org/1999/xlink">
    <!-- Generator: Sketch 39.1 (31720) - http://www.bohemiancoding.com/sketch -->
    <desc>Created with Sketch.</desc>
    <defs></defs>
    <path d="M27.570315,24.8741611 C27.4104083,24.8741611 27.2823111,24.986485 27.2823111,24.986485 C27.2823111,24.986485 24.6921667,27.0195658 20.0106835,27.0197362 C15.3293724,27.0195658 12.739228,24.986485 12.739228,24.986485 C12.739228,24.986485 12.6109588,24.8741611 12.451224,24.8741611 C12.2601957,24.8741611 12.0791401,25.0014843 12.0791401,25.2820385 C12.0791401,25.3116962 12.0820631,25.3413538 12.0873933,25.3703296 C12.4893953,27.5031213 12.7832453,29.016512 12.8346562,29.2469551 C13.1857631,30.8159111 16.2817628,31.9998296 20.0105116,32 L20.0110274,32 C23.7396043,31.9998296 26.8357759,30.8159111 27.1867109,29.2469551 C27.2382937,29.016512 27.5319718,27.5031213 27.9339738,25.3703296 C27.9394759,25.3413538 27.942399,25.3116962 27.942399,25.2820385 C27.942399,25.0014843 27.7613433,24.8741611 27.570315,24.8741611 Z M20.0180771,8 L20.0180771,8.00034089 L20.0179051,8 C14.2279076,8 9.5,9.54304829 9.5,11.4590326 C9.5,11.9637234 10.762575,19.1998409 11.263444,22.069471 C11.4881731,23.3563388 14.8431185,25.2433473 20.015326,25.2433473 L20.0206562,25.2280071 L20.0206562,25.2433473 C25.1928637,25.2433473 28.5478091,23.3563388 28.7723662,22.069471 C29.2732352,19.1998409 30.5359822,11.9637234 30.5359822,11.4590326 C30.5359822,9.54304829 25.8080746,8 20.0180771,8 Z M20.0179051,22.9186333 C18.1714128,22.9186333 16.6744799,21.4345594 16.6744799,19.6043094 C16.6744799,17.7735482 18.1714128,16.2898151 20.0179051,16.2898151 C21.8645694,16.2898151 23.3615023,17.7735482 23.3615023,19.6043094 C23.3615023,21.4345594 21.8645694,22.9186333 20.0179051,22.9186333 Z M21.6204108,19.5468691 C21.6204108,20.4642099 20.870225,21.2078661 19.9446576,21.2078661 C19.0192621,21.2078661 18.2690762,20.4642099 18.2690762,19.5468691 C18.2690762,18.6293579 19.0192621,17.8858722 19.9446576,17.8858722 C20.870225,17.8858722 21.6204108,18.6293579 21.6204108,19.5468691 Z M20.0161857,12.5282408 C16.2960341,12.5222752 13.2811913,11.8815684 13.2825668,11.0966642 C13.2837704,10.3119305 16.3006765,9.68076871 20.0208282,9.68673432 C23.7409798,9.69269994 26.7556507,10.3332363 26.7544471,11.1183109 C26.7530715,11.9030446 23.7361654,12.5340359 20.0161857,12.5282408 Z" id="Combined-Shape" stroke="none" fill="currentColor" fill-rule="evenodd"></path>
</svg>
