<?xml version="1.0" encoding="UTF-8" standalone="no"?>
<svg width="20px" height="20px" viewBox="31 364 18 18" version="1.1" xmlns="http://www.w3.org/2000/svg" xmlns:xlink="http://www.w3.org/1999/xlink">
    <!-- Generator: Sketch 3.8.2 (29753) - http://www.bohemiancoding.com/sketch -->
    <desc>Created with Sketch.</desc>
    <defs></defs>
    <path fill="currentColor" d="M47,366 L46,366 L46,368 L43,368 L43,366 L37,366 L37,368 L34,368 L34,366 L33,366 C31.899,366 31,366.9 31,368 L31,380 C31,381.1 31.899,382 33,382 L47,382 C48.1,382 49,381.1 49,380 L49,368 C49,366.9 48.1,366 47,366 L47,366 Z M47,380 L33,380 L33,372 L47,372 L47,380 L47,380 Z M36.5,364 L34.5,364 L34.5,367.5 L36.5,367.5 L36.5,364 L36.5,364 Z M45.5,364 L43.5,364 L43.5,367.5 L45.5,367.5 L45.5,364 L45.5,364 Z" id="Shape" stroke="none" fill-rule="evenodd"></path>
</svg>
