<?xml version="1.0" encoding="UTF-8" standalone="no"?>
<svg width="24px" height="24px" viewBox="0 0 24 24" version="1.1" xmlns="http://www.w3.org/2000/svg" xmlns:xlink="http://www.w3.org/1999/xlink">
    <!-- Generator: Sketch 42 (36781) - http://www.bohemiancoding.com/sketch -->
    <title>checkbox</title>
    <desc>Created with Sketch.</desc>
    <defs></defs>
    <g id="Global" stroke="none" stroke-width="1" fill-rule="evenodd">
        <g id="checkbox" fill="currentColor">
            <g id="Combined-Shape">
                <path d="M6,8.0085302 C6,6.8992496 6.90195036,6 8.0085302,6 L15.9914698,6 C17.1007504,6 18,6.90195036 18,8.0085302 L18,15.9914698 C18,17.1007504 17.0980496,18 15.9914698,18 L8.0085302,18 C6.8992496,18 6,17.0980496 6,15.9914698 L6,8.0085302 Z M9.70710678,11.2928932 C9.31658249,10.9023689 8.68341751,10.9023689 8.29289322,11.2928932 C7.90236893,11.6834175 7.90236893,12.3165825 8.29289322,12.7071068 L10.2928932,14.7071068 C10.6834175,15.0976311 11.3165825,15.0976311 11.7071068,14.7071068 L15.7071068,10.7071068 C16.0976311,10.3165825 16.0976311,9.68341751 15.7071068,9.29289322 C15.3165825,8.90236893 14.6834175,8.90236893 14.2928932,9.29289322 L11,12.5857864 L9.70710678,11.2928932 Z"></path>
            </g>
        </g>
    </g>
</svg>