<?xml version="1.0" encoding="UTF-8" standalone="no"?>
<svg width="24px" height="24px" viewBox="0 0 24 24" version="1.1" xmlns="http://www.w3.org/2000/svg" xmlns:xlink="http://www.w3.org/1999/xlink">
    <!-- Generator: Sketch 41 (35326) - http://www.bohemiancoding.com/sketch -->
    <title>Code</title>
    <desc>Created with Sketch.</desc>
    <defs></defs>
    <g id="24-x-20" stroke="none" stroke-width="1" fill="none" fill-rule="evenodd">
        <g id="editor-24x20/editor-code" fill="currentColor">
            <g id="code" transform="translate(2.000000, 5.000000)">
                <path d="M11.6993682,12.2496949 C11.5019517,12.4431631 11.5040701,12.7589129 11.6933465,12.9444038 L12.5057104,13.7405204 C12.6998012,13.9307294 13.0217248,13.923634 13.2156556,13.7335817 L19.7281446,7.35134249 C19.9261458,7.15730139 19.9220755,6.83870972 19.7281446,6.64865751 L13.2156556,0.266418254 C13.0176545,0.0723771524 12.6949868,0.0739886648 12.5057104,0.259479575 L11.6933465,1.05559618 C11.4992557,1.24580516 11.5067689,1.56155777 11.6993682,1.75030508 L16.6987456,6.64969492 C16.8961621,6.84316307 16.8913449,7.16155777 16.6987456,7.35030508 L11.6993682,12.2496949 Z M8.3006318,1.75030508 C8.49804828,1.55683693 8.49592993,1.24108709 8.30665349,1.05559618 L7.49428961,0.259479575 C7.30019882,0.0692706 6.97827523,0.0763660352 6.78434439,0.266418254 L0.271855361,6.64865751 C0.0738542372,6.84269861 0.0779245257,7.16129028 0.271855361,7.35134249 L6.78434439,13.7335817 C6.98234552,13.9276228 7.30501317,13.9260113 7.49428961,13.7405204 L8.30665349,12.9444038 C8.50074429,12.7541948 8.49323109,12.4384422 8.3006318,12.2496949 L3.30125441,7.35030508 C3.10383793,7.15683693 3.10865511,6.83844223 3.30125441,6.64969492 L8.3006318,1.75030508 Z" id="Shape"></path>
            </g>
        </g>
    </g>
</svg>