<?xml version="1.0" encoding="UTF-8" standalone="no"?>
<svg width="24px" height="24px" viewBox="0 0 24 24" version="1.1" xmlns="http://www.w3.org/2000/svg" xmlns:xlink="http://www.w3.org/1999/xlink">
    <!-- Generator: Sketch 41 (35326) - http://www.bohemiancoding.com/sketch -->
    <title>components</title>
    <desc>Created with Sketch.</desc>
    <defs></defs>
    <g id="icons" stroke="none" stroke-width="1" fill="none" fill-rule="evenodd">
        <g id="components">
            <g id="components_icon_24x24">
                <g id="icon_container_transparent">
                    <rect x="0" y="0" width="24" height="24"></rect>
                </g>
                <path d="M5,17.9914698 C5,17.9978202 19.0049107,18 19.0049107,18 C18.9994849,18 19,10.0085302 19,10.0085302 C19,10.0021798 4.99508929,10 4.99508929,10 C5.00051505,10 5,17.9914698 5,17.9914698 Z M3,10.0085302 C3,8.8992496 3.8926228,8 4.99508929,8 L19.0049107,8 C20.1067681,8 21,8.90195036 21,10.0085302 L21,17.9914698 C21,19.1007504 20.1073772,20 19.0049107,20 L4.99508929,20 C3.8932319,20 3,19.0980496 3,17.9914698 L3,10.0085302 Z" id="Rectangle-17" fill="currentColor"></path>
                <path d="M7,8.00208688 C6.99976882,7.99982994 9.00208688,8 9.00208688,8 C8.99982994,8.00023118 9,5.99791312 9,5.99791312 C9.00023118,6.00017006 6.99791312,6 6.99791312,6 C7.00017006,5.99976882 7,8.00208688 7,8.00208688 Z M5,5.99791312 C5,4.89449617 5.89826062,4 6.99791312,4 L9.00208688,4 C10.1055038,4 11,4.89826062 11,5.99791312 L11,8.00208688 C11,9.10550383 10.1017394,10 9.00208688,10 L6.99791312,10 C5.89449617,10 5,9.10173938 5,8.00208688 L5,5.99791312 Z" id="Rectangle-17-Copy" fill="currentColor"></path>
                <path d="M15,8.00208688 C14.9997688,7.99982994 17.0020869,8 17.0020869,8 C16.9998299,8.00023118 17,5.99791312 17,5.99791312 C17.0002312,6.00017006 14.9979131,6 14.9979131,6 C15.0001701,5.99976882 15,8.00208688 15,8.00208688 Z M13,5.99791312 C13,4.89449617 13.8982606,4 14.9979131,4 L17.0020869,4 C18.1055038,4 19,4.89826062 19,5.99791312 L19,8.00208688 C19,9.10550383 18.1017394,10 17.0020869,10 L14.9979131,10 C13.8944962,10 13,9.10173938 13,8.00208688 L13,5.99791312 Z" id="Rectangle-17-Copy-2" fill="currentColor"></path>
            </g>
        </g>
    </g>
</svg>