<?xml version="1.0" encoding="UTF-8" standalone="no"?>
<svg width="24px" height="24px" viewBox="0 0 24 24" version="1.1" xmlns="http://www.w3.org/2000/svg" xmlns:xlink="http://www.w3.org/1999/xlink">
    <!-- Generator: Sketch 41 (35326) - http://www.bohemiancoding.com/sketch -->
    <title>Dashboard</title>
    <desc>Created with Sketch.</desc>
    <defs></defs>
    <g id="icons" stroke="none" stroke-width="1" fill="none" fill-rule="evenodd">
        <g id="dashboard">
            <g id="jira_dashboard_icon_24x24">
                <g id="icon_container_transparent">
                    <rect x="0" y="0" width="24" height="24"></rect>
                </g>
                <path d="M4,18 L20.0084049,18 C20.0001118,18.0000017 20,6 20,6 L3.99159507,6 C3.99988824,5.99999829 4,18 4,18 Z M2,5.99406028 C2,4.8927712 2.89821238,4 3.99079514,4 L20.0092049,4 C21.1086907,4 22,4.89451376 22,5.99406028 L22,18.0059397 C22,19.1072288 21.1017876,20 20.0092049,20 L3.99079514,20 C2.89130934,20 2,19.1054862 2,18.0059397 L2,5.99406028 Z" id="Rectangle-22" fill="currentColor"></path>
                <polygon id="Line" fill="currentColor" points="7 5 7 19 9 19 9 5"></polygon>
                <polygon id="Line-Copy" fill="currentColor" points="7 11 21 11 21 9 7 9"></polygon>
            </g>
        </g>
    </g>
</svg>