<?xml version="1.0" encoding="UTF-8" standalone="no"?>
<svg width="24px" height="24px" viewBox="0 0 24 24" version="1.1" xmlns="http://www.w3.org/2000/svg" xmlns:xlink="http://www.w3.org/1999/xlink">
    <!-- Generator: Sketch 41 (35326) - http://www.bohemiancoding.com/sketch -->
    <title>Decision</title>
    <desc>Created with Sketch.</desc>
    <defs></defs>
    <g id="24-x-20" stroke="none" stroke-width="1" fill="none" fill-rule="evenodd">
        <g id="editor-24x20/editor-decision" fill="currentColor">
            <g id="decision" transform="translate(2.000000, 2.000000)">
                <path d="M6.19533217,3.80466783 L11.6666667,9.16666667 L11.6666667,10 L11.6666667,19.4903505 C11.6666667,19.7723472 11.4464602,20 11.1748219,20 L8.82517815,20 C8.55204264,20 8.33333333,19.7793481 8.33333333,19.5071602 L8.33333333,10.8333333 L3.80242505,6.19757495 L0.355905294,9.64409471 C0.15707612,9.84292388 0,9.77182214 0,9.49035048 L0,0.509649515 C0,0.227652788 0.22817786,0 0.509649515,0 L9.49035048,0 C9.77234721,0 9.84065577,0.159344228 9.64409471,0.355905294 L6.19533217,3.80466783 Z M16.307079,0.359587669 C16.5056738,0.160992883 16.8306986,0.164031982 17.014281,0.347614288 L18.8190524,2.15238571 C19.0110344,2.34436778 19.0115438,2.65512288 18.807079,2.85958767 L14.1666667,7.5 L11.6666667,5 L16.307079,0.359587669 Z" id="Shape"></path>
            </g>
        </g>
    </g>
</svg>