<?xml version="1.0" encoding="UTF-8" standalone="no"?>
<svg width="24px" height="24px" viewBox="0 0 24 24" version="1.1" xmlns="http://www.w3.org/2000/svg" xmlns:xlink="http://www.w3.org/1999/xlink">
    <!-- Generator: Sketch 41 (35326) - http://www.bohemiancoding.com/sketch -->
    <title>Emoji</title>
    <desc>Created with Sketch.</desc>
    <defs></defs>
    <g id="24-x-20" stroke="none" stroke-width="1" fill="none" fill-rule="evenodd">
        <g id="editor-24x20/editor-emoji" fill="currentColor">
            <g id="emoji" transform="translate(2.000000, 2.000000)">
                <path d="M10,19.6428571 C15.3256029,19.6428571 19.6428571,15.3256029 19.6428571,10 C19.6428571,4.67439706 15.3256029,0.357142857 10,0.357142857 C4.67439706,0.357142857 0.357142857,4.67439706 0.357142857,10 C0.357142857,15.3256029 4.67439706,19.6428571 10,19.6428571 Z M10,17.5 C5.85786438,17.5 2.5,14.1421356 2.5,10 C2.5,5.85786438 5.85786438,2.5 10,2.5 C14.1421356,2.5 17.5,5.85786438 17.5,10 C17.5,14.1421356 14.1421356,17.5 10,17.5 Z M7.85714286,9.28571429 C8.64612107,9.28571429 9.28571429,8.64612107 9.28571429,7.85714286 C9.28571429,7.06816464 8.64612107,6.42857143 7.85714286,6.42857143 C7.06816464,6.42857143 6.42857143,7.06816464 6.42857143,7.85714286 C6.42857143,8.64612107 7.06816464,9.28571429 7.85714286,9.28571429 Z M12.1428571,9.28571429 C12.9318354,9.28571429 13.5714286,8.64612107 13.5714286,7.85714286 C13.5714286,7.06816464 12.9318354,6.42857143 12.1428571,6.42857143 C11.3538789,6.42857143 10.7142857,7.06816464 10.7142857,7.85714286 C10.7142857,8.64612107 11.3538789,9.28571429 12.1428571,9.28571429 Z M6.29581848,12.4252034 C6.4173596,12.7898267 6.66554634,13.2862002 7.08194529,13.7858789 C7.79871571,14.6460034 8.77509036,15.1785714 10,15.1785714 C11.2249096,15.1785714 12.2012843,14.6460034 12.9180547,13.7858789 C13.3344537,13.2862002 13.5826404,12.7898267 13.7041815,12.4252034 C13.860117,11.9573968 13.6072956,11.451754 13.1394891,11.2958185 C12.6716825,11.139883 12.1660397,11.3927044 12.0101042,11.8605109 C11.9530739,12.0316018 11.7994749,12.3387998 11.546231,12.6426925 C11.14693,13.1218537 10.6500904,13.3928571 10,13.3928571 C9.34990964,13.3928571 8.85307,13.1218537 8.453769,12.6426925 C8.20052509,12.3387998 8.04692611,12.0316018 7.9898958,11.8605109 C7.83396029,11.3927044 7.32831746,11.139883 6.86051092,11.2958185 C6.39270439,11.451754 6.13988297,11.9573968 6.29581848,12.4252034 Z" id="Shape"></path>
            </g>
        </g>
    </g>
</svg>