<?xml version="1.0" encoding="UTF-8" standalone="no"?>
<svg width="24px" height="24px" viewBox="0 0 24 24" version="1.1" xmlns="http://www.w3.org/2000/svg" xmlns:xlink="http://www.w3.org/1999/xlink">
    <!-- Generator: Sketch 41 (35326) - http://www.bohemiancoding.com/sketch -->
    <title>Export</title>
    <desc>Created with Sketch.</desc>
    <defs></defs>
    <g id="icons" stroke="none" stroke-width="1" fill="none" fill-rule="evenodd">
        <g id="export">
            <g id="export_icon_24x24">
                <g id="icon_container_transparent">
                    <rect x="0" y="0" width="24" height="24"></rect>
                </g>
                <path d="M14.1213203,7.70710678 C14.5118446,8.09763107 15.1450096,8.09763107 15.5355339,7.70710678 C15.9260582,7.31658249 15.9260582,6.68341751 15.5355339,6.29289322 L12.7071068,3.46446609 C12.3165825,3.0739418 11.6834175,3.0739418 11.2928932,3.46446609 L8.46446609,6.29289322 C8.0739418,6.68341751 8.0739418,7.31658249 8.46446609,7.70710678 C8.85499039,8.09763107 9.48815536,8.09763107 9.87867966,7.70710678 L12,5.58578644 L14.1213203,7.70710678 Z" id="Rectangle-7-Copy" fill="currentColor"></path>
                <path d="M11,6 L11,16 C11,16.5522847 11.4477153,17 12,17 C12.5522847,17 13,16.5522847 13,16 L13,6 C13,5.44771525 12.5522847,5 12,5 C11.4477153,5 11,5.44771525 11,6 Z" id="Line" fill="currentColor"></path>
                <path d="M9,9 L9,11 L7,11 C6.99806845,11 7,18.9914698 7,18.9914698 C7,18.9954232 16.9941413,19 16.9941413,19 C16.9972775,19 17,11.0085302 17,11.0085302 C17,11.0032726 15,11 15,11 L15,9 L17,9 C18.1045695,9 19,9.90195036 19,11.0085302 L19,18.9914698 C19,20.1007504 18.1029399,21 16.9941413,21 L7.00585866,21 C5.89805351,21 5,20.0980496 5,18.9914698 L5,11.0085302 C5,9.8992496 5.88772964,9 7,9 L9,9 Z" id="Path" fill="currentColor"></path>
            </g>
        </g>
    </g>
</svg>