<?xml version="1.0" encoding="UTF-8" standalone="no"?>
<svg width="24px" height="24px" viewBox="0 0 24 24" version="1.1" xmlns="http://www.w3.org/2000/svg" xmlns:xlink="http://www.w3.org/1999/xlink">
    <!-- Generator: Sketch 41 (35326) - http://www.bohemiancoding.com/sketch -->
    <title>Favorite</title>
    <desc>Created with Sketch.</desc>
    <defs></defs>
    <g id="icons" stroke="none" stroke-width="1" fill="none" fill-rule="evenodd">
        <g id="favorite">
            <g id="favorite_icon_24x24">
                <g id="icon_container_transparent">
                    <rect x="0" y="0" width="24" height="24"></rect>
                </g>
                <path d="M8.79472625,13.0414566 L5.5894525,9.91708685 L10.0190319,9.27343129 L12,5.25955146 L13.9809681,9.27343129 L18.4105475,9.91708685 L15.2052738,13.0414566 L15.9619362,17.4531374 L12,15.3702243 L8.03806376,17.4531374 L8.79472625,13.0414566 Z M15.0632103,19.2402007 C16.7668348,20.1358491 18.2650789,19.0503245 17.939256,17.1506312 L17.3542349,13.7396964 L19.8324241,11.3240589 C21.2106852,9.98058637 20.6412729,8.22022595 18.7338724,7.94306445 L15.3090991,7.44541576 L13.7850678,4.35739101 C12.9313798,2.62763004 11.0778021,2.60902555 10.222506,4.34204472 L8.69090085,7.44541576 L5.26612758,7.94306445 C3.36141757,8.21983501 2.78736796,9.97868869 4.16757588,11.3240589 L6.64576511,13.7396964 L6.06074399,17.1506312 C5.73538068,19.0476449 7.23075884,20.1371142 8.93678966,19.2402007 L12,17.6297757 L15.0632103,19.2402007 Z" id="Star" fill="currentColor"></path>
            </g>
        </g>
    </g>
</svg>