<?xml version="1.0" encoding="UTF-8" standalone="no"?>
<svg width="24px" height="24px" viewBox="0 0 24 24" version="1.1" xmlns="http://www.w3.org/2000/svg" xmlns:xlink="http://www.w3.org/1999/xlink">
    <!-- Generator: Sketch 41 (35326) - http://www.bohemiancoding.com/sketch -->
    <title>Feedback</title>
    <desc>Created with Sketch.</desc>
    <defs></defs>
    <g id="24-x-20" stroke="none" stroke-width="1" fill="none" fill-rule="evenodd">
        <g id="editor-24x20/editor-feedback" fill="currentColor">
            <g id="feedback" transform="translate(2.000000, 5.000000)">
                <path d="M2.09541655,7.67039331 L0.941121747,7.25872174 C0.4305761,7.07663903 0,6.47891568 0,5.93101501 L0,5.60744652 C0,5.0603309 0.421354558,4.46511131 0.941121747,4.2797398 L12.0000547,0.335644819 C12.5106004,0.153562106 12.9411765,0.449406735 12.9411765,1.00377804 L12.9411765,10.5346835 C12.9411765,11.1002299 12.5198219,11.3881882 12.0000547,11.2028167 L8.275958,9.87464236 L2.09541655,7.67039331 Z M4.70588235,10.3321678 L4.70588235,12.8412305 C4.70588235,13.3962344 4.29603128,14.0471385 3.80290312,14.288961 L3.25592041,14.5571929 C2.75721875,14.8017485 2.35294118,14.5457576 2.35294118,14.0080919 L2.35294118,9.49300699 L4.70588235,10.3321678 Z M15.5571845,3.97755415 L17.9101256,2.82370799 C18.2007012,2.6812142 18.3184803,2.33467206 18.1731925,2.04968446 C18.0279047,1.76469687 17.6745676,1.64918282 17.383992,1.79167662 L15.0310508,2.94552277 C14.7404752,3.08801657 14.6226962,3.43455871 14.767984,3.71954631 C14.9132718,4.0045339 15.2666089,4.12004795 15.5571845,3.97755415 Z M15.0310508,8.59293876 L17.383992,9.74678492 C17.6745676,9.88927872 18.0279047,9.77376467 18.1731925,9.48877707 C18.3184803,9.20378948 18.2007012,8.85724734 17.9101256,8.71475354 L15.5571845,7.56090739 C15.2666089,7.41841359 14.9132718,7.53392764 14.767984,7.81891523 C14.6226962,8.10390283 14.7404752,8.45044497 15.0310508,8.59293876 Z M15.2941176,6.34615385 L18.8235294,6.34615385 C19.1484028,6.34615385 19.4117647,6.08785659 19.4117647,5.76923077 C19.4117647,5.45060495 19.1484028,5.19230769 18.8235294,5.19230769 L15.2941176,5.19230769 C14.9692443,5.19230769 14.7058824,5.45060495 14.7058824,5.76923077 C14.7058824,6.08785659 14.9692443,6.34615385 15.2941176,6.34615385 Z" id="Shape"></path>
            </g>
        </g>
    </g>
</svg>