
<svg width="15px" height="18px" viewBox="0 0 15 18" version="1.1" xmlns="http://www.w3.org/2000/svg" xmlns:xlink="http://www.w3.org/1999/xlink">
    <!-- Generator: Sketch 39.1 (31720) - http://www.bohemiancoding.com/sketch -->
    <desc>Created with Sketch.</desc>
    <defs></defs>
    <g id="followers" stroke="none" stroke-width="1" fill="none" fill-rule="evenodd">
        <g id="Layer_1" fill="currentColor">
            <g id="Snippet---personal">
                <g id="Group-2">
                    <g id="Page-1-Copy">
                        <g id="Group-5">
                            <path d="M6,0 C3.790861,-1.3527075e-16 2,1.790861 2,4 C2,6.209139 3.790861,8 6,8 C8.209139,8 10,6.209139 10,4 C10,1.790861 8.209139,1.02344917e-15 6,8.8817842e-16 M6,2 C7.1045695,2 8,2.8954305 8,4 C8,5.1045695 7.1045695,6 6,6 C4.8954305,6 4,5.1045695 4,4 C4,2.8954305 4.8954305,2 6,2" id="Fill-3"></path>
                            <path d="M9,9 L3,9 C1.34314575,9 2.02906125e-16,10.3431458 0,12 L0,15.7 C1.6264701,17.1506041 3.72087797,17.9670682 5.9,18 C8.16273587,17.9952621 10.3406617,17.1383733 12,15.6 L12,12 C12,10.3431458 10.6568542,9 9,9 M9,11 C9.27030296,10.9821181 9.53517976,11.0817185 9.72673061,11.2732694 C9.91828145,11.4648202 10.0178819,11.729697 10,12 L10,14.6 C8.79245734,15.4302624 7.36533203,15.8827656 5.9,15.9 C4.50656321,15.9172291 3.14272435,15.4975863 2,14.7 L2,12 C1.98211806,11.729697 2.08171855,11.4648202 2.27326939,11.2732694 C2.46482024,11.0817185 2.72969704,10.9821181 3,11 L9,11" id="Fill-5"></path>
                        </g>
                    </g>
                </g>
            </g>
            <path d="M10.78,8 C10.7784632,7.73419702 10.8828135,7.47871883 11.07,7.29 L12.43,6 L11.12,4.66 C10.7802232,4.26323972 10.8030677,3.67180583 11.1724368,3.30243678 C11.5418058,2.93306773 12.1332397,2.9102232 12.53,3.25 L14.53,5.25 C14.9177236,5.64003745 14.9177236,6.26996255 14.53,6.66 L12.49,8.74 C12.2001233,9.03281649 11.7603217,9.1178616 11.3821792,8.95422099 C11.0040367,8.79058038 10.7649733,8.41175744 10.78,8 L10.78,8 Z" id="Shape"></path>
        </g>
    </g>
</svg>