
<svg width="32px" height="30px" viewBox="4 5 32 30" version="1.1" xmlns="http://www.w3.org/2000/svg" xmlns:xlink="http://www.w3.org/1999/xlink">
    <!-- Generator: Sketch 39.1 (31720) - http://www.bohemiancoding.com/sketch -->
    <desc>Created with Sketch.</desc>
    <defs></defs>
    <path d="M20,35 C28.2842712,35 35,28.2842712 35,20 C35,11.7157288 28.2842712,5 20,5 C11.7157288,5 5,11.7157288 5,20 C5,28.2842712 11.7157288,35 20,35 Z M12,19.5004358 C12,19.2240528 12.152667,18.847333 12.3540725,18.6459275 L19.6459275,11.3540725 C19.8414764,11.1585236 20.152667,11.152667 20.3540725,11.3540725 L27.6459275,18.6459275 C27.8414764,18.8414764 28,19.2307968 28,19.5004358 L28,26.4995642 C28,26.7759472 27.7721195,27 27.5089948,27 L22.4910052,27 C22.2198305,27 22,26.7849426 22,26.5095215 L22,23 C22,23 21,22 20,22 C19,22 18,23 18,23 L18,26.5095215 C18,26.7804053 17.7721195,27 17.5089948,27 L12.4910052,27 C12.2198305,27 12,26.7692032 12,26.4995642 L12,19.5004358 Z" id="Combined-Shape" stroke="none" fill="currentColor" fill-rule="evenodd"></path>
</svg>
