<?xml version="1.0" encoding="UTF-8" standalone="no"?>
<svg width="24px" height="24px" viewBox="0 0 24 24" version="1.1" xmlns="http://www.w3.org/2000/svg" xmlns:xlink="http://www.w3.org/1999/xlink">
    <!-- Generator: Sketch 41 (35326) - http://www.bohemiancoding.com/sketch -->
    <title>Image border</title>
    <desc>Created with Sketch.</desc>
    <defs></defs>
    <g id="24-x-20" stroke="none" stroke-width="1" fill="none" fill-rule="evenodd">
        <g id="editor-24x20/editor-image-border" fill="currentColor">
            <g id="image-border" transform="translate(2.000000, 2.000000)">
                <path d="M18.3333333,5 L20,5 L20,10 L18.3333333,10 L18.3333333,5 Z M18.3333333,11.6666667 L20,11.6666667 L20,15 L18.3333333,15 L18.3333333,11.6666667 Z M0,5 L1.66666667,5 L1.66666667,8.33333333 L0,8.33333333 L0,5 Z M0,10 L1.66666667,10 L1.66666667,15 L0,15 L0,10 Z M5,18.3333333 L8.33333333,18.3333333 L8.33333333,20 L5,20 L5,18.3333333 Z M10,18.3333333 L15,18.3333333 L15,20 L10,20 L10,18.3333333 Z M5,0 L10,0 L10,1.66666667 L5,1.66666667 L5,0 Z M11.6666667,0 L15,0 L15,1.66666667 L11.6666667,1.66666667 L11.6666667,0 Z M0,0.491844813 C0,0.220206424 0.21870931,0 0.491844813,0 L3.33333333,0 L3.33333333,1.66666667 L1.66666667,1.66666667 L1.66666667,3.33333333 L0,3.33333333 L0,0.491844813 Z M20,0.491844813 C20,0.220206424 19.7812907,0 19.5081552,0 L16.6666667,0 L16.6666667,1.66666667 L18.3333333,1.66666667 L18.3333333,3.33333333 L20,3.33333333 L20,0.491844813 Z M0,19.5081552 C0,19.7797936 0.21870931,20 0.491844813,20 L3.33333333,20 L3.33333333,18.3333333 L1.66666667,18.3333333 L1.66666667,16.6666667 L0,16.6666667 L0,19.5081552 Z M20,19.5081552 C20,19.7797936 19.7812907,20 19.5081552,20 L16.6666667,20 L16.6666667,18.3333333 L18.3333333,18.3333333 L18.3333333,16.6666667 L20,16.6666667 L20,19.5081552 Z" id="Combined-Shape"></path>
            </g>
        </g>
    </g>
</svg>