<?xml version="1.0" encoding="UTF-8" standalone="no"?>
<svg width="24px" height="24px" viewBox="0 0 24 24" version="1.1" xmlns="http://www.w3.org/2000/svg" xmlns:xlink="http://www.w3.org/1999/xlink">
    <!-- Generator: Sketch 41 (35326) - http://www.bohemiancoding.com/sketch -->
    <title>Info</title>
    <desc>Created with Sketch.</desc>
    <defs></defs>
    <g id="24-x-20" stroke="none" stroke-width="1" fill="none" fill-rule="evenodd">
        <g id="editor-24x20/editor-info" fill="currentColor">
            <g id="info" transform="translate(2.000000, 2.000000)">
                <path d="M11.25,9.7399727 L11.25,15.7579041 C11.25,16.0296811 11.0192871,16.25 10.7440877,16.25 L9.2559123,16.25 C8.97650465,16.25 8.75,16.033628 8.75,15.7579041 L8.75,9.7399727 C9.13278897,9.90722031 9.55555956,10 10,10 C10.4444404,10 10.867211,9.90722031 11.25,9.7399727 Z M10,20 C15.5228475,20 20,15.5228475 20,10 C20,4.4771525 15.5228475,0 10,0 C4.4771525,0 0,4.4771525 0,10 C0,15.5228475 4.4771525,20 10,20 Z M10,7.5 C11.0355339,7.5 11.875,6.66053391 11.875,5.625 C11.875,4.58946609 11.0355339,3.75 10,3.75 C8.96446609,3.75 8.125,4.58946609 8.125,5.625 C8.125,6.66053391 8.96446609,7.5 10,7.5 Z" id="Shape"></path>
            </g>
        </g>
    </g>
</svg>