<?xml version="1.0" encoding="UTF-8" standalone="no"?>
<svg width="24px" height="24px" viewBox="0 0 24 24" version="1.1" xmlns="http://www.w3.org/2000/svg" xmlns:xlink="http://www.w3.org/1999/xlink">
    <g id="icons" stroke="none" stroke-width="1" fill="none" fill-rule="evenodd">
        <g id="jira/core/invite-team">
            <g id="invite-team_icon_24x24">
                <circle id="Oval-3" stroke="currentColor" stroke-width="2" cx="10" cy="7" r="2"></circle>
                <path d="M15,16.8989827 C13.729483,18.1955328 11.9586882,19 10,19 C8.04131183,19 6.27051704,18.1955328 5,16.8989827 L5,13.9981014 C5,12.8945804 5.88743329,12 6.99961498,12 L13.000385,12 C14.1047419,12 15,12.8867064 15,13.9981014 L15,16.8989827 Z" id="Combined-Shape" stroke="currentColor" stroke-width="2"></path>
                <path d="M18,7 L18,5.99077797 C18,5.45097518 17.5522847,5 17,5 C16.4438648,5 16,5.44358641 16,5.99077797 L16,7 L14.990778,7 C14.4509752,7 14,7.44771525 14,8 C14,8.55613518 14.4435864,9 14.990778,9 L16,9 L16,10.009222 C16,10.5490248 16.4477153,11 17,11 C17.5561352,11 18,10.5564136 18,10.009222 L18,9 L19.009222,9 C19.5490248,9 20,8.55228475 20,8 C20,7.44386482 19.5564136,7 19.009222,7 L18,7 Z" id="path-1" fill="currentColor"></path>
            </g>
        </g>
    </g>
</svg>
