<?xml version="1.0" encoding="UTF-8" standalone="no"?>
<svg width="24px" height="24px" viewBox="0 0 24 24" version="1.1" xmlns="http://www.w3.org/2000/svg" xmlns:xlink="http://www.w3.org/1999/xlink">
    <!-- Generator: Sketch 41 (35326) - http://www.bohemiancoding.com/sketch -->
    <title>Issue</title>
    <desc>Created with Sketch.</desc>
    <defs></defs>
    <g id="icons" stroke="none" stroke-width="1" fill="none" fill-rule="evenodd">
        <g id="issue">
            <g id="issues_icon_24x24-copy">
                <g id="icon_container_transparent">
                    <rect x="0" y="0" width="24" height="24"></rect>
                </g>
                <path d="M5,19 L19.0010872,19 C19.0002276,18.9998053 19,8.82842712 19,8.82842712 L15.1715729,5 L5.00276013,5 C5.00126866,5 5,19 5,19 Z M3,4.99508929 C3,3.8932319 3.89354265,3 5.00276013,3 L15.506259,3 C15.7789446,3 16.1551229,3.15512288 16.3595877,3.35958767 L20.6404123,7.64041233 C20.8390071,7.83900712 21,8.22563934 21,8.49374104 L21,18.9972399 C21,20.1033337 20.1073772,21 19.0049107,21 L4.99508929,21 C3.8932319,21 3,20.1073772 3,19.0049107 L3,4.99508929 Z" id="Rectangle-2" fill="currentColor"></path>
                <path d="M9.70710678,11.2928932 C9.31658249,10.9023689 8.68341751,10.9023689 8.29289322,11.2928932 C7.90236893,11.6834175 7.90236893,12.3165825 8.29289322,12.7071068 L10.2928932,14.7071068 C10.6834175,15.0976311 11.3165825,15.0976311 11.7071068,14.7071068 L15.7071068,10.7071068 C16.0976311,10.3165825 16.0976311,9.68341751 15.7071068,9.29289322 C15.3165825,8.90236893 14.6834175,8.90236893 14.2928932,9.29289322 L11,12.5857864 L9.70710678,11.2928932 Z" id="Path-3" fill="currentColor"></path>
            </g>
        </g>
    </g>
</svg>