<?xml version="1.0" encoding="UTF-8" standalone="no"?>
<svg width="24px" height="24px" viewBox="0 0 24 24" version="1.1" xmlns="http://www.w3.org/2000/svg" xmlns:xlink="http://www.w3.org/1999/xlink">
    <!-- Generator: Sketch 41 (35326) - http://www.bohemiancoding.com/sketch -->
    <title>Issues</title>
    <desc>Created with Sketch.</desc>
    <defs></defs>
    <g id="icons" stroke="none" stroke-width="1" fill="none" fill-rule="evenodd">
        <g id="issues">
            <g id="jira_issues_icon_24x24">
                <g id="issues_icon_24x24">
                    <g id="icon_container_transparent">
                        <rect x="0" y="0" width="24" height="24"></rect>
                    </g>
                    <path d="M12.282684,5 L4.99763019,5 C5.00224355,5 5,14.9941413 5,14.9941413 C5,14.9978741 14.9941413,15 14.9941413,15 C14.999711,15 15,7.71731601 15,7.71731601 L12.282684,5 Z M3,5.00585866 C3,3.89805351 3.89729366,3 4.99763019,3 L12.6096995,3 C12.8866215,3 13.2683767,3.1572656 13.4699978,3.35888672 L16.6411133,6.53000217 C16.8393209,6.72820983 17,7.11907115 17,7.39030046 L17,15.0023698 C17,16.1056305 16.1029399,17 14.9941413,17 L5.00585866,17 C3.89805351,17 3,16.1029399 3,14.9941413 L3,5.00585866 Z" id="Rectangle-2" fill="currentColor"></path>
                    <path d="M8.70710678,9.62622655 C8.31658249,9.23570226 7.68341751,9.23570226 7.29289322,9.62622655 C6.90236893,10.0167508 6.90236893,10.6499158 7.29289322,11.0404401 L8.62622655,12.3737734 C9.01675084,12.7642977 9.64991582,12.7642977 10.0404401,12.3737734 L12.7071068,9.70710678 C13.0976311,9.31658249 13.0976311,8.68341751 12.7071068,8.29289322 C12.3165825,7.90236893 11.6834175,7.90236893 11.2928932,8.29289322 L9.33333333,10.2524531 L8.70710678,9.62622655 Z" id="Path-3" fill="currentColor"></path>
                </g>
                <path d="M5,19 C5,20.1045695 5.89451376,21 6.99406028,21 L19.0059397,21 C20.1072288,21 21,20.1064574 21,18.9972399 L21,10.0027601 C21,8.89666625 20.1052949,8 19.0057373,8 L19,8 L19,18.0044225 C19,18.5542648 18.5500512,19 17.9931545,19 L5,19 L5,19 Z" id="Combined-Shape" fill="currentColor"></path>
            </g>
        </g>
    </g>
</svg>