<?xml version="1.0" encoding="UTF-8" standalone="no"?>
<svg width="24px" height="24px" viewBox="0 0 24 24" version="1.1" xmlns="http://www.w3.org/2000/svg" xmlns:xlink="http://www.w3.org/1999/xlink">
    <!-- Generator: Sketch 41 (35326) - http://www.bohemiancoding.com/sketch -->
    <title>List</title>
    <desc>Created with Sketch.</desc>
    <defs></defs>
    <g id="icons" stroke="none" stroke-width="1" fill="none" fill-rule="evenodd">
        <g id="list">
            <g id="list-view_icon_24x24-copy">
                <g id="icon_container_transparent">
                    <rect x="0" y="0" width="24" height="24"></rect>
                </g>
                <polygon id="Line" fill="currentColor" points="4 11 21 11 21 9 4 9"></polygon>
                <path d="M4,7 L21,7 L21,6 C21,5.44771525 20.5452911,5 20.0000398,5 L4.9999602,5 C4.44769743,5 4,5.44386482 4,6 L4,7 Z" id="Line-Copy-2" fill="currentColor"></path>
                <polygon id="Line-Copy" fill="currentColor" points="4 15 21 15 21 13 4 13"></polygon>
            </g>
            <path d="M4,18 C4,18.5522847 4.45470893,19 4.9999602,19 L20.0000398,19 C20.5523026,19 21,18.5561352 21,18 L21,17 L4,17 L4,18 Z" id="Line-Copy-3" fill="currentColor"></path>
        </g>
    </g>
</svg>