<?xml version="1.0" encoding="UTF-8" standalone="no"?>
<svg width="24px" height="24px" viewBox="0 0 24 24" version="1.1" xmlns="http://www.w3.org/2000/svg" xmlns:xlink="http://www.w3.org/1999/xlink">
    <!-- Generator: Sketch 42 (36781) - http://www.bohemiancoding.com/sketch -->
    <title>lock</title>
    <desc>Created with Sketch.</desc>
    <defs>
        <rect id="path-1" x="5" y="9" width="14" height="12" rx="2"></rect>
        <mask id="mask-2" maskContentUnits="userSpaceOnUse" maskUnits="objectBoundingBox" x="0" y="0" width="14" height="12" fill="white">
            <use xlink:href="#path-1"></use>
        </mask>
    </defs>
    <g id="Global" stroke="none" stroke-width="1" fill="none" fill-rule="evenodd">
        <g id="lock">
            <g>
                <use id="Combined-Shape" stroke="currentColor" mask="url(#mask-2)" stroke-width="4" xlink:href="#path-1"></use>
                <path d="M16,10 L14,10 L14,7.00236948 C14,5.89616855 13.1043465,5 12,5 C10.8982909,5 10,5.89812584 10,7.00236948 L10,10 L8,10 L8,7.00236948 C8,4.79192185 9.79535615,3 12,3 C14.209139,3 16,4.79182182 16,7.00236948 L16,10 Z M8,10 L10,10 L10,11 L8,11 L8,10 Z M14,10 L16,10 L16,11 L14,11 L14,10 Z" id="Combined-Shape" fill="currentColor" fill-rule="nonzero"></path>
                <circle id="Oval-7" fill="currentColor" cx="12" cy="15" r="2"></circle>
            </g>
        </g>
    </g>
</svg>