<?xml version="1.0" encoding="UTF-8" standalone="no"?>
<svg width="24px" height="24px" viewBox="0 0 24 24" version="1.1" xmlns="http://www.w3.org/2000/svg" xmlns:xlink="http://www.w3.org/1999/xlink">
    <!-- Generator: Sketch 41 (35326) - http://www.bohemiancoding.com/sketch -->
    <title>Private</title>
    <desc>Created with Sketch.</desc>
    <defs></defs>
    <g id="Symbols" stroke="none" stroke-width="1" fill="none" fill-rule="evenodd">
        <g id="Private" fill="currentColor">
            <g id="Group" transform="translate(5.000000, 3.000000)">
                <path d="M8,12.7324356 C8.59780137,12.3866262 9,11.7402824 9,11 C9,9.8954305 8.1045695,9 7,9 C5.8954305,9 5,9.8954305 5,11 C5,11.7402824 5.40219863,12.3866262 6,12.7324356 L6,15 L8,15 L8,12.7324356 Z M10,6 L10,5 C10,3.34314575 8.65685425,2 7,2 C5.34314575,2 4,3.34314575 4,5 L4,6 L10,6 Z M2,6.00000837 L2,5 C2,2.23857625 4.23857625,0 7,0 C9.76142375,0 12,2.23857625 12,5 L12,6.00000841 C13.105111,6.00318169 14,6.90390174 14,8.0085302 L14,15.9914698 C14,17.1007504 13.1029399,18 11.9941413,18 L2.00585866,18 C0.898053512,18 0,17.0980496 0,15.9914698 L0,8.0085302 C0,6.901204 0.893901926,6.00316935 2,6.00000837 Z M2,8 L12,8 L12,16 L2,16 L2,8 Z" id="Combined-Shape"></path>
            </g>
        </g>
    </g>
</svg>
