<?xml version="1.0" encoding="UTF-8" standalone="no"?>
<svg width="24px" height="24px" viewBox="0 0 24 24" version="1.1" xmlns="http://www.w3.org/2000/svg" xmlns:xlink="http://www.w3.org/1999/xlink">
    <!-- Generator: Sketch 41 (35326) - http://www.bohemiancoding.com/sketch -->
    <title>More</title>
    <desc>Created with Sketch.</desc>
    <defs></defs>
    <g id="24-x-20" stroke="none" stroke-width="1" fill="none" fill-rule="evenodd">
        <g id="editor-24x20/editor-more" fill="currentColor">
            <g id="more" transform="translate(2.000000, 9.000000)">
                <path d="M2.14285714,5.25 C3.32632446,5.25 4.28571429,4.24264069 4.28571429,3 C4.28571429,1.75735931 3.32632446,0.75 2.14285714,0.75 C0.959389822,0.75 0,1.75735931 0,3 C0,4.24264069 0.959389822,5.25 2.14285714,5.25 Z M10,5.25 C11.1834673,5.25 12.1428571,4.24264069 12.1428571,3 C12.1428571,1.75735931 11.1834673,0.75 10,0.75 C8.81653268,0.75 7.85714286,1.75735931 7.85714286,3 C7.85714286,4.24264069 8.81653268,5.25 10,5.25 Z M17.8571429,5.25 C19.0406102,5.25 20,4.24264069 20,3 C20,1.75735931 19.0406102,0.75 17.8571429,0.75 C16.6736755,0.75 15.7142857,1.75735931 15.7142857,3 C15.7142857,4.24264069 16.6736755,5.25 17.8571429,5.25 Z" id="Shape"></path>
            </g>
        </g>
    </g>
</svg>