<?xml version="1.0" encoding="UTF-8" standalone="no"?>
<svg width="24px" height="24px" viewBox="0 0 24 24" version="1.1" xmlns="http://www.w3.org/2000/svg" xmlns:xlink="http://www.w3.org/1999/xlink">
    <!-- Generator: Sketch 41 (35326) - http://www.bohemiancoding.com/sketch -->
    <title>Organization</title>
    <desc>Created with Sketch.</desc>
    <defs></defs>
    <g id="Symbols" stroke="none" stroke-width="1" fill="none" fill-rule="evenodd">
        <g id="Organization" fill="currentColor">
            <g id="Group" transform="translate(3.000000, 3.000000)">
                <path d="M2.0032,15.9583 L2.0032,4.9673 L5.0012,4.9673 L5.0012,2.9483 L1.7462,2.9483 C0.7862,2.9483 0.0002,3.7003 0.0002,4.6183 L0.0002,16.2683 C0.0002,17.1863 0.7862,17.9373 1.7462,17.9373 L5.0012,17.9373 L5.0012,15.9583 L2.0032,15.9583 Z M2.981,7.9163 L4.98,7.9163 L4.98,5.9163 L2.981,5.9163 L2.981,7.9163 Z M2.981,10.9163 L4.98,10.9163 L4.98,8.9163 L2.981,8.9163 L2.981,10.9163 Z M12.981,7.9163 L14.98,7.9163 L14.98,5.9163 L12.981,5.9163 L12.981,7.9163 Z M12.981,10.9163 L14.98,10.9163 L14.98,8.9163 L12.981,8.9163 L12.981,10.9163 Z M12.981,4.9163 L14.98,4.9163 L14.98,2.9163 L12.981,2.9163 L12.981,4.9163 Z M8.981,7.9163 L10.98,7.9163 L10.98,5.9163 L8.981,5.9163 L8.981,7.9163 Z M8.981,10.9163 L10.98,10.9163 L10.98,8.9163 L8.981,8.9163 L8.981,10.9163 Z M8.981,4.9163 L10.98,4.9163 L10.98,2.9163 L8.981,2.9163 L8.981,4.9163 Z M15.9858,15.9161 L13.0008,15.9161 L13.0008,12.9581 L11.0018,12.9581 L11.0018,15.9161 L7.9858,15.9161 L7.9858,1.9951 L15.9858,1.9951 L15.9858,15.9161 Z M15.9808,0.0001 L7.9808,0.0001 C6.8808,0.0001 5.9808,0.9001 5.9808,2.0001 L5.9808,15.9581 C5.9808,16.0281 5.9938,16.0951 6.0018,16.1631 L6.0018,17.9581 L7.9808,17.9581 L8.0018,17.9581 L15.9808,17.9581 C17.0808,17.9581 17.9808,17.0581 17.9808,15.9581 L17.9808,2.0001 C17.9808,0.9001 17.0808,0.0001 15.9808,0.0001 L15.9808,0.0001 Z" id="Combined-Shape"></path>
            </g>
        </g>
    </g>
</svg>
