<?xml version="1.0" encoding="UTF-8" standalone="no"?>
<svg width="24px" height="24px" viewBox="0 0 24 24" version="1.1" xmlns="http://www.w3.org/2000/svg" xmlns:xlink="http://www.w3.org/1999/xlink">
    <!-- Generator: Sketch 41 (35326) - http://www.bohemiancoding.com/sketch -->
    <title>People</title>
    <desc>Created with Sketch.</desc>
    <defs>
        <path d="M0,2 L10,2 L10,0 L0,0 L0,2 Z M0,8 L7,8 L7,1 L0,1 L0,8 Z" id="path-1"></path>
    </defs>
    <g id="Fabric" stroke="none" stroke-width="1" fill="none" fill-rule="evenodd">
        <g id="fabric/people">
            <g id="people" transform="translate(3.000000, 3.000000)">
                <circle id="Oval-3" fill="currentColor" cx="13" cy="6" r="3"></circle>
                <circle id="Oval-3-Copy" fill="currentColor" cx="5" cy="3" r="3"></circle>
                <path d="M8,11.9997846 C8,10.8953341 8.88743329,10 9.99961498,10 L16.000385,10 C17.1047419,10 18,10.8854554 18,12.000312 L18,15.7298664 C18,18.7567112 8,18.7567112 8,15.7298664 C8,18.7567112 8,11.9997846 8,11.9997846 Z" id="Rectangle-7" fill="currentColor"></path>
                <g id="2nd-body" transform="translate(0.000000, 7.000000)">
                    <mask id="mask-2" fill="white">
                        <use xlink:href="#path-1"></use>
                    </mask>
                    <g id="Mask"></g>
                </g>
            </g>
            <path d="M12.9999838,12 C12.9955951,10.8848857 12.1022816,10.0002544 11,10.0002544 L5,10.0002544 C3.887,10.0002544 3,10.8972544 3,12.0032544 L3,15.8292544 C3,17.7508564 7.05673163,18.3479356 10.0025292,17.812729 C10.0008483,17.7853649 10,17.757744 10,17.7298664 C10,20.7567112 10,13.9997846 10,13.9997846 C10,12.8953341 10.8874333,12 11.999615,12 L12.9999842,12 Z" id="Combined-Shape" fill="currentColor"></path>
        </g>
    </g>
</svg>
