<?xml version="1.0" encoding="UTF-8" standalone="no"?>
<svg width="20px" height="20px" viewBox="0 0 20 20" version="1.1" xmlns="http://www.w3.org/2000/svg" xmlns:xlink="http://www.w3.org/1999/xlink">
    <!-- Generator: Sketch Beta 40 (33734) - http://www.bohemiancoding.com/sketch -->
    <title>person</title>
    <desc>Created with Sketch Beta.</desc>
    <defs></defs>
    <g id="Page-1" stroke="none" stroke-width="1" fill="none" fill-rule="evenodd">
        <g id="person" fill="currentColor">
            <path d="M10,20 C15.5228475,20 20,15.5228475 20,10 C20,4.4771525 15.5228475,0 10,0 C4.4771525,0 0,4.4771525 0,10 C0,15.5228475 4.4771525,20 10,20 L10,20 Z" id="path-1" fill-opacity="0.2"></path>
            <path d="M17.0217547,17.1200415 C15.2161414,18.9008842 12.7364268,20 10,20 C7.26331941,20 4.78339869,18.9006803 2.97774296,17.119546 C3.68557314,16.6645627 4.51062241,16.2784163 5.326,15.927 C7.449,15.013 8.129,14.242 8.129,12.593 C8.129,11.603 7.48,11.926 7.196,10.112 C7.078,9.359 6.504,10.1 6.395,8.383 C6.395,7.699 6.708,7.529 6.708,7.529 C6.708,7.529 6.55,6.515 6.486,5.736 C6.436,5.099 6.709,3.902 7.725,3.146 C8.918,2.284 10.88,2.301 11.213,2.641 C13.115,3.176 13.578,4.92 13.513,5.737 C13.45,6.516 13.292,7.53 13.292,7.53 C13.292,7.53 13.606,7.7 13.606,8.384 C13.495,10.101 12.922,9.36 12.803,10.113 C12.518,11.927 11.871,11.604 11.871,12.594 C11.871,14.244 12.549,15.014 14.672,15.928 C15.487916,16.2791004 16.3135075,16.6650909 17.0217547,17.1200415 Z" id="Combined-Shape"></path>
        </g>
    </g>
</svg>
