
<svg width="18px" height="18px" viewBox="11 11 18 18" version="1.1" xmlns="http://www.w3.org/2000/svg" xmlns:xlink="http://www.w3.org/1999/xlink">
    <!-- Generator: Sketch 39.1 (31720) - http://www.bohemiancoding.com/sketch -->
    <desc>Created with Sketch.</desc>
    <defs></defs>
    <path d="M11,20 C11,24.970625 15.029375,29 20,29 C24.9696875,29 29,24.970625 29,19.9990625 C29,15.029375 24.9696875,11 20,11 C15.029375,11 11,15.029375 11,20 Z M19.8584375,25.2490625 L19.810625,25.2490625 C19.0775,25.2275 18.56,24.6865625 18.5815625,23.96375 C18.6021875,23.253125 19.131875,22.7365625 19.840625,22.7365625 L19.88375,22.7384375 C20.6375,22.76 21.149375,23.2953125 21.1278125,24.03875 C21.10625,24.75125 20.5859375,25.2490625 19.8584375,25.2490625 L19.8584375,25.2490625 Z M22.94375,19.12625 C22.77125,19.37 22.3925,19.675625 21.914375,20.0478125 L21.3875,20.410625 C21.09875,20.635625 20.924375,20.8484375 20.8596875,21.055625 C20.8071875,21.21875 20.7828125,21.2628125 20.778125,21.595625 L20.778125,21.68 L18.7671875,21.68 L18.7728125,21.509375 C18.798125,20.811875 18.815,20.399375 19.1046875,20.0590625 C19.559375,19.5265625 20.5625,18.8796875 20.6046875,18.8525 C20.7490625,18.7446875 20.87,18.621875 20.96,18.4896875 C21.1709375,18.198125 21.26375,17.969375 21.26375,17.74625 C21.26375,17.433125 21.171875,17.1434375 20.9890625,16.8875 C20.8128125,16.638125 20.478125,16.514375 19.994375,16.514375 C19.514375,16.514375 19.1853125,16.66625 18.989375,16.979375 C18.786875,17.2990625 18.6846875,17.635625 18.6846875,17.9796875 L18.6846875,18.0659375 L16.611875,18.0659375 L16.615625,17.9759375 C16.6690625,16.7075 17.1228125,15.7934375 17.9609375,15.26 C18.48875,14.9215625 19.1459375,14.75 19.911875,14.75 C20.913125,14.75 21.760625,14.99375 22.42625,15.47375 C23.1021875,15.9603125 23.444375,16.6896875 23.444375,17.6403125 C23.4434375,18.171875 23.275625,18.6715625 22.94375,19.12625 L22.94375,19.12625 Z" id="Shape" stroke="none" fill="currentColor" fill-rule="evenodd"></path>
</svg>
