<?xml version="1.0" encoding="UTF-8"?>
<svg width="12px" height="12px" viewBox="0 0 12 12" version="1.1" xmlns="http://www.w3.org/2000/svg" xmlns:xlink="http://www.w3.org/1999/xlink">
  <g id="Symbols" stroke="none" stroke-width="1" fill="none" fill-rule="evenodd">
    <g id="Doc-icon">
      <g>
        <rect id="Rectangle-2" fill="#FFFFFF" x="1" y="1" width="10" height="10"></rect>
        <path d="M0,1.00247329 C0,0.448822582 0.455760956,0 1.00247329,0 L10.9975267,0 C11.5511774,0 12,0.455760956 12,1.00247329 L12,10.9975267 C12,11.5511774 11.544239,12 10.9975267,12 L1.00247329,12 C0.448822582,12 0,11.544239 0,10.9975267 L0,1.00247329 Z M2.18181818,3.27272727 C2.18181818,2.97148105 2.43589367,2.72727273 2.73100662,2.72727273 L9.26899338,2.72727273 C9.57230178,2.72727273 9.81818182,2.98029119 9.81818182,3.27272727 C9.81818182,3.5739735 9.56410633,3.81818182 9.26899338,3.81818182 L2.73100662,3.81818182 C2.42769822,3.81818182 2.18181818,3.56516335 2.18181818,3.27272727 Z M2.18181818,6 C2.18181818,5.69875377 2.43589367,5.45454545 2.73100662,5.45454545 L9.26899338,5.45454545 C9.57230178,5.45454545 9.81818182,5.70756392 9.81818182,6 C9.81818182,6.30124623 9.56410633,6.54545455 9.26899338,6.54545455 L2.73100662,6.54545455 C2.42769822,6.54545455 2.18181818,6.29243608 2.18181818,6 Z M2.18181818,8.72727273 C2.18181818,8.4260265 2.41619318,8.18181818 2.72476231,8.18181818 L7.09341951,8.18181818 C7.39327927,8.18181818 7.63636364,8.43483665 7.63636364,8.72727273 C7.63636364,9.02851895 7.40198864,9.27272727 7.09341951,9.27272727 L2.72476231,9.27272727 C2.42490255,9.27272727 2.18181818,9.01970881 2.18181818,8.72727273 Z" id="Combined-Shape" fill="currentColor"></path>
      </g>
    </g>
  </g>
</svg>
