<?xml version="1.0" encoding="UTF-8" standalone="no"?>
<svg width="20px" height="20px" viewBox="32 244 16 14" version="1.1" xmlns="http://www.w3.org/2000/svg" xmlns:xlink="http://www.w3.org/1999/xlink">
    <!-- Generator: Sketch 3.8.2 (29753) - http://www.bohemiancoding.com/sketch -->
    <desc>Created with Sketch.</desc>
    <defs></defs>
    <path d="M35.315,244.401 C33.705,244.401 32.399,245.744 32.399,247.401 C32.399,249.057 33.705,250.401 35.315,250.401 C38.23,250.401 36.287,256.2 32.399,256.2 L32.399,257.6 C39.338,257.601 42.057,244.401 35.315,244.401 L35.315,244.401 Z M43.715,244.401 C42.106,244.401 40.8,245.744 40.8,247.401 C40.8,249.057 42.106,250.401 43.715,250.401 C46.631,250.401 44.688,256.2 40.8,256.2 L40.8,257.6 C47.738,257.601 50.457,244.401 43.715,244.401 L43.715,244.401 Z" id="Shape" stroke="none" fill="currentColor" fill-rule="evenodd"></path>
</svg>
