<?xml version="1.0" encoding="UTF-8" standalone="no"?>
<svg width="24px" height="24px" viewBox="0 0 24 24" version="1.1" xmlns="http://www.w3.org/2000/svg" xmlns:xlink="http://www.w3.org/1999/xlink">
    <!-- Generator: Sketch 41 (35326) - http://www.bohemiancoding.com/sketch -->
    <title>Recent</title>
    <desc>Created with Sketch.</desc>
    <defs></defs>
    <g id="24-x-20" stroke="none" stroke-width="1" fill="none" fill-rule="evenodd">
        <g id="editor-24x20/editor-recent" fill="currentColor">
            <g id="recent" transform="translate(2.000000, 2.000000)">
                <path d="M11.25,9.48223305 L14.2172168,12.4494499 C14.7053722,12.9376052 14.7053722,13.7290614 14.2172168,14.2172168 C13.7290614,14.7053722 12.9376052,14.7053722 12.4494499,14.2172168 L9.11611652,10.8838835 C8.99407768,10.7618446 8.90254855,10.6208495 8.84152913,10.4703762 C8.78497775,10.3370085 8.75,10.172589 8.75,10 L8.75,5 C8.75,4.30964406 9.30964406,3.75 10,3.75 C10.6903559,3.75 11.25,4.30964406 11.25,5 L11.25,9.48223305 Z M10,0 C4.47777778,0 -1.90425453e-12,4.47666667 -1.90425453e-12,10 C-1.90425453e-12,15.5222222 4.47777778,20 10,20 C15.5233333,20 20,15.5222222 20,10 C20,4.47666667 15.5233333,0 10,0 Z" id="Shape"></path>
            </g>
        </g>
    </g>
</svg>