<?xml version="1.0" encoding="UTF-8" standalone="no"?>
<svg width="24px" height="24px" viewBox="0 0 24 24" version="1.1" xmlns="http://www.w3.org/2000/svg" xmlns:xlink="http://www.w3.org/1999/xlink">
    <!-- Generator: Sketch 41 (35326) - http://www.bohemiancoding.com/sketch -->
    <title>Redo</title>
    <desc>Created with Sketch.</desc>
    <defs></defs>
    <g id="24-x-20" stroke="none" stroke-width="1" fill="none" fill-rule="evenodd">
        <g id="editor-24x20/editor-redo" fill="currentColor">
            <g id="redo" transform="translate(2.000000, 7.000000)">
                <path d="M4.28950928,4.2239942 C5.80845762,1.67837127 8.40983891,0 11.3639009,0 C16.0487918,0 19.8342203,4.22131522 19.8466462,9.42857143 L17.5331702,9.42857143 C17.5331702,5.47954967 14.7239873,2.35714286 11.3639009,2.35714286 C9.28984957,2.35714286 7.42569881,3.54681584 6.30255908,5.38622905 L9.77691726,7.39215068 C10.0166523,7.53056175 10.0010869,7.71211573 9.74358385,7.79718946 L5.19562987,9.29974033 C5.19496532,9.34258385 5.19463158,9.38552854 5.19463158,9.42857143 L5.19463158,9.30007015 L2.83063355,10.0810867 C2.57248901,10.1663724 2.31832555,10.0190487 2.26325005,9.75350767 L0.784687914,2.62476849 C0.7294752,2.35856592 0.883686337,2.25764141 1.11879509,2.39338151 L4.28950928,4.2239942 Z" id="Shape" transform="translate(10.411540, 5.100582) scale(-1, 1) translate(-10.411540, -5.100582) "></path>
            </g>
        </g>
    </g>
</svg>