<?xml version="1.0" encoding="UTF-8" standalone="no"?>
<svg width="24px" height="24px" viewBox="0 0 24 24" version="1.1" xmlns="http://www.w3.org/2000/svg" xmlns:xlink="http://www.w3.org/1999/xlink">
    <!-- Generator: Sketch 41 (35326) - http://www.bohemiancoding.com/sketch -->
    <title>Refresh</title>
    <desc>Created with Sketch.</desc>
    <defs></defs>
    <g id="icons" stroke="none" stroke-width="1" fill="none" fill-rule="evenodd">
        <g id="refresh">
            <g id="refresh_icon_24x24">
                <g id="icon_container_transparent">
                    <rect x="0" y="0" width="24" height="24"></rect>
                </g>
            </g>
            <path d="M12,19 C15.8659932,19 19,15.8659932 19,12 C19,10.1244329 18.2576333,8.36380693 16.9605411,7.06106967 L15.5432602,8.47220917 C16.4708501,9.40383603 17,10.6587888 17,12 C17,14.7614237 14.7614237,17 12,17 L12,19 Z M12,5 C8.13400675,5 5,8.13400675 5,12 C5,13.8583955 5.7287797,15.6042781 7.00490846,16.9039864 L8.43200813,15.5027775 C7.51944618,14.5733537 7,13.3289557 7,12 C7,9.23857625 9.23857625,7 12,7 L12,5 Z" id="Oval-4" fill="currentColor"></path>
            <path d="M10.2842712,7.35924552 C9.90524292,7.7345908 9.90524292,8.34314575 10.2842712,8.71849104 C10.6632996,9.09383632 11.2778259,9.09383632 11.6568542,8.71849104 L13.7157288,6.67962276 C14.0947571,6.30427747 14.0947571,5.69572253 13.7157288,5.32037724 L11.6568542,3.28150896 C11.2778259,2.90616368 10.6632996,2.90616368 10.2842712,3.28150896 C9.90524292,3.65685425 9.90524292,4.2654092 10.2842712,4.64075448 L11.6568542,6 L10.2842712,7.35924552 Z" id="Rectangle-7-Copy" fill="currentColor"></path>
            <path d="M10.2842712,19.3592455 C9.90524292,19.7345908 9.90524292,20.3431458 10.2842712,20.718491 C10.6632996,21.0938363 11.2778259,21.0938363 11.6568542,20.718491 L13.7157288,18.6796228 C14.0947571,18.3042775 14.0947571,17.6957225 13.7157288,17.3203772 L11.6568542,15.281509 C11.2778259,14.9061637 10.6632996,14.9061637 10.2842712,15.281509 C9.90524292,15.6568542 9.90524292,16.2654092 10.2842712,16.6407545 L11.6568542,18 L10.2842712,19.3592455 Z" id="Rectangle-7-Copy-2" fill="currentColor" transform="translate(12.000000, 18.000000) scale(-1, 1) translate(-12.000000, -18.000000) "></path>
        </g>
    </g>
</svg>