<?xml version="1.0" encoding="UTF-8" standalone="no"?>
<svg width="24px" height="24px" viewBox="0 0 24 24" version="1.1" xmlns="http://www.w3.org/2000/svg" xmlns:xlink="http://www.w3.org/1999/xlink">
    <!-- Generator: Sketch 41 (35326) - http://www.bohemiancoding.com/sketch -->
    <title>Share</title>
    <desc>Created with Sketch.</desc>
    <defs></defs>
    <g id="icons" stroke="none" stroke-width="1" fill="none" fill-rule="evenodd">
        <g id="share">
            <g id="share_icon_24x24">
                <g id="icon_container_transparent">
                    <rect x="0" y="0" width="24" height="24"></rect>
                </g>
                <path d="M6,15 C7.65685425,15 9,13.6568542 9,12 C9,10.3431458 7.65685425,9 6,9 C4.34314575,9 3,10.3431458 3,12 C3,13.6568542 4.34314575,15 6,15 Z M6,13 C5.44771525,13 5,12.5522847 5,12 C5,11.4477153 5.44771525,11 6,11 C6.55228475,11 7,11.4477153 7,12 C7,12.5522847 6.55228475,13 6,13 Z" id="Oval-3" fill="currentColor"></path>
                <path d="M18,9 C19.6568542,9 21,7.65685425 21,6 C21,4.34314575 19.6568542,3 18,3 C16.3431458,3 15,4.34314575 15,6 C15,7.65685425 16.3431458,9 18,9 Z M18,7 C17.4477153,7 17,6.55228475 17,6 C17,5.44771525 17.4477153,5 18,5 C18.5522847,5 19,5.44771525 19,6 C19,6.55228475 18.5522847,7 18,7 Z" id="Oval-3-Copy" fill="currentColor"></path>
                <path d="M18,21 C19.6568542,21 21,19.6568542 21,18 C21,16.3431458 19.6568542,15 18,15 C16.3431458,15 15,16.3431458 15,18 C15,19.6568542 16.3431458,21 18,21 Z M18,19 C17.4477153,19 17,18.5522847 17,18 C17,17.4477153 17.4477153,17 18,17 C18.5522847,17 19,17.4477153 19,18 C19,18.5522847 18.5522847,19 18,19 Z" id="Oval-3-Copy-2" fill="currentColor"></path>
                <rect id="Rectangle-13" fill="currentColor" transform="translate(12.000000, 15.000000) rotate(30.000000) translate(-12.000000, -15.000000) " x="7" y="14" width="10" height="2"></rect>
                <rect id="Rectangle-13-Copy" fill="currentColor" transform="translate(12.000000, 9.000000) scale(1, -1) rotate(30.000000) translate(-12.000000, -9.000000) " x="7" y="8" width="10" height="2"></rect>
            </g>
        </g>
    </g>
</svg>
