<?xml version="1.0" encoding="UTF-8" standalone="no"?>
<svg width="24px" height="24px" viewBox="0 0 24 24" version="1.1" xmlns="http://www.w3.org/2000/svg" xmlns:xlink="http://www.w3.org/1999/xlink">
    <!-- Generator: Sketch 41 (35326) - http://www.bohemiancoding.com/sketch -->
    <title>Remove</title>
    <desc>Created with Sketch.</desc>
    <defs></defs>
    <g id="24-x-20" stroke="none" stroke-width="1" fill="none" fill-rule="evenodd">
        <g id="editor-24x20/editor-remove" fill="currentColor">
            <g id="remove" transform="translate(2.000000, 2.000000)">
                <path d="M17.962963,6.66666667 L15.1071307,19.517912 C15.047964,19.7841619 14.7723472,20 14.4903505,20 L5.50964952,20 C5.22817786,20 4.95287895,19.7879553 4.89286934,19.517912 L2.03703704,6.66666667 L17.962963,6.66666667 Z M0,2.15851148 C0,1.88687309 0.224609375,1.66666667 0.494384766,1.66666667 L19.5056152,1.66666667 C19.7786564,1.66666667 20,1.88537598 20,2.15851148 L20,4.50815519 C20,4.77979358 19.7753906,5 19.5056152,5 L0.494384766,5 C0.221343599,5 0,4.78129069 0,4.50815519 L0,2.15851148 Z M6.66666667,0.491040548 C6.66666667,0.219846342 6.8884786,0 7.1677502,0 L12.8322498,0 C13.1089906,0 13.3333333,0.231742859 13.3333333,0.491040548 L13.3333333,1.66666667 L6.66666667,1.66666667 L6.66666667,0.491040548 Z" id="Shape"></path>
            </g>
        </g>
    </g>
</svg>