<?xml version="1.0" encoding="UTF-8" standalone="no"?>
<svg width="24px" height="24px" viewBox="0 0 24 24" version="1.1" xmlns="http://www.w3.org/2000/svg" xmlns:xlink="http://www.w3.org/1999/xlink">
    <!-- Generator: Sketch 41 (35326) - http://www.bohemiancoding.com/sketch -->
    <title>Undo</title>
    <desc>Created with Sketch.</desc>
    <defs></defs>
    <g id="24-x-20" stroke="none" stroke-width="1" fill="none" fill-rule="evenodd">
        <g id="editor-24x20/editor-undo" fill="currentColor">
            <g id="undo" transform="translate(2.000000, 7.000000)">
                <path d="M4.47806183,4.23020595 C5.99268696,1.68110196 8.58938856,0 11.5384615,0 C16.2116402,0 19.9876052,4.22131522 20,9.42857143 L18.4615385,9.42857143 L17.6923077,9.42857143 C17.6923077,5.47954967 14.8901477,2.35714286 11.5384615,2.35714286 C9.4680868,2.35714286 7.60739333,3.54855139 6.48732355,5.39025374 L9.96627813,7.39882911 C10.2060131,7.53724018 10.190654,7.7184369 9.93340402,7.80307236 L5.38561804,9.29929769 C5.38495058,9.34228805 5.38461538,9.3853803 5.38461538,9.42857143 L5.38461538,9.29962756 L3.02724672,10.0752038 C2.76935584,10.1600501 2.51519175,10.0127275 2.45986321,9.74762477 L0.97450809,2.63065138 C0.919041711,2.36488817 1.07304721,2.26431984 1.30815596,2.40005994 L4.47806183,4.23020595 Z" id="Shape"></path>
            </g>
        </g>
    </g>
</svg>