<?xml version="1.0" encoding="UTF-8"?>
<svg width="12px" height="12px" viewBox="0 0 12 12" version="1.1" xmlns="http://www.w3.org/2000/svg" xmlns:xlink="http://www.w3.org/1999/xlink">
    <g id="Symbols" stroke="none" stroke-width="1" fill="none" fill-rule="evenodd">
        <g id="video-icon">
            <g>
                <rect id="Rectangle-2" fill="#FFFFFF" x="1" y="1" width="10" height="10"></rect>
                <path d="M0,1.00247329 C0,0.448822582 0.455760956,0 1.00247329,0 L10.9975267,0 C11.5511774,0 12,0.455760956 12,1.00247329 L12,10.9975267 C12,11.5511774 11.544239,12 10.9975267,12 L1.00247329,12 C0.448822582,12 0,11.544239 0,10.9975267 L0,1.00247329 Z M9.93553719,4.32167832 C9.90333719,4.32167832 9.87393719,4.32956643 9.84713719,4.34097902 L9.84613719,4.3393007 L7.86133719,5.00559441 C7.85933719,5.00643357 7.85713719,5.00693706 7.85513719,5.00777622 L7.84613719,5.01062937 L7.84713719,5.01230769 C7.78153719,5.03983217 7.73553719,5.09521678 7.73553719,5.16083916 L7.73553719,6.83916084 C7.73553719,6.90495105 7.78153719,6.96016783 7.84713719,6.98786014 L7.84613719,6.98937063 L7.85493719,6.99222378 C7.85713719,6.99306294 7.85933719,6.99373427 7.86153719,6.99457343 L9.84613719,7.6606993 L9.84713719,7.65918881 C9.87393719,7.67043357 9.90333719,7.67832168 9.93553719,7.67832168 C10.0459372,7.67832168 10.1355372,7.6033007 10.1355372,7.51048951 L10.1355372,4.48951049 C10.1355372,4.39686713 10.0459372,4.32167832 9.93553719,4.32167832 Z M6.43636364,3.65034965 L2.83636364,3.65034965 C2.47489091,3.65034965 2.18181818,3.95093706 2.18181818,4.32167832 L2.18181818,7.67832168 C2.18181818,8.04923077 2.47489091,8.34965035 2.83636364,8.34965035 L6.43636364,8.34965035 C6.79783636,8.34965035 7.09090909,8.04923077 7.09090909,7.67832168 L7.09090909,4.32167832 C7.09090909,3.95093706 6.79783636,3.65034965 6.43636364,3.65034965 Z" id="Combined-Shape" fill="currentColor"></path>
            </g>
        </g>
    </g>
</svg>