<?xml version="1.0" encoding="UTF-8" standalone="no"?>
<svg width="24px" height="24px" viewBox="0 0 24 24" version="1.1" xmlns="http://www.w3.org/2000/svg" xmlns:xlink="http://www.w3.org/1999/xlink">
    <!-- Generator: Sketch 41 (35326) - http://www.bohemiancoding.com/sketch -->
    <title>Warning</title>
    <desc>Created with Sketch.</desc>
    <defs></defs>
    <g id="24-x-20" stroke="none" stroke-width="1" fill="none" fill-rule="evenodd">
        <g id="editor-24x20/editor-warning" fill="currentColor">
            <g id="warning" transform="translate(2.000000, 3.000000)">
                <path d="M11.1111111,11.4485801 L11.1111111,7.22680721 C11.1111111,6.95593804 10.8903055,6.72916667 10.617928,6.72916667 L9.38207202,6.72916667 C9.11008835,6.72916667 8.88888889,6.95196793 8.88888889,7.22680721 L8.88888889,11.4485801 C9.22914575,11.2985218 9.60494183,11.2152778 10,11.2152778 C10.3950582,11.2152778 10.7708543,11.2985218 11.1111111,11.4485801 Z M9.51767921,0.865497854 C9.78405763,0.387496588 10.2181642,0.391483493 10.4823208,0.865497854 L19.5176792,17.0789466 C19.7840576,17.5569479 19.5446944,17.9444444 19.0081969,17.9444444 L0.99180311,17.9444444 C0.444045377,17.9444444 0.218164176,17.552961 0.482320786,17.0789466 L9.51767921,0.865497854 Z M10,15.7013889 C10.6136497,15.7013889 11.1111111,15.1992638 11.1111111,14.5798611 C11.1111111,13.9604584 10.6136497,13.4583333 10,13.4583333 C9.38635028,13.4583333 8.88888889,13.9604584 8.88888889,14.5798611 C8.88888889,15.1992638 9.38635028,15.7013889 10,15.7013889 Z" id="Shape"></path>
            </g>
        </g>
    </g>
</svg>