<?xml version="1.0" encoding="UTF-8" standalone="no"?>
<svg width="24px" height="24px" viewBox="0 0 24 24" version="1.1" xmlns="http://www.w3.org/2000/svg" xmlns:xlink="http://www.w3.org/1999/xlink">
    <!-- Generator: Sketch 41 (35326) - http://www.bohemiancoding.com/sketch -->
    <title>Public</title>
    <desc>Created with Sketch.</desc>
    <defs></defs>
    <g id="Symbols" stroke="none" stroke-width="1" fill="none" fill-rule="evenodd">
        <g id="Public" fill="currentColor">
            <path d="M12,21 C7.0374743,21 3,16.9628242 3,12 C3,7.03717583 7.0374743,3 12,3 C16.9625257,3 21,7.03717583 21,12 C21,16.9628242 16.9625257,21 12,21 Z M17.1001489,13.4204038 C17.2569744,14.0346169 15.5410522,13.839758 15.1219784,14.4147955 C14.7026242,14.9895552 13.6780243,14.6033567 13.4404494,14.4928688 C13.2028746,14.3823808 12.2929498,14.7506123 12.3724841,14.1246373 C12.4515511,13.498477 13.0051136,13.4617094 13.5987703,13.2039659 C14.1921467,12.9465002 15.0480517,12.0903805 14.6274825,11.9785034 C12.6473494,11.4521805 11.9718219,9.60889296 11.9718219,9.60889296 C11.8530344,9.58675832 11.8828481,8.30582025 11.3687257,8.26905267 C10.8541359,8.23209986 10.5770276,8.41630822 9.82561066,8.26905267 C9.07372644,8.12179711 9.23223429,7.64307765 9.11344686,6.61191834 C8.99493982,5.58075902 9.43027564,5.91222293 9.66542054,5.58094425 C9.6859817,5.55186359 9.7127112,5.5259318 9.73887995,5.5 C6.9857407,6.43410031 5,9.02255655 5,12.0632448 C5,12.0680607 5.00028038,12.0728766 5.00028038,12.0776925 C5.51197287,12.1103851 6.44376723,12.2174463 6.48759989,12.5653028 C6.54816185,13.0456894 6.48759989,13.6461956 6.91181399,13.826329 C7.33602809,14.0064624 7.45724547,13.1057029 7.82080415,13.3459425 C8.18436284,13.5861821 9.15400842,13.8174381 9.15400842,14.2421639 C9.15400842,14.666797 8.97222908,15.3275947 9.15400842,15.4477145 C9.33578777,15.5678343 10.0625313,16.4084875 10.0627182,16.5286073 C10.0629986,16.6487271 10.3188916,17.2595135 10.2425349,17.4929922 C10.1792626,17.6865546 9.86000387,18.2876165 9.55046496,18.5609191 C10.313284,18.8441314 11.1384407,19 11.9998598,19 C15.8597502,19 19,15.8881846 19,12.0632448 C19,10.9304884 18.7227047,9.86107967 18.234751,8.9156805 C18.2815744,9.62111795 18.249985,10.2639486 18.405876,10.4745519 C19.0880391,11.395038 16.744067,12.0282368 17.1001489,13.4204038 Z" id="Combined-Shape"></path>
        </g>
    </g>
</svg>
