<svg width="24" height="24" viewBox="0 0 24 24"><path d="M12.077 17.416a3.005 3.005 0 0 1-4.246.003 3.007 3.007 0 0 1 0-4.243l5.478-5.477a1.745 1.745 0 0 1 2.477-.002c.684.684.685 1.79.002 2.472l-5.136 5.136a.492.492 0 0 1-.7-.007.494.494 0 0 1 0-.707l4.773-4.773a.75.75 0 1 0-1.06-1.06L8.89 13.53a1.994 1.994 0 0 0 0 2.829 1.992 1.992 0 0 0 2.822.007l5.136-5.137a3.247 3.247 0 0 0-.003-4.593 3.245 3.245 0 0 0-4.598.002L6.77 12.115a4.507 4.507 0 0 0-.001 6.365 4.505 4.505 0 0 0 6.367-.003l5.123-5.123a.75.75 0 1 0-1.06-1.061l-5.123 5.123z" fill="currentColor"/></svg>