<svg width="24" height="24" viewBox="0 0 24 24"><path d="M6 8c0-.552.444-1 1-1 .552 0 1 .444 1 1 0 .552-.444 1-1 1-.552 0-1-.444-1-1zm4-.495c0-.279.23-.505.5-.505h7c.276 0 .5.214.5.505v.99c0 .279-.23.505-.5.505h-7a.495.495 0 0 1-.5-.505v-.99zM6 12c0-.552.444-1 1-1 .552 0 1 .444 1 1 0 .552-.444 1-1 1-.552 0-1-.444-1-1zm4-.495c0-.279.23-.505.5-.505h7c.276 0 .5.214.5.505v.99c0 .279-.23.505-.5.505h-7a.495.495 0 0 1-.5-.505v-.99zM6 16c0-.552.444-1 1-1 .552 0 1 .444 1 1 0 .552-.444 1-1 1-.552 0-1-.444-1-1zm4-.495c0-.279.23-.505.5-.505h7c.276 0 .5.214.5.505v.99c0 .279-.23.505-.5.505h-7a.495.495 0 0 1-.5-.505v-.99z" fill="currentColor" fill-rule="evenodd"/></svg>