<svg width="24" height="24" viewBox="0 0 24 24"><path d="M13.294 15.645l3.29-3.29a.496.496 0 0 0 0-.71l-3.29-3.29a.499.499 0 0 1 .004-.714l.343-.343a.496.496 0 0 1 .707-.01l4.365 4.364a.494.494 0 0 1 0 .696l-4.365 4.365a.501.501 0 0 1-.707-.011l-.343-.343a.501.501 0 0 1-.004-.714zm-2.588-7.29l-3.29 3.29a.496.496 0 0 0 0 .71l3.29 3.29a.499.499 0 0 1-.004.714l-.343.343a.496.496 0 0 1-.707.01l-4.365-4.364a.493.493 0 0 1 0-.696l4.365-4.365a.501.501 0 0 1 .707.011l.343.343c.202.202.2.518.004.714z" fill="currentColor"/></svg>