<svg width="24" height="24" viewBox="0 0 24 24"><path d="M12 18.75a6.75 6.75 0 1 1 0-13.5 6.75 6.75 0 0 1 0 13.5zm0-1.5a5.25 5.25 0 1 0 0-10.5 5.25 5.25 0 0 0 0 10.5zm-1.5-5.75a1 1 0 1 1 0-2 1 1 0 0 1 0 2zm3 0a1 1 0 1 1 0-2 1 1 0 0 1 0 2zm-4.093 2.198a.625.625 0 0 1 1.186-.396c.04.12.147.335.325.548.28.335.627.525 1.082.525.455 0 .803-.19 1.082-.525.178-.213.285-.428.325-.548a.625.625 0 0 1 1.186.396 3.046 3.046 0 0 1-.55.952c-.502.602-1.186.975-2.043.975-.857 0-1.54-.373-2.043-.975a3.046 3.046 0 0 1-.55-.952z" fill="currentColor"/></svg>