<svg width="24" height="24" viewBox="0 0 24 24"><g fill="currentColor" fill-rule="evenodd"><path d="M12.257 6.952A3.238 3.238 0 0 1 14.555 6a3.24 3.24 0 0 1 2.298.952 3.247 3.247 0 0 1 0 4.596l-1.06 1.061-.704.702a3.25 3.25 0 0 1-4.6.005.749.749 0 1 1 1.06-1.06 1.753 1.753 0 0 0 2.48-.005l.703-.703 1.061-1.061a1.746 1.746 0 0 0 0-2.474 1.749 1.749 0 0 0-2.475-.001l-1.06 1.061a.749.749 0 1 1-1.061-1.06l1.06-1.061z"/><path d="M8.716 10.493a3.25 3.25 0 0 1 4.601-.005.749.749 0 1 1-1.06 1.06 1.754 1.754 0 0 0-2.48.005l-.703.703-1.06 1.061a1.746 1.746 0 0 0 0 2.474 1.749 1.749 0 0 0 2.474.001l1.061-1.061a.749.749 0 1 1 1.061 1.06l-1.062 1.061a3.248 3.248 0 0 1-4.595 0 3.245 3.245 0 0 1 0-4.595l1.061-1.062.702-.702z"/></g></svg>