<svg width="24" height="24" viewBox="0 0 24 24"><path d="M9.5 10a2.5 2.5 0 1 1 0-5 2.5 2.5 0 0 1 0 5zm1.5 2c-.628.836-1 1.874-1 3 0 1.046.321 2.016.87 2.819A6.158 6.158 0 0 1 5 16.17v-2.457C5 12.768 5.783 12 6.749 12h4.25zm7.384.544c.579.754.758 1.684.503 2.62-.248.912-.692 1.511-1.32 1.78-.828.353-1.6-.038-1.684-.084a1.607 1.607 0 0 1-.418-.35c-.326.238-.683.378-1.03.378-.21 0-.417-.048-.606-.15a1.336 1.336 0 0 1-.642-.815c-.153-.519-.058-1.144.26-1.714.522-.937 1.576-1.369 2.35-.971.04.02.067.06.106.085a.618.618 0 0 1 .93.744l-.053.126c-.318.765-.558 1.411-.28 1.577v-.001c.003 0 .307.14.578.022.25-.112.456-.442.596-.955.153-.566.057-1.082-.288-1.532-.491-.64-1.421-1.052-2.367-1.052A2.757 2.757 0 0 0 12.258 15a2.758 2.758 0 0 0 2.76 2.749c.348 0 .63.28.63.626a.627.627 0 0 1-.63.625C12.803 19 11 17.206 11 15s1.802-4 4.019-4c1.344 0 2.633.592 3.365 1.544zm-2.835 2.732c.3-.536.258-1.066-.102-1.25-.38-.195-.927.093-1.19.564-.302.536-.256 1.124.102 1.313.356.19.89-.09 1.19-.627z" fill="currentColor" fill-rule="evenodd"/></svg>