<svg width="24" height="24" viewBox="0 0 24 24"><path d="M10 7.505c0-.279.23-.505.5-.505h7c.276 0 .5.214.5.505v.99c0 .279-.23.505-.5.505h-7a.495.495 0 0 1-.5-.505v-.99zm0 4c0-.279.23-.505.5-.505h7c.276 0 .5.214.5.505v.99c0 .279-.23.505-.5.505h-7a.495.495 0 0 1-.5-.505v-.99zm0 4c0-.279.23-.505.5-.505h7c.276 0 .5.214.5.505v.99c0 .279-.23.505-.5.505h-7a.495.495 0 0 1-.5-.505v-.99zM6 15h2.5v1H6v-1zm0 2h2.5v1H6v-1zm1-9H6V7h2v3H7V8zm-1 3h2.5v1H8v.5H7V12H6v-1zm0 2h3v1H6v-1zm1.5 3H9v1H7.5v-1z" fill="currentColor" fill-rule="evenodd"/></svg>