<?xml version="1.0" encoding="UTF-8" standalone="no"?>
<svg width="24px" height="24px" viewBox="0 0 24 24" version="1.1" xmlns="http://www.w3.org/2000/svg" xmlns:xlink="http://www.w3.org/1999/xlink">
    <!-- Generator: Sketch 41 (35326) - http://www.bohemiancoding.com/sketch -->
    <title>Atlassian</title>
    <desc>Created with Sketch.</desc>
    <defs></defs>
    <g id="Symbols" stroke="none" stroke-width="1" fill="none" fill-rule="evenodd">
        <g id="Atlassian" fill="currentColor">
            <path d="M19.9107975,5.1967763 C19.8400031,5.1016172 19.7267417,5.04491314 19.6084411,5.04491314 C19.5472849,5.04491314 19.4869114,5.06027559 19.4341703,5.08919025 C17.2159113,6.30350846 14.6444629,6.94564892 11.9977678,6.9463828 C9.35107272,6.94564892 6.77962427,6.30355738 4.56146316,5.08933703 C4.50862418,5.06032451 4.44834859,5.04501099 4.38719236,5.04501099 C4.26864711,5.04501099 4.15558146,5.10166613 4.084787,5.19643383 C3.97979398,5.33606574 3.97646708,5.57022074 4.15533684,5.70990158 C5.26627654,6.5381527 6.49091792,7.18469642 7.7952581,7.62692938 C9.14730014,8.08565007 10.5610366,8.31853301 11.9971807,8.31921796 L11.9982081,8.31921796 C13.4345479,8.31853301 14.8482844,8.08560115 16.2001307,7.62692938 C17.5046666,7.18459857 18.7292591,6.5381527 19.8416176,5.70887415 C20.0190685,5.57022074 20.0155948,5.33596789 19.9107975,5.1967763 Z M17.3615121,8.65567511 C17.3086731,8.61545877 17.2451685,8.59471457 17.1807343,8.59471457 C17.145019,8.59471457 17.1088634,8.60112375 17.0746649,8.61428457 C16.4316927,8.86023048 15.7787398,9.04692824 15.1829313,9.1856795 C15.0613038,9.21415385 14.9631602,9.3043226 14.9224547,9.41274037 C14.4882454,10.602009 13.3796052,11.7343778 12.2163646,12.9206131 C12.1697391,12.9649391 12.1043753,13.0234045 11.9978656,13.0234045 C11.8917963,13.0234045 11.8268728,12.9668472 11.7794156,12.9206131 C10.6162729,11.7343778 9.50768161,10.6060208 9.07337449,9.41655652 C9.0326689,9.30833445 8.93447645,9.21801892 8.81304462,9.1895935 C8.2167958,9.05074439 7.56227731,8.85817563 6.92018576,8.61237649 C6.88564472,8.5992646 6.849587,8.5928065 6.81372499,8.5928065 C6.74938863,8.5928065 6.68705819,8.61311037 6.63431706,8.65327778 C6.55192738,8.71609747 6.50921586,8.81805714 6.51890301,8.91605389 C6.61743794,9.90497468 7.00820182,10.8718303 7.71345552,11.8849689 C8.37638911,12.8374895 9.24108935,13.7191667 10.0770706,14.5718314 C11.6174249,16.1430085 13.0725519,17.6269523 13.200344,19.3476931 C13.2117925,19.5027853 13.3410033,19.6231897 13.4970251,19.6231897 L15.3067604,19.6231897 C15.3882695,19.6231897 15.4661581,19.5896271 15.5223729,19.5305747 C15.5785387,19.4715222 15.6081873,19.3923616 15.6040776,19.3108036 C15.5471778,18.1603815 15.1141428,17.0082958 14.2805099,15.7890851 C14.1057498,15.5334032 13.9186118,15.2847664 13.7229118,15.0412667 C13.6435065,14.9421936 13.6767755,14.8190005 13.7375404,14.7570125 C13.7976692,14.6953181 13.8580426,14.6340151 13.9187096,14.5718314 C14.7548376,13.7190689 15.61944,12.8374895 16.2825204,11.8849689 C16.9876273,10.8716835 17.3783423,9.91055213 17.4768772,8.92168027 C17.4867111,8.82236254 17.4416023,8.71688027 17.3615121,8.65567511 Z M10.0558372,15.9102723 C10.0130278,15.865506 9.9501592,15.8197611 9.84457907,15.8197611 C9.70954611,15.8197611 9.62935805,15.9132078 9.59902456,15.9594909 C8.83784959,17.11779 8.44473731,18.2110677 8.39033273,19.3097273 C8.38641873,19.3907471 8.41621405,19.4711797 8.47233101,19.5304279 C8.52854582,19.5892357 8.60751075,19.6231897 8.68882408,19.6231897 L10.495526,19.6231897 C10.6509607,19.6231897 10.781884,19.5014643 10.7932346,19.3464699 C10.8326192,18.8170037 10.9974475,18.2862165 11.2976023,17.7284227 C11.4016657,17.5354626 11.3208417,17.3541955 11.2609086,17.2767473 C10.9630532,16.889506 10.5984153,16.4764323 10.0558372,15.9102723 Z M11.999578,9.54224482 C12.5667165,9.54224482 12.8956881,9.50819302 13.0112,9.50819302 C13.1512233,9.50819302 13.2849842,9.6228732 13.2849842,9.78344501 C13.2849842,9.83026622 13.2739272,9.86382876 13.2630169,9.89337946 C13.1876235,10.094559 12.844855,10.8180128 12.2067264,11.4386263 C12.1350513,11.5081976 12.0539337,11.5212606 11.9981103,11.5212606 L11.9973764,11.5212606 C11.941553,11.5212606 11.8605332,11.5081976 11.7889559,11.4386263 C11.1507295,10.8180128 10.8078632,10.094559 10.7327633,9.89337946 C10.7216084,9.86382876 10.7106003,9.83026622 10.7106003,9.78344501 C10.7106003,9.6228732 10.8445569,9.50819302 10.9845802,9.50819302 C11.1000921,9.50819302 11.428917,9.54224482 11.9958597,9.54224482 L11.999578,9.54224482 Z" id="Shape"></path>
        </g>
    </g>
</svg>
