<?xml version="1.0" encoding="UTF-8" standalone="no"?>
<svg width="24px" height="24px" viewBox="0 0 24 24" version="1.1" xmlns="http://www.w3.org/2000/svg" xmlns:xlink="http://www.w3.org/1999/xlink">
  <!-- Generator: Sketch 41 (35326) - http://www.bohemiancoding.com/sketch -->
  <title>Activity</title>
  <desc>Created with Sketch.</desc>
  <defs></defs>
  <g id="icons" stroke="none" stroke-width="1" fill="none" fill-rule="evenodd">
    <g id="activity">
      <g id="activity_icon_24x24">
        <g id="icon_container_transparent">
          <rect x="0" y="0" width="24" height="24"></rect>
        </g>
        <path d="M19.0043286,17 C19.000078,16.9999966 19,7.00585866 19,7.00585866 C19,7.00048676 4.9956714,7 4.9956714,7 C4.99992202,7.00000343 5,16.9941413 5,16.9941413 C5,16.9995132 19.0043286,17 19.0043286,17 Z M3,7.00585866 C3,5.89805351 3.8926228,5 4.99508929,5 L19.0049107,5 C20.1067681,5 21,5.89706013 21,7.00585866 L21,16.9941413 C21,18.1019465 20.1073772,19 19.0049107,19 L4.99508929,19 C3.8932319,19 3,18.1029399 3,16.9941413 L3,7.00585866 Z" id="Rectangle-3" fill="currentColor"></path>
        <path d="M4,6 L20,6 L20,11 L4,11 L4,6 Z M9,8 C9,7.44771525 9.4556644,7 9.99539757,7 L18.0046024,7 C18.5543453,7 19,7.44386482 19,8 C19,8.55228475 18.5443356,9 18.0046024,9 L9.99539757,9 C9.44565467,9 9,8.55613518 9,8 Z M5,8 C5,7.44771525 5.44386482,7 6,7 C6.55228475,7 7,7.44386482 7,8 C7,8.55228475 6.55613518,9 6,9 C5.44771525,9 5,8.55613518 5,8 Z" id="Combined-Shape" fill="currentColor"></path>
      </g>
    </g>
  </g>
</svg>
