<?xml version="1.0" encoding="UTF-8" standalone="no"?>
<svg width="20px" height="20px" viewBox="0 0 20 20" version="1.1" xmlns="http://www.w3.org/2000/svg" xmlns:xlink="http://www.w3.org/1999/xlink">
    <!-- Generator: Sketch 3.8.3 (29802) - http://www.bohemiancoding.com/sketch -->
    <title>emoji</title>
    <desc>Created with Sketch.</desc>
    <defs></defs>
    <g id="Icons" stroke="none" stroke-width="1" fill="none" fill-rule="evenodd">
        <g id="emoji" fill="#505F79">
            <g transform="translate(3.000000, 3.000000)">
                <path d="M7,13.75 C10.7279221,13.75 13.75,10.7279221 13.75,7 C13.75,3.27207794 10.7279221,0.25 7,0.25 C3.27207794,0.25 0.25,3.27207794 0.25,7 C0.25,10.7279221 3.27207794,13.75 7,13.75 L7,13.75 Z M7,12.25 C4.10050506,12.25 1.75,9.89949494 1.75,7 C1.75,4.10050506 4.10050506,1.75 7,1.75 C9.89949494,1.75 12.25,4.10050506 12.25,7 C12.25,9.89949494 9.89949494,12.25 7,12.25 L7,12.25 Z" id="Oval-7"></path>
                <circle id="Oval-8" cx="5.5" cy="5.5" r="1"></circle>
                <circle id="Oval-8" cx="8.5" cy="5.5" r="1"></circle>
                <path d="M4.40707294,8.69764235 C4.49215172,8.95287871 4.66588244,9.30034013 4.9573617,9.65011525 C5.459101,10.2522024 6.14256325,10.625 7,10.625 C7.85743675,10.625 8.540899,10.2522024 9.0426383,9.65011525 C9.33411756,9.30034013 9.50784828,8.95287871 9.59292706,8.69764235 C9.70208192,8.37017778 9.52510693,8.0162278 9.19764235,7.90707294 C8.87017778,7.79791808 8.5162278,7.97489307 8.40707294,8.30235765 C8.36715172,8.42212129 8.25963244,8.63715987 8.0823617,8.84988475 C7.802851,9.18529759 7.45506325,9.375 7,9.375 C6.54493675,9.375 6.197149,9.18529759 5.9176383,8.84988475 C5.74036756,8.63715987 5.63284828,8.42212129 5.59292706,8.30235765 C5.4837722,7.97489307 5.12982222,7.79791808 4.80235765,7.90707294 C4.47489307,8.0162278 4.29791808,8.37017778 4.40707294,8.69764235 L4.40707294,8.69764235 Z" id="Path-24"></path>
            </g>
        </g>
    </g>
</svg>