<?xml version="1.0" encoding="UTF-8" standalone="no"?>
<svg width="24px" height="24px" viewBox="0 0 24 24" version="1.1" xmlns="http://www.w3.org/2000/svg" xmlns:xlink="http://www.w3.org/1999/xlink">
    <!-- Generator: Sketch 45.1 (43504) - http://www.bohemiancoding.com/sketch -->
    <title>editor/align-left</title>
    <desc>Created with Sketch.</desc>
    <defs></defs>
    <g id="Original" stroke="none" stroke-width="1" fill="none" fill-rule="evenodd">
        <g id="editor/align-left" fill="#42526E">
            <path d="M6,7.50468445 C6,7.22595492 6.22900057,7 6.50034732,7 L17.4996527,7 C17.7759869,7 18,7.21403503 18,7.50468445 L18,8.49531555 C18,8.77404508 17.7709994,9 17.4996527,9 L6.50034732,9 C6.22401312,9 6,8.78596497 6,8.49531555 L6,7.50468445 Z M6,11.5046844 C6,11.2259549 6.22900057,11 6.50034732,11 L17.4996527,11 C17.7759869,11 18,11.214035 18,11.5046844 L18,12.4953156 C18,12.7740451 17.7709994,13 17.4996527,13 L6.50034732,13 C6.22401312,13 6,12.785965 6,12.4953156 L6,11.5046844 Z M6,15.5046844 C6,15.2259549 6.22788048,15 6.49100518,15 L11.5089948,15 C11.7801695,15 12,15.214035 12,15.5046844 L12,16.4953156 C12,16.7740451 11.7721195,17 11.5089948,17 L6.49100518,17 C6.21983051,17 6,16.785965 6,16.4953156 L6,15.5046844 Z" id="Shape"></path>
        </g>
    </g>
</svg>