<?xml version="1.0" encoding="UTF-8" standalone="no"?>
<svg width="24px" height="24px" viewBox="0 0 24 24" version="1.1" xmlns="http://www.w3.org/2000/svg" xmlns:xlink="http://www.w3.org/1999/xlink">
    <!-- Generator: Sketch 45.1 (43504) - http://www.bohemiancoding.com/sketch -->
    <title>editor/align-center</title>
    <desc>Created with Sketch.</desc>
    <defs></defs>
    <g id="Original" stroke="none" stroke-width="1" fill="none" fill-rule="evenodd">
        <g id="editor/align-center" fill="#42526E">
            <path d="M9,7.50468445 C9,7.22595492 9.22788048,7 9.49100518,7 L14.5089948,7 C14.7801695,7 15,7.21403503 15,7.50468445 L15,8.49531555 C15,8.77404508 14.7721195,9 14.5089948,9 L9.49100518,9 C9.21983051,9 9,8.78596497 9,8.49531555 L9,7.50468445 Z M6,11.5046844 C6,11.2259549 6.22900057,11 6.50034732,11 L17.4996527,11 C17.7759869,11 18,11.214035 18,11.5046844 L18,12.4953156 C18,12.7740451 17.7709994,13 17.4996527,13 L6.50034732,13 C6.22401312,13 6,12.785965 6,12.4953156 L6,11.5046844 Z M9,15.5046844 C9,15.2259549 9.22788048,15 9.49100518,15 L14.5089948,15 C14.7801695,15 15,15.214035 15,15.5046844 L15,16.4953156 C15,16.7740451 14.7721195,17 14.5089948,17 L9.49100518,17 C9.21983051,17 9,16.785965 9,16.4953156 L9,15.5046844 Z" id="Shape"></path>
        </g>
    </g>
</svg>