<?xml version="1.0" encoding="UTF-8" standalone="no"?>
<svg width="24px" height="24px" viewBox="0 0 24 24" version="1.1" xmlns="http://www.w3.org/2000/svg" xmlns:xlink="http://www.w3.org/1999/xlink">
    <!-- Generator: Sketch 45.1 (43504) - http://www.bohemiancoding.com/sketch -->
    <title>editor/attachment</title>
    <desc>Created with Sketch.</desc>
    <defs></defs>
    <g id="Original" stroke="none" stroke-width="1" fill="none" fill-rule="evenodd">
        <g id="editor/attachment" fill-rule="nonzero" fill="#42526E">
            <path d="M12.0766245,17.4160162 C10.9041429,18.5884978 9.00014469,18.5889795 7.83058262,17.4194174 C6.66145889,16.2502937 6.66348257,14.3438767 7.83181516,13.1755441 L13.3085958,7.69876349 C13.9959671,7.01139226 15.0981163,7.00928148 15.7855339,7.69669914 C16.4697639,8.38092918 16.4709782,9.48612854 15.7883126,10.1687941 L10.652262,15.3048448 C10.4601522,15.4969545 10.149985,15.4961791 9.95190296,15.298097 C9.75360062,15.0997947 9.7527623,14.7901309 9.95190296,14.5909903 L14.7248737,9.81801948 C15.017767,9.52512626 15.017767,9.05025253 14.7248737,8.75735931 C14.4319805,8.46446609 13.9571068,8.46446609 13.6642136,8.75735931 L8.89124279,13.5303301 C8.10502627,14.3165466 8.10843572,15.5759501 8.89124279,16.3587572 C9.67392731,17.1414417 10.9338355,17.1445917 11.7129222,16.3655049 L16.8489728,11.2294543 C18.1179472,9.96047989 18.1156894,7.90553433 16.8461941,6.63603896 C15.5720786,5.3619235 13.5201858,5.36585317 12.2479356,6.63810332 L6.77115499,12.114884 C5.01753946,13.8684995 5.0145076,16.7246627 6.76992245,18.4800776 C8.52539111,20.2355462 11.3791367,20.2348244 13.1372847,18.4766763 L18.2604076,13.3535534 C18.5533009,13.0606602 18.5533009,12.5857864 18.2604076,12.2928932 C17.9675144,12 17.4926407,12 17.1997475,12.2928932 L12.0766245,17.4160162 Z" id="Shape"></path>
        </g>
    </g>
</svg>