<?xml version="1.0" encoding="UTF-8" standalone="no"?>
<svg width="24px" height="24px" viewBox="0 0 24 24" version="1.1" xmlns="http://www.w3.org/2000/svg" xmlns:xlink="http://www.w3.org/1999/xlink">
    <!-- Generator: Sketch 45.1 (43504) - http://www.bohemiancoding.com/sketch -->
    <title>editor/bold</title>
    <desc>Created with Sketch.</desc>
    <defs></defs>
    <g id="Original" stroke="none" stroke-width="1" fill="none" fill-rule="evenodd">
        <g id="editor/bold" fill="#42526E">
            <path d="M7,6.50034732 C7,6.22401312 7.22149727,6 7.49722731,6 L12.8319328,6 C13.9075684,6 16,6.5 16,9 C16,11 15,11.5 15,11.5 C15,11.5 17,12 17,14.5 C17,15 17,18 13,18 L7.49100518,18 C7.21983051,18 7,17.7709994 7,17.4996527 L7,6.50034732 Z M9,16 L12.5,16 C13.5,16 14.5,15.75 14.5,14.5 C14.5,13.25 13.3961182,13 12.5,13 L9,13 L9,16 Z M9,11.0252101 L12,11.0252101 C12.5042042,11.0252101 14,11.0252101 14,9.5 C14,7.97478986 12,8 12,8 L9,8 L9,11.0252101 Z" id="Combined-Shape"></path>
        </g>
    </g>
</svg>