<?xml version="1.0" encoding="UTF-8" standalone="no"?>
<svg width="24px" height="24px" viewBox="0 0 24 24" version="1.1" xmlns="http://www.w3.org/2000/svg" xmlns:xlink="http://www.w3.org/1999/xlink">
    <!-- Generator: Sketch 45.1 (43504) - http://www.bohemiancoding.com/sketch -->
    <title>editor/bullet-list</title>
    <desc>Created with Sketch.</desc>
    <defs></defs>
    <g id="Original" stroke="none" stroke-width="1" fill="none" fill-rule="evenodd">
        <g id="editor/bullet-list" fill="#42526E">
            <path d="M6,8 C6,7.44771525 6.44386482,7 7,7 C7.55228475,7 8,7.44386482 8,8 C8,8.55228475 7.55613518,9 7,9 C6.44771525,9 6,8.55613518 6,8 Z M10,7.50468445 C10,7.22595492 10.2307968,7 10.5004358,7 L17.4995642,7 C17.7759472,7 18,7.21403503 18,7.50468445 L18,8.49531555 C18,8.77404508 17.7692032,9 17.4995642,9 L10.5004358,9 C10.2240528,9 10,8.78596497 10,8.49531555 L10,7.50468445 Z M6,12 C6,11.4477153 6.44386482,11 7,11 C7.55228475,11 8,11.4438648 8,12 C8,12.5522847 7.55613518,13 7,13 C6.44771525,13 6,12.5561352 6,12 Z M10,11.5046844 C10,11.2259549 10.2307968,11 10.5004358,11 L17.4995642,11 C17.7759472,11 18,11.214035 18,11.5046844 L18,12.4953156 C18,12.7740451 17.7692032,13 17.4995642,13 L10.5004358,13 C10.2240528,13 10,12.785965 10,12.4953156 L10,11.5046844 Z M6,16 C6,15.4477153 6.44386482,15 7,15 C7.55228475,15 8,15.4438648 8,16 C8,16.5522847 7.55613518,17 7,17 C6.44771525,17 6,16.5561352 6,16 Z M10,15.5046844 C10,15.2259549 10.2307968,15 10.5004358,15 L17.4995642,15 C17.7759472,15 18,15.214035 18,15.5046844 L18,16.4953156 C18,16.7740451 17.7692032,17 17.4995642,17 L10.5004358,17 C10.2240528,17 10,16.785965 10,16.4953156 L10,15.5046844 Z" id="Shape"></path>
        </g>
    </g>
</svg>