<?xml version="1.0" encoding="UTF-8" standalone="no"?>
<svg width="24px" height="24px" viewBox="0 0 24 24" version="1.1" xmlns="http://www.w3.org/2000/svg" xmlns:xlink="http://www.w3.org/1999/xlink">
    <!-- Generator: Sketch 45.1 (43504) - http://www.bohemiancoding.com/sketch -->
    <title>editor/code</title>
    <desc>Created with Sketch.</desc>
    <defs></defs>
    <g id="Original" stroke="none" stroke-width="1" fill="none" fill-rule="evenodd">
        <g id="editor/code" fill-rule="nonzero" fill="#42526E">
            <path d="M13.2943131,15.6450267 L16.5843665,12.3549733 C16.7874195,12.1519203 16.7804129,11.841073 16.5843665,11.6450267 L13.2943131,8.35497332 C13.0912601,8.15192032 13.1001104,7.83922942 13.298431,7.64090885 L13.6409089,7.29843098 C13.8434959,7.09584389 14.1557331,7.09507295 14.3478397,7.2871795 L18.7128205,11.6521603 C18.9036553,11.8429952 18.904927,12.1557331 18.7128205,12.3478397 L14.3478397,16.7128205 C14.1570048,16.9036553 13.8392294,16.8998896 13.6409089,16.701569 L13.298431,16.3590911 C13.0958439,16.1565041 13.0982668,15.841073 13.2943131,15.6450267 Z M10.7056869,8.35497332 L7.41563349,11.6450267 C7.21258049,11.8480797 7.21958714,12.158927 7.41563349,12.3549733 L10.7056869,15.6450267 C10.9087399,15.8480797 10.8998896,16.1607706 10.701569,16.3590911 L10.3590911,16.701569 C10.1565041,16.9041561 9.84426688,16.904927 9.65216033,16.7128205 L5.2871795,12.3478397 C5.09634466,12.1570048 5.09507295,11.8442669 5.2871795,11.6521603 L9.65216033,7.2871795 C9.84299517,7.09634466 10.1607706,7.10011041 10.3590911,7.29843098 L10.701569,7.64090885 C10.9041561,7.84349594 10.9017332,8.15892697 10.7056869,8.35497332 Z" id="Shape"></path>
        </g>
    </g>
</svg>