<?xml version="1.0" encoding="UTF-8" standalone="no"?>
<svg width="24px" height="24px" viewBox="0 0 24 24" version="1.1" xmlns="http://www.w3.org/2000/svg" xmlns:xlink="http://www.w3.org/1999/xlink">
    <!-- Generator: Sketch 45.1 (43504) - http://www.bohemiancoding.com/sketch -->
    <title>editor/decision</title>
    <desc>Created with Sketch.</desc>
    <defs></defs>
    <g id="Original" stroke="none" stroke-width="1" fill="none" fill-rule="evenodd">
        <g id="editor/decision" fill-rule="nonzero" fill="#42526E">
            <path d="M8.28145503,9.71854497 L6.35735893,11.6426411 C6.16048551,11.8395145 6,11.7801695 6,11.5089948 L6,6.49100518 C6,6.22788048 6.21983051,6 6.49100518,6 L11.5089948,6 C11.7721195,6 11.840005,6.15999504 11.6426411,6.35735893 L9.7171993,8.2828007 L13,11.5 L13,12 L13,17.5089948 C13,17.7721195 12.7740451,18 12.4953156,18 L11.5046844,18 C11.214035,18 11,17.7727539 11,17.4924316 L11,12.5 L8.28145503,9.71854497 Z M15.6440798,6.3559202 C15.8406491,6.1593509 16.1605263,6.16052628 16.3479004,6.34790039 L17.1520996,7.15209961 C17.3442397,7.34423969 17.338707,7.66129303 17.1440798,7.8559202 L14.5,10.5 L13,9 L15.6440798,6.3559202 Z" id="Shape"></path>
        </g>
    </g>
</svg>