<?xml version="1.0" encoding="UTF-8" standalone="no"?>
<svg width="24px" height="24px" viewBox="0 0 24 24" version="1.1" xmlns="http://www.w3.org/2000/svg" xmlns:xlink="http://www.w3.org/1999/xlink">
    <!-- Generator: Sketch 45.1 (43504) - http://www.bohemiancoding.com/sketch -->
    <title>editor/emoji</title>
    <desc>Created with Sketch.</desc>
    <defs></defs>
    <g id="Original" stroke="none" stroke-width="1" fill="none" fill-rule="evenodd">
        <g id="editor/emoji" fill-rule="nonzero" fill="#42526E">
            <path d="M12,18.75 C8.27207794,18.75 5.25,15.7279221 5.25,12 C5.25,8.27207794 8.27207794,5.25 12,5.25 C15.7279221,5.25 18.75,8.27207794 18.75,12 C18.75,15.7279221 15.7279221,18.75 12,18.75 Z M12,17.25 C14.8994949,17.25 17.25,14.8994949 17.25,12 C17.25,9.10050506 14.8994949,6.75 12,6.75 C9.10050506,6.75 6.75,9.10050506 6.75,12 C6.75,14.8994949 9.10050506,17.25 12,17.25 Z M10.5,11.5 C9.94771525,11.5 9.5,11.0522847 9.5,10.5 C9.5,9.94771525 9.94771525,9.5 10.5,9.5 C11.0522847,9.5 11.5,9.94771525 11.5,10.5 C11.5,11.0522847 11.0522847,11.5 10.5,11.5 Z M13.5,11.5 C12.9477153,11.5 12.5,11.0522847 12.5,10.5 C12.5,9.94771525 12.9477153,9.5 13.5,9.5 C14.0522847,9.5 14.5,9.94771525 14.5,10.5 C14.5,11.0522847 14.0522847,11.5 13.5,11.5 Z M9.40707294,13.6976424 C9.29791808,13.3701778 9.47489307,13.0162278 9.80235765,12.9070729 C10.1298222,12.7979181 10.4837722,12.9748931 10.5929271,13.3023576 C10.6328483,13.4221213 10.7403676,13.6371599 10.9176383,13.8498848 C11.197149,14.1852976 11.5449367,14.375 12,14.375 C12.4550633,14.375 12.802851,14.1852976 13.0823617,13.8498848 C13.2596324,13.6371599 13.3671517,13.4221213 13.4070729,13.3023576 C13.5162278,12.9748931 13.8701778,12.7979181 14.1976424,12.9070729 C14.5251069,13.0162278 14.7020819,13.3701778 14.5929271,13.6976424 C14.5078483,13.9528787 14.3341176,14.3003401 14.0426383,14.6501152 C13.540899,15.2522024 12.8574367,15.625 12,15.625 C11.1425633,15.625 10.459101,15.2522024 9.9573617,14.6501152 C9.66588244,14.3003401 9.49215172,13.9528787 9.40707294,13.6976424 Z" id="Shape"></path>
        </g>
    </g>
</svg>