<?xml version="1.0" encoding="UTF-8" standalone="no"?>
<svg width="24px" height="24px" viewBox="0 0 24 24" version="1.1" xmlns="http://www.w3.org/2000/svg" xmlns:xlink="http://www.w3.org/1999/xlink">
    <!-- Generator: Sketch 45.1 (43504) - http://www.bohemiancoding.com/sketch -->
    <title>editor/link</title>
    <desc>Created with Sketch.</desc>
    <defs></defs>
    <g id="Original" stroke="none" stroke-width="1" fill="none" fill-rule="evenodd">
        <g id="editor/link" fill="#42526E">
            <path d="M12.2572501,6.952 C12.8922501,6.317 13.7232501,6 14.5552501,6 C15.3862501,6 16.2182501,6.317 16.8532501,6.952 C18.1232501,8.223 18.1252501,10.277 16.8532501,11.548 L15.7922501,12.609 L15.0892501,13.311 C13.8182501,14.583 11.7592501,14.587 10.4892501,13.316 C10.1962501,13.023 10.1962501,12.548 10.4892501,12.256 C10.7822501,11.962 11.2572501,11.962 11.5492501,12.256 C12.2332501,12.939 13.3422501,12.938 14.0292501,12.251 L14.7322501,11.548 L15.7932501,10.487 C16.4782501,9.802 16.4772501,8.698 15.7922501,8.013 C15.1082501,7.329 14.0012501,7.329 13.3182501,8.012 L12.2572501,9.073 C11.9632501,9.367 11.4892501,9.367 11.1962501,9.073 C10.9032501,8.781 10.9032501,8.306 11.1962501,8.013 L12.2572501,6.952 Z" id="Path"></path>
            <path d="M8.71625015,10.493 C9.35325015,9.856 10.1872501,9.537 11.0212501,9.537 C11.8522501,9.537 12.6832501,9.854 13.3172501,10.488 C13.6102501,10.781 13.6102501,11.256 13.3172501,11.548 C13.0242501,11.842 12.5492501,11.842 12.2572501,11.548 C11.5732501,10.865 10.4642501,10.867 9.77725015,11.553 L9.07425015,12.256 L8.01325015,13.317 C7.32825015,14.002 7.32925015,15.106 8.01425015,15.791 C8.69825015,16.475 9.80525015,16.475 10.4882501,15.792 L11.5492501,14.731 C11.8432501,14.437 12.3172501,14.437 12.6102501,14.731 C12.9032501,15.023 12.9032501,15.498 12.6102501,15.791 L11.5482501,16.852 C10.2792501,18.122 8.22325015,18.121 6.95325015,16.852 C5.68325015,15.582 5.68125015,13.527 6.95325015,12.257 L8.01425015,11.195 L8.71625015,10.493 Z" id="Path"></path>
        </g>
    </g>
</svg>