<?xml version="1.0" encoding="UTF-8"?>
<svg width="24px" height="24px" viewBox="0 0 24 24" version="1.1" xmlns="http://www.w3.org/2000/svg" xmlns:xlink="http://www.w3.org/1999/xlink">
    <!-- Generator: Sketch 47.1 (45422) - http://www.bohemiancoding.com/sketch -->
    <title>editor/link</title>
    <desc>Created with Sketch.</desc>
    <defs></defs>
    <g id="Icons" stroke="none" stroke-width="1" fill="none" fill-rule="evenodd">
        <g id="editor/link" fill-rule="nonzero" fill="#42526E">
            <path d="M10.2480486,9.42606244 C10.2480486,9.89991126 9.8639182,10.2840416 9.39006938,10.2840416 C8.91622056,10.2840416 8.5320902,9.89991126 8.5320902,9.42606244 L8.5320902,7.70915145 C8.5320902,5.65595858 10.1959919,3.99219427 12.25,3.99219427 C14.3048889,3.99219427 15.9679098,5.65250521 15.9679098,7.70915145 L15.9679098,9.42606244 L15.9679098,10.5627104 C15.9679098,12.6199211 14.3045642,14.2879445 12.25,14.2879445 C11.7761512,14.2879445 11.3920208,13.9038141 11.3920208,13.4299653 C11.3920208,12.9561165 11.7761512,12.5719861 12.25,12.5719861 C13.3557861,12.5719861 14.2519514,11.6733006 14.2519514,10.5627104 L14.2519514,9.42606244 L14.2519514,7.70915145 C14.2519514,6.60082989 13.3578171,5.70815264 12.25,5.70815264 C11.1436578,5.70815264 10.2480486,6.60368794 10.2480486,7.70915145 L10.2480486,9.42606244 Z M14.2519514,14.5739376 C14.2519514,14.1000887 14.6360818,13.7159584 15.1099306,13.7159584 C15.5837794,13.7159584 15.9679098,14.1000887 15.9679098,14.5739376 L15.9679098,16.2908486 C15.9679098,18.3440414 14.3040081,20.0078057 12.25,20.0078057 C10.1951111,20.0078057 8.5320902,18.3474948 8.5320902,16.2908486 L8.5320902,14.5739376 L8.5320902,13.4372896 C8.5320902,11.3800789 10.1954358,9.71205551 12.25,9.71205551 C12.7238488,9.71205551 13.1079792,10.0961859 13.1079792,10.5700347 C13.1079792,11.0438835 12.7238488,11.4280139 12.25,11.4280139 C11.1442139,11.4280139 10.2480486,12.3266994 10.2480486,13.4372896 L10.2480486,14.5739376 L10.2480486,16.2908486 C10.2480486,17.3991701 11.1421829,18.2918474 12.25,18.2918474 C13.3563422,18.2918474 14.2519514,17.3963121 14.2519514,16.2908486 L14.2519514,14.5739376 Z" id="link" transform="translate(12.250000, 12.000000) rotate(45.000000) translate(-12.250000, -12.000000) "></path>
        </g>
    </g>
</svg>