<?xml version="1.0" encoding="UTF-8" standalone="no"?>
<svg width="24px" height="24px" viewBox="0 0 24 24" version="1.1" xmlns="http://www.w3.org/2000/svg" xmlns:xlink="http://www.w3.org/1999/xlink">
    <!-- Generator: Sketch 45.1 (43504) - http://www.bohemiancoding.com/sketch -->
    <title>editor/mention</title>
    <desc>Created with Sketch.</desc>
    <defs></defs>
    <g id="Original" stroke="none" stroke-width="1" fill="none" fill-rule="evenodd">
        <g id="editor/mention" fill="#42526E">
            <path d="M9.5,10 C8.11893939,10 7,8.88106061 7,7.5 C7,6.11893939 8.11893939,5 9.5,5 C10.8810606,5 12,6.11893939 12,7.5 C12,8.88106061 10.8810606,10 9.5,10 Z M10.9996338,12 L10.9996338,12 C10.3719448,12.8356605 10,13.8743941 10,15 C10,16.0456253 10.3209652,17.0162852 10.8697467,17.8188307 C10.3959837,17.9359916 9.90115571,18 9.39080068,18 C7.66882453,18 6.11300398,17.2971429 5,16.1711688 L5,13.7142857 C5,12.7675325 5.7830778,12 6.74900625,12 L10.9996338,12 Z M18.3842293,12.544048 C18.9626473,13.2976714 19.1418529,14.2281003 18.8866449,15.1641293 C18.6386372,16.0761577 18.1946235,16.6753763 17.5666039,16.9433846 C16.7385782,17.2969956 15.9673543,16.9057834 15.8833517,16.860182 C15.7065462,16.7569788 15.5737421,16.6369751 15.4649387,16.5097711 C15.1393286,16.7481785 14.7817175,16.8881829 14.4345067,16.8881829 C14.2241001,16.8881829 14.0184937,16.8401814 13.8288879,16.7385782 C13.5224783,16.5745731 13.2936712,16.2849641 13.1872679,15.9233529 C13.0344632,15.4041368 13.1288661,14.7793174 13.446476,14.2088997 C13.9688922,13.2720706 15.023325,12.8400571 15.796149,13.2376695 C15.8377503,13.2584701 15.8641511,13.2976714 15.9025523,13.3232722 C16.0721575,13.2072686 16.2897643,13.1672673 16.4905705,13.2504699 C16.8121805,13.381674 16.9657853,13.7472853 16.8329812,14.0672953 L16.7801795,14.1928992 C16.4617696,14.9577229 16.2217622,15.604143 16.5001708,15.7697481 C16.5001708,15.7697481 16.4993708,15.7689481 16.5001708,15.7689481 C16.5033709,15.7689481 16.8073804,15.9081524 17.0777888,15.7905488 C17.3273965,15.6785453 17.5338029,15.3489351 17.6738073,14.8361191 C17.827412,14.2697016 17.730609,13.7536855 17.3857983,13.3040716 C16.8945831,12.6648517 15.9649542,12.2520389 15.0185248,12.2520389 C13.4960775,12.2520389 12.2576391,13.4840772 12.2576391,15.0001242 C12.2576391,16.5153713 13.4960775,17.7490096 15.0185248,17.7490096 C15.3657356,17.7490096 15.6473443,18.0290183 15.6473443,18.374629 C15.6473443,18.7202398 15.3657356,19.0002485 15.0185248,19.0002485 C12.802456,19.0002485 11,17.2057927 11,15.0001242 C11,12.7944557 12.802456,11 15.0185248,11 C16.3625666,11 17.6522066,11.5920184 18.3842293,12.544048 Z M15.5489413,15.2761328 C15.8497506,14.7401162 15.8065493,14.2104997 15.4465381,14.025694 C15.0673263,13.8312879 14.5201093,14.1192969 14.2561011,14.5897115 C13.9552918,15.1257281 14.0008932,15.7137464 14.3585043,15.9033523 C14.7153154,16.0929582 15.2481319,15.8121495 15.5489413,15.2761328 Z" id="Shape"></path>
        </g>
    </g>
</svg>