<?xml version="1.0" encoding="UTF-8" standalone="no"?>
<svg width="24px" height="24px" viewBox="0 0 24 24" version="1.1" xmlns="http://www.w3.org/2000/svg" xmlns:xlink="http://www.w3.org/1999/xlink">
    <!-- Generator: Sketch 45.1 (43504) - http://www.bohemiancoding.com/sketch -->
    <title>editor/more</title>
    <desc>Created with Sketch.</desc>
    <defs></defs>
    <g id="Original" stroke="none" stroke-width="1" fill="none" fill-rule="evenodd">
        <g id="editor/more" fill="#42526E">
            <path d="M6.5,13.5 C5.67157288,13.5 5,12.8284271 5,12 C5,11.1715729 5.67157288,10.5 6.5,10.5 C7.32842712,10.5 8,11.1715729 8,12 C8,12.8284271 7.32842712,13.5 6.5,13.5 Z M12,13.5 C11.1715729,13.5 10.5,12.8284271 10.5,12 C10.5,11.1715729 11.1715729,10.5 12,10.5 C12.8284271,10.5 13.5,11.1715729 13.5,12 C13.5,12.8284271 12.8284271,13.5 12,13.5 Z M17.5,13.5 C16.6715729,13.5 16,12.8284271 16,12 C16,11.1715729 16.6715729,10.5 17.5,10.5 C18.3284271,10.5 19,11.1715729 19,12 C19,12.8284271 18.3284271,13.5 17.5,13.5 Z" id="Shape"></path>
        </g>
    </g>
</svg>