<?xml version="1.0" encoding="UTF-8" standalone="no"?>
<svg width="24px" height="24px" viewBox="0 0 24 24" version="1.1" xmlns="http://www.w3.org/2000/svg" xmlns:xlink="http://www.w3.org/1999/xlink">
    <!-- Generator: Sketch 45.1 (43504) - http://www.bohemiancoding.com/sketch -->
    <title>editor/number-list</title>
    <desc>Created with Sketch.</desc>
    <defs></defs>
    <g id="Original" stroke="none" stroke-width="1" fill="none" fill-rule="evenodd">
        <g id="editor/number-list" fill="#42526E">
            <path d="M10,7.50468445 C10,7.22595492 10.2307968,7 10.5004358,7 L17.4995642,7 C17.7759472,7 18,7.21403503 18,7.50468445 L18,8.49531555 C18,8.77404508 17.7692032,9 17.4995642,9 L10.5004358,9 C10.2240528,9 10,8.78596497 10,8.49531555 L10,7.50468445 Z M10,11.5046844 C10,11.2259549 10.2307968,11 10.5004358,11 L17.4995642,11 C17.7759472,11 18,11.214035 18,11.5046844 L18,12.4953156 C18,12.7740451 17.7692032,13 17.4995642,13 L10.5004358,13 C10.2240528,13 10,12.785965 10,12.4953156 L10,11.5046844 Z M10,15.5046844 C10,15.2259549 10.2307968,15 10.5004358,15 L17.4995642,15 C17.7759472,15 18,15.214035 18,15.5046844 L18,16.4953156 C18,16.7740451 17.7692032,17 17.4995642,17 L10.5004358,17 C10.2240528,17 10,16.785965 10,16.4953156 L10,15.5046844 Z M6,15 L8.5,15 L8.5,16 L6,16 L6,15 Z M6,17 L8.5,17 L8.5,18 L6,18 L6,17 Z M7,8 L6,8 L6,7 L8,7 L8,10 L7,10 L7,8 Z M6,11 L8.5,11 L8.5,12 L8,12 L8,12.5 L7,12.5 L7,12 L6,12 L6,11 Z M6,13 L9,13 L9,14 L6,14 L6,13 Z M7.5,16 L9,16 L9,17 L7.5,17 L7.5,16 Z" id="Shape"></path>
        </g>
    </g>
</svg>