<?xml version="1.0" encoding="UTF-8" standalone="no"?>
<svg width="24px" height="24px" viewBox="0 0 24 24" version="1.1" xmlns="http://www.w3.org/2000/svg" xmlns:xlink="http://www.w3.org/1999/xlink">
    <!-- Generator: Sketch 45.1 (43504) - http://www.bohemiancoding.com/sketch -->
    <title>editor/panel</title>
    <desc>Created with Sketch.</desc>
    <defs></defs>
    <g id="Original" stroke="none" stroke-width="1" fill="none" fill-rule="evenodd">
        <g id="editor/panel" fill="#42526E">
            <path d="M12,19 C15.8659932,19 19,15.8659932 19,12 C19,8.13400675 15.8659932,5 12,5 C8.13400675,5 5,8.13400675 5,12 C5,15.8659932 8.13400675,19 12,19 Z M13,12.7919782 L13,15.5023012 C13,15.7771727 12.785965,16 12.4953156,16 L11.5046844,16 C11.2259549,16 11,15.7851562 11,15.5023012 L11,12.7919782 C11.3062312,12.9257762 11.6444476,13 12,13 C12.3555524,13 12.6937688,12.9257762 13,12.7919782 Z M12,11 C12.8284271,11 13.5,10.3284271 13.5,9.5 C13.5,8.67157288 12.8284271,8 12,8 C11.1715729,8 10.5,8.67157288 10.5,9.5 C10.5,10.3284271 11.1715729,11 12,11 Z" id="Shape"></path>
        </g>
    </g>
</svg>