<?xml version="1.0" encoding="UTF-8" standalone="no"?>
<svg width="24px" height="24px" viewBox="0 0 24 24" version="1.1" xmlns="http://www.w3.org/2000/svg" xmlns:xlink="http://www.w3.org/1999/xlink">
    <!-- Generator: Sketch 45.1 (43504) - http://www.bohemiancoding.com/sketch -->
    <title>editor/remove</title>
    <desc>Created with Sketch.</desc>
    <defs></defs>
    <g id="Original" stroke="none" stroke-width="1" fill="none" fill-rule="evenodd">
        <g id="editor/remove" fill="#42526E">
            <path d="M16.7777778,10 L15.1075287,17.5161209 C15.0481422,17.78336 14.7721195,18 14.5089948,18 L9.49100518,18 C9.21983051,18 8.95056152,17.7775269 8.89247131,17.5161209 L7.22222222,10 L16.7777778,10 Z M6,7.50468445 C6,7.22595492 6.22900057,7 6.50034732,7 L17.4996527,7 C17.7759869,7 18,7.21403503 18,7.50468445 L18,8.49531555 C18,8.77404508 17.7709994,9 17.4996527,9 L6.50034732,9 C6.22401312,9 6,8.78596497 6,8.49531555 L6,7.50468445 Z M10,6.5 C10,6.22385763 10.2150574,6 10.4904785,6 L13.5095215,6 C13.7804053,6 14,6.23193359 14,6.5 L14,7 L10,7 L10,6.5 Z" id="Shape"></path>
        </g>
    </g>
</svg>