<?xml version="1.0" encoding="UTF-8" standalone="no"?>
<svg width="24px" height="24px" viewBox="0 0 24 24" version="1.1" xmlns="http://www.w3.org/2000/svg" xmlns:xlink="http://www.w3.org/1999/xlink">
    <!-- Generator: Sketch 45.1 (43504) - http://www.bohemiancoding.com/sketch -->
    <title>editor/task</title>
    <desc>Created with Sketch.</desc>
    <defs></defs>
    <g id="Original" stroke="none" stroke-width="1" fill="none" fill-rule="evenodd">
        <g id="editor/task" fill="#42526E">
            <path d="M6,6.50034732 C6,6.22401312 6.22900057,6 6.50034732,6 L17.4996527,6 C17.7759869,6 18,6.22900057 18,6.50034732 L18,17.4996527 C18,17.7759869 17.7709994,18 17.4996527,18 L6.50034732,18 C6.22401312,18 6,17.7709994 6,17.4996527 L6,6.50034732 Z M10.4696699,15.0303301 L11.0621892,15.6228493 L11.5856516,14.9685213 L15.5856516,9.96852129 C15.8444088,9.64507483 15.7919677,9.17310555 15.4685213,8.91434839 C15.1450748,8.65559123 14.6731056,8.70803226 14.4143484,9.03147871 L10.9389605,13.3783003 L9.53033009,11.9696699 C9.23743687,11.6767767 8.76256313,11.6767767 8.46966991,11.9696699 C8.1767767,12.2625631 8.1767767,12.7374369 8.46966991,13.0303301 L10.4696699,15.0303301 Z" id="Shape"></path>
        </g>
    </g>
</svg>