<?xml version="1.0" encoding="UTF-8" standalone="no"?>
<svg width="24px" height="24px" viewBox="0 0 24 24" version="1.1" xmlns="http://www.w3.org/2000/svg" xmlns:xlink="http://www.w3.org/1999/xlink">
    <!-- Generator: Sketch 45.1 (43504) - http://www.bohemiancoding.com/sketch -->
    <title>editor/underline</title>
    <desc>Created with Sketch.</desc>
    <defs></defs>
    <g id="Original" stroke="none" stroke-width="1" fill="none" fill-rule="evenodd">
        <g id="editor/underline" fill-rule="nonzero" fill="#42526E">
            <path d="M7,6 L9,6 L9,11 C9,12.8839334 9.93005548,14 12,14 C14.0699445,14 15,12.8839334 15,11 L15,6 L17,6 L17,11 C17,13.9160666 15.2633888,16 12,16 C8.73661118,16 7,13.9160666 7,11 L7,6 Z M6,17.5046844 C6,17.2259549 6.22900057,17 6.50034732,17 L17.4996527,17 C17.7759869,17 18,17.214035 18,17.5046844 L18,18.4953156 C18,18.7740451 17.7709994,19 17.4996527,19 L6.50034732,19 C6.22401312,19 6,18.785965 6,18.4953156 L6,17.5046844 Z" id="Shape"></path>
        </g>
    </g>
</svg>