<?xml version="1.0" encoding="UTF-8"?>
<svg width="20px" height="20px" viewBox="0 0 20 20" version="1.1" xmlns="http://www.w3.org/2000/svg" xmlns:xlink="http://www.w3.org/1999/xlink">
    <!-- Generator: Sketch 42 (36781) - http://www.bohemiancoding.com/sketch -->
    <title>hipchat/arrow-back</title>
    <desc>Created with Sketch.</desc>
    <defs></defs>
    <g id="Symbols" stroke="none" stroke-width="1" fill="none" fill-rule="evenodd">
        <g fill="currentColor">
            <path d="M18,9.00315 L4.414,9.00315 L9.711,3.70615 C10.1,3.31715 10.1,2.68115 9.711,2.29215 C9.322,1.90315 8.685,1.90315 8.297,2.29215 L1.298,9.29015 C1.296,9.29215 1.294,9.29315 1.291,9.29515 C1.097,9.48915 1,9.74615 1,10.00315 C1,10.26015 1.097,10.51715 1.291,10.71115 C1.294,10.71315 1.297,10.71415 1.299,10.71615 L8.294,17.71115 C8.683,18.10015 9.319,18.10015 9.708,17.71115 C10.097,17.32315 10.097,16.68615 9.708,16.29715 L4.414,11.00315 L18,11.00315 C18.55,11.00315 19,10.55315 19,10.00315 C19,9.45315 18.55,9.00315 18,9.00315" id="arrow-back"></path>
        </g>
    </g>
</svg>
