<?xml version="1.0" encoding="UTF-8"?>
<svg width="20px" height="20px" viewBox="0 0 20 20" version="1.1" xmlns="http://www.w3.org/2000/svg" xmlns:xlink="http://www.w3.org/1999/xlink">
    <!-- Generator: Sketch 42 (36781) - http://www.bohemiancoding.com/sketch -->
    <title>hipchat/arrow-up</title>
    <desc>Created with Sketch.</desc>
    <defs></defs>
    <g id="Symbols" stroke="none" stroke-width="1" fill="none" fill-rule="evenodd">
        <g fill="currentColor">
            <path d="M10.9983,18.00145 C10.9983,18.55145 10.5483,19.00145 9.9983,19.00145 C9.4483,19.00145 8.9983,18.55145 8.9983,18.00145 L8.9983,4.41545 L3.7043,9.70945 C3.3153,10.09845 2.6783,10.09845 2.2903,9.70945 C1.9013,9.32045 1.9013,8.68445 2.2903,8.29545 L9.2853,1.30045 C9.2873,1.29845 9.2883,1.29545 9.2903,1.29245 C9.4843,1.09845 9.7413,1.00145 9.9983,1.00145 C10.2553,1.00145 10.5123,1.09845 10.7063,1.29245 C10.7083,1.29545 10.7093,1.29745 10.7113,1.29945 L17.7093,8.29845 C18.0983,8.68645 18.0983,9.32345 17.7093,9.71245 C17.3203,10.10145 16.6843,10.10145 16.2953,9.71245 L10.9983,4.41545 L10.9983,18.00145 Z" id="arrow-up"></path>
        </g>
    </g>
</svg>