<?xml version="1.0" encoding="UTF-8"?>
<svg width="20px" height="20px" viewBox="0 0 20 20" version="1.1" xmlns="http://www.w3.org/2000/svg" xmlns:xlink="http://www.w3.org/1999/xlink">
    <!-- Generator: Sketch 42 (36781) - http://www.bohemiancoding.com/sketch -->
    <title>hipchat/arrow-down</title>
    <desc>Created with Sketch.</desc>
    <defs></defs>
    <g id="Symbols" stroke="none" stroke-width="1" fill="none" fill-rule="evenodd">
        <g fill="currentColor">
            <path d="M9.0017,2.00145 C9.0017,1.45145 9.4517,1.00145 10.0017,1.00145 C10.5517,1.00145 11.0017,1.45145 11.0017,2.00145 L11.0017,15.58745 L16.2957,10.29345 C16.6847,9.90445 17.3217,9.90445 17.7097,10.29345 C18.0987,10.68245 18.0987,11.31845 17.7097,11.70745 L10.7147,18.70245 C10.7127,18.70445 10.7117,18.70745 10.7097,18.71045 C10.5157,18.90445 10.2587,19.00145 10.0017,19.00145 C9.7447,19.00145 9.4877,18.90445 9.2937,18.71045 C9.2917,18.70745 9.2907,18.70545 9.2887,18.70345 L2.2907,11.70445 C1.9017,11.31645 1.9017,10.67945 2.2907,10.29045 C2.6797,9.90145 3.3157,9.90145 3.7047,10.29045 L9.0017,15.58745 L9.0017,2.00145 Z" id="arrow-down"></path>
        </g>
    </g>
</svg>