<?xml version="1.0" encoding="UTF-8"?>
<svg width="20px" height="20px" viewBox="0 0 20 20" version="1.1" xmlns="http://www.w3.org/2000/svg" xmlns:xlink="http://www.w3.org/1999/xlink">
    <!-- Generator: Sketch 42 (36781) - http://www.bohemiancoding.com/sketch -->
    <title>hipchat/authentication</title>
    <desc>Created with Sketch.</desc>
    <defs></defs>
    <g id="Symbols" stroke="none" stroke-width="1" fill="none" fill-rule="evenodd">
        <g fill="currentColor">
            <path d="M10.0087499,7.375 L9.99125009,7.375 C9.51259487,7.375 9.12507875,7.76266 9.12507875,8.24118 L9.12507875,9.125 L10.8749213,9.125 L10.8749213,8.24118 C10.8749213,7.76266 10.4874051,7.375 10.0087499,7.375 L10.0087499,7.375 Z M3,5.00587872 C3,3.89806249 3.89706013,3 5.00585866,3 L14.9941413,3 C16.1019465,3 17,3.8970691 17,5.00587872 L17,14.9942613 C17,16.1020775 16.1029399,17.00014 14.9941413,17.00014 L5.00585866,17.00014 C3.89805351,17.00014 3,16.1030709 3,14.9942613 L3,5.00587872 Z M12.6249038,12.625 L12.6249038,10 C12.6249038,9.517 12.2329077,9.125 11.7500525,9.125 L11.7500525,8.2325 C11.7500525,7.27518 10.9747403,6.5 10.0174298,6.5 L9.98257017,6.5 C9.02525975,6.5 8.2499475,7.27518 8.2499475,8.2325 L8.2499475,9.125 C7.76709233,9.125 7.37509625,9.517 7.37509625,10 L7.37509625,12.625 L12.6249038,12.625 Z" id="authentication"></path>
        </g>
    </g>
</svg>
