<?xml version="1.0" encoding="UTF-8"?>
<svg width="20px" height="20px" viewBox="0 0 20 20" version="1.1" xmlns="http://www.w3.org/2000/svg" xmlns:xlink="http://www.w3.org/1999/xlink">
    <!-- Generator: Sketch 42 (36781) - http://www.bohemiancoding.com/sketch -->
    <title>hipchat/bell-all</title>
    <desc>Created with Sketch.</desc>
    <defs></defs>
    <g id="Symbols" stroke="none" stroke-width="1" fill="none" fill-rule="evenodd">
        <g fill-rule="nonzero" fill="currentColor">
            <path d="M10.6115158,3.84179093 C12.8200382,4.21057341 14.5032355,6.12861601 14.5032355,8.44303287 L14.5032355,11.865394 L15.5430537,13.4650091 C15.8793982,13.9824281 15.508047,14.6666667 14.890888,14.6666667 L4.77911208,14.6666667 C4.16195307,14.6666667 3.79060192,13.9824281 4.1269464,13.4650091 L5.16928855,11.8615112 L5.16928855,8.44303287 C5.16928855,6.13095312 6.85605396,4.21170744 9.06101912,3.84206609 C9.0593063,3.82087718 9.05843313,3.79943695 9.05843313,3.77777778 C9.05843313,3.34822297 9.40368402,3 9.83626205,3 C10.2658451,3 10.614091,3.3452282 10.614091,3.77777778 C10.614091,3.7993315 10.6132217,3.82068046 10.6115158,3.84179093 Z M13.5868851,2.53999996 C15.5368824,3.78202231 16.8299999,5.96286041 16.8299999,8.4468216 L16.8299999,10.0037887 L15.2744444,10.0037887 L15.2744444,8.4468216 C15.2744444,6.50912722 14.2629136,4.80891864 12.7389673,3.84448892 L13.5868851,2.53999996 Z M6.07401065,2.54137826 L6.92193001,3.8458696 C5.39841165,4.81107159 4.38555548,6.51154276 4.38555548,8.4468216 L4.38555548,10.0037887 L2.82999992,10.0037887 L2.82999992,8.4468216 C2.82999992,5.96542643 4.12435904,3.78422466 6.07401065,2.54137826 Z M9.83626205,17 C8.97709595,17 8.28060421,16.3035541 8.28060421,15.4444444 C8.28060421,15.4444444 11.3919199,15.4444444 11.3919199,15.4444444 C11.3919199,16.3035541 10.6954281,17 9.83626205,17 Z" id="bell-all"></path>
        </g>
    </g>
</svg>
