<?xml version="1.0" encoding="UTF-8"?>
<svg width="20px" height="20px" viewBox="0 0 20 20" version="1.1" xmlns="http://www.w3.org/2000/svg" xmlns:xlink="http://www.w3.org/1999/xlink">
    <!-- Generator: Sketch 42 (36781) - http://www.bohemiancoding.com/sketch -->
    <title>hipchat/bell-direct</title>
    <desc>Created with Sketch.</desc>
    <defs></defs>
    <g id="Symbols" stroke="none" stroke-width="1" fill="none" fill-rule="evenodd">
        <g fill="currentColor">
            <path d="M12.9463157,12.128655 L12.9463157,8.45203789 C12.9463157,6.72384413 11.5533322,5.33333333 9.83500004,5.33333333 C8.12016431,5.33333333 6.72368437,6.72962492 6.72368437,8.45203789 L6.72368437,12.128655 L6.14031269,13.1111111 L13.5296874,13.1111111 L12.9463157,12.128655 Z M10.6115158,3.84179093 C12.8200382,4.21057341 14.5032355,6.12861601 14.5032355,8.44303287 L14.5032355,11.865394 L15.5430537,13.4650091 C15.8793982,13.9824281 15.508047,14.6666667 14.890888,14.6666667 L4.77911208,14.6666667 C4.16195307,14.6666667 3.79060192,13.9824281 4.1269464,13.4650091 L5.16928855,11.8615112 L5.16928855,8.44303287 C5.16928855,6.13095312 6.85605396,4.21170744 9.06101912,3.84206609 C9.0593063,3.82087718 9.05843313,3.79943695 9.05843313,3.77777778 C9.05843313,3.34822297 9.40368402,3 9.83626205,3 C10.2658451,3 10.614091,3.3452282 10.614091,3.77777778 C10.614091,3.7993315 10.6132217,3.82068046 10.6115158,3.84179093 Z M9.83626205,17 C8.97709595,17 8.28060421,16.3035541 8.28060421,15.4444444 C8.28060421,15.4444444 11.3919199,15.4444444 11.3919199,15.4444444 C11.3919199,16.3035541 10.6954281,17 9.83626205,17 Z" id="bell-direct"></path>
        </g>
    </g>
</svg>
