<?xml version="1.0" encoding="UTF-8"?>
<svg width="20px" height="20px" viewBox="0 0 20 20" version="1.1" xmlns="http://www.w3.org/2000/svg" xmlns:xlink="http://www.w3.org/1999/xlink">
    <!-- Generator: Sketch 42 (36781) - http://www.bohemiancoding.com/sketch -->
    <title>hipchat/billing</title>
    <desc>Created with Sketch.</desc>
    <defs></defs>
    <g id="Symbols" stroke="none" stroke-width="1" fill="none" fill-rule="evenodd">
        <g fill="currentColor">
            <path d="M11.6494564,9.27038477 L12.4381443,9.27038477 C12.8742888,9.27038477 13.2268323,9.62292829 13.2268323,10.0590727 C13.2268323,10.4952172 12.8742888,10.8477607 12.4381443,10.8477607 L11.6494564,10.8477607 C11.2133119,10.8477607 10.8607684,10.4952172 10.8607684,10.0590727 C10.8607684,9.62292829 11.2133119,9.27038477 11.6494564,9.27038477 Z M9.28339248,9.27038477 C9.71953693,9.27038477 10.0720804,9.62292829 10.0720804,10.0590727 C10.0720804,10.4952172 9.71953693,10.8477607 9.28339248,10.8477607 L7.70601656,10.8477607 C7.26987212,10.8477607 6.9173286,10.4952172 6.9173286,10.0590727 C6.9173286,9.62292829 7.26987212,9.27038477 7.70601656,9.27038477 L9.28339248,9.27038477 Z M9.28339248,6.11563292 C9.71953693,6.11563292 10.0720804,6.46817644 10.0720804,6.90432088 C10.0720804,7.34046533 9.71953693,7.69300884 9.28339248,7.69300884 L7.70601656,7.69300884 C7.26987212,7.69300884 6.9173286,7.34046533 6.9173286,6.90432088 C6.9173286,6.46817644 7.26987212,6.11563292 7.70601656,6.11563292 L9.28339248,6.11563292 Z M15.5274351,7.31648921 L15.5274351,7.72818433 L11.5839953,7.72818433 C11.1486395,7.72818433 10.7953073,7.37485212 10.7953073,6.93949637 L10.7953073,4.58131936 L6.07737592,4.58131936 L6.07737592,14.9572982 L7.15393499,14.2616754 L8.10036054,13.6496535 L8.98605712,14.3468537 L10.020027,15.1607797 L11.0760802,14.3405442 L11.9657202,13.6496535 L12.9074137,14.2656188 L13.9492705,14.9478339 L13.9492705,8.51766098 L15.5274351,8.51766098 L15.5274351,15.5858825 L15.5266464,15.6205848 C15.5203369,16.433722 14.9990141,17 14.4398344,17 C14.2347755,17 14.0249845,16.924286 13.8333333,16.7562954 L12.0438003,15.5858825 L10.5886711,16.7160723 C10.4206805,16.8469945 10.2187764,16.9124556 10.017661,16.9124556 C9.81339079,16.9124556 9.6099093,16.8454172 9.44113008,16.7129176 L8.01045012,15.5858825 L6.22643795,16.739733 C6.03005464,16.9069348 5.80606726,16.9858036 5.58523463,16.9858036 C5.14435806,16.9858036 4.71846657,16.6687511 4.56624979,16.0969523 C4.52287195,15.9368486 4.5,15.7649147 4.5,15.5858825 L4.5,4.57737592 C4.5,3.70587573 5.04971551,3 5.72798716,3 L9.76291477,3 C9.76370345,3.00157738 9.76606952,3.00236606 9.76685821,3.00394344 L10.2313954,3.00394344 C10.6012901,3.00394344 10.9585657,3.13407695 11.2424934,3.37068334 L15.2442961,6.71077686 C15.4233283,6.86062757 15.5274351,7.08224889 15.5274351,7.31648921 Z" id="billing"></path>
        </g>
    </g>
</svg>
