<?xml version="1.0" encoding="UTF-8"?>
<svg width="20px" height="20px" viewBox="0 0 20 20" version="1.1" xmlns="http://www.w3.org/2000/svg" xmlns:xlink="http://www.w3.org/1999/xlink">
    <!-- Generator: Sketch 42 (36781) - http://www.bohemiancoding.com/sketch -->
    <title>hipchat/carat-right</title>
    <desc>Created with Sketch.</desc>
    <defs></defs>
    <g id="Symbols" stroke="none" stroke-width="1" fill="none" fill-rule="evenodd">
        <g fill="currentColor">
            <path d="M11.854401,9.99868754 L6.25931172,15.5066404 C5.91356276,15.8470048 5.91356276,16.4043624 6.25931172,16.7447267 C6.60417187,17.0850911 7.17034692,17.0850911 7.51609588,16.7447267 L13.7342444,10.622543 C13.7369108,10.6207931 13.7386884,10.6199181 13.7404661,10.6181682 C13.913785,10.4484235 14,10.2235555 14,9.99868754 C14,9.77381957 13.913785,9.5489516 13.7404661,9.3792069 C13.7386884,9.37745695 13.736022,9.37658198 13.7342444,9.37483204 L7.51787351,3.25527327 C7.17212455,2.91490891 6.60683832,2.91490891 6.26108935,3.25527327 C5.91534039,3.59563764 5.91534039,4.15212025 6.26108935,4.49248461 L11.854401,9.99868754 Z" id="carat-right"></path>
        </g>
    </g>
</svg>