<?xml version="1.0" encoding="UTF-8"?>
<svg width="20px" height="20px" viewBox="0 0 20 20" version="1.1" xmlns="http://www.w3.org/2000/svg" xmlns:xlink="http://www.w3.org/1999/xlink">
    <!-- Generator: Sketch 42 (36781) - http://www.bohemiancoding.com/sketch -->
    <title>hipchat/carat-left</title>
    <desc>Created with Sketch.</desc>
    <defs></defs>
    <g id="Symbols" stroke="none" stroke-width="1" fill="none" fill-rule="evenodd">
        <g fill="currentColor">
            <path d="M8.14559898,10.0013125 L13.7406883,4.49335958 C14.0864372,4.15299522 14.0864372,3.59563764 13.7406883,3.25527327 C13.3958281,2.91490891 12.8296531,2.91490891 12.4839041,3.25527327 L6.26575563,9.37745695 C6.26308919,9.3792069 6.26131156,9.38008187 6.25953393,9.38183182 C6.08621504,9.55157651 6,9.77644449 6,10.0013125 C6,10.2261804 6.08621504,10.4510484 6.25953393,10.6207931 C6.26131156,10.622543 6.263978,10.623418 6.26575563,10.625168 L12.4821265,16.7447267 C12.8278755,17.0850911 13.3931617,17.0850911 13.7389106,16.7447267 C14.0846596,16.4043624 14.0846596,15.8478798 13.7389106,15.5075154 L8.14559898,10.0013125 Z" id="carat-left"></path>
        </g>
    </g>
</svg>