<?xml version="1.0" encoding="UTF-8"?>
<svg width="20px" height="20px" viewBox="0 0 20 20" version="1.1" xmlns="http://www.w3.org/2000/svg" xmlns:xlink="http://www.w3.org/1999/xlink">
    <!-- Generator: Sketch 42 (36781) - http://www.bohemiancoding.com/sketch -->
    <title>hipchat/close</title>
    <desc>Created with Sketch.</desc>
    <defs></defs>
    <g id="Symbols" stroke="none" stroke-width="1" fill="none" fill-rule="evenodd">
        <g fill="currentColor">
            <path d="M16.7097,15.2955 L11.4167,10.0025 L16.6897,4.7295 C17.0797,4.3395 17.0797,3.7065 16.6897,3.3155 C16.2987,2.9255 15.6657,2.9255 15.2757,3.3155 L10.0027,8.5885 L4.7067,3.2925 C4.3167,2.9025 3.6837,2.9025 3.2927,3.2925 C2.9027,3.6835 2.9027,4.3165 3.2927,4.7075 L8.5887,10.0025 L3.2957,15.2955 C2.9047,15.6865 2.9047,16.3195 3.2957,16.7095 C3.6857,17.1005 4.3187,17.1005 4.7097,16.7095 L10.0027,11.4165 L15.2957,16.7095 C15.6857,17.1005 16.3187,17.1005 16.7097,16.7095 C17.1007,16.3195 17.1007,15.6865 16.7097,15.2955" id="close"></path>
        </g>
    </g>
</svg>