<?xml version="1.0" encoding="UTF-8"?>
<svg width="20px" height="20px" viewBox="0 0 20 20" version="1.1" xmlns="http://www.w3.org/2000/svg" xmlns:xlink="http://www.w3.org/1999/xlink">
    <!-- Generator: Sketch 42 (36781) - http://www.bohemiancoding.com/sketch -->
    <title>hipchat/connect-addon</title>
    <desc>Created with Sketch.</desc>
    <defs></defs>
    <g id="Symbols" stroke="none" stroke-width="1" fill="none" fill-rule="evenodd">
        <g fill="currentColor">
            <path d="M6.69133243,12.9316498 C6.50673463,13.4776334 6.35494747,13.7287505 5.97241075,13.9433503 C5.12093526,14.421173 4.43234552,14.2418911 3.93858184,13.4105136 C3.441194,12.5735161 3.62941161,11.8910806 4.48649029,11.4103985 C4.87368701,11.1931844 5.15878516,11.1939187 5.73718219,11.311935 C5.81459306,11.3277408 5.87569577,11.339717 5.92742838,11.3488208 L4.49281172,8.93496704 C4.39708588,8.77390088 4.4528746,8.56560308 4.61628858,8.47394275 L6.63896283,7.33940701 C6.8351552,7.22936098 7.08178306,7.34124928 7.12819349,7.56135755 C7.15204218,7.67446345 7.19406295,7.78123184 7.25642896,7.88606362 C7.69484288,8.62342211 8.26169864,8.77095811 9.02488802,8.34300503 C9.78232479,7.91817105 9.93054443,7.38083205 9.49543714,6.64903459 C9.43275175,6.54336493 9.35816825,6.45399596 9.26925308,6.37770779 C9.09350838,6.22692092 9.12127335,5.94728901 9.32323791,5.83400532 L11.3459122,4.69946957 C11.5036365,4.6110006 11.7031344,4.66443264 11.7955271,4.81989109 L13.2432173,7.25575246 C13.2617916,7.20599876 13.2825613,7.14620785 13.3086907,7.0687437 C13.4934678,6.5225846 13.6451529,6.27163644 14.0275893,6.05734246 C14.879011,5.57954995 15.567594,5.75875338 16.0614182,6.5899482 C16.5588129,7.42695733 16.3705761,8.10961913 15.5135907,8.59024888 C15.2545334,8.73567265 14.992603,8.78295286 14.6980502,8.75903694 C14.5712224,8.74873928 14.4762067,8.7322911 14.2632797,8.68898866 C14.1859194,8.67319323 14.1248242,8.66121263 14.0730154,8.65208485 L15.5067313,11.0645793 C15.6024476,11.2256399 15.5466641,11.4339251 15.3832626,11.5255881 L13.2735295,12.70908 C13.0554113,12.8314373 12.7852403,12.6789374 12.7772831,12.4289703 C12.7715776,12.2497414 12.7259378,12.084749 12.6269213,11.9185189 C12.188702,11.1811673 11.6216463,11.0334915 10.8586945,11.4614187 C10.1012065,11.8861748 9.95296091,12.4236934 10.3877124,13.1552101 C10.4872744,13.3225205 10.6131344,13.4449335 10.7722627,13.5407698 C10.991302,13.6726881 10.9863767,13.9919329 10.7633721,14.1170312 L8.653639,15.3005231 C8.49591195,15.3890029 8.29640298,15.3355712 8.20400864,15.1801048 L6.75672831,12.7448539 C6.73817228,12.7945663 6.71742452,12.854296 6.69133243,12.9316498 Z" id="connect-addon"></path>
        </g>
    </g>
</svg>