<?xml version="1.0" encoding="UTF-8"?>
<svg width="20px" height="20px" viewBox="0 0 20 20" version="1.1" xmlns="http://www.w3.org/2000/svg" xmlns:xlink="http://www.w3.org/1999/xlink">
    <!-- Generator: Sketch 42 (36781) - http://www.bohemiancoding.com/sketch -->
    <title>hipchat/lobby</title>
    <desc>Created with Sketch.</desc>
    <defs></defs>
    <g id="Symbols" stroke="none" stroke-width="1" fill="none" fill-rule="evenodd">
        <g fill="currentColor">
            <path d="M5,7 C3.8954305,7 3,6.1045695 3,5 C3,3.8954305 3.8954305,3 5,3 C6.1045695,3 7,3.8954305 7,5 C7,6.1045695 6.1045695,7 5,7 Z M9,5 C9,4.44771525 9.45303631,4 9.99703014,4 L16.0029699,4 C16.5536144,4 17,4.44386482 17,5 C17,5.55228475 16.5469637,6 16.0029699,6 L9.99703014,6 C9.4463856,6 9,5.55613518 9,5 Z M5,12 C3.8954305,12 3,11.1045695 3,10 C3,8.8954305 3.8954305,8 5,8 C6.1045695,8 7,8.8954305 7,10 C7,11.1045695 6.1045695,12 5,12 Z M9,10 C9,9.44771525 9.45303631,9 9.99703014,9 L16.0029699,9 C16.5536144,9 17,9.44386482 17,10 C17,10.5522847 16.5469637,11 16.0029699,11 L9.99703014,11 C9.4463856,11 9,10.5561352 9,10 Z M5,17 C3.8954305,17 3,16.1045695 3,15 C3,13.8954305 3.8954305,13 5,13 C6.1045695,13 7,13.8954305 7,15 C7,16.1045695 6.1045695,17 5,17 Z M9,15 C9,14.4477153 9.45303631,14 9.99703014,14 L16.0029699,14 C16.5536144,14 17,14.4438648 17,15 C17,15.5522847 16.5469637,16 16.0029699,16 L9.99703014,16 C9.4463856,16 9,15.5561352 9,15 Z" id="lobby"></path>
        </g>
    </g>
</svg>