<?xml version="1.0" encoding="UTF-8"?>
<svg width="20px" height="20px" viewBox="0 0 20 20" version="1.1" xmlns="http://www.w3.org/2000/svg" xmlns:xlink="http://www.w3.org/1999/xlink">
    <!-- Generator: Sketch 42 (36781) - http://www.bohemiancoding.com/sketch -->
    <title>hipchat/hipchat</title>
    <desc>Created with Sketch.</desc>
    <defs></defs>
    <g id="Symbols" stroke="none" stroke-width="1" fill="none" fill-rule="evenodd">
        <g fill="currentColor">
            <path d="M16.5760354,16.9632485 C16.7130037,17.0410182 16.8059048,17.1737697 16.8059048,17.3447273 C16.8059048,17.6100364 16.6288577,17.9012364 16.1681461,17.9012364 C14.7383448,17.9012364 13.107955,17.3394909 12.013084,16.6697212 C11.9244631,16.6155152 11.816192,16.5843879 11.6830176,16.6089212 C11.1404947,16.7088 10.5775432,16.7615515 10.0002918,16.7615515 C5.58189645,16.7615515 2,13.6808242 2,9.87951515 C2,6.08014545 5.58189645,3 10.0002918,3 C14.4182008,3 18,6.08014545 18,9.87951515 C18,11.9167515 16.9711812,13.7458909 15.3363165,15.0059152 C15.2236679,15.0928 15.180768,15.2105212 15.2290182,15.3563636 C15.4746468,16.0998303 16.0109438,16.6424727 16.5760354,16.9632485 Z M14.43503,16.2945455 C14.0371604,15.768 13.7334566,14.9691636 13.7334566,14.6470303 C13.7334566,14.4900364 13.8499964,14.3645576 13.9594348,14.2978424 C15.596926,13.2993455 16.658625,11.697503 16.658625,9.89086061 C16.658625,6.86482424 13.6774241,4.41168485 10.0001946,4.41168485 C6.32267322,4.41168485 3.34127775,6.86482424 3.34127775,9.89086061 C3.34127775,12.9184485 6.32267322,15.3720727 10.0001946,15.3720727 C10.5872711,15.3720727 11.1561565,15.3086545 11.6982903,15.1909333 C11.8750456,15.1526303 11.9995622,15.1799758 12.0885722,15.2548364 C12.738588,15.8013576 13.9735402,16.4647273 14.3742309,16.4647273 C14.4294852,16.4647273 14.4734551,16.4329212 14.4734551,16.3867636 C14.4734551,16.3560242 14.4601279,16.3278061 14.43503,16.2945455 Z M14.3691529,11.4168145 C14.3692502,11.5586812 14.2694424,11.7176145 14.1873392,11.8404752 C13.7118412,12.5521358 12.2369026,13.7604752 10.0172961,13.7604752 L9.98256767,13.7604752 C7.76305844,13.7604752 6.28802257,12.5521358 5.81252462,11.8404752 C5.73042146,11.7176145 5.63071086,11.5991176 5.63080814,11.4572509 C5.6310027,11.2733964 5.7456942,11.1062206 5.94278071,11.1062206 C6.00717916,11.1062206 6.10659792,11.1363782 6.16019845,11.1804024 C7.0084681,11.8766448 8.34060167,12.5405964 9.99657579,12.5447661 L10.003288,12.5447661 C11.6620832,12.5405964 13.0337119,11.9021479 13.8396654,11.1802085 C13.9014373,11.1248388 13.9769255,11.0998206 14.0505654,11.0998206 C14.2331574,11.0998206 14.3689584,11.2499297 14.3691529,11.4168145 Z" id="hipchat"></path>
        </g>
    </g>
</svg>
