<?xml version="1.0" encoding="UTF-8"?>
<svg width="20px" height="20px" viewBox="0 0 20 20" version="1.1" xmlns="http://www.w3.org/2000/svg" xmlns:xlink="http://www.w3.org/1999/xlink">
    <!-- Generator: Sketch 42 (36781) - http://www.bohemiancoding.com/sketch -->
    <title>hipchat/overflow-vertical</title>
    <desc>Created with Sketch.</desc>
    <defs></defs>
    <g id="Symbols" stroke="none" stroke-width="1" fill="none" fill-rule="evenodd">
        <g fill="currentColor">
            <path d="M4.5,11.5 C3.67157288,11.5 3,10.8284271 3,10 C3,9.17157288 3.67157288,8.5 4.5,8.5 C5.32842712,8.5 6,9.17157288 6,10 C6,10.8284271 5.32842712,11.5 4.5,11.5 Z M10,11.5 C9.17157288,11.5 8.5,10.8284271 8.5,10 C8.5,9.17157288 9.17157288,8.5 10,8.5 C10.8284271,8.5 11.5,9.17157288 11.5,10 C11.5,10.8284271 10.8284271,11.5 10,11.5 Z M15.5,11.5 C14.6715729,11.5 14,10.8284271 14,10 C14,9.17157288 14.6715729,8.5 15.5,8.5 C16.3284271,8.5 17,9.17157288 17,10 C17,10.8284271 16.3284271,11.5 15.5,11.5 Z" id="overflow-vertical" transform="translate(10.000000, 10.000000) rotate(-270.000000) translate(-10.000000, -10.000000) "></path>
        </g>
    </g>
</svg>