<?xml version="1.0" encoding="UTF-8"?>
<svg width="20px" height="20px" viewBox="0 0 20 20" version="1.1" xmlns="http://www.w3.org/2000/svg" xmlns:xlink="http://www.w3.org/1999/xlink">
    <!-- Generator: Sketch 42 (36781) - http://www.bohemiancoding.com/sketch -->
    <title>hipchat/admin-preferences</title>
    <desc>Created with Sketch.</desc>
    <defs></defs>
    <g id="Symbols" stroke="none" stroke-width="1" fill="none" fill-rule="evenodd">
        <g fill="currentColor">
            <path d="M16.4443062,12.3293408 C16.4443062,13.3435517 15.7933134,14.19832 14.8887679,14.5195387 L14.8887679,16.2220753 C14.8887679,16.6498483 14.5387718,16.9998444 14.1109988,16.9998444 C13.6832257,16.9998444 13.3332296,16.6498483 13.3332296,16.2220753 L13.3332296,14.5195387 C12.4286841,14.19832 11.7776914,13.3435517 11.7776914,12.3293408 C11.7776914,11.3151298 12.4286841,10.4603616 13.3332296,10.1391429 L13.3332296,3.77776914 C13.3332296,3.34999611 13.6832257,3 14.1109988,3 C14.5387718,3 14.8887679,3.34999611 14.8887679,3.77776914 L14.8887679,10.1391429 C15.7933134,10.4603616 16.4443062,11.3151298 16.4443062,12.3293408 Z M5.55553827,16.2222309 L5.55553827,10.7778469 L7.11107654,10.7778469 L7.11107654,16.2222309 C7.11107654,16.6500039 6.76108043,17 6.33330741,17 C5.90553438,17 5.55553827,16.6500039 5.55553827,16.2222309 Z M7.11107654,5.48046133 C8.01562205,5.80167998 8.66661482,6.65644826 8.66661482,7.67065921 C8.66661482,8.95942267 7.62207087,10.0039666 6.33330741,10.0039666 C5.04454395,10.0039666 4,8.95942267 4,7.67065921 C4,6.65644826 4.65099277,5.80167998 5.55553827,5.48046133 L5.55553827,3.77792469 C5.55553827,3.35015166 5.90553438,3.00015555 6.33330741,3.00015555 C6.76108043,3.00015555 7.11107654,3.35015166 7.11107654,3.77792469 L7.11107654,5.48046133 Z" id="admin-preferences"></path>
        </g>
    </g>
</svg>
