<?xml version="1.0" encoding="UTF-8"?>
<svg width="20px" height="20px" viewBox="0 0 20 20" version="1.1" xmlns="http://www.w3.org/2000/svg" xmlns:xlink="http://www.w3.org/1999/xlink">
    <!-- Generator: Sketch 42 (36781) - http://www.bohemiancoding.com/sketch -->
    <title>hipchat/room menu</title>
    <desc>Created with Sketch.</desc>
    <defs></defs>
    <g id="Symbols" stroke="none" stroke-width="1" fill="none" fill-rule="evenodd">
        <g fill-rule="nonzero" fill="currentColor">
            <path d="M12,15 L16,15 L16,5 L12,5 L12,15 Z M10,4.00684547 C10,3.45078007 10.4530363,3 10.9970301,3 L17.0029699,3 C17.5536144,3 18,3.44994876 18,4.00684547 L18,15.9931545 C18,16.5492199 17.5469637,17 17.0029699,17 L10.9970301,17 C10.4463856,17 10,16.5500512 10,15.9931545 L10,4.00684547 Z M2,12 C2,11.4477153 2.43788135,11 3.00292933,11 L7.99707067,11 C8.55097324,11 9,11.4438648 9,12 C9,12.5522847 8.56211865,13 7.99707067,13 L3.00292933,13 C2.44902676,13 2,12.5561352 2,12 Z M2,16 C2,15.4477153 2.43788135,15 3.00292933,15 L7.99707067,15 C8.55097324,15 9,15.4438648 9,16 C9,16.5522847 8.56211865,17 7.99707067,17 L3.00292933,17 C2.44902676,17 2,16.5561352 2,16 Z M2,4 C2,3.44771525 2.43788135,3 3.00292933,3 L7.99707067,3 C8.55097324,3 9,3.44386482 9,4 C9,4.55228475 8.56211865,5 7.99707067,5 L3.00292933,5 C2.44902676,5 2,4.55613518 2,4 Z M2,8 C2,7.44771525 2.43788135,7 3.00292933,7 L7.99707067,7 C8.55097324,7 9,7.44386482 9,8 C9,8.55228475 8.56211865,9 7.99707067,9 L3.00292933,9 C2.44902676,9 2,8.55613518 2,8 Z" id="room-menu"></path>
        </g>
    </g>
</svg>
