<?xml version="1.0" encoding="UTF-8"?>
<svg width="20px" height="20px" viewBox="0 0 20 20" version="1.1" xmlns="http://www.w3.org/2000/svg" xmlns:xlink="http://www.w3.org/1999/xlink">
    <!-- Generator: Sketch 42 (36781) - http://www.bohemiancoding.com/sketch -->
    <title>hipchat/room-directory</title>
    <desc>Created with Sketch.</desc>
    <defs></defs>
    <g id="Symbols" stroke="none" stroke-width="1" fill="none" fill-rule="evenodd">
        <g fill="currentColor">
            <path d="M8.88634741,15.4444444 L15.4444444,15.4444444 L15.4444444,8.44444444 L8.88634741,8.44444444 L8.88634741,15.4444444 Z M4.55555556,15.4444444 L7.00799684,15.4444444 L7.00799684,4.55555556 L4.55555556,4.55555556 L4.55555556,15.4444444 Z M8.88634741,6.88888889 L15.4444444,6.88888889 L15.4444444,4.55555556 L8.88634741,4.55555556 L8.88634741,6.88888889 Z M15.4444444,3 L4.55555556,3 C3.69611111,3 3,3.69611111 3,4.55555556 L3,15.4444444 C3,16.3038889 3.69611111,17 4.55555556,17 L15.4444444,17 C16.3038889,17 17,16.3038889 17,15.4444444 L17,4.55555556 C17,3.69611111 16.3038889,3 15.4444444,3 L15.4444444,3 Z" id="Page-1"></path>
        </g>
    </g>
</svg>
