<?xml version="1.0" encoding="UTF-8"?>
<svg width="20px" height="20px" viewBox="0 0 20 20" version="1.1" xmlns="http://www.w3.org/2000/svg" xmlns:xlink="http://www.w3.org/1999/xlink">
    <!-- Generator: Sketch 42 (36781) - http://www.bohemiancoding.com/sketch -->
    <title>hipchat/upgrade-available</title>
    <desc>Created with Sketch.</desc>
    <defs></defs>
    <g id="Symbols" stroke="none" stroke-width="1" fill="none" fill-rule="evenodd">
        <g id="hipchat/upgrade-available" fill="currentColor">
            <path d="M9.3,6.77416667 C9.3,6.3985 9.608,6.09166667 9.98483333,6.09166667 C10.3605,6.09166667 10.6685,6.3985 10.6685,6.77416667 L10.6685,10.1866667 C10.6685,10.5623333 10.3605,10.8691667 9.98483333,10.8691667 C9.608,10.8691667 9.3,10.5623333 9.3,10.1866667 L9.3,6.77416667 Z M9.98483333,12.065 C10.3628333,12.065 10.6685,12.3706667 10.6685,12.7475 C10.6685,13.1243333 10.3628333,13.43 9.98483333,13.43 C9.60683333,13.43 9.3,13.1243333 9.3,12.7475 C9.3,12.3706667 9.60683333,12.065 9.98483333,12.065 L9.98483333,12.065 Z M17,9.9965 L15.4471667,8.13683333 L15.6641667,5.67516667 L13.3658333,5.12683333 L12.1641667,3 L10,3.9765 L7.83583333,3 L6.63416667,5.12683333 L4.33583333,5.66933333 L4.55283333,8.131 L3,9.9965 L4.55283333,11.8561667 L4.33583333,14.3248333 L6.63416667,14.8731667 L7.83583333,17 L10,16.0165 L12.1641667,16.993 L13.3658333,14.8661667 L15.6641667,14.3178333 L15.4471667,11.8561667 L17,9.9965 Z" id="upgrade-available"></path>
        </g>
    </g>
</svg>
