<?xml version="1.0" encoding="UTF-8"?>
<svg width="20px" height="20px" viewBox="0 0 20 20" version="1.1" xmlns="http://www.w3.org/2000/svg" xmlns:xlink="http://www.w3.org/1999/xlink">
    <!-- Generator: Sketch 42 (36781) - http://www.bohemiancoding.com/sketch -->
    <title>hipchat/upgrade-available-settings</title>
    <desc>Created with Sketch.</desc>
    <defs></defs>
    <g id="Symbols" stroke="none" stroke-width="1" fill="none" fill-rule="evenodd">
        <g id="hipchat/upgrade-available-settings" fill="currentColor">
            <path d="M16.7338372,11.5168372 C16.924522,11.582823 17.0411858,11.783999 16.9864745,11.9779328 C16.8424552,12.4840917 16.6453337,12.9669143 16.4007422,13.4207674 C16.304193,13.6002165 16.0797159,13.6605693 15.8954677,13.5736612 C15.4143305,13.3459299 14.8068747,13.3475394 14.185741,13.7587432 C14.0916055,13.8207054 14.0047111,13.9084182 13.9427587,14.0017639 C13.5179419,14.6471367 13.5332288,15.2788295 13.7890844,15.7680897 C13.88322,15.9475387 13.8301179,16.1736606 13.65472,16.275858 C13.1333539,16.5792315 12.5709544,16.8198381 11.977981,16.9864119 C11.7840779,17.0411318 11.5845427,16.9244497 11.5193719,16.7345395 C11.3029406,16.1020419 10.7075535,15.6457746 10.0011346,15.6457746 C9.29471578,15.6457746 8.6993286,16.1020419 8.48289731,16.7345395 C8.41772655,16.9252544 8.21819139,17.0411318 8.02428826,16.9864119 C7.42326904,16.817424 6.85362833,16.5735986 6.3274348,16.2645922 C6.15364611,16.1623948 6.09973943,15.938687 6.19226582,15.7592379 C6.44490308,15.2707825 6.45697174,14.6423085 6.03295952,13.9993498 C5.97100707,13.9060041 5.88411272,13.819096 5.78997718,13.7571338 C5.17769387,13.3531723 4.57587008,13.3459299 4.0971466,13.5656142 C3.9128984,13.6501081 3.69083508,13.5889506 3.59509038,13.4103063 C3.35291262,12.9564531 3.15579119,12.4744353 3.01338101,11.9698857 C2.95947434,11.7775614 3.07372431,11.5779948 3.26119081,11.5103996 C3.88232447,11.2866918 4.32645112,10.6976483 4.32645112,9.99996976 C4.32645112,9.30229119 3.88232447,8.7132477 3.26199539,8.48953992 C3.07452889,8.42114006 2.95947434,8.22157341 3.01418559,8.0292491 C3.17349189,7.46273732 3.40038268,6.9251949 3.68439846,6.42466887 C3.778534,6.25889979 3.98611493,6.19613286 4.16312193,6.26694684 C4.47047045,6.38926188 4.82448445,6.42064534 5.19298084,6.32166672 C5.75538036,6.17118703 6.20513905,5.69560683 6.32984853,5.12748565 C6.40547879,4.78146283 6.36927282,4.44992469 6.25099996,4.15942646 C6.18019716,3.98641505 6.24858622,3.78362958 6.41030626,3.6910886 C6.91316705,3.40380919 7.4530384,3.17446848 8.02267911,3.01352764 C8.21658223,2.95880775 8.41853113,3.07629457 8.48531104,3.26700947 C8.70335148,3.89628818 9.29712951,4.34933666 10.0011346,4.34933666 C10.7059443,4.34933666 11.2989178,3.89628818 11.5177628,3.26620476 C11.5837381,3.07548986 11.7848824,2.95880775 11.9795901,3.01352764 C12.5395759,3.17205437 13.0722061,3.39737155 13.5686302,3.67821333 C13.7359823,3.77316843 13.7979348,3.98158682 13.7263274,4.15862175 C13.6000088,4.47004229 13.5670211,4.82974508 13.6651795,5.20232314 C13.8083943,5.74388909 14.2517164,6.18567171 14.7940014,6.32569025 C15.1649116,6.42064534 15.5229484,6.38765247 15.8327107,6.2605092 C16.0105223,6.18808582 16.2189078,6.25004805 16.3138479,6.41742653 C16.5986683,6.91795256 16.8263636,7.45469028 16.9864745,8.02120206 C17.0411858,8.21513578 16.9237175,8.41711654 16.7330327,8.48310229 C16.1038532,8.70198184 15.6508762,9.29504885 15.6508762,9.99996976 C15.6508762,10.7048907 16.1038532,11.2979577 16.7338372,11.5168372 Z M10.0011346,14.0251003 C12.2241816,14.0251003 14.0256301,12.2225628 14.0256301,9.99996976 C14.0256301,7.77657197 12.2241816,5.9748392 10.0011346,5.9748392 C7.77808762,5.9748392 5.97663911,7.77657197 5.97663911,9.99996976 C5.97663911,12.2225628 7.77808762,14.0251003 10.0011346,14.0251003 Z M9.9995,11.5215 C10.2805,11.5215 10.5085,11.7485 10.5085,12.0285 C10.5085,12.3075 10.2805,12.5355 9.9995,12.5355 C9.7195,12.5355 9.4915,12.3075 9.4915,12.0285 C9.4915,11.7485 9.7195,11.5215 9.9995,11.5215 Z M9.4915,7.9695 C9.4915,7.6905 9.7205,7.4625 9.9995,7.4625 C10.2795,7.4625 10.5085,7.6905 10.5085,7.9695 L10.5085,10.5045 C10.5085,10.7835 10.2795,11.0115 9.9995,11.0115 C9.7205,11.0115 9.4915,10.7835 9.4915,10.5045 L9.4915,7.9695 Z" id="upgrade-available-settings"></path>
        </g>
    </g>
</svg>
