<?xml version="1.0" encoding="UTF-8"?>
<svg width="20px" height="20px" viewBox="0 0 20 20" version="1.1" xmlns="http://www.w3.org/2000/svg" xmlns:xlink="http://www.w3.org/1999/xlink">
    <!-- Generator: Sketch 42 (36781) - http://www.bohemiancoding.com/sketch -->
    <title>hipchat/alert-round</title>
    <desc>Created with Sketch.</desc>
    <defs></defs>
    <g id="Symbols" stroke="none" stroke-width="1" fill="none" fill-rule="evenodd">
        <g fill="currentColor">
            <path d="M10,12 C10.368,12 10.6666667,12.2986667 10.6666667,12.6666667 C10.6666667,13.0346667 10.368,13.3333333 10,13.3333333 C9.632,13.3333333 9.33333333,13.0346667 9.33333333,12.6666667 C9.33333333,12.2986667 9.632,12 10,12 Z M9.33333333,7.33 C9.33333333,6.96333333 9.63333333,6.66333333 10,6.66333333 C10.3666667,6.66333333 10.6666667,6.96333333 10.6666667,7.33 L10.6666667,10.6633333 C10.6666667,11.03 10.3666667,11.33 10,11.33 C9.63333333,11.33 9.33333333,11.03 9.33333333,10.6633333 L9.33333333,7.33 Z M10,16 C13.3086667,16 16,13.3086667 16,10 C16,6.69133333 13.3086667,4 10,4 C6.69133333,4 4,6.69133333 4,10 C4,13.3086667 6.69133333,16 10,16 Z" id="alert-round"></path>
        </g>
    </g>
</svg>
