<?xml version="1.0" encoding="UTF-8" standalone="no"?>
<svg viewBox="0 0 145 40" version="1.1" xmlns="http://www.w3.org/2000/svg" xmlns:xlink="http://www.w3.org/1999/xlink">
    <!-- Generator: Sketch 42 (36781) - http://www.bohemiancoding.com/sketch -->
    <title>template</title>
    <desc>Created with Sketch.</desc>
    <defs></defs>
    <g id="Page-1" stroke="none" stroke-width="1" fill="none" fill-rule="evenodd">
        <g id="template" fill-rule="nonzero" fill="currentColor">
            <g id="logo_template" transform="translate(4.000000, 5.000000)">
                <g id="template">
                    <g id="Page-1">
                        <g id="template">
                            <g id="logo" transform="translate(0.300000, 0.000000)">
                                <g class="logo-type" transform="translate(27.280000, 7.200000)">
                                    <path d="M12.4868,0.80668 C12.41612,0.57604 12.2078,0.41856 11.9722,0.41856 L6.92788,0.41856 C6.69228,0.41856 6.48396,0.57604 6.41328,0.80668 L0.0496,21.5184 C-1.536965e-15,21.68704 0.02728,21.87056 0.1302,22.0144 C0.23188,22.15576 0.39308,22.24008 0.5642,22.24008 L4.0362,22.24008 C4.27676,22.24008 4.48756,22.07888 4.557,21.84328 L8.93792,6.60988 C8.93792,6.60988 9.052,6.2292 9.4488,6.2292 C9.85304,6.2292 9.951,6.626 9.951,6.626 L11.9846,13.84776 L9.2504,13.84776 C9.0086,13.84776 8.79532,14.01268 8.7296,14.252 L7.94592,17.11268 C7.90004,17.28008 7.93352,17.45988 8.03644,17.59628 C8.13812,17.73516 8.29684,17.817 8.46672,17.817 L13.11672,17.817 L14.34432,21.85072 C14.41252,22.08136 14.62208,22.24008 14.85892,22.24008 L18.33092,22.24008 C18.50452,22.24008 18.66572,22.15576 18.76864,22.01316 C18.87032,21.86932 18.89884,21.6858 18.848,21.51716 L12.4868,0.80668" id="Shape"></path>
                                    <path d="M27.6148,19.04832 C27.59,18.89332 27.50692,18.75568 27.3792,18.66888 C27.25272,18.58208 27.09772,18.5548 26.94892,18.592 C26.38596,18.73584 25.84532,18.8152 25.42868,18.8152 C24.6388,18.8152 24.28788,18.46428 24.28788,17.6744 L24.28788,9.7384 L27.38788,9.7384 C27.68548,9.7384 27.92728,9.4904 27.92728,9.18536 L27.92728,6.71032 C27.92728,6.40404 27.68548,6.15604 27.38664,6.15604 L24.28664,6.15604 L24.28664,2.3356 C24.28664,2.1744 24.21844,2.02188 24.10064,1.91648 C23.98284,1.81108 23.82536,1.76272 23.6716,1.78504 L20.47984,2.24136 C20.212,2.27856 20.0136,2.51416 20.0136,2.79068 L20.0136,6.15604 L18.27512,6.15604 C17.97752,6.15604 17.73448,6.40404 17.73448,6.71156 L17.73448,9.1866 C17.73448,9.49288 17.97628,9.74088 18.27512,9.74088 L20.0136,9.74088 L20.0136,18.19024 C20.0136,21.09184 21.49912,22.56248 24.428,22.56248 C25.26376,22.56248 26.67984,22.36408 27.60612,22.03548 C27.85164,21.94868 28.00292,21.692 27.96324,21.42788 L27.61604,19.0508" id="Shape"></path>
                                    <path d="M33.52464,0.01432 L30.3304,0.01432 C30.0328,0.01432 29.791,0.26232 29.791,0.56984 L29.791,21.68456 C29.791,21.99208 30.03404,22.24008 30.33164,22.24008 L33.52588,22.24008 C33.82348,22.24008 34.06528,21.99208 34.06528,21.68456 L34.06528,0.56984 C34.06528,0.26232 33.82472,0.01432 33.52712,0.01432" id="Shape"></path>
                                    <path d="M43.87492,16.34264 L43.87492,18.27208 C43.34544,18.561 42.38692,18.9764 41.23372,18.9764 C40.238,18.9764 39.93544,18.6664 39.93544,17.6434 C39.93544,16.6514 40.12144,16.3414 41.29572,16.3414 L43.87492,16.3414 L43.87492,16.34264 Z M41.7322,5.83488 C40.11648,5.83488 38.1486,6.09528 36.7226,6.502 C36.456,6.5764 36.2886,6.84548 36.33324,7.12448 L36.70772,9.5028 C36.73252,9.6516 36.81188,9.78304 36.93092,9.86984 C37.0512,9.95664 37.2,9.98764 37.34508,9.95912 C38.67188,9.69376 40.04208,9.54744 41.20148,9.54744 C43.50788,9.54744 43.87616,10.04716 43.87616,11.64924 L43.87616,13.04796 L40.45376,13.04796 C37.18388,13.04796 35.78764,14.4318 35.78764,17.67688 C35.78764,20.78184 37.3178,22.56248 39.98504,22.56248 C41.52884,22.56248 43.07264,22.12352 44.37216,21.31876 L44.50856,21.83336 C44.57304,22.07516 44.78632,22.24256 45.02936,22.24256 L47.60856,22.24256 C47.90616,22.24256 48.1492,21.99456 48.1492,21.68704 L48.1492,11.71744 C48.1492,7.43076 46.40948,5.83736 41.7322,5.83736 L41.7322,5.83488 Z" id="Shape"></path>
                                    <path d="M56.1472,12.28536 C54.16568,11.76084 54.16568,11.73976 54.16568,10.62376 C54.16568,9.8748 54.24008,9.5152 55.87068,9.5152 C56.98916,9.5152 58.63836,9.71608 59.69732,9.90208 C59.84364,9.92688 59.99244,9.88968 60.11148,9.8004 C60.22928,9.70988 60.3074,9.57348 60.32476,9.42344 L60.62484,6.92608 C60.65832,6.6446 60.481,6.38048 60.21068,6.31848 C58.98556,6.0246 57.2818,5.83488 55.87068,5.83488 C50.96028,5.83488 49.95588,7.73704 49.95588,10.59152 C49.95588,13.7312 50.52256,14.78644 54.28348,15.72512 C56.76348,16.33892 56.76348,16.79152 56.76348,17.54792 C56.76348,18.53744 56.67916,18.87968 55.05724,18.87968 C53.75152,18.87968 52.24244,18.67136 50.91192,18.3068 C50.76312,18.26712 50.60936,18.29192 50.48164,18.375 C50.35392,18.45684 50.26712,18.59076 50.23984,18.74328 L49.81824,21.11168 C49.76864,21.38696 49.92488,21.6548 50.1828,21.74036 C51.6336,22.22148 53.71308,22.55876 55.242,22.55876 C59.9974,22.55876 60.9708,20.51648 60.9708,17.44996 C60.9708,14.06476 60.38552,13.43608 56.14472,12.28412" id="Shape"></path>
                                    <path d="M68.48148,12.28536 C66.5012,11.76084 66.5012,11.73976 66.5012,10.62376 C66.5012,9.8748 66.57312,9.5152 68.20496,9.5152 C69.32344,9.5152 70.97264,9.71608 72.03284,9.90208 C72.17916,9.92688 72.33044,9.88968 72.447,9.8004 C72.56604,9.70988 72.64292,9.57348 72.66152,9.42344 L72.9616,6.92608 C72.99508,6.6446 72.81652,6.38048 72.54744,6.31848 C71.32232,6.0246 69.61732,5.83488 68.20496,5.83488 C63.29456,5.83488 62.29016,7.73704 62.29016,10.59152 C62.29016,13.7312 62.85808,14.78644 66.62148,15.72512 C69.09776,16.33892 69.09776,16.79152 69.09776,17.54792 C69.09776,18.53744 69.01592,18.87968 67.394,18.87968 C66.08828,18.87968 64.57672,18.67136 63.24744,18.3068 C63.10236,18.26712 62.94612,18.29192 62.81964,18.375 C62.69316,18.45684 62.60512,18.59076 62.57784,18.74328 L62.15624,21.11168 C62.10664,21.38696 62.26288,21.6548 62.5208,21.74036 C63.96912,22.22148 66.05108,22.55876 67.58,22.55876 C72.33416,22.55876 73.3088,20.51648 73.3088,17.44996 C73.3088,14.06476 72.72228,13.43608 68.48148,12.28412" id="Shape"></path>
                                    <path d="M78.8144,0.01432 L75.62016,0.01432 C75.32256,0.01432 75.07952,0.26232 75.07952,0.5686 L75.07952,3.464 C75.07952,3.77152 75.32256,4.01952 75.62016,4.01952 L78.81316,4.01952 C79.11076,4.01952 79.35256,3.77152 79.35256,3.46524 L79.35256,0.56984 C79.35256,0.26356 79.10952,0.01556 78.81192,0.01556" id="Shape"></path>
                                    <path d="M78.8144,6.1548 L75.62016,6.1548 C75.32256,6.1548 75.07952,6.4028 75.07952,6.71032 L75.07952,21.68456 C75.07952,21.99208 75.32256,22.24008 75.62016,22.24008 L78.81316,22.24008 C79.11076,22.24008 79.35256,21.99208 79.35256,21.68456 L79.35256,6.71032 C79.35256,6.40404 79.10952,6.15604 78.81192,6.15604" id="Shape"></path>
                                    <path d="M89.2428,16.34264 L89.2428,18.27208 C88.71456,18.561 87.7548,18.9764 86.6016,18.9764 C85.60712,18.9764 85.30332,18.6664 85.30332,17.6434 C85.30332,16.6514 85.4918,16.3414 86.66484,16.3414 L89.24404,16.3414 L89.2428,16.34264 Z M87.10132,5.83488 C85.4856,5.83488 83.51772,6.09528 82.09172,6.502 C81.82512,6.5764 81.65772,6.84548 81.70112,7.12448 L82.0756,9.5028 C82.1004,9.6516 82.17976,9.78304 82.2988,9.86984 C82.41908,9.95664 82.56788,9.98764 82.71172,9.95912 C84.03852,9.69376 85.40996,9.54744 86.5706,9.54744 C88.87452,9.54744 89.2428,10.04716 89.2428,11.64924 L89.2428,13.04796 L85.8204,13.04796 C82.55052,13.04796 81.15552,14.4318 81.15552,17.67688 C81.15552,20.78184 82.68568,22.56248 85.35292,22.56248 C86.89548,22.56248 88.44052,22.12352 89.74004,21.31876 L89.87644,21.83336 C89.94216,22.07516 90.15544,22.24256 90.39724,22.24256 L92.97644,22.24256 C93.27404,22.24256 93.51832,21.99456 93.51832,21.68704 L93.51832,11.71744 C93.51832,7.43076 91.7786,5.83736 87.10256,5.83736 L87.10132,5.83488 Z" id="Shape"></path>
                                    <path d="M105.32312,5.83488 C103.63176,5.83488 101.3266,6.4338 99.3798,7.37248 L99.14668,6.55408 C99.07972,6.31848 98.86768,6.15728 98.62836,6.15728 L96.26244,6.15728 C95.96484,6.15728 95.7218,6.40528 95.7218,6.71032 L95.7218,21.68456 C95.7218,21.99208 95.96484,22.24008 96.26244,22.24008 L99.45544,22.24008 C99.75304,22.24008 99.99608,21.99208 99.99608,21.68456 L99.99608,11.3132 C101.14556,10.71304 102.76128,10.09304 103.72848,10.09304 C104.44768,10.09304 104.71552,10.36584 104.71552,11.10488 L104.71552,21.68456 C104.71552,21.99208 104.95732,22.24008 105.25492,22.24008 L108.44792,22.24008 C108.74552,22.24008 108.98732,21.99208 108.98732,21.68456 L108.98732,10.68824 C108.98732,7.46796 107.75476,5.83488 105.32064,5.83488" id="Shape"></path>
                                </g>
                                <g class="logo-icon">
                                    <path d="M31.25544,0.3286 C31.11656,0.13764 30.89336,0.02232 30.66024,0.02232 C30.53996,0.02232 30.42216,0.05332 30.318,0.1116 C25.95692,2.56184 20.90144,3.8564 15.6984,3.85888 C10.49536,3.85888 5.44112,2.56184 1.0788,0.11408 C0.97588,0.05208 0.85808,0.02232 0.7378,0.02232 C0.50468,0.02232 0.28148,0.13764 0.1426,0.3286 C-0.06324,0.61008 -0.0682,1.08252 0.28148,1.364 C2.46388,3.03552 4.8732,4.34 7.43628,5.2328 C10.09484,6.15784 12.87492,6.6278 15.6984,6.62904 C18.52312,6.62904 21.3032,6.15784 23.96052,5.2328 C26.52484,4.34 28.93292,3.03552 31.11904,1.364 C31.46624,1.08252 31.46128,0.61008 31.25544,0.3286" id="Shape"></path>
                                    <path d="M15.70212,9.09664 C16.81812,9.09664 17.46292,9.02844 17.69108,9.02844 C17.96636,9.02844 18.22924,9.26156 18.22924,9.58644 C18.22924,9.67944 18.2094,9.74764 18.18708,9.80716 C18.03828,10.21264 17.36496,11.67212 16.11132,12.92452 C15.96996,13.06464 15.81124,13.09192 15.70212,13.09192 L15.69964,13.09192 C15.59052,13.09192 15.43056,13.06464 15.29044,12.92452 C14.03556,11.67212 13.361,10.21264 13.21344,9.80716 C13.19112,9.74764 13.17004,9.67944 13.17004,9.58396 C13.17004,9.26156 13.43292,9.02968 13.7082,9.02968 C13.93512,9.02968 14.5824,9.09912 15.69592,9.09912 L15.70336,9.09912" id="Shape"></path>
                                    <path d="M26.24336,7.30856 C26.1392,7.22672 26.0152,7.18456 25.88872,7.18456 C25.81804,7.18456 25.74736,7.19696 25.67792,7.22424 C24.4156,7.72024 23.1322,8.0972 21.9604,8.37744 C21.72232,8.43448 21.52888,8.61676 21.44828,8.83624 C20.59516,11.23564 18.41524,13.51972 16.12868,15.91416 C16.03692,16.00344 15.90796,16.12124 15.69964,16.12124 C15.49132,16.12124 15.36484,16.00964 15.2706,15.9154 C12.98404,13.5222 10.8066,11.24432 9.951,8.84492 C9.87164,8.62668 9.6782,8.4444 9.43888,8.38612 C8.26832,8.10712 6.9812,7.71652 5.71888,7.22052 C5.65192,7.19572 5.58248,7.18332 5.51056,7.18332 C5.38408,7.18332 5.26256,7.223 5.15716,7.30484 C4.99596,7.43132 4.91164,7.63716 4.93024,7.83432 C5.12368,9.83072 5.89248,11.78124 7.2788,13.82352 C8.5808,15.74552 10.28208,17.52616 11.92508,19.24604 C14.9544,22.41672 17.81508,25.41132 18.06556,28.88332 C18.08788,29.1958 18.34208,29.43884 18.64836,29.43884 L22.20716,29.43884 C22.36836,29.43884 22.51964,29.37064 22.63124,29.25284 C22.73912,29.13256 22.7974,28.9726 22.78996,28.80892 C22.67836,26.48764 21.82648,24.16264 20.18844,21.70372 C19.84496,21.18664 19.47668,20.68444 19.09228,20.1934 C18.93604,19.995 19.00052,19.747 19.1208,19.62052 L19.47544,19.24604 C21.11968,17.52616 22.81848,15.74676 24.12296,13.82476 C25.50928,11.78124 26.27684,9.84188 26.47028,7.84796 C26.49012,7.64584 26.40084,7.43256 26.24336,7.3098" id="Shape"></path>
                                    <path d="M11.88168,21.94552 C11.79736,21.85624 11.67336,21.76324 11.46628,21.76324 C11.20092,21.76324 11.04468,21.95296 10.98268,22.04596 C9.48724,24.38336 8.71348,26.58932 8.60684,28.80644 C8.60064,28.97012 8.65892,29.13256 8.76804,29.25284 C8.87964,29.37064 9.03464,29.43884 9.1946,29.43884 L12.7472,29.43884 C13.051,29.43884 13.30892,29.19332 13.33,28.88084 C13.40812,27.81196 13.733,26.7406 14.322,25.61592 C14.5266,25.22656 14.36788,24.85952 14.25008,24.70452 C13.6648,23.92332 12.94808,23.09004 11.88168,21.94676" id="Shape"></path>
                                </g>
                            </g>
                        </g>
                    </g>
                </g>
            </g>
        </g>
    </g>
</svg>
