<?xml version="1.0" encoding="UTF-8" standalone="no"?>
<svg viewBox="0 0 137 40" version="1.1" xmlns="http://www.w3.org/2000/svg" xmlns:xlink="http://www.w3.org/1999/xlink">
    <g id="Page-1" stroke="none" stroke-width="1" fill="none" fill-rule="evenodd">
        <g id="template" fill-rule="nonzero" fill="currentColor">
            <g id="logo_template" transform="translate(5.000000, 6.000000)">
                <g id="template">
                    <g id="Page-1">
                        <g id="template">
                            <g id="logo" transform="translate(0.280645, 0.000000)">
                                <g class="logo-icon">
                                    <path d="M29.23896,0.3074 C29.10904,0.12876 28.90024,0.02088 28.68216,0.02088 C28.56964,0.02088 28.45944,0.04988 28.362,0.1044 C24.28228,2.39656 19.55296,3.6076 14.6856,3.60992 C9.81824,3.60992 5.09008,2.39656 1.0092,0.10672 C0.91292,0.04872 0.80272,0.02088 0.6902,0.02088 C0.47212,0.02088 0.26332,0.12876 0.1334,0.3074 C-0.05916,0.57072 -0.0638,1.01268 0.26332,1.276 C2.30492,2.83968 4.5588,4.06 6.95652,4.8952 C9.44356,5.76056 12.04428,6.2002 14.6856,6.20136 C17.32808,6.20136 19.9288,5.76056 22.41468,4.8952 C24.81356,4.06 27.06628,2.83968 29.11136,1.276 C29.43616,1.01268 29.43152,0.57072 29.23896,0.3074" id="Shape"></path>
                                    <path d="M14.68908,8.50976 C15.73308,8.50976 16.33628,8.44596 16.54972,8.44596 C16.80724,8.44596 17.05316,8.66404 17.05316,8.96796 C17.05316,9.05496 17.0346,9.11876 17.01372,9.17444 C16.87452,9.55376 16.24464,10.91908 15.07188,12.09068 C14.93964,12.22176 14.79116,12.24728 14.68908,12.24728 L14.68676,12.24728 C14.58468,12.24728 14.43504,12.22176 14.30396,12.09068 C13.13004,10.91908 12.499,9.55376 12.36096,9.17444 C12.34008,9.11876 12.32036,9.05496 12.32036,8.96564 C12.32036,8.66404 12.56628,8.44712 12.8238,8.44712 C13.03608,8.44712 13.6416,8.51208 14.68328,8.51208 L14.69024,8.51208" id="Shape"></path>
                                    <path d="M24.55024,6.83704 C24.4528,6.76048 24.3368,6.72104 24.21848,6.72104 C24.15236,6.72104 24.08624,6.73264 24.02128,6.75816 C22.8404,7.22216 21.6398,7.5748 20.5436,7.83696 C20.32088,7.89032 20.13992,8.06084 20.06452,8.26616 C19.26644,10.51076 17.22716,12.64748 15.08812,14.88744 C15.00228,14.97096 14.88164,15.08116 14.68676,15.08116 C14.49188,15.08116 14.37356,14.97676 14.2854,14.8886 C12.14636,12.6498 10.1094,10.51888 9.309,8.27428 C9.23476,8.07012 9.0538,7.8996 8.82992,7.84508 C7.73488,7.58408 6.5308,7.21868 5.34992,6.75468 C5.28728,6.73148 5.22232,6.71988 5.15504,6.71988 C5.03672,6.71988 4.92304,6.757 4.82444,6.83356 C4.67364,6.95188 4.59476,7.14444 4.61216,7.32888 C4.79312,9.19648 5.51232,11.02116 6.8092,12.93168 C8.0272,14.72968 9.61872,16.39544 11.15572,18.00436 C13.9896,20.97048 16.66572,23.77188 16.90004,27.01988 C16.92092,27.3122 17.15872,27.53956 17.44524,27.53956 L20.77444,27.53956 C20.92524,27.53956 21.06676,27.47576 21.17116,27.36556 C21.27208,27.25304 21.3266,27.1034 21.31964,26.95028 C21.21524,24.77876 20.41832,22.60376 18.88596,20.30348 C18.56464,19.81976 18.22012,19.34996 17.86052,18.8906 C17.71436,18.705 17.77468,18.473 17.8872,18.35468 L18.21896,18.00436 C19.75712,16.39544 21.34632,14.73084 22.56664,12.93284 C23.86352,11.02116 24.58156,9.20692 24.76252,7.34164 C24.78108,7.15256 24.69756,6.95304 24.55024,6.8382" id="Shape"></path>
                                    <path d="M11.11512,20.52968 C11.03624,20.44616 10.92024,20.35916 10.72652,20.35916 C10.47828,20.35916 10.33212,20.53664 10.27412,20.62364 C8.87516,22.81024 8.15132,24.87388 8.05156,26.94796 C8.04576,27.10108 8.10028,27.25304 8.20236,27.36556 C8.30676,27.47576 8.45176,27.53956 8.6014,27.53956 L11.9248,27.53956 C12.209,27.53956 12.45028,27.30988 12.47,27.01756 C12.54308,26.01764 12.847,25.0154 13.398,23.96328 C13.5894,23.59904 13.44092,23.25568 13.33072,23.11068 C12.7832,22.37988 12.11272,21.60036 11.11512,20.53084" id="Shape"></path>
                                </g>
                            </g>
                        </g>
                    </g>
                </g>
            </g>
        </g>
    </g>
</svg>
