<?xml version="1.0" encoding="UTF-8" standalone="no"?>
<svg viewBox="0 0 194 40" version="1.1" xmlns="http://www.w3.org/2000/svg" xmlns:xlink="http://www.w3.org/1999/xlink">
    <!-- Generator: Sketch 42 (36781) - http://www.bohemiancoding.com/sketch -->
    <title>template</title>
    <desc>Created with Sketch.</desc>
    <defs></defs>
    <g id="Page-1" stroke="none" stroke-width="1" fill="none" fill-rule="evenodd">
        <g id="template" fill-rule="nonzero" fill="currentColor">
            <g id="bitbucket_rgb_blue" transform="translate(6.000000, 5.000000)">
                <g id="bitbucket" transform="translate(0.484375, 0.000000)">
                    <g id="Group">
                        <g class="logo-type" transform="translate(33.469128, 1.746479)">
                            <path d="M53.9392785,7.37887324 C51.9527238,7.37887324 49.9445761,7.88098592 48.562625,8.38309859 L48.562625,0.851408451 C48.562625,0.48028169 48.2603232,0.174647887 47.8716495,0.174647887 L43.8553541,0.174647887 C43.4882734,0.174647887 43.1859716,0.48028169 43.1859716,0.851408451 L43.1859716,26.8302817 C43.1859716,27.1577465 43.4234944,27.4415493 43.7473892,27.5070423 C46.2305826,27.965493 49.1456356,28.1183099 50.9162605,28.1183099 C58.4738055,28.1183099 60.0069075,24.865493 60.0069075,19.9971831 L60.0069075,14.3211268 C60.0069075,9.69295775 57.9771668,7.37887324 53.9392785,7.37887324 Z M51.1537833,23.4028169 C50.138913,23.4028169 49.2967865,23.3591549 48.584218,23.271831 L48.584218,13.0985915 C49.6854603,12.5964789 51.2401553,12.0943662 52.4925484,12.0943662 C54.0256504,12.0943662 54.630254,12.7056338 54.630254,14.1901408 L54.630254,20.15 C54.630254,22.2894366 54.0904294,23.4028169 51.1537833,23.4028169 Z" id="Shape"></path>
                            <path d="M78.5120963,7.77183099 L74.495801,7.77183099 C74.1287202,7.77183099 73.8264184,8.07746479 73.8264184,8.44859155 L73.8264184,21.3070423 C72.3796883,22.0492958 70.3283547,22.8133803 69.1191475,22.8133803 C68.2122421,22.8133803 67.8883473,22.4859155 67.8883473,21.5690141 L67.8883473,8.44859155 C67.8883473,8.07746479 67.5860455,7.77183099 67.1973718,7.77183099 L63.1810764,7.77183099 C62.7924027,7.77183099 62.4901009,8.07746479 62.4901009,8.44859155 L62.4901009,22.0929577 C62.4901009,26.0880282 64.0447958,28.1183099 67.1109998,28.1183099 C69.2487054,28.1183099 72.1421655,27.3760563 74.6037659,26.2190141 L74.9060677,27.2232394 C74.9924396,27.5070423 75.2515555,27.7253521 75.5538573,27.7253521 L78.5336893,27.7253521 C78.9007701,27.7253521 79.2246648,27.4197183 79.2246648,27.0485915 L79.2246648,8.44859155 C79.2030719,8.07746479 78.9007701,7.77183099 78.5120963,7.77183099 Z" id="Shape"></path>
                            <path d="M94.7068356,23.5119718 C94.6852427,23.315493 94.5772777,23.1626761 94.4261268,23.0535211 C94.2749759,22.9443662 94.0806391,22.9007042 93.8863022,22.9443662 C92.7418739,23.206338 91.5326667,23.3591549 90.3882385,23.3591549 C87.8402662,23.3591549 87.1061047,22.7042254 87.1061047,20.4338028 L87.1061047,15.0633803 C87.1061047,12.7929577 87.8402662,12.1380282 90.3882385,12.1380282 C90.9928421,12.1380282 92.5043511,12.2253521 93.8863022,12.5528169 C94.0806391,12.5964789 94.2749759,12.5528169 94.4261268,12.443662 C94.5772777,12.334507 94.6852427,12.1598592 94.7068356,11.9852113 L95.1818813,8.77605634 C95.2250673,8.42676056 95.0307304,8.12112676 94.7068356,8.01197183 C93.1521407,7.55352113 91.3383299,7.37887324 90.2802736,7.37887324 C84.2126446,7.37887324 81.7294512,9.6056338 81.7294512,15.1070423 L81.7294512,20.3901408 C81.7294512,25.8697183 84.2126446,28.1183099 90.2802736,28.1183099 C91.7485966,28.1183099 93.4544425,27.878169 94.7068356,27.4852113 C95.0307304,27.3978873 95.2250673,27.0704225 95.1818813,26.7211268 L94.7068356,23.5119718 Z" id="Shape"></path>
                            <path d="M122.389043,7.37887324 C116.990797,7.37887324 114.162116,10.0859155 114.162116,15.2161972 L114.162116,20.3464789 C114.162116,25.6514085 116.839646,28.1183099 122.561787,28.1183099 C124.89383,28.1183099 127.377023,27.7035211 129.385171,26.9830986 C129.709066,26.8739437 129.903402,26.5246479 129.817031,26.1971831 L129.212427,23.293662 C129.169241,23.0971831 129.061276,22.9443662 128.888532,22.8352113 C128.715788,22.7260563 128.521451,22.7042254 128.348707,22.7697183 C126.491711,23.293662 124.742679,23.5556338 122.972054,23.5556338 C120.035408,23.5556338 119.517176,22.5950704 119.517176,20.5866197 L119.517176,19.8880282 L129.493136,19.8880282 C129.881809,19.8880282 130.162518,19.5823944 130.162518,19.1894366 L130.162518,15.456338 C130.184111,9.93309859 127.722511,7.37887324 122.389043,7.37887324 Z M119.538769,15.3908451 L119.538769,14.7359155 C119.538769,12.8147887 120.467268,11.9197183 122.432229,11.9197183 C124.613121,11.9197183 125.044981,12.9894366 125.044981,14.7359155 L125.044981,15.3908451 L119.538769,15.3908451 Z" id="Shape"></path>
                            <path d="M25.7172461,7.75 L21.7009507,7.75 C21.33387,7.75 21.0099752,8.0556338 21.0099752,8.42676056 L21.0099752,27.0049296 C21.0099752,27.3760563 21.312277,27.7035211 21.7009507,27.7035211 L25.7172461,27.7035211 C26.1059198,27.7035211 26.4082216,27.3978873 26.4082216,27.0049296 L26.4082216,8.44859155 C26.3866286,8.07746479 26.0843268,7.75 25.7172461,7.75 Z" id="Shape"></path>
                            <path d="M25.7172461,0.152816901 L21.7009507,0.152816901 C21.33387,0.152816901 21.0099752,0.458450704 21.0099752,0.851408451 L21.0099752,4.3443662 C21.0099752,4.73732394 21.312277,5.04295775 21.7009507,5.04295775 L25.7172461,5.04295775 C26.1059198,5.04295775 26.4082216,4.73732394 26.4082216,4.3443662 L26.4082216,0.851408451 C26.3866286,0.458450704 26.0843268,0.152816901 25.7172461,0.152816901 Z" id="Shape"></path>
                            <path d="M15.5901357,13.5570423 C17.2527956,12.6401408 17.9869572,11.3302817 17.9869572,9.34366197 L17.9869572,6.59295775 C17.9869572,2.59788732 15.6117287,0.654929577 10.7317139,0.654929577 L0.82053346,0.654929577 C0.453452701,0.654929577 0.1511509,0.96056338 0.1511509,1.33169014 L0.1511509,27.0049296 C0.1511509,27.3760563 0.453452701,27.7035211 0.82053346,27.7035211 L11.4442825,27.7035211 C16.1731464,27.7035211 18.8938626,25.3894366 18.8938626,21.3288732 L18.8938626,18.5126761 C18.8938626,16.0894366 17.6630624,14.2992958 15.5901357,13.5570423 Z M5.67895526,5.37042254 L10.1487033,5.37042254 C12.178444,5.37042254 12.4591528,6.26549296 12.4591528,7.22605634 L12.4591528,9.56197183 C12.4591528,11.0901408 11.7465843,11.7232394 10.1055173,11.7232394 L9.13383299,11.7232394 C8.74515924,11.7232394 8.44285744,12.0288732 8.44285744,12.421831 L8.44285744,15.6528169 C8.44285744,16.0457746 8.74515924,16.3514085 9.13383299,16.3514085 L10.8828648,16.3514085 C12.6318967,16.3514085 13.3444652,17.028169 13.3444652,18.7091549 L13.3444652,20.6957746 C13.3444652,22.3985915 12.6103037,22.9880282 10.4510051,22.9880282 L5.67895526,22.9880282 L5.67895526,5.37042254 L5.67895526,5.37042254 Z" id="Shape"></path>
                            <path d="M40.8107431,23.7521127 C40.7891501,23.5556338 40.6811852,23.3809859 40.5300343,23.271831 C40.3788834,23.1626761 40.1629536,23.1190141 39.9902097,23.184507 C39.2776411,23.3591549 38.6082586,23.4683099 38.0684339,23.4683099 C37.0751566,23.4683099 36.6432969,23.0316901 36.6432969,22.0492958 L36.6432969,12.2253521 L40.5516273,12.2253521 C40.9187081,12.2253521 41.2210099,11.9197183 41.2210099,11.5267606 L41.2210099,8.44859155 C41.2210099,8.07746479 40.9187081,7.77183099 40.5516273,7.77183099 L36.6432969,7.77183099 L36.6432969,3.03450704 C36.6432969,2.83802817 36.5569249,2.6415493 36.405774,2.51056338 C36.2546231,2.37957746 36.0602863,2.31408451 35.8659494,2.35774648 L31.849654,2.92535211 C31.5041663,2.96901408 31.2666434,3.27464789 31.2666434,3.60211268 L31.2666434,7.77183099 L29.0857519,7.77183099 C28.7186711,7.77183099 28.3947763,8.07746479 28.3947763,8.44859155 L28.3947763,11.5267606 C28.3947763,11.8978873 28.6970781,12.2253521 29.0857519,12.2253521 L31.2666434,12.2253521 L31.2666434,22.7042254 C31.2666434,26.306338 33.1236402,28.1183099 36.8160408,28.1183099 C37.8740971,28.1183099 39.6447219,27.878169 40.8107431,27.4633803 C41.1346379,27.3542254 41.3073818,27.0485915 41.2641958,26.6992958 L40.8107431,23.7521127 Z" id="Shape"></path>
                            <path d="M143.442205,23.7521127 C143.420612,23.5556338 143.312647,23.3809859 143.139903,23.271831 C142.988752,23.1626761 142.772822,23.1190141 142.600078,23.184507 C141.88751,23.3591549 141.218127,23.4683099 140.678302,23.4683099 C139.685025,23.4683099 139.231572,23.0316901 139.231572,22.0492958 L139.231572,12.2253521 L143.139903,12.2253521 C143.528577,12.2253521 143.809285,11.9197183 143.809285,11.5485915 L143.809285,8.44859155 C143.809285,8.07746479 143.506984,7.77183099 143.139903,7.77183099 L139.231572,7.77183099 L139.231572,3.03450704 C139.231572,2.83802817 139.1452,2.6415493 138.994049,2.51056338 C138.842899,2.37957746 138.648562,2.31408451 138.454225,2.35774648 L134.437929,2.92535211 C134.092442,2.96901408 133.854919,3.27464789 133.854919,3.60211268 L133.854919,7.77183099 L131.674027,7.77183099 C131.306947,7.77183099 131.004645,8.07746479 131.004645,8.44859155 L131.004645,11.5267606 C131.004645,11.8978873 131.306947,12.2035211 131.674027,12.2035211 L133.854919,12.2035211 L133.854919,22.6823944 C133.854919,26.284507 135.733509,28.0964789 139.404316,28.0964789 C140.462373,28.0964789 142.232997,27.856338 143.399019,27.4415493 C143.70132,27.3323944 143.895657,27.0267606 143.852471,26.6774648 L143.442205,23.7521127 Z" id="Shape"></path>
                            <path d="M113.535919,26.5683099 L108.159266,17.5957746 L113.341582,8.77605634 C113.47114,8.55774648 113.47114,8.29577465 113.341582,8.07746479 C113.212024,7.85915493 112.996095,7.72816901 112.758572,7.72816901 L108.310417,7.72816901 C108.072894,7.72816901 107.835371,7.85915493 107.727406,8.07746479 L102.804205,16.7225352 L102.804205,0.851408451 C102.804205,0.48028169 102.501904,0.152816901 102.11323,0.152816901 L98.0969344,0.152816901 C97.7298537,0.152816901 97.4059589,0.458450704 97.4059589,0.851408451 L97.4059589,27.0267606 C97.4059589,27.3978873 97.7082607,27.7035211 98.0969344,27.7035211 L102.11323,27.7035211 C102.480311,27.7035211 102.804205,27.3978873 102.804205,27.0267606 L102.804205,18.4690141 L108.051301,27.3542254 C108.180859,27.5725352 108.396789,27.6816901 108.634311,27.6816901 L112.996095,27.6816901 L112.996095,27.6816901 C113.363175,27.6816901 113.68707,27.3760563 113.68707,27.0049296 C113.665477,26.8302817 113.622291,26.6774648 113.535919,26.5683099 Z" id="Shape"></path>
                        </g>
                        <g class="logo-icon">
                            <path d="M13.2149073,0.0436619718 L13.2149073,0.0436619718 L13.2149073,0.0436619718 C5.93807109,0.0436619718 0,2.03028169 0,4.47535211 C0,5.13028169 1.57628796,14.3866197 2.22407754,18.0760563 C2.50478635,19.7352113 6.71541858,22.1366197 13.2149073,22.1366197 L13.2149073,22.1147887 L13.2149073,22.1366197 C19.714396,22.1366197 23.9250282,19.7133803 24.2057371,18.0760563 C24.8319337,14.4084507 26.4298146,5.13028169 26.4298146,4.47535211 C26.4082216,2.03028169 20.4701505,0.0436619718 13.2149073,0.0436619718 Z M13.2149073,19.1676056 C10.9044578,19.1676056 9.02586806,17.2683099 9.02586806,14.9323944 C9.02586806,12.5964789 10.9044578,10.6971831 13.2149073,10.6971831 C15.5253568,10.6971831 17.4039465,12.5964789 17.4039465,14.9323944 C17.4039465,17.2683099 15.5253568,19.1676056 13.2149073,19.1676056 Z M13.2149073,5.85070423 C8.55082237,5.85070423 4.75045687,5.02112676 4.75045687,4.01690141 C4.75045687,3.01267606 8.55082237,2.20492958 13.2149073,2.20492958 C17.8789922,2.20492958 21.6793577,3.03450704 21.6793577,4.03873239 C21.6577647,5.04295775 17.8789922,5.85070423 13.2149073,5.85070423 Z" id="Shape"></path>
                            <path d="M22.6942281,21.765493 C22.4998912,21.765493 22.3271473,21.9183099 22.3271473,21.9183099 C22.3271473,21.9183099 19.0666064,24.5161972 13.1933143,24.5161972 C7.32002218,24.5161972 4.05948133,21.9183099 4.05948133,21.9183099 C4.05948133,21.9183099 3.90833043,21.765493 3.69240057,21.765493 C3.45487773,21.765493 3.21735488,21.9183099 3.21735488,22.2894366 L3.21735488,22.3985915 C3.71399355,25.1274648 4.08107431,27.0704225 4.14585327,27.3542254 C4.57771299,29.3626761 8.46445043,30.8908451 13.1501283,30.8908451 L13.1501283,30.8908451 L13.1501283,30.8908451 L13.1501283,30.8908451 L13.1501283,30.8908451 C17.8358063,30.8908451 21.7225437,29.384507 22.1544034,27.3542254 C22.2191824,27.0485915 22.5862631,25.1274648 23.0829018,22.3985915 L23.0829018,22.2894366 C23.1692737,21.9183099 22.9317509,21.765493 22.6942281,21.765493 Z" id="Shape"></path>
                            <ellipse id="Oval" cx="13.2149073" cy="14.9105634" rx="2.09451962" ry="2.11760563"></ellipse>
                        </g>
                    </g>
                </g>
            </g>
        </g>
    </g>
</svg>
