<?xml version="1.0" encoding="UTF-8" standalone="no"?>
<svg viewBox="0 0 180 40" version="1.1" xmlns="http://www.w3.org/2000/svg" xmlns:xlink="http://www.w3.org/1999/xlink">
    <!-- Generator: Sketch 42 (36781) - http://www.bohemiancoding.com/sketch -->
    <title>template</title>
    <desc>Created with Sketch.</desc>
    <defs></defs>
    <g id="Page-1" stroke="none" stroke-width="1" fill="none" fill-rule="evenodd">
        <g id="template" fill-rule="nonzero" fill="currentColor">
            <g id="bitbucket_rgb_blue" transform="translate(7.000000, 5.000000)">
                <g id="bitbucket">
                    <g id="Group">
                        <g class="logo-type" transform="translate(32.389479, 1.690141)">
                            <path d="M52.1993018,7.14084507 C50.2768295,7.14084507 48.3334608,7.62676056 46.9960887,8.11267606 L46.9960887,0.823943662 C46.9960887,0.464788732 46.7035386,0.169014085 46.3274027,0.169014085 L42.4406653,0.169014085 C42.0854258,0.169014085 41.7928757,0.464788732 41.7928757,0.823943662 L41.7928757,25.9647887 C41.7928757,26.2816901 42.0227365,26.556338 42.3361831,26.6197183 C44.7392734,27.0633803 47.5602926,27.2112676 49.2738005,27.2112676 C56.5875537,27.2112676 58.0712008,24.0633803 58.0712008,19.3521127 L58.0712008,13.8591549 C58.0712008,9.38028169 56.1069356,7.14084507 52.1993018,7.14084507 Z M49.5036613,22.6478873 C48.5215287,22.6478873 47.7065676,22.6056338 47.0169852,22.5211268 L47.0169852,12.6760563 C48.0827035,12.1901408 49.587247,11.7042254 50.7992404,11.7042254 C52.2828875,11.7042254 52.8679878,12.2957746 52.8679878,13.7323944 L52.8679878,19.5 C52.8679878,21.5704225 52.3455768,22.6478873 49.5036613,22.6478873 Z" id="Shape"></path>
                            <path d="M75.979448,7.52112676 L72.0927106,7.52112676 C71.7374712,7.52112676 71.444921,7.81690141 71.444921,8.17605634 L71.444921,20.6197183 C70.0448597,21.3380282 68.0596981,22.0774648 66.8894976,22.0774648 C66.0118472,22.0774648 65.6984006,21.7605634 65.6984006,20.8732394 L65.6984006,8.17605634 C65.6984006,7.81690141 65.4058505,7.52112676 65.0297146,7.52112676 L61.1429772,7.52112676 C60.7668413,7.52112676 60.4742912,7.81690141 60.4742912,8.17605634 L60.4742912,21.3802817 C60.4742912,25.2464789 61.9788347,27.2112676 64.9461289,27.2112676 C67.0148762,27.2112676 69.8149989,26.4929577 72.1971928,25.3732394 L72.4897429,26.3450704 C72.5733287,26.6197183 72.8240859,26.8309859 73.1166361,26.8309859 L76.0003445,26.8309859 C76.3555839,26.8309859 76.6690305,26.5352113 76.6690305,26.1760563 L76.6690305,8.17605634 C76.6481341,7.81690141 76.3555839,7.52112676 75.979448,7.52112676 Z" id="Shape"></path>
                            <path d="M91.6517764,22.7535211 C91.63088,22.5633803 91.5263978,22.415493 91.3801227,22.3098592 C91.2338477,22.2042254 91.0457797,22.1619718 90.8577118,22.2042254 C89.7502006,22.4577465 88.5800001,22.6056338 87.4724889,22.6056338 C85.0067092,22.6056338 84.2962303,21.971831 84.2962303,19.7746479 L84.2962303,14.5774648 C84.2962303,12.3802817 85.0067092,11.7464789 87.4724889,11.7464789 C88.0575891,11.7464789 89.5203398,11.8309859 90.8577118,12.1478873 C91.0457797,12.1901408 91.2338477,12.1478873 91.3801227,12.0422535 C91.5263978,11.9366197 91.63088,11.7676056 91.6517764,11.5985915 L92.1114981,8.49295775 C92.1532909,8.15492958 91.965223,7.85915493 91.6517764,7.75352113 C90.1472329,7.30985915 88.3919321,7.14084507 87.3680067,7.14084507 C81.4961076,7.14084507 79.0930173,9.29577465 79.0930173,14.6197183 L79.0930173,19.7323944 C79.0930173,25.0352113 81.4961076,27.2112676 87.3680067,27.2112676 C88.7889644,27.2112676 90.439783,26.9788732 91.6517764,26.5985915 C91.965223,26.5140845 92.1532909,26.1971831 92.1114981,25.8591549 L91.6517764,22.7535211 Z" id="Shape"></path>
                            <path d="M118.44101,7.14084507 C113.2169,7.14084507 110.479467,9.76056338 110.479467,14.7253521 L110.479467,19.6901408 C110.479467,24.8239437 113.070625,27.2112676 118.608181,27.2112676 C120.864997,27.2112676 123.268087,26.8098592 125.211456,26.1126761 C125.524902,26.0070423 125.71297,25.6690141 125.629384,25.3521127 L125.044284,22.5422535 C125.002491,22.3521127 124.898009,22.2042254 124.730838,22.0985915 C124.563666,21.9929577 124.375598,21.971831 124.208427,22.0352113 C122.411333,22.5422535 120.718721,22.7957746 119.005214,22.7957746 C116.163298,22.7957746 115.661784,21.8661972 115.661784,19.9225352 L115.661784,19.2464789 L125.315938,19.2464789 C125.692074,19.2464789 125.963727,18.9507042 125.963727,18.5704225 L125.963727,14.9577465 C125.984624,9.61267606 123.60243,7.14084507 118.44101,7.14084507 Z M115.68268,14.8943662 L115.68268,14.2605634 C115.68268,12.4014085 116.581227,11.5352113 118.482803,11.5352113 C120.593343,11.5352113 121.011272,12.5704225 121.011272,14.2605634 L121.011272,14.8943662 L115.68268,14.8943662 Z" id="Shape"></path>
                            <path d="M24.8876575,7.5 L21.00092,7.5 C20.6456806,7.5 20.332234,7.79577465 20.332234,8.15492958 L20.332234,26.1338028 C20.332234,26.4929577 20.6247842,26.8098592 21.00092,26.8098592 L24.8876575,26.8098592 C25.2637934,26.8098592 25.5563435,26.5140845 25.5563435,26.1338028 L25.5563435,8.17605634 C25.5354471,7.81690141 25.2428969,7.5 24.8876575,7.5 Z" id="Shape"></path>
                            <path d="M24.8876575,0.147887324 L21.00092,0.147887324 C20.6456806,0.147887324 20.332234,0.443661972 20.332234,0.823943662 L20.332234,4.20422535 C20.332234,4.58450704 20.6247842,4.88028169 21.00092,4.88028169 L24.8876575,4.88028169 C25.2637934,4.88028169 25.5563435,4.58450704 25.5563435,4.20422535 L25.5563435,0.823943662 C25.5354471,0.443661972 25.2428969,0.147887324 24.8876575,0.147887324 Z" id="Shape"></path>
                            <path d="M15.0872281,13.1197183 C16.6962538,12.2323944 17.4067327,10.9647887 17.4067327,9.04225352 L17.4067327,6.38028169 C17.4067327,2.51408451 15.1081246,0.633802817 10.3855296,0.633802817 L0.794064639,0.633802817 C0.438825195,0.633802817 0.146275065,0.929577465 0.146275065,1.28873239 L0.146275065,26.1338028 C0.146275065,26.4929577 0.438825195,26.8098592 0.794064639,26.8098592 L11.0751121,26.8098592 C15.651432,26.8098592 18.2843831,24.5704225 18.2843831,20.6408451 L18.2843831,17.915493 C18.2843831,15.5704225 17.0932862,13.8380282 15.0872281,13.1197183 Z M5.49576316,5.1971831 L9.82132579,5.1971831 C11.785591,5.1971831 12.0572446,6.06338028 12.0572446,6.99295775 L12.0572446,9.25352113 C12.0572446,10.7323944 11.3676622,11.3450704 9.77953292,11.3450704 L8.83919321,11.3450704 C8.46305733,11.3450704 8.1705072,11.6408451 8.1705072,12.0211268 L8.1705072,15.1478873 C8.1705072,15.528169 8.46305733,15.8239437 8.83919321,15.8239437 L10.5318047,15.8239437 C12.2244161,15.8239437 12.9139986,16.4788732 12.9139986,18.1056338 L12.9139986,20.028169 C12.9139986,21.6760563 12.2035197,22.2464789 10.1138759,22.2464789 L5.49576316,22.2464789 L5.49576316,5.1971831 L5.49576316,5.1971831 Z" id="Shape"></path>
                            <path d="M39.4942675,22.9859155 C39.4733711,22.7957746 39.3688889,22.6267606 39.2226139,22.5211268 C39.0763388,22.415493 38.8673744,22.3732394 38.7002029,22.4366197 C38.0106205,22.6056338 37.3628309,22.7112676 36.8404199,22.7112676 C35.8791838,22.7112676 35.461255,22.2887324 35.461255,21.3380282 L35.461255,11.8309859 L39.2435103,11.8309859 C39.5987497,11.8309859 39.8912999,11.5352113 39.8912999,11.1549296 L39.8912999,8.17605634 C39.8912999,7.81690141 39.5987497,7.52112676 39.2435103,7.52112676 L35.461255,7.52112676 L35.461255,2.93661972 C35.461255,2.74647887 35.3776693,2.55633803 35.2313942,2.42957746 C35.0851192,2.3028169 34.8970512,2.23943662 34.7089833,2.28169014 L30.8222458,2.83098592 C30.4879028,2.87323944 30.258042,3.16901408 30.258042,3.48591549 L30.258042,7.52112676 L28.1475018,7.52112676 C27.7922623,7.52112676 27.4788158,7.81690141 27.4788158,8.17605634 L27.4788158,11.1549296 C27.4788158,11.5140845 27.7713659,11.8309859 28.1475018,11.8309859 L30.258042,11.8309859 L30.258042,21.971831 C30.258042,25.4577465 32.0551357,27.2112676 35.6284265,27.2112676 C36.652352,27.2112676 38.3658599,26.9788732 39.4942675,26.5774648 C39.8077141,26.471831 39.9748856,26.1760563 39.9330927,25.8380282 L39.4942675,22.9859155 Z" id="Shape"></path>
                            <path d="M138.815037,22.9859155 C138.79414,22.7957746 138.689658,22.6267606 138.522487,22.5211268 C138.376211,22.415493 138.167247,22.3732394 138.000076,22.4366197 C137.310493,22.6056338 136.662704,22.7112676 136.140293,22.7112676 C135.179056,22.7112676 134.740231,22.2887324 134.740231,21.3380282 L134.740231,11.8309859 L138.522487,11.8309859 C138.898622,11.8309859 139.170276,11.5352113 139.170276,11.1760563 L139.170276,8.17605634 C139.170276,7.81690141 138.877726,7.52112676 138.522487,7.52112676 L134.740231,7.52112676 L134.740231,2.93661972 C134.740231,2.74647887 134.656646,2.55633803 134.51037,2.42957746 C134.364095,2.3028169 134.176027,2.23943662 133.98796,2.28169014 L130.101222,2.83098592 C129.766879,2.87323944 129.537018,3.16901408 129.537018,3.48591549 L129.537018,7.52112676 L127.426478,7.52112676 C127.071239,7.52112676 126.778688,7.81690141 126.778688,8.17605634 L126.778688,11.1549296 C126.778688,11.5140845 127.071239,11.8098592 127.426478,11.8098592 L129.537018,11.8098592 L129.537018,21.9507042 C129.537018,25.4366197 131.355008,27.1901408 134.907403,27.1901408 C135.931328,27.1901408 137.644836,26.9577465 138.773244,26.556338 C139.065794,26.4507042 139.253862,26.1549296 139.212069,25.8169014 L138.815037,22.9859155 Z" id="Shape"></path>
                            <path d="M109.87347,25.7112676 L104.670257,17.028169 L109.685402,8.49295775 C109.810781,8.28169014 109.810781,8.02816901 109.685402,7.81690141 C109.560024,7.6056338 109.351059,7.47887324 109.121198,7.47887324 L104.816532,7.47887324 C104.586671,7.47887324 104.356811,7.6056338 104.252328,7.81690141 L99.4879406,16.1830986 L99.4879406,0.823943662 C99.4879406,0.464788732 99.1953905,0.147887324 98.8192546,0.147887324 L94.9325172,0.147887324 C94.5772777,0.147887324 94.2638312,0.443661972 94.2638312,0.823943662 L94.2638312,26.1549296 C94.2638312,26.5140845 94.5563813,26.8098592 94.9325172,26.8098592 L98.8192546,26.8098592 C99.1744941,26.8098592 99.4879406,26.5140845 99.4879406,26.1549296 L99.4879406,17.8732394 L104.565775,26.471831 C104.691154,26.6830986 104.900118,26.7887324 105.129979,26.7887324 L109.351059,26.7887324 L109.351059,26.7887324 C109.706299,26.7887324 110.019745,26.4929577 110.019745,26.1338028 C109.998849,25.9647887 109.957056,25.8169014 109.87347,25.7112676 Z" id="Shape"></path>
                        </g>
                        <g class="logo-icon">
                            <path d="M12.78862,0.0422535211 L12.78862,0.0422535211 L12.78862,0.0422535211 C5.74652041,0.0422535211 0,1.96478873 0,4.33098592 C0,4.96478873 1.52543996,13.9225352 2.1523331,17.4929577 C2.42398679,19.0985915 6.49879217,21.4225352 12.78862,21.4225352 L12.78862,21.4014085 L12.78862,21.4225352 C19.0784478,21.4225352 23.1532531,19.0774648 23.4249068,17.4929577 C24.0309035,13.943662 25.5772399,4.96478873 25.5772399,4.33098592 C25.5563435,1.96478873 19.8098231,0.0422535211 12.78862,0.0422535211 Z M12.78862,18.5492958 C10.5527011,18.5492958 8.73471102,16.7112676 8.73471102,14.4507042 C8.73471102,12.1901408 10.5527011,10.3521127 12.78862,10.3521127 C15.0245388,10.3521127 16.8425289,12.1901408 16.8425289,14.4507042 C16.8425289,16.7112676 15.0245388,18.5492958 12.78862,18.5492958 Z M12.78862,5.66197183 C8.27498939,5.66197183 4.59721633,4.85915493 4.59721633,3.88732394 C4.59721633,2.91549296 8.27498939,2.13380282 12.78862,2.13380282 C17.3022505,2.13380282 20.9800236,2.93661972 20.9800236,3.9084507 C20.9591272,4.88028169 17.3022505,5.66197183 12.78862,5.66197183 Z" id="Shape"></path>
                            <path d="M21.9621562,21.0633803 C21.7740882,21.0633803 21.6069167,21.2112676 21.6069167,21.2112676 C21.6069167,21.2112676 18.4515546,23.7253521 12.7677235,23.7253521 C7.08389243,23.7253521 3.92853032,21.2112676 3.92853032,21.2112676 C3.92853032,21.2112676 3.78225525,21.0633803 3.57329087,21.0633803 C3.34343006,21.0633803 3.11356924,21.2112676 3.11356924,21.5704225 L3.11356924,21.6760563 C3.59418731,24.3169014 3.94942675,26.1971831 4.01211607,26.471831 C4.43004483,28.415493 8.19140364,29.8943662 12.7259307,29.8943662 L12.7259307,29.8943662 L12.7259307,29.8943662 L12.7259307,29.8943662 L12.7259307,29.8943662 C17.2604577,29.8943662 21.0218165,28.4366197 21.4397452,26.471831 C21.5024346,26.1760563 21.857674,24.3169014 22.3382921,21.6760563 L22.3382921,21.5704225 C22.4218778,21.2112676 22.192017,21.0633803 21.9621562,21.0633803 Z" id="Shape"></path>
                            <ellipse id="Oval" cx="12.78862" cy="14.4295775" rx="2.02695447" ry="2.04929577"></ellipse>
                        </g>
                    </g>
                </g>
            </g>
        </g>
    </g>
</svg>
