<?xml version="1.0" encoding="UTF-8" standalone="no"?>
<svg viewBox="0 0 178 40" version="1.1" xmlns="http://www.w3.org/2000/svg" xmlns:xlink="http://www.w3.org/1999/xlink">
    <g id="Page-1" stroke="none" stroke-width="1" fill="none" fill-rule="evenodd">
        <g id="template" fill-rule="nonzero" fill="currentColor">
            <g id="bitbucket_rgb_blue" transform="translate(7.000000, 5.000000)">
                <g id="bitbucket">
                    <g id="Group">
                        <g class="logo-icon">
                            <path d="M12.3623326,0.0408450704 L12.3623326,0.0408450704 L12.3623326,0.0408450704 C5.55496973,0.0408450704 0,1.89929577 0,4.18661972 C0,4.79929577 1.47459196,13.4584507 2.08058866,16.9098592 C2.34318723,18.4619718 6.28216577,20.7084507 12.3623326,20.7084507 L12.3623326,20.6880282 L12.3623326,20.7084507 C18.4424995,20.7084507 22.381478,18.4415493 22.6440766,16.9098592 C23.2298734,13.4788732 24.7246653,4.79929577 24.7246653,4.18661972 C24.7044654,1.89929577 19.1494957,0.0408450704 12.3623326,0.0408450704 Z M12.3623326,17.9309859 C10.2009444,17.9309859 8.44355399,16.1542254 8.44355399,13.9690141 C8.44355399,11.7838028 10.2009444,10.0070423 12.3623326,10.0070423 C14.5237209,10.0070423 16.2811113,11.7838028 16.2811113,13.9690141 C16.2811113,16.1542254 14.5237209,17.9309859 12.3623326,17.9309859 Z M12.3623326,5.47323944 C7.99915641,5.47323944 4.44397578,4.6971831 4.44397578,3.75774648 C4.44397578,2.81830986 7.99915641,2.06267606 12.3623326,2.06267606 C16.7255089,2.06267606 20.2806895,2.83873239 20.2806895,3.77816901 C20.2604896,4.71760563 16.7255089,5.47323944 12.3623326,5.47323944 Z" id="Shape"></path>
                            <path d="M21.2300843,20.3612676 C21.0482853,20.3612676 20.8866862,20.5042254 20.8866862,20.5042254 C20.8866862,20.5042254 17.8365028,22.934507 12.3421327,22.934507 C6.84776269,22.934507 3.79757931,20.5042254 3.79757931,20.5042254 C3.79757931,20.5042254 3.65618008,20.3612676 3.45418118,20.3612676 C3.23198239,20.3612676 3.0097836,20.5042254 3.0097836,20.8514085 L3.0097836,20.9535211 C3.47438107,23.506338 3.8177792,25.3239437 3.87837887,25.5894366 C4.28237666,27.4683099 7.91835685,28.8978873 12.301733,28.8978873 L12.301733,28.8978873 L12.301733,28.8978873 L12.301733,28.8978873 L12.301733,28.8978873 C16.6851091,28.8978873 20.3210893,27.4887324 20.7250871,25.5894366 C20.7856867,25.3035211 21.1290849,23.506338 21.5936823,20.9535211 L21.5936823,20.8514085 C21.6744819,20.5042254 21.4522831,20.3612676 21.2300843,20.3612676 Z" id="Shape"></path>
                            <ellipse id="Oval" cx="12.3623326" cy="13.9485915" rx="1.95938932" ry="1.98098592"></ellipse>
                        </g>
                    </g>
                </g>
            </g>
        </g>
    </g>
</svg>
