<?xml version="1.0" encoding="UTF-8" standalone="no"?>
<svg viewBox="0 0 197 40" version="1.1" xmlns="http://www.w3.org/2000/svg" xmlns:xlink="http://www.w3.org/1999/xlink">
    <!-- Generator: Sketch 42 (36781) - http://www.bohemiancoding.com/sketch -->
    <title>template</title>
    <desc>Created with Sketch.</desc>
    <defs></defs>
    <g id="Page-1" stroke="none" stroke-width="1" fill="none" fill-rule="evenodd">
        <g id="template" fill-rule="nonzero" fill="currentColor">
            <g id="confluence_rgb_blue" transform="translate(4.000000, 7.000000)">
                <g id="Conf_-_Blue">
                    <g id="Group">
                        <g class="logo-type" transform="translate(34.927579, 0.000000)">
                            <path d="M24.8829418,7.08702768 C19.6724792,7.08702768 16.917522,9.60242342 16.917522,14.333763 L16.917522,18.8055777 C16.917522,23.5369173 19.6724792,26.052313 24.8829418,26.052313 C30.0934044,26.052313 32.8483617,23.5369173 32.8483617,18.8055777 L32.8483617,14.333763 C32.8483617,9.58245996 30.0934044,7.08702768 24.8829418,7.08702768 Z M21.8884231,14.1740554 C21.8884231,12.2176365 22.7867787,11.3991347 24.8829418,11.3991347 C26.9791049,11.3991347 27.8774606,12.2375999 27.8774606,14.1740554 L27.8774606,18.9253584 C27.8774606,20.8817773 26.9791049,21.7002791 24.8829418,21.7002791 C22.7867787,21.7002791 21.8884231,20.8618139 21.8884231,18.9253584 L21.8884231,14.1740554 Z" id="Shape"></path>
                            <path d="M46.3436595,7.08702768 C44.3672771,7.08702768 41.6921737,7.76578526 39.4363029,8.82384855 L39.1568145,7.90552947 C39.0769606,7.64600451 38.8373991,7.44636993 38.5579107,7.44636993 L35.8029535,7.44636993 C35.4635747,7.44636993 35.1641228,7.72585834 35.1641228,8.08520059 L35.1641228,25.0541401 C35.1641228,25.3935189 35.4436112,25.6730073 35.8029535,25.6730073 L39.5161567,25.6730073 C39.8555355,25.6730073 40.1549874,25.3935189 40.1549874,25.0541401 L40.1549874,13.2956632 C41.4925391,12.6169056 43.3691042,11.9181846 44.5070213,11.9181846 C45.3454865,11.9181846 45.6449384,12.2375999 45.6449384,13.0561017 L45.6449384,25.0541401 C45.6449384,25.3935189 45.9244268,25.6730073 46.2837691,25.6730073 L49.9969723,25.6730073 C50.3363511,25.6730073 50.635803,25.3935189 50.635803,25.0541401 L50.635803,12.5969422 C50.6158395,8.9436293 49.1784705,7.08702768 46.3436595,7.08702768 Z" id="Shape"></path>
                            <path d="M64.01132,0.399269165 C63.0131471,0.139744208 61.8552665,0 60.7772398,0 C56.8045116,0 54.8680561,1.87656508 54.8680561,5.74947598 L54.8680561,7.94545639 L52.8118199,7.94545639 C52.4724411,7.94545639 52.1729893,8.2249448 52.1729893,8.58428705 L52.1729893,11.3991347 C52.1729893,11.7385135 52.4524777,12.0180019 52.8118199,12.0180019 L54.8680561,12.0180019 L54.8680561,25.0341767 C54.8680561,25.3735554 55.1475445,25.6530439 55.4869233,25.6530439 L59.2001266,25.6530439 C59.5395054,25.6530439 59.8189938,25.3735554 59.8189938,25.0341767 L59.8189938,12.0180019 L63.4723066,12.0180019 C63.791722,12.0180019 64.0712104,11.7584769 64.0911738,11.4390616 L64.0911738,8.62421397 C64.0911738,8.42457938 64.0512469,8.28483518 63.9314662,8.14509097 C63.8116854,8.02531022 63.6519778,7.94545639 63.4723066,7.94545639 L59.8189938,7.94545639 L59.8189938,5.98903748 C59.8189938,4.63152232 60.0785187,4.15239932 61.5558146,4.15239932 C62.0149742,4.15239932 62.6937318,4.23225315 63.3525259,4.33207044 C63.5122336,4.3520339 63.6919047,4.31210698 63.8316489,4.21228969 C63.9713931,4.1124724 64.0512469,3.95276473 64.0911738,3.79305707 L64.4704795,1.05806329 C64.5104065,0.778574872 64.3107719,0.479122998 64.01132,0.399269165 Z" id="Shape"></path>
                            <path d="M70.719042,0.499086456 L67.0058387,0.499086456 C66.66646,0.499086456 66.3670081,0.778574872 66.3670081,1.13791712 L66.3670081,25.0741036 C66.3670081,25.4134824 66.6464965,25.6929708 67.0058387,25.6929708 L70.719042,25.6929708 C71.0584208,25.6929708 71.3578726,25.4134824 71.3578726,25.0741036 L71.3578726,1.11795366 C71.3578726,0.778574872 71.0584208,0.499086456 70.719042,0.499086456 Z" id="Shape"></path>
                            <path d="M88.9057525,7.44636993 L85.1925492,7.44636993 C84.8531704,7.44636993 84.5537186,7.72585834 84.5537186,8.08520059 L84.5537186,19.8436775 C83.2161668,20.5224351 81.3396018,21.2211561 80.2016847,21.2211561 C79.3632194,21.2211561 79.0637675,20.9017408 79.0637675,20.083239 L79.0637675,8.08520059 C79.0637675,7.7458218 78.7842791,7.44636993 78.4249369,7.44636993 L74.7117336,7.44636993 C74.3723548,7.44636993 74.072903,7.72585834 74.072903,8.08520059 L74.072903,20.5423985 C74.072903,24.1957114 75.510272,26.052313 78.345083,26.052313 C80.3214654,26.052313 82.9965688,25.3735554 85.2524396,24.3154922 L85.531928,25.2338112 C85.6117818,25.4933362 85.8513433,25.6929708 86.1308318,25.6929708 L88.885789,25.6929708 C89.2251678,25.6929708 89.5246197,25.4134824 89.5246197,25.0741036 L89.5246197,8.10516405 C89.5445831,7.72585834 89.2650947,7.44636993 88.9057525,7.44636993 Z" id="Shape"></path>
                            <path d="M99.3067142,7.08702768 C94.3358131,7.08702768 91.7006366,9.5624965 91.7006366,14.2539092 L91.7006366,18.9453219 C91.7006366,23.7964422 94.156142,26.052313 99.4464584,26.052313 C101.602512,26.052313 103.89831,25.6730073 105.754911,25.0142132 C106.054363,24.9143959 106.214071,24.5949806 106.15418,24.2955287 L105.595204,21.6403887 C105.555277,21.4607176 105.455459,21.3209734 105.315715,21.2211561 C105.175971,21.1213388 104.976336,21.1013754 104.816629,21.1612657 C103.119735,21.6403887 101.482731,21.8799502 99.8457276,21.8799502 C97.1306973,21.8799502 96.6715377,21.0015581 96.6715377,19.1649199 L96.6715377,18.5260893 L105.894655,18.5260893 C106.234034,18.5260893 106.533486,18.2466008 106.533486,17.9072221 L106.533486,14.4934707 C106.513523,9.4227523 104.237688,7.08702768 99.3067142,7.08702768 Z M96.6715377,14.4136169 L96.6715377,13.8147131 C96.6715377,12.0579288 97.5299664,11.2593905 99.3466411,11.2593905 C101.36295,11.2593905 101.76222,12.2375999 101.76222,13.8147131 L101.76222,14.4136169 L96.6715377,14.4136169 Z" id="Shape"></path>
                            <path d="M119.94893,7.08702768 C117.972548,7.08702768 115.297444,7.76578526 113.041573,8.82384855 L112.762085,7.90552947 C112.682231,7.64600451 112.44267,7.44636993 112.163181,7.44636993 L109.408224,7.44636993 C109.068845,7.44636993 108.769393,7.72585834 108.769393,8.08520059 L108.769393,25.0541401 C108.769393,25.3935189 109.048882,25.6730073 109.408224,25.6730073 L113.121427,25.6730073 C113.460806,25.6730073 113.760258,25.3935189 113.760258,25.0541401 L113.760258,13.2956632 C115.09781,12.6169056 116.974375,11.9181846 118.112292,11.9181846 C118.950757,11.9181846 119.250209,12.2375999 119.250209,13.0561017 L119.250209,25.0541401 C119.250209,25.3935189 119.529697,25.6730073 119.88904,25.6730073 L123.602243,25.6730073 C123.941622,25.6730073 124.241074,25.3935189 124.241074,25.0541401 L124.241074,12.5969422 C124.201147,8.9436293 122.763778,7.08702768 119.94893,7.08702768 Z" id="Shape"></path>
                            <path d="M138.514946,21.8400233 C138.494983,21.6603522 138.395165,21.520608 138.255421,21.4207907 C138.115677,21.3209734 137.936006,21.2810465 137.756335,21.3209734 C136.698272,21.5605349 135.580318,21.7002791 134.522255,21.7002791 C132.166566,21.7002791 131.487809,21.1013754 131.487809,19.0251757 L131.487809,14.114165 C131.487809,12.0379653 132.166566,11.4390616 134.522255,11.4390616 C135.161085,11.4390616 136.558527,11.5388789 137.756335,11.8183673 C137.936006,11.8582942 138.115677,11.8183673 138.255421,11.71855 C138.395165,11.6187327 138.494983,11.459025 138.514946,11.2993174 L138.954142,8.36468901 C138.994069,8.04527368 138.814398,7.76578526 138.514946,7.66596797 C137.077577,7.24673535 135.42061,7.08702768 134.422437,7.08702768 C128.812706,7.08702768 126.516908,9.14326388 126.516908,14.1540919 L126.516908,18.9852488 C126.516908,23.9960768 128.812706,26.052313 134.422437,26.052313 C135.779952,26.052313 137.357066,25.832715 138.53491,25.4733727 C138.834362,25.3735554 139.014033,25.094067 138.974106,24.7746517 L138.514946,21.8400233 Z" id="Shape"></path>
                            <path d="M147.917735,7.08702768 C142.946834,7.08702768 140.311657,9.5624965 140.311657,14.2539092 L140.311657,18.9453219 C140.311657,23.7964422 142.767163,26.052313 148.057479,26.052313 C150.213533,26.052313 152.50933,25.6730073 154.365932,25.0142132 C154.665384,24.9143959 154.825092,24.5949806 154.765201,24.2955287 L154.206224,21.6403887 C154.166297,21.4607176 154.06648,21.3209734 153.926736,21.2211561 C153.786992,21.1213388 153.587357,21.1013754 153.42765,21.1612657 C151.730756,21.6403887 150.093752,21.8799502 148.456748,21.8799502 C145.741718,21.8799502 145.282559,21.0015581 145.282559,19.1649199 L145.282559,18.5260893 L154.505676,18.5260893 C154.845055,18.5260893 155.144507,18.2466008 155.144507,17.9072221 L155.144507,14.4934707 C155.124543,9.4227523 152.848709,7.08702768 147.917735,7.08702768 Z M145.282559,14.4136169 L145.282559,13.8147131 C145.282559,12.0579288 146.140987,11.2593905 147.957662,11.2593905 C149.973971,11.2593905 150.37324,12.2375999 150.37324,13.8147131 L150.37324,14.4136169 L145.282559,14.4136169 Z" id="Shape"></path>
                            <path d="M9.03195597,5.3102799 C10.5292153,5.3102799 12.5854515,5.50991448 14.5418705,5.84929327 C14.7015781,5.86925673 14.8812492,5.82932981 15.0209935,5.72951252 C15.1607377,5.62969523 15.2405915,5.46998756 15.2805184,5.3102799 L15.699751,2.03627274 C15.7396779,1.71685741 15.5400434,1.41740554 15.220628,1.3375517 C13.2442457,0.858428705 11.0083383,0.598903748 8.89221177,0.598903748 C3.00299158,0.598903748 0.00847284386,3.05440911 0.00847284386,7.88556601 L0.00847284386,18.7856142 C0.00847284386,23.6167711 3.00299158,26.0722765 8.89221177,26.0722765 C11.0083383,26.0722765 13.2442457,25.8127515 15.220628,25.3336285 C15.5400434,25.2537747 15.7396779,24.9543228 15.699751,24.6349075 L15.2805184,21.3609003 C15.260555,21.1812292 15.1607377,21.041485 15.0209935,20.9416677 C14.8812492,20.8418504 14.7015781,20.8019235 14.5418705,20.821887 C12.5854515,21.1612657 10.5292153,21.3609003 9.03195597,21.3609003 C6.11729107,21.3609003 5.11911816,20.5024716 5.11911816,17.9671124 L5.11911816,8.7040678 C5.11911816,6.1687086 6.11729107,5.3102799 9.03195597,5.3102799 Z" id="Shape"></path>
                        </g>
                        <g class="logo-icon" transform="translate(0.000000, 0.399269)">
                            <path d="M22.6585251,18.9253584 C22.259256,18.1268201 21.780133,17.3282818 21.2211561,16.50978 C20.821887,15.9308397 20.4026543,15.3518994 19.9434948,14.7929226 C19.7638237,14.5733245 19.8436775,14.2938361 19.9834217,14.1540919 C20.1231659,14.0143477 20.2629101,13.8746035 20.4026543,13.7348593 C22.3191463,11.7784404 24.2955287,9.76213109 25.8127515,7.58611414 C27.4297916,5.27035298 28.3281473,3.07437257 28.5477453,0.79853833 C28.5677088,0.578940289 28.4678915,0.33937879 28.2882203,0.199634583 C28.1684396,0.0998172913 28.0286954,0.0598903748 27.8689877,0.0598903748 C27.7891339,0.0598903748 27.7092801,0.079853833 27.6294262,0.0998172913 C26.1521303,0.658794122 24.6748344,1.0979902 23.2973558,1.39744208 C23.0178674,1.45733245 22.7982693,1.67693049 22.698452,1.91649199 C21.7002791,4.63152232 19.1649199,7.22677189 16.50978,9.94180221 C16.4099627,10.0416195 16.250255,10.1813637 16.0106935,10.1813637 C15.771132,10.1813637 15.6114244,10.061583 15.5116071,9.94180221 C12.8564671,7.22677189 10.3211079,4.65148577 9.322935,1.91649199 C9.22311771,1.67693049 9.00351967,1.45733245 8.72403126,1.39744208 C7.3665161,1.07802675 5.86925673,0.618867206 4.39196082,0.0598903748 C4.31210698,0.0199634583 4.23225315,0.0199634583 4.15239932,0.0199634583 C4.01265511,0.0199634583 3.85294744,0.0598903748 3.73316669,0.159707666 C3.55349557,0.299451874 3.45367828,0.539013373 3.47364174,0.758611414 C3.69323978,3.0144822 4.5915954,5.25038952 6.20863552,7.56615068 C7.72585834,9.74216763 9.70224071,11.7584769 11.6187327,13.7148958 C15.1522648,17.3083183 18.4661989,20.7021062 18.7656508,24.6349075 C18.7856142,24.9942497 19.0850661,25.2737382 19.4444083,25.2737382 L23.5768442,25.2737382 C23.7565153,25.2737382 23.9361864,25.1938843 24.0759307,25.0541401 C24.1957114,24.9143959 24.2755652,24.7347248 24.2556018,24.5550537 C24.2156749,23.8164057 24.1158576,23.0777577 23.9361864,22.3191463 L23.9361864,22.3191463 L23.9361864,22.259256 C23.9361864,22.0995483 24.0559672,21.9797675 24.2156749,21.9797675 L24.2556018,21.9797675 L24.2556018,21.9797675 C27.6294262,22.478854 29.7655163,23.2574289 29.7854797,24.135821 L29.7854797,24.135821 C29.7854797,24.9543228 27.8689877,26.1920572 24.7347248,27.1103763 L24.7347248,27.1103763 C24.4552364,27.1902301 24.2556018,27.4497551 24.2556018,27.7292435 C24.2556018,28.0885858 24.5550537,28.3880376 24.9143959,28.3880376 C24.9742863,28.3880376 25.0142132,28.3880376 25.0541401,28.3680742 C29.2464663,27.3898647 32.0413505,25.7728246 32.0413505,23.916223 C32.021387,21.7601695 28.2682569,19.8037506 22.6585251,18.9253584 Z" id="Shape"></path>
                            <path d="M11.5588423,16.7892684 C11.4789885,16.7094146 11.2993174,16.5896338 11.0797193,16.5896338 C10.7802675,16.5896338 10.5806329,16.7892684 10.5207425,16.8890857 C10.061583,17.5678433 9.68227725,18.2466008 9.34289846,18.9253584 C3.75313015,19.8037506 0,21.7601695 0,23.9361864 C0,25.7728246 2.75495724,27.4098282 6.96724693,28.3880376 L6.96724693,28.3880376 C7.00717385,28.4080011 7.06706422,28.4080011 7.1269546,28.4080011 C7.48629685,28.4080011 7.78574872,28.1085492 7.78574872,27.749207 C7.78574872,27.4497551 7.58611414,27.2101936 7.30662572,27.1303398 L7.30662572,27.1303398 C4.19232623,26.2319841 2.25587078,24.9942497 2.25587078,24.1557845 L2.25587078,24.1557845 C2.25587078,23.2773923 4.39196082,22.4988175 7.76578526,21.999731 L7.80571218,21.999731 C7.96541984,21.999731 8.08520059,22.1195117 8.08520059,22.2792194 L8.08520059,22.3391098 L8.08520059,22.3391098 C7.90552947,23.0777577 7.80571218,23.8164057 7.76578526,24.5550537 C7.76578526,24.7347248 7.82567564,24.9343594 7.94545639,25.0541401 C8.06523713,25.1938843 8.24490826,25.2737382 8.44454284,25.2737382 L12.5570152,25.2737382 C12.9163575,25.2737382 13.2158094,24.9942497 13.2357728,24.6349075 C13.3355901,23.4171365 13.6949324,22.219329 14.3936534,20.9416677 C14.6332149,20.5024716 14.4535438,20.083239 14.3137996,19.9035679 C13.635042,19.0251757 12.7965767,18.0868932 11.5588423,16.7892684 Z" id="Shape"></path>
                            <path d="M15.5315705,6.56797777 C15.6912782,6.72768543 15.8709493,6.74764889 16.0106935,6.74764889 L16.0106935,6.74764889 C16.1304743,6.74764889 16.3301089,6.72768543 16.4898165,6.56797777 C17.947149,5.15057223 18.7257238,3.49360519 18.905395,3.03444565 C18.9253584,2.97455528 18.9652853,2.89470145 18.9652853,2.7749207 C18.9652853,2.41557845 18.6658335,2.13609003 18.3464181,2.13609003 C18.0868932,2.13609003 17.3282818,2.21594387 16.030657,2.21594387 L16.030657,2.21594387 C14.7330322,2.21594387 13.9744208,2.13609003 13.7148958,2.13609003 C13.3954805,2.13609003 13.0960286,2.39561499 13.0960286,2.7749207 C13.0960286,2.87473799 13.1159921,2.95459182 13.155919,3.03444565 C13.2756997,3.49360519 14.0742381,5.15057223 15.5315705,6.56797777 Z" id="Shape"></path>
                        </g>
                    </g>
                </g>
            </g>
        </g>
    </g>
</svg>
