<?xml version="1.0" encoding="UTF-8" standalone="no"?>
<svg viewBox="0 0 180 40" version="1.1" xmlns="http://www.w3.org/2000/svg" xmlns:xlink="http://www.w3.org/1999/xlink">
    <!-- Generator: Sketch 42 (36781) - http://www.bohemiancoding.com/sketch -->
    <title>template</title>
    <desc>Created with Sketch.</desc>
    <defs></defs>
    <g id="Page-1" stroke="none" stroke-width="1" fill="none" fill-rule="evenodd">
        <g id="template" fill-rule="nonzero" fill="currentColor">
            <g id="confluence_rgb_blue" transform="translate(5.500000, 6.993685)">
                <g id="Conf_-_Blue">
                    <g id="Group">
                        <g class="logo-type" transform="translate(30.534821, 0.000000)">
                            <path d="M23.2946476,6.37832491 C18.6052313,6.37832491 16.1257698,8.64218108 16.1257698,12.9003867 L16.1257698,16.9250199 C16.1257698,21.1832256 18.6052313,23.4470817 23.2946476,23.4470817 C27.984064,23.4470817 30.4635255,21.1832256 30.4635255,16.9250199 L30.4635255,12.9003867 C30.4635255,8.62421397 27.984064,6.37832491 23.2946476,6.37832491 Z M20.5995808,12.7566498 C20.5995808,10.9958728 21.4081008,10.2592212 23.2946476,10.2592212 C25.1811945,10.2592212 25.9897145,11.0138399 25.9897145,12.7566498 L25.9897145,17.0328226 C25.9897145,18.7935996 25.1811945,19.5302512 23.2946476,19.5302512 C21.4081008,19.5302512 20.5995808,18.7756325 20.5995808,17.0328226 L20.5995808,12.7566498 Z" id="Shape"></path>
                            <path d="M42.6092935,6.37832491 C40.8305494,6.37832491 38.4229563,6.98920673 36.3926726,7.94146369 L36.141133,7.11497652 C36.0692646,6.88140406 35.8536592,6.70173294 35.6021197,6.70173294 L33.1226581,6.70173294 C32.8172172,6.70173294 32.5477105,6.95327251 32.5477105,7.27668053 L32.5477105,22.5487261 C32.5477105,22.854167 32.7992501,23.1057066 33.1226581,23.1057066 L36.4645411,23.1057066 C36.769982,23.1057066 37.0394887,22.854167 37.0394887,22.5487261 L37.0394887,11.9660969 C38.2432852,11.3552151 39.9321938,10.7263661 40.9563192,10.7263661 C41.7109379,10.7263661 41.9804446,11.0138399 41.9804446,11.7504915 L41.9804446,22.5487261 C41.9804446,22.854167 42.2319841,23.1057066 42.5553922,23.1057066 L45.8972751,23.1057066 C46.202716,23.1057066 46.4722227,22.854167 46.4722227,22.5487261 L46.4722227,11.3372479 C46.4542556,8.04926637 45.1606235,6.37832491 42.6092935,6.37832491 Z" id="Shape"></path>
                            <path d="M58.510188,0.359342249 C57.6118324,0.125769787 56.5697399,0 55.5995158,0 C52.0240604,0 50.2812505,1.68890857 50.2812505,5.17452838 L50.2812505,7.15091075 L48.4306379,7.15091075 C48.125197,7.15091075 47.8556903,7.40245032 47.8556903,7.72585834 L47.8556903,10.2592212 C47.8556903,10.5646621 48.1072299,10.8162017 48.4306379,10.8162017 L50.2812505,10.8162017 L50.2812505,22.530759 C50.2812505,22.8361999 50.5327901,23.0877395 50.838231,23.0877395 L54.1801139,23.0877395 C54.4855548,23.0877395 54.7370944,22.8361999 54.7370944,22.530759 L54.7370944,10.8162017 L58.025076,10.8162017 C58.3125498,10.8162017 58.5640893,10.5826292 58.5820565,10.2951554 L58.5820565,7.76179257 C58.5820565,7.58212145 58.5461222,7.45635166 58.4383196,7.33058187 C58.3305169,7.2227792 58.18678,7.15091075 58.025076,7.15091075 L54.7370944,7.15091075 L54.7370944,5.39013373 C54.7370944,4.16837008 54.9706669,3.73715939 56.3002332,3.73715939 C56.7134768,3.73715939 57.3243586,3.80902783 57.9172733,3.8988634 C58.0610102,3.91683051 58.2227142,3.88089628 58.348484,3.79106072 C58.4742538,3.70122516 58.5461222,3.55748826 58.5820565,3.41375136 L58.9234316,0.952256959 C58.9593658,0.700717385 58.7796947,0.431210698 58.510188,0.359342249 Z" id="Shape"></path>
                            <path d="M64.5471378,0.449177811 L61.2052549,0.449177811 C60.899814,0.449177811 60.6303073,0.700717385 60.6303073,1.02412541 L60.6303073,22.5666932 C60.6303073,22.8721341 60.8818468,23.1236737 61.2052549,23.1236737 L64.5471378,23.1236737 C64.8525787,23.1236737 65.1220854,22.8721341 65.1220854,22.5666932 L65.1220854,1.0061583 C65.1220854,0.700717385 64.8525787,0.449177811 64.5471378,0.449177811 Z" id="Shape"></path>
                            <path d="M80.9151772,6.70173294 L77.5732943,6.70173294 C77.2678534,6.70173294 76.9983467,6.95327251 76.9983467,7.27668053 L76.9983467,17.8593098 C75.7945502,18.4701916 74.1056416,19.0990405 73.0815162,19.0990405 C72.3268975,19.0990405 72.0573908,18.8115667 72.0573908,18.0749151 L72.0573908,7.27668053 C72.0573908,6.97123962 71.8058512,6.70173294 71.4824432,6.70173294 L68.1405603,6.70173294 C67.8351194,6.70173294 67.5656127,6.95327251 67.5656127,7.27668053 L67.5656127,18.4881587 C67.5656127,21.7761403 68.8592448,23.4470817 71.4105747,23.4470817 C73.1893189,23.4470817 75.5969119,22.8361999 77.6271956,21.8839429 L77.8787352,22.7104301 C77.9506037,22.9440026 78.166209,23.1236737 78.4177486,23.1236737 L80.8972101,23.1236737 C81.202651,23.1236737 81.4721577,22.8721341 81.4721577,22.5666932 L81.4721577,7.29464765 C81.4901248,6.95327251 81.2385852,6.70173294 80.9151772,6.70173294 Z" id="Shape"></path>
                            <path d="M90.2760428,6.37832491 C85.8022318,6.37832491 83.4305729,8.60624685 83.4305729,12.8285183 L83.4305729,17.0507897 C83.4305729,21.416798 85.6405278,23.4470817 90.4018126,23.4470817 C92.3422607,23.4470817 94.4084786,23.1057066 96.0794201,22.5127919 C96.3489268,22.4229563 96.4926637,22.1354825 96.4387623,21.8659758 L95.9356832,19.4763499 C95.899749,19.3146459 95.8099134,19.1888761 95.6841436,19.0990405 C95.5583738,19.009205 95.3787027,18.9912378 95.2349658,19.0451392 C93.7077613,19.4763499 92.234458,19.6919552 90.7611548,19.6919552 C88.3176275,19.6919552 87.9043839,18.9014023 87.9043839,17.2484279 L87.9043839,16.6734803 L96.2051899,16.6734803 C96.5106308,16.6734803 96.7801375,16.4219408 96.7801375,16.1164998 L96.7801375,13.0441236 C96.7621704,8.48047707 94.7139196,6.37832491 90.2760428,6.37832491 Z M87.9043839,12.9722552 L87.9043839,12.4332418 C87.9043839,10.8521359 88.6769698,10.1334514 90.311977,10.1334514 C92.1266554,10.1334514 92.4859976,11.0138399 92.4859976,12.4332418 L92.4859976,12.9722552 L87.9043839,12.9722552 Z" id="Shape"></path>
                            <path d="M108.854037,6.37832491 C107.075293,6.37832491 104.6677,6.98920673 102.637416,7.94146369 L102.385877,7.11497652 C102.314008,6.88140406 102.098403,6.70173294 101.846863,6.70173294 L99.3674017,6.70173294 C99.0619608,6.70173294 98.7924541,6.95327251 98.7924541,7.27668053 L98.7924541,22.5487261 C98.7924541,22.854167 99.0439936,23.1057066 99.3674017,23.1057066 L102.709285,23.1057066 C103.014725,23.1057066 103.284232,22.854167 103.284232,22.5487261 L103.284232,11.9660969 C104.488029,11.3552151 106.176937,10.7263661 107.201063,10.7263661 C107.955681,10.7263661 108.225188,11.0138399 108.225188,11.7504915 L108.225188,22.5487261 C108.225188,22.854167 108.476728,23.1057066 108.800136,23.1057066 L112.142019,23.1057066 C112.44746,23.1057066 112.716966,22.854167 112.716966,22.5487261 L112.716966,11.3372479 C112.681032,8.04926637 111.3874,6.37832491 108.854037,6.37832491 Z" id="Shape"></path>
                            <path d="M125.563452,19.656021 C125.545484,19.494317 125.455649,19.3685472 125.329879,19.2787116 C125.204109,19.1888761 125.042405,19.1529418 124.880701,19.1888761 C123.928444,19.4044814 122.922286,19.5302512 121.970029,19.5302512 C119.84991,19.5302512 119.239028,18.9912378 119.239028,17.1226581 L119.239028,12.7027485 C119.239028,10.8341688 119.84991,10.2951554 121.970029,10.2951554 C122.544977,10.2951554 123.802675,10.384991 124.880701,10.6365306 C125.042405,10.6724648 125.204109,10.6365306 125.329879,10.546695 C125.455649,10.4568594 125.545484,10.3131225 125.563452,10.1693856 L125.958728,7.52822011 C125.994662,7.24074631 125.832958,6.98920673 125.563452,6.89937117 C124.269819,6.52206181 122.778549,6.37832491 121.880194,6.37832491 C116.831435,6.37832491 114.765217,8.22893749 114.765217,12.7386827 L114.765217,17.0867239 C114.765217,21.5964691 116.831435,23.4470817 121.880194,23.4470817 C123.101957,23.4470817 124.521359,23.2494435 125.581419,22.9260355 C125.850925,22.8361999 126.012629,22.5846603 125.976695,22.2971865 L125.563452,19.656021 Z" id="Shape"></path>
                            <path d="M134.025962,6.37832491 C129.552151,6.37832491 127.180492,8.60624685 127.180492,12.8285183 L127.180492,17.0507897 C127.180492,21.416798 129.390447,23.4470817 134.151731,23.4470817 C136.092179,23.4470817 138.158397,23.1057066 139.829339,22.5127919 C140.098846,22.4229563 140.242582,22.1354825 140.188681,21.8659758 L139.685602,19.4763499 C139.649668,19.3146459 139.559832,19.1888761 139.434062,19.0990405 C139.308293,19.009205 139.128621,18.9912378 138.984885,19.0451392 C137.45768,19.4763499 135.984377,19.6919552 134.511074,19.6919552 C132.067546,19.6919552 131.654303,18.9014023 131.654303,17.2484279 L131.654303,16.6734803 L139.955109,16.6734803 C140.26055,16.6734803 140.530056,16.4219408 140.530056,16.1164998 L140.530056,13.0441236 C140.512089,8.48047707 138.463838,6.37832491 134.025962,6.37832491 Z M131.654303,12.9722552 L131.654303,12.4332418 C131.654303,10.8521359 132.426889,10.1334514 134.061896,10.1334514 C135.876574,10.1334514 136.235916,11.0138399 136.235916,12.4332418 L136.235916,12.9722552 L131.654303,12.9722552 Z" id="Shape"></path>
                            <path d="M9.02876038,4.77925191 C10.3762938,4.77925191 12.2269064,4.95892303 13.9876834,5.26436394 C14.1314203,5.28233105 14.2931243,5.24639683 14.4188941,5.15656127 C14.5446639,5.06672571 14.6165323,4.92298881 14.6524666,4.77925191 L15.0297759,1.83264547 C15.0657102,1.54517167 14.886039,1.27566498 14.5985652,1.20379653 C12.8198211,0.772585834 10.8075045,0.539013373 8.90299059,0.539013373 C3.60269242,0.539013373 0.907625559,2.7489682 0.907625559,7.09700941 L0.907625559,16.9070528 C0.907625559,21.255094 3.60269242,23.4650488 8.90299059,23.4650488 C10.8075045,23.4650488 12.8198211,23.2314764 14.5985652,22.8002657 C14.886039,22.7283972 15.0657102,22.4588905 15.0297759,22.1714167 L14.6524666,19.2248103 C14.6344995,19.0631063 14.5446639,18.9373365 14.4188941,18.8475009 C14.2931243,18.7576654 14.1314203,18.7217312 13.9876834,18.7396983 C12.2269064,19.0451392 10.3762938,19.2248103 9.02876038,19.2248103 C6.40556196,19.2248103 5.50720634,18.4522245 5.50720634,16.1704012 L5.50720634,7.83366102 C5.50720634,5.55183774 6.40556196,4.77925191 9.02876038,4.77925191 Z" id="Shape"></path>
                        </g>
                        <g class="logo-icon" transform="translate(0.000000, 0.359342)">
                            <path d="M20.3926726,17.0328226 C20.0333304,16.3141381 19.6021197,15.5954536 19.0990405,14.858802 C18.7396983,14.3377557 18.3623889,13.8167095 17.9491453,13.3136303 C17.7874413,13.1159921 17.8593098,12.8644525 17.9850795,12.7386827 C18.1108493,12.6129129 18.2366191,12.4871431 18.3623889,12.3613734 C20.0872317,10.6005963 21.8659758,8.78591798 23.2314764,6.82750272 C24.6868125,4.74331768 25.4953325,2.76693531 25.6929708,0.718684497 C25.7109379,0.52104626 25.6211023,0.305440911 25.4593983,0.179671124 C25.3515956,0.0898355621 25.2258259,0.0539013373 25.082089,0.0539013373 C25.0102205,0.0539013373 24.9383521,0.0718684497 24.8664836,0.0898355621 C23.5369173,0.59291471 22.207351,0.988191184 20.9676202,1.25769787 C20.7160806,1.31159921 20.5184424,1.50923744 20.4286068,1.72484279 C19.5302512,4.16837008 17.2484279,6.5040947 14.858802,8.94762199 C14.7689664,9.03745755 14.6252295,9.16322734 14.4096242,9.16322734 C14.1940188,9.16322734 14.0502819,9.05542466 13.9604464,8.94762199 C11.5708204,6.5040947 9.28899713,4.1863372 8.3906415,1.72484279 C8.30080594,1.50923744 8.10316771,1.31159921 7.85162813,1.25769787 C6.62986449,0.970224071 5.28233105,0.556980485 3.95276473,0.0539013373 C3.88089628,0.0179671124 3.80902783,0.0179671124 3.73715939,0.0179671124 C3.6113896,0.0179671124 3.4676527,0.0539013373 3.35985002,0.143736899 C3.19814601,0.269506686 3.10831045,0.485112036 3.12627756,0.682750272 C3.3239158,2.71303398 4.13243586,4.72535057 5.58777197,6.80953561 C6.95327251,8.76795087 8.73201664,10.5826292 10.4568594,12.3434062 C13.6370383,15.5774865 16.619579,18.6318956 16.8890857,22.1714167 C16.9070528,22.4948248 17.1765595,22.7463643 17.4999675,22.7463643 L21.2191598,22.7463643 C21.3808638,22.7463643 21.5425678,22.6744959 21.6683376,22.5487261 C21.7761403,22.4229563 21.8480087,22.2612523 21.8300416,22.0995483 C21.7941074,21.4347651 21.7042718,20.769982 21.5425678,20.0872317 L21.5425678,20.0872317 L21.5425678,20.0333304 C21.5425678,19.8895935 21.6503705,19.7817908 21.7941074,19.7817908 L21.8300416,19.7817908 L21.8300416,19.7817908 C24.8664836,20.2309686 26.7889646,20.931686 26.8069317,21.7222389 L26.8069317,21.7222389 C26.8069317,22.4588905 25.082089,23.5728515 22.2612523,24.3993387 L22.2612523,24.3993387 C22.0097127,24.4712071 21.8300416,24.7047796 21.8300416,24.9563192 C21.8300416,25.2797272 22.0995483,25.5492339 22.4229563,25.5492339 C22.4768576,25.5492339 22.5127919,25.5492339 22.5487261,25.5312668 C26.3218197,24.6508783 28.8372154,23.1955421 28.8372154,21.5246007 C28.8192483,19.5841525 25.4414312,17.8233755 20.3926726,17.0328226 Z" id="Shape"></path>
                            <path d="M10.4029581,15.1103416 C10.3310896,15.0384731 10.1693856,14.9306704 9.9717474,14.9306704 C9.70224071,14.9306704 9.52256959,15.1103416 9.46866825,15.2001771 C9.05542466,15.8110589 8.71404953,16.4219408 8.40860862,17.0328226 C3.37781714,17.8233755 0,19.5841525 0,21.5425678 C0,23.1955421 2.47946152,24.6688454 6.27052224,25.5492339 L6.27052224,25.5492339 C6.30645646,25.567201 6.3603578,25.567201 6.41425914,25.567201 C6.73766716,25.567201 7.00717385,25.2976943 7.00717385,24.9742863 C7.00717385,24.7047796 6.82750272,24.4891742 6.57596315,24.4173058 L6.57596315,24.4173058 C3.77309361,23.6087857 2.0302837,22.4948248 2.0302837,21.740206 L2.0302837,21.740206 C2.0302837,20.9496531 3.95276473,20.2489357 6.98920673,19.7997579 L7.02514096,19.7997579 C7.16887786,19.7997579 7.27668053,19.9075606 7.27668053,20.0512975 L7.27668053,20.1051988 L7.27668053,20.1051988 C7.11497652,20.769982 7.02514096,21.4347651 6.98920673,22.0995483 C6.98920673,22.2612523 7.04310807,22.4409234 7.15091075,22.5487261 C7.25871342,22.6744959 7.42041743,22.7463643 7.60008856,22.7463643 L11.3013137,22.7463643 C11.6247217,22.7463643 11.8942284,22.4948248 11.9121955,22.1714167 C12.0020311,21.0754229 12.3254391,19.9973961 12.9542881,18.8475009 C13.1698934,18.4522245 13.0081894,18.0749151 12.8824196,17.9132111 C12.2715378,17.1226581 11.5169191,16.2782039 10.4029581,15.1103416 Z" id="Shape"></path>
                            <path d="M13.9784135,5.91117999 C14.1221504,6.05491689 14.2838544,6.072884 14.4096242,6.072884 L14.4096242,6.072884 C14.5174268,6.072884 14.697098,6.05491689 14.8408349,5.91117999 C16.1524341,4.63551501 16.8531515,3.14424468 17.0148555,2.73100109 C17.0328226,2.67709975 17.0687568,2.6052313 17.0687568,2.49742863 C17.0687568,2.1740206 16.7992501,1.92248103 16.5117763,1.92248103 C16.2782039,1.92248103 15.5954536,1.99434948 14.4275913,1.99434948 L14.4275913,1.99434948 C13.259729,1.99434948 12.5769787,1.92248103 12.3434062,1.92248103 C12.0559324,1.92248103 11.7864258,2.15605349 11.7864258,2.49742863 C11.7864258,2.58726419 11.8043929,2.65913264 11.8403271,2.73100109 C11.9481298,3.14424468 12.6668143,4.63551501 13.9784135,5.91117999 Z" id="Shape"></path>
                        </g>
                    </g>
                </g>
            </g>
        </g>
    </g>
</svg>
