<?xml version="1.0" encoding="UTF-8" standalone="no"?>
<svg viewBox="0 0 186 40" version="1.1" xmlns="http://www.w3.org/2000/svg" xmlns:xlink="http://www.w3.org/1999/xlink">
    <g id="Page-1" stroke="none" stroke-width="1" fill="none" fill-rule="evenodd">
        <g id="template" fill-rule="nonzero" fill="currentColor">
            <g id="confluence_rgb_blue" transform="translate(5.000000, 8.000000)">
                <g id="Conf_-_Blue">
                    <g id="Group">
                        <g class="logo-icon" transform="translate(0.000000, 0.372651)">
                            <path d="M21.1479568,17.6636679 C20.7753056,16.9183654 20.3281241,16.173063 19.8064124,15.409128 C19.4337612,14.8687837 19.0424774,14.3284394 18.6139285,13.8067277 C18.4462354,13.6017696 18.5207657,13.3409137 18.6511936,13.2104858 C18.7816215,13.0800578 18.9120495,12.9496299 19.0424774,12.819202 C20.8312032,10.993211 22.6758268,9.11132235 24.0919014,7.08037319 C25.6011389,4.91899611 26.4396041,2.8694144 26.6445623,0.745302442 C26.6631948,0.54034427 26.570032,0.316753538 26.402339,0.18632561 C26.2905436,0.0931628052 26.1601157,0.0558976831 26.0110552,0.0558976831 C25.936525,0.0558976831 25.8619947,0.0745302442 25.7874645,0.0931628052 C24.408655,0.614874514 23.0298454,1.02479086 21.7441987,1.30427927 C21.4833429,1.36017696 21.2783847,1.56513513 21.1852219,1.78872586 C20.2535938,4.32275416 17.8872586,6.7449871 15.409128,9.2790154 C15.3159652,9.3721782 15.1669047,9.50260613 14.943314,9.50260613 C14.7197232,9.50260613 14.5706627,9.39081076 14.4774999,9.2790154 C11.9993693,6.7449871 9.63303406,4.34138672 8.701406,1.78872586 C8.6082432,1.56513513 8.40328503,1.36017696 8.14242917,1.30427927 C6.87541502,1.0061583 5.47797295,0.577609392 4.09916343,0.0558976831 C4.02463318,0.018632561 3.95010294,0.018632561 3.8755727,0.018632561 C3.74514477,0.018632561 3.59608428,0.0558976831 3.48428891,0.149060488 C3.31659586,0.279488416 3.22343306,0.503079148 3.24206562,0.708037319 C3.44702379,2.81351672 4.28548904,4.90036355 5.79472648,7.06174063 C7.21080112,9.09268979 9.05542466,10.9745785 10.8441505,12.8005694 C14.1421138,16.1544304 17.235119,19.3219658 17.5146074,22.9925803 C17.5332399,23.3279664 17.8127284,23.5888223 18.1481145,23.5888223 L22.0050546,23.5888223 C22.1727476,23.5888223 22.3404407,23.514292 22.4708686,23.3838641 C22.582664,23.2534362 22.6571942,23.0857431 22.6385617,22.9180501 C22.6012965,22.2286453 22.5081337,21.5392406 22.3404407,20.8312032 L22.3404407,20.8312032 L22.3404407,20.7753056 C22.3404407,20.6262451 22.4522361,20.5144497 22.6012965,20.5144497 L22.6385617,20.5144497 L22.6385617,20.5144497 C25.7874645,20.9802637 27.7811485,21.7069336 27.7997811,22.5267663 L27.7997811,22.5267663 C27.7997811,23.2907013 26.0110552,24.4459201 23.0857431,25.3030179 L23.0857431,25.3030179 C22.8248873,25.3775481 22.6385617,25.6197714 22.6385617,25.8806273 C22.6385617,26.2160134 22.9180501,26.4955018 23.2534362,26.4955018 C23.3093339,26.4955018 23.346599,26.4955018 23.3838641,26.4768692 C27.2967019,25.5638737 29.9052605,24.0546363 29.9052605,22.3218081 C29.8866279,20.3094915 26.3837064,18.4835005 21.1479568,17.6636679 Z" id="Shape"></path>
                            <path d="M10.7882528,15.6699838 C10.7137226,15.5954536 10.5460295,15.4836582 10.3410714,15.4836582 C10.061583,15.4836582 9.87525735,15.6699838 9.81935967,15.7631466 C9.39081076,16.3966537 9.0367921,17.0301608 8.72003857,17.6636679 C3.50292148,18.4835005 0,20.3094915 0,22.3404407 C0,24.0546363 2.57129342,25.5825063 6.5027638,26.4955018 L6.5027638,26.4955018 C6.54002892,26.5141344 6.59592661,26.5141344 6.65182429,26.5141344 C6.98721039,26.5141344 7.2666988,26.2346459 7.2666988,25.8992598 C7.2666988,25.6197714 7.08037319,25.3961807 6.81951734,25.3216505 L6.81951734,25.3216505 C3.91283782,24.4831852 2.1054794,23.3279664 2.1054794,22.5453989 L2.1054794,22.5453989 C2.1054794,21.7255662 4.09916343,20.9988963 7.24806624,20.5330823 L7.28533137,20.5330823 C7.43439185,20.5330823 7.54618722,20.6448776 7.54618722,20.7939381 L7.54618722,20.8498358 L7.54618722,20.8498358 C7.37849417,21.5392406 7.28533137,22.2286453 7.24806624,22.9180501 C7.24806624,23.0857431 7.30396393,23.2720687 7.41575929,23.3838641 C7.52755466,23.514292 7.69524771,23.5888223 7.88157332,23.5888223 L11.7198809,23.5888223 C12.055267,23.5888223 12.3347554,23.3279664 12.353388,22.9925803 C12.4465508,21.8559941 12.7819369,20.7380404 13.4340765,19.5455565 C13.6576672,19.1356402 13.4899742,18.7443564 13.3595463,18.5766634 C12.7260392,17.7568307 11.9434716,16.8811003 10.7882528,15.6699838 Z" id="Shape"></path>
                            <path d="M14.4961325,6.13011258 C14.645193,6.27917307 14.812886,6.29780563 14.943314,6.29780563 L14.943314,6.29780563 C15.0551093,6.29780563 15.2414349,6.27917307 15.3904954,6.13011258 C16.7506724,4.80720075 17.4773423,3.26069818 17.6450353,2.83214928 C17.6636679,2.77625159 17.700933,2.70172135 17.700933,2.58992598 C17.700933,2.25453989 17.4214446,1.99368403 17.1233236,1.99368403 C16.8811003,1.99368403 16.173063,2.06821428 14.9619465,2.06821428 L14.9619465,2.06821428 C13.75083,2.06821428 13.0427927,1.99368403 12.8005694,1.99368403 C12.5024485,1.99368403 12.22296,2.23590732 12.22296,2.58992598 C12.22296,2.68308879 12.2415926,2.75761903 12.2788577,2.83214928 C12.3906531,3.26069818 13.1359555,4.80720075 14.4961325,6.13011258 Z" id="Shape"></path>
                        </g>
                    </g>
                </g>
            </g>
        </g>
    </g>
</svg>
