<?xml version="1.0" encoding="UTF-8" standalone="no"?>
<svg viewBox="0 0 151 40" version="1.1" xmlns="http://www.w3.org/2000/svg" xmlns:xlink="http://www.w3.org/1999/xlink">
    <!-- Generator: Sketch 42 (36781) - http://www.bohemiancoding.com/sketch -->
    <title>template</title>
    <desc>Created with Sketch.</desc>
    <defs></defs>
    <g id="Page-1" stroke="none" stroke-width="1" fill="none" fill-rule="evenodd">
        <g id="template" fill-rule="nonzero" fill="currentColor">
            <g id="hipchat_rgb_blue" transform="translate(3.500000, 5.000000)">
                <g id="HipChat" transform="translate(0.500000, 0.000000)">
                    <g id="Group">
                        <g class="logo-type" transform="translate(36.602405, 0.973468)">
                            <path d="M55.3124642,4.98415728 C56.7726665,4.98415728 58.7780111,5.17885093 60.6860088,5.50983012 C60.8417637,5.54876885 61.016988,5.49036076 61.1532735,5.39301393 C61.2895591,5.29566711 61.3869059,5.1399122 61.4063753,4.98415728 L61.8152319,1.79118152 C61.8541706,1.47967169 61.659477,1.18763123 61.3479672,1.10975377 C59.4399695,0.642489025 57.2399313,0.389387288 55.1761787,0.389387288 C49.4327162,0.389387288 46.5123115,2.78411911 46.5123115,7.49570529 L46.5123115,18.1259782 C46.5123115,22.8375644 49.4327162,25.2322962 55.1761787,25.2322962 C57.2399313,25.2322962 59.4205001,24.9791945 61.3479672,24.5119298 C61.659477,24.4340523 61.8541706,24.1420118 61.8152319,23.830502 L61.4063753,20.6375262 C61.3869059,20.462302 61.2895591,20.3260164 61.1532735,20.2286696 C61.016988,20.1313228 60.8417637,20.092384 60.6860088,20.1118534 C58.7780111,20.4428326 56.7726665,20.6375262 55.3124642,20.6375262 C52.469937,20.6375262 51.4964688,19.8003436 51.4964688,17.3277343 L51.4964688,8.31341859 C51.4964688,5.82133995 52.4504676,4.98415728 55.3124642,4.98415728" id="Shape"></path>
                            <path d="M17.6392441,0.778774575 L13.8816568,0.778774575 C13.5506776,0.778774575 13.2781065,1.05134568 13.2781065,1.40179424 L13.2781065,10.4939874 L5.04256538,10.4939874 L5.04256538,1.40179424 C5.04256538,1.05134568 4.76999427,0.778774575 4.41954571,0.778774575 L0.661958389,0.778774575 C0.330979195,0.778774575 0.0389387288,1.05134568 0.0389387288,1.40179424 L0.0389387288,24.2977667 C0.0389387288,24.6287459 0.31150983,24.9207864 0.661958389,24.9207864 L4.41954571,24.9207864 C4.75052491,24.9207864 5.04256538,24.6482153 5.04256538,24.2977667 L5.04256538,14.9524718 L13.2781065,14.9524718 L13.2781065,24.2977667 C13.2781065,24.6287459 13.5506776,24.9207864 13.8816568,24.9207864 L17.6392441,24.9207864 C17.9702233,24.9207864 18.2622638,24.6482153 18.2622638,24.2977667 L18.2622638,1.40179424 C18.2427944,1.05134568 17.9702233,0.778774575 17.6392441,0.778774575" id="Shape"></path>
                            <path d="M87.6121397,6.77533881 C85.7820195,6.77533881 83.5430426,7.06737927 81.9270853,7.51517465 C81.6155755,7.59305211 81.4403512,7.90456194 81.4792899,8.21607177 L81.907616,10.844436 C81.9270853,11.0001909 82.0244321,11.1559458 82.1607177,11.2532926 C82.2970032,11.3506394 82.4722275,11.3895782 82.6279824,11.3506394 C84.1271235,11.058599 85.6846726,10.9028441 87.0085894,10.9028441 C89.6174843,10.9028441 90.0458103,11.4479863 90.0458103,13.2196984 L90.0458103,14.7577782 L86.1714068,14.7577782 C82.4527582,14.7577782 80.8757396,16.295858 80.8757396,19.878221 C80.8757396,23.3048292 82.6085131,25.271235 85.6457339,25.271235 C87.3979767,25.271235 89.1502195,24.7845009 90.6298912,23.8889101 L90.7856461,24.4535217 C90.8635236,24.7260928 91.0971559,24.901317 91.369727,24.901317 L94.2901317,24.901317 C94.6211109,24.901317 94.893682,24.6287459 94.893682,24.2782974 L94.893682,13.2586371 C94.893682,8.5275816 92.9078068,6.77533881 87.6121397,6.77533881 L87.6121397,6.77533881 Z M90.0458103,18.37908 L90.0458103,20.5207101 C89.44226,20.8322199 88.3519756,21.2994846 87.0475282,21.2994846 C85.918305,21.2994846 85.5678565,20.9490361 85.5678565,19.8198129 C85.5678565,18.7295285 85.7820195,18.37908 87.1059362,18.37908 L90.0458103,18.37908 Z" id="Shape"></path>
                            <path d="M107.451422,21.3773621 C107.431953,21.2021378 107.334606,21.0463829 107.178851,20.9490361 C107.042565,20.8516893 106.867341,20.8322199 106.692117,20.8711586 C106.049628,21.0269135 105.446077,21.1242604 104.959343,21.1242604 C104.063753,21.1242604 103.674365,20.7348731 103.674365,19.8587517 L103.674365,11.0780683 L107.19832,11.0780683 C107.529299,11.0780683 107.801871,10.8054972 107.801871,10.474518 L107.801871,7.72933766 C107.801871,7.39835847 107.529299,7.12578736 107.19832,7.12578736 L103.674365,7.12578736 L103.674365,2.90093529 C103.674365,2.72571101 103.596488,2.55048673 103.460202,2.43367055 C103.323917,2.31685436 103.148692,2.25844627 102.973468,2.297385 L99.3521664,2.80358847 C99.0406566,2.8425272 98.8264936,3.09562894 98.8264936,3.40713877 L98.8264936,7.12578736 L96.8600878,7.12578736 C96.5291086,7.12578736 96.2565375,7.39835847 96.2565375,7.72933766 L96.2565375,10.474518 C96.2565375,10.8054972 96.5291086,11.0780683 96.8600878,11.0780683 L98.8264936,11.0780683 L98.8264936,20.4233632 C98.8264936,23.6358084 100.520328,25.2517656 103.83012,25.2517656 C104.784119,25.2517656 106.380607,25.0376026 107.431953,24.6676847 C107.704524,24.5703379 107.879748,24.2977667 107.840809,24.0057263 L107.451422,21.3773621 Z" id="Shape"></path>
                            <path d="M25.5048673,7.12578736 L21.8835656,7.12578736 C21.5525864,7.12578736 21.2800153,7.39835847 21.2800153,7.72933766 L21.2800153,24.2782974 C21.2800153,24.6092766 21.5525864,24.901317 21.8835656,24.901317 L25.5048673,24.901317 C25.8358465,24.901317 26.127887,24.6287459 26.127887,24.2782974 L26.127887,7.72933766 C26.127887,7.39835847 25.8553159,7.12578736 25.5048673,7.12578736" id="Shape"></path>
                            <path d="M25.5048673,0.0973468219 L21.8835656,0.0973468219 C21.5525864,0.0973468219 21.2800153,0.369917923 21.2800153,0.700897118 L21.2800153,4.28326016 C21.2800153,4.61423936 21.5525864,4.88681046 21.8835656,4.88681046 L25.5048673,4.88681046 C25.8358465,4.88681046 26.127887,4.61423936 26.127887,4.28326016 L26.127887,0.700897118 C26.127887,0.369917923 25.8553159,0.0973468219 25.5048673,0.0973468219" id="Shape"></path>
                            <path d="M25.5048673,7.12578736 L21.8835656,7.12578736 C21.5525864,7.12578736 21.2800153,7.39835847 21.2800153,7.72933766 L21.2800153,24.2782974 C21.2800153,24.6092766 21.5525864,24.901317 21.8835656,24.901317 L25.5048673,24.901317 C25.8358465,24.901317 26.127887,24.6287459 26.127887,24.2782974 L26.127887,7.72933766 C26.127887,7.39835847 25.8553159,7.12578736 25.5048673,7.12578736" id="Shape"></path>
                            <path d="M38.4325253,6.77533881 C36.5050582,6.77533881 34.7722848,7.32048101 33.1173888,8.41076541 L32.8642871,7.55411338 C32.7864096,7.30101164 32.5527772,7.12578736 32.2802061,7.12578736 L29.4571483,7.12578736 C29.1261691,7.12578736 28.8341287,7.39835847 28.8341287,7.72933766 L28.8341287,31.3067379 C28.8341287,31.6377171 29.1066998,31.9102882 29.4571483,31.9102882 L33.0784501,31.9102882 C33.4094293,31.9102882 33.6820004,31.6377171 33.6820004,31.3067379 L33.6820004,24.8039702 C35.103264,25.0765413 36.6997519,25.2517656 38.0236686,25.2517656 C41.9759496,25.2517656 44.0007635,23.1101355 44.0007635,18.9047528 L44.0007635,13.0250048 C44.0202329,7.84615385 40.983012,6.77533881 38.4325253,6.77533881 M39.1723611,12.9081886 L39.1723611,19.0020996 C39.1723611,20.462302 38.6466883,21.0463829 37.2643634,21.0463829 C35.8820386,21.0463829 34.4218362,20.7932812 33.7014697,20.6375262 L33.7014697,12.3825157 C34.4997137,11.6816186 35.9209773,10.9612521 37.3033022,10.9612521 C38.6466883,10.9807215 39.1723611,11.5258637 39.1723611,12.9081886" id="Shape"></path>
                            <path d="M74.7818286,6.77533881 C73.0101164,6.77533881 70.634854,7.3788891 68.7268563,8.27447986 L68.7268563,0.700897118 C68.7268563,0.350448559 68.4542852,0.0778774575 68.123306,0.0778774575 L64.5020042,0.0778774575 C64.171025,0.0778774575 63.8789845,0.350448559 63.8789845,0.700897118 L63.8789845,24.2977667 C63.8789845,24.6287459 64.1515556,24.901317 64.5020042,24.901317 L68.123306,24.901317 C68.4542852,24.901317 68.7268563,24.6287459 68.7268563,24.2977667 L68.7268563,12.8303111 C70.0313037,12.1683527 71.8614239,11.486925 72.9711777,11.486925 C73.788891,11.486925 74.0809315,11.7984348 74.0809315,12.6161481 L74.0809315,24.3172361 C74.0809315,24.6482153 74.3535026,24.9207864 74.7039511,24.9207864 L78.3252529,24.9207864 C78.6562321,24.9207864 78.9288032,24.6482153 78.9288032,24.3172361 L78.9288032,12.1488834 C78.9482726,8.56652033 77.5464783,6.77533881 74.7818286,6.77533881" id="Shape"></path>
                        </g>
                        <g class="logo-icon">
                            <path d="M24.7650315,16.8994083 C24.7650315,16.5684291 24.4924604,16.2569193 24.1225425,16.2569193 C23.9667876,16.2569193 23.830502,16.3153274 23.6942165,16.4126742 C22.0782592,17.8534071 19.3330788,19.1383852 16.0232869,19.1578546 L16.0038175,19.1578546 C12.6940256,19.1578546 10.0267227,17.8144684 8.33288796,16.4126742 C8.21607177,16.3153274 8.02137813,16.2569193 7.90456194,16.2569193 C7.51517465,16.2569193 7.28154228,16.5878985 7.28154228,16.9578164 C7.28154228,17.2498568 7.47623592,17.4834892 7.6514602,17.736591 C8.60545906,19.1578546 11.5453331,21.5915251 16.0038175,21.5915251 L16.081695,21.5915251 C20.5207101,21.5915251 23.4800534,19.1578546 24.4340523,17.736591 C24.5508685,17.5029586 24.7650315,17.1914487 24.7650315,16.8994083 Z" id="Shape"></path>
                            <path d="M29.1651078,28.0358847 C28.0358847,27.3933957 26.9650697,26.3031113 26.4783356,24.8039702 C26.3809887,24.5119298 26.4588662,24.2782974 26.6924986,24.1030731 C29.9633518,21.5720557 32.0271044,17.8923459 32.0271044,13.8037793 C32.0271044,6.17178851 24.8623783,0 16.0232869,0 C7.16472609,0 0,6.19125787 0,13.8232487 C0,21.4552395 7.16472609,27.6464974 16.0038175,27.6464974 C17.15251,27.6464974 18.2817332,27.5491506 19.3720176,27.3349876 C19.6445887,27.2765795 19.8587517,27.354457 20.0339759,27.4518038 C22.2340141,28.7951899 25.485398,29.9244131 28.3473945,29.9244131 C29.2624547,29.9244131 29.6323726,29.3403321 29.6323726,28.8146593 C29.6323726,28.4642107 29.4376789,28.1916396 29.1651078,28.0358847 Z M24.8818477,26.6924986 C24.9402558,26.7509067 24.9597251,26.8093148 24.9597251,26.8871922 C24.9597251,26.984539 24.8623783,27.0429471 24.7650315,27.0429471 C23.9667876,27.0429471 21.4941783,25.7190303 20.1897309,24.6092766 C20.0145066,24.4535217 19.7614048,24.3951136 19.4109563,24.472991 C18.3206719,24.7066234 17.1914487,24.842909 16.0038175,24.842909 C8.64439779,24.842909 2.66730292,19.9171598 2.66730292,13.8427181 C2.66730292,7.76827639 8.62492842,2.8425272 16.0038175,2.8425272 C23.3632373,2.8425272 29.3208628,7.76827639 29.3208628,13.8427181 C29.3208628,17.4640199 27.198702,20.676465 23.9278488,22.6818095 C23.7136858,22.8180951 23.4800534,23.0711968 23.4800534,23.3827066 C23.4800534,24.044665 24.0836037,25.6411529 24.8818477,26.6924986 Z" id="Shape"></path>
                        </g>
                    </g>
                </g>
            </g>
        </g>
    </g>
</svg>
