<?xml version="1.0" encoding="UTF-8" standalone="no"?>
<svg viewBox="0 0 140 40" version="1.1" xmlns="http://www.w3.org/2000/svg" xmlns:xlink="http://www.w3.org/1999/xlink">
    <!-- Generator: Sketch 42 (36781) - http://www.bohemiancoding.com/sketch -->
    <title>template</title>
    <desc>Created with Sketch.</desc>
    <defs></defs>
    <g id="Page-1" stroke="none" stroke-width="1" fill="none" fill-rule="evenodd">
        <g id="template" fill-rule="nonzero" fill="currentColor">
            <g id="hipchat_rgb_blue" transform="translate(5.500000, 6.000000)">
                <g id="HipChat">
                    <g id="Group">
                        <g class="logo-type" transform="translate(33.372781, 0.887574)">
                            <path d="M50.4319527,4.5443787 C51.7633136,4.5443787 53.591716,4.72189349 55.3313609,5.02366864 C55.4733728,5.0591716 55.6331361,5.00591716 55.7573964,4.91715976 C55.8816568,4.82840237 55.9704142,4.68639053 55.9881657,4.5443787 L56.3609467,1.63313609 C56.3964497,1.34911243 56.2189349,1.08284024 55.9349112,1.01183432 C54.1952663,0.585798817 52.1893491,0.355029586 50.3076923,0.355029586 C45.0710059,0.355029586 42.408284,2.53846154 42.408284,6.83431953 L42.408284,16.5266272 C42.408284,20.8224852 45.0710059,23.0059172 50.3076923,23.0059172 C52.1893491,23.0059172 54.1775148,22.7751479 55.9349112,22.3491124 C56.2189349,22.2781065 56.3964497,22.0118343 56.3609467,21.7278107 L55.9881657,18.816568 C55.9704142,18.6568047 55.8816568,18.5325444 55.7573964,18.443787 C55.6331361,18.3550296 55.4733728,18.3195266 55.3313609,18.3372781 C53.591716,18.6390533 51.7633136,18.816568 50.4319527,18.816568 C47.8402367,18.816568 46.9526627,18.0532544 46.9526627,15.7988166 L46.9526627,7.57988166 C46.9526627,5.30769231 47.8224852,4.5443787 50.4319527,4.5443787" id="Shape"></path>
                            <path d="M16.0828402,0.710059172 L12.6568047,0.710059172 C12.3550296,0.710059172 12.1065089,0.958579882 12.1065089,1.27810651 L12.1065089,9.56804734 L4.59763314,9.56804734 L4.59763314,1.27810651 C4.59763314,0.958579882 4.34911243,0.710059172 4.0295858,0.710059172 L0.603550296,0.710059172 C0.301775148,0.710059172 0.0355029586,0.958579882 0.0355029586,1.27810651 L0.0355029586,22.1538462 C0.0355029586,22.4556213 0.284023669,22.7218935 0.603550296,22.7218935 L4.0295858,22.7218935 C4.33136095,22.7218935 4.59763314,22.4733728 4.59763314,22.1538462 L4.59763314,13.6331361 L12.1065089,13.6331361 L12.1065089,22.1538462 C12.1065089,22.4556213 12.3550296,22.7218935 12.6568047,22.7218935 L16.0828402,22.7218935 C16.3846154,22.7218935 16.6508876,22.4733728 16.6508876,22.1538462 L16.6508876,1.27810651 C16.6331361,0.958579882 16.3846154,0.710059172 16.0828402,0.710059172" id="Shape"></path>
                            <path d="M79.8816568,6.17751479 C78.2130178,6.17751479 76.1715976,6.44378698 74.6982249,6.85207101 C74.4142012,6.92307692 74.2544379,7.20710059 74.2899408,7.49112426 L74.6804734,9.88757396 C74.6982249,10.0295858 74.7869822,10.1715976 74.9112426,10.260355 C75.035503,10.3491124 75.1952663,10.3846154 75.3372781,10.3491124 C76.704142,10.0828402 78.1242604,9.9408284 79.3313609,9.9408284 C81.7100592,9.9408284 82.1005917,10.4378698 82.1005917,12.0532544 L82.1005917,13.4556213 L78.5680473,13.4556213 C75.1775148,13.4556213 73.739645,14.8579882 73.739645,18.1242604 C73.739645,21.2485207 75.3195266,23.0414201 78.0887574,23.0414201 C79.6863905,23.0414201 81.2840237,22.5976331 82.6331361,21.7810651 L82.7751479,22.295858 C82.8461538,22.5443787 83.0591716,22.704142 83.3076923,22.704142 L85.9704142,22.704142 C86.2721893,22.704142 86.5207101,22.4556213 86.5207101,22.1360947 L86.5207101,12.0887574 C86.5207101,7.77514793 84.7100592,6.17751479 79.8816568,6.17751479 L79.8816568,6.17751479 Z M82.1005917,16.7573964 L82.1005917,18.7100592 C81.5502959,18.9940828 80.556213,19.4201183 79.3668639,19.4201183 C78.3372781,19.4201183 78.0177515,19.1005917 78.0177515,18.0710059 C78.0177515,17.0769231 78.2130178,16.7573964 79.4201183,16.7573964 L82.1005917,16.7573964 Z" id="Shape"></path>
                            <path d="M97.9704142,19.4911243 C97.9526627,19.3313609 97.8639053,19.1893491 97.7218935,19.1005917 C97.5976331,19.0118343 97.4378698,18.9940828 97.2781065,19.0295858 C96.6923077,19.1715976 96.1420118,19.260355 95.6982249,19.260355 C94.8816568,19.260355 94.5266272,18.9053254 94.5266272,18.1065089 L94.5266272,10.1005917 L97.739645,10.1005917 C98.0414201,10.1005917 98.2899408,9.85207101 98.2899408,9.55029586 L98.2899408,7.04733728 C98.2899408,6.74556213 98.0414201,6.49704142 97.739645,6.49704142 L94.5266272,6.49704142 L94.5266272,2.64497041 C94.5266272,2.4852071 94.4556213,2.32544379 94.3313609,2.21893491 C94.2071006,2.11242604 94.0473373,2.0591716 93.887574,2.09467456 L90.5857988,2.55621302 C90.3017751,2.59171598 90.1065089,2.82248521 90.1065089,3.10650888 L90.1065089,6.49704142 L88.3136095,6.49704142 C88.0118343,6.49704142 87.7633136,6.74556213 87.7633136,7.04733728 L87.7633136,9.55029586 C87.7633136,9.85207101 88.0118343,10.1005917 88.3136095,10.1005917 L90.1065089,10.1005917 L90.1065089,18.6213018 C90.1065089,21.5502959 91.6508876,23.0236686 94.6686391,23.0236686 C95.5384615,23.0236686 96.9940828,22.8284024 97.9526627,22.4911243 C98.2011834,22.4023669 98.3609467,22.1538462 98.3254438,21.887574 L97.9704142,19.4911243 Z" id="Shape"></path>
                            <path d="M23.2544379,6.49704142 L19.9526627,6.49704142 C19.6508876,6.49704142 19.4023669,6.74556213 19.4023669,7.04733728 L19.4023669,22.1360947 C19.4023669,22.4378698 19.6508876,22.704142 19.9526627,22.704142 L23.2544379,22.704142 C23.556213,22.704142 23.8224852,22.4556213 23.8224852,22.1360947 L23.8224852,7.04733728 C23.8224852,6.74556213 23.5739645,6.49704142 23.2544379,6.49704142" id="Shape"></path>
                            <path d="M23.2544379,0.0887573964 L19.9526627,0.0887573964 C19.6508876,0.0887573964 19.4023669,0.337278107 19.4023669,0.639053254 L19.4023669,3.90532544 C19.4023669,4.20710059 19.6508876,4.4556213 19.9526627,4.4556213 L23.2544379,4.4556213 C23.556213,4.4556213 23.8224852,4.20710059 23.8224852,3.90532544 L23.8224852,0.639053254 C23.8224852,0.337278107 23.5739645,0.0887573964 23.2544379,0.0887573964" id="Shape"></path>
                            <path d="M23.2544379,6.49704142 L19.9526627,6.49704142 C19.6508876,6.49704142 19.4023669,6.74556213 19.4023669,7.04733728 L19.4023669,22.1360947 C19.4023669,22.4378698 19.6508876,22.704142 19.9526627,22.704142 L23.2544379,22.704142 C23.556213,22.704142 23.8224852,22.4556213 23.8224852,22.1360947 L23.8224852,7.04733728 C23.8224852,6.74556213 23.5739645,6.49704142 23.2544379,6.49704142" id="Shape"></path>
                            <path d="M35.0414201,6.17751479 C33.2840237,6.17751479 31.704142,6.67455621 30.1952663,7.66863905 L29.964497,6.88757396 C29.8934911,6.65680473 29.6804734,6.49704142 29.4319527,6.49704142 L26.8579882,6.49704142 C26.556213,6.49704142 26.2899408,6.74556213 26.2899408,7.04733728 L26.2899408,28.5443787 C26.2899408,28.8461538 26.5384615,29.0946746 26.8579882,29.0946746 L30.1597633,29.0946746 C30.4615385,29.0946746 30.7100592,28.8461538 30.7100592,28.5443787 L30.7100592,22.6153846 C32.0059172,22.8639053 33.4615385,23.0236686 34.6686391,23.0236686 C38.2721893,23.0236686 40.1183432,21.0710059 40.1183432,17.2366864 L40.1183432,11.8757396 C40.1360947,7.15384615 37.3668639,6.17751479 35.0414201,6.17751479 M35.7159763,11.7692308 L35.7159763,17.3254438 C35.7159763,18.6568047 35.2366864,19.1893491 33.9763314,19.1893491 C32.7159763,19.1893491 31.3846154,18.9585799 30.7278107,18.816568 L30.7278107,11.2899408 C31.4556213,10.6508876 32.7514793,9.99408284 34.0118343,9.99408284 C35.2366864,10.0118343 35.7159763,10.5088757 35.7159763,11.7692308" id="Shape"></path>
                            <path d="M68.183432,6.17751479 C66.5680473,6.17751479 64.4023669,6.72781065 62.6627219,7.5443787 L62.6627219,0.639053254 C62.6627219,0.319526627 62.4142012,0.0710059172 62.112426,0.0710059172 L58.8106509,0.0710059172 C58.5088757,0.0710059172 58.2426036,0.319526627 58.2426036,0.639053254 L58.2426036,22.1538462 C58.2426036,22.4556213 58.4911243,22.704142 58.8106509,22.704142 L62.112426,22.704142 C62.4142012,22.704142 62.6627219,22.4556213 62.6627219,22.1538462 L62.6627219,11.6982249 C63.852071,11.0946746 65.5207101,10.4733728 66.5325444,10.4733728 C67.2781065,10.4733728 67.5443787,10.7573964 67.5443787,11.5029586 L67.5443787,22.1715976 C67.5443787,22.4733728 67.7928994,22.7218935 68.112426,22.7218935 L71.4142012,22.7218935 C71.7159763,22.7218935 71.964497,22.4733728 71.964497,22.1715976 L71.964497,11.0769231 C71.9822485,7.81065089 70.704142,6.17751479 68.183432,6.17751479" id="Shape"></path>
                        </g>
                        <g class="logo-icon">
                            <path d="M22.5798817,15.408284 C22.5798817,15.1065089 22.3313609,14.8224852 21.9940828,14.8224852 C21.852071,14.8224852 21.7278107,14.8757396 21.6035503,14.964497 C20.1301775,16.2781065 17.6272189,17.4497041 14.6094675,17.4674556 L14.591716,17.4674556 C11.5739645,17.4674556 9.14201183,16.2426036 7.59763314,14.964497 C7.49112426,14.8757396 7.31360947,14.8224852 7.20710059,14.8224852 C6.85207101,14.8224852 6.63905325,15.1242604 6.63905325,15.4615385 C6.63905325,15.7278107 6.81656805,15.9408284 6.97633136,16.1715976 C7.84615385,17.4674556 10.5266272,19.6863905 14.591716,19.6863905 L14.6627219,19.6863905 C18.7100592,19.6863905 21.408284,17.4674556 22.2781065,16.1715976 C22.3846154,15.9585799 22.5798817,15.6745562 22.5798817,15.408284 Z" id="Shape"></path>
                            <path d="M26.591716,25.5621302 C25.5621302,24.9763314 24.5857988,23.9822485 24.1420118,22.6153846 C24.0532544,22.3491124 24.1242604,22.1360947 24.3372781,21.9763314 C27.3195266,19.6686391 29.2011834,16.3136095 29.2011834,12.5857988 C29.2011834,5.62721893 22.6686391,0 14.6094675,0 C6.53254438,0 0,5.64497041 0,12.6035503 C0,19.5621302 6.53254438,25.2071006 14.591716,25.2071006 C15.6390533,25.2071006 16.6686391,25.1183432 17.6627219,24.9230769 C17.9112426,24.8698225 18.1065089,24.9408284 18.2662722,25.0295858 C20.2721893,26.2544379 23.2366864,27.2840237 25.8461538,27.2840237 C26.6804734,27.2840237 27.0177515,26.7514793 27.0177515,26.2721893 C27.0177515,25.9526627 26.8402367,25.704142 26.591716,25.5621302 Z M22.6863905,24.3372781 C22.739645,24.3905325 22.7573964,24.443787 22.7573964,24.5147929 C22.7573964,24.6035503 22.6686391,24.6568047 22.5798817,24.6568047 C21.852071,24.6568047 19.5976331,23.4497041 18.408284,22.4378698 C18.2485207,22.295858 18.0177515,22.2426036 17.6982249,22.3136095 C16.704142,22.5266272 15.6745562,22.6508876 14.591716,22.6508876 C7.8816568,22.6508876 2.43195266,18.1597633 2.43195266,12.6213018 C2.43195266,7.08284024 7.86390533,2.59171598 14.591716,2.59171598 C21.3017751,2.59171598 26.7337278,7.08284024 26.7337278,12.6213018 C26.7337278,15.9230769 24.7988166,18.852071 21.816568,20.6804734 C21.6213018,20.8047337 21.408284,21.035503 21.408284,21.3195266 C21.408284,21.9230769 21.9585799,23.3786982 22.6863905,24.3372781 Z" id="Shape"></path>
                        </g>
                    </g>
                </g>
            </g>
        </g>
    </g>
</svg>
