<?xml version="1.0" encoding="UTF-8" standalone="no"?>
<svg viewBox="0 0 93 40" version="1.1" xmlns="http://www.w3.org/2000/svg" xmlns:xlink="http://www.w3.org/1999/xlink">
    <!-- Generator: Sketch 42 (36781) - http://www.bohemiancoding.com/sketch -->
    <title>template</title>
    <desc>Created with Sketch.</desc>
    <defs></defs>
    <g id="Page-1" stroke="none" stroke-width="1" fill="none" fill-rule="evenodd">
        <g id="template" fill-rule="nonzero" fill="currentColor">
            <g id="jira_rgb_blue" transform="translate(8.000000, 3.000000)">
                <g id="JIRA_-_Blue">
                    <g id="Group">
                        <g class="logo-type" transform="translate(25.105357, 8.712500)">
                            <path d="M15.8585714,0 L12.3432143,0 C12.0335714,0 11.7785714,0.255 11.7785714,0.582857143 L11.7785714,22.0028571 C11.7785714,22.3125 12.0335714,22.5675 12.3432143,22.5675 L15.8585714,22.5675 C16.1682143,22.5675 16.4232143,22.3125 16.4232143,22.0028571 L16.4232143,0.582857143 C16.4232143,0.255 16.1682143,0 15.8585714,0 Z" id="Shape"></path>
                            <path d="M38.4260714,21.6203571 L33.5264286,14.5532143 C35.6392857,13.6789286 36.7139286,11.8392857 36.7139286,9.08892857 L36.7139286,6.21107143 C36.7139286,1.9125 34.4735714,0 29.4464286,0 L20.7217857,0 C20.4121429,0 20.1571429,0.255 20.1571429,0.582857143 L20.1571429,22.0028571 C20.1571429,22.3125 20.4121429,22.5675 20.7217857,22.5675 L24.2371429,22.5675 C24.5467857,22.5675 24.8017857,22.3125 24.8017857,22.0028571 L24.8017857,15.2817857 L28.4082143,15.2817857 L33.3078571,22.3307143 C33.4171429,22.4764286 33.5992857,22.5857143 33.7814286,22.5857143 L37.9889286,22.5857143 L37.9889286,22.5857143 C38.2985714,22.5857143 38.5535714,22.3307143 38.5535714,22.0210714 C38.5535714,21.8571429 38.4989286,21.7296429 38.4260714,21.6203571 Z M24.8017857,4.17107143 L29.2642857,4.17107143 C31.5775,4.17107143 32.0328571,5.08178571 32.0328571,6.53892857 L32.0328571,8.72464286 C32.0328571,10.5460714 31.3407143,11.1653571 29.2642857,11.1653571 L24.8017857,11.1653571 L24.8017857,4.17107143 Z" id="Shape"></path>
                            <path d="M49.9739286,0.400714286 C49.9010714,0.163928571 49.6825,0 49.4275,0 L44.0725,0 C43.8175,0 43.5989286,0.163928571 43.5260714,0.400714286 L36.7685714,21.8207143 C36.7139286,22.0028571 36.7503571,22.185 36.8596429,22.3307143 C36.9689286,22.4764286 37.1328571,22.5675 37.315,22.5675 L41.0125,22.5675 C41.2675,22.5675 41.4860714,22.4035714 41.5589286,22.1485714 L46.2035714,6.39321429 C46.2035714,6.39321429 46.3310714,5.9925 46.75,5.9925 C47.1871429,5.9925 47.2782143,6.39321429 47.2782143,6.39321429 L49.4457143,13.8610714 L46.4767857,13.8610714 C46.2217857,13.8610714 46.0032143,14.025 45.9303571,14.28 L45.0925,17.2307143 C45.0378571,17.3946429 45.0742857,17.595 45.1835714,17.7407143 C45.2928571,17.8864286 45.4567857,17.9592857 45.6389286,17.9592857 L50.6478571,17.9592857 L51.9410714,22.1303571 C52.0139286,22.3671429 52.2325,22.5310714 52.4875,22.5310714 L56.1667857,22.5310714 C56.3489286,22.5310714 56.5128571,22.44 56.6221429,22.2942857 C56.7314286,22.1485714 56.7678571,21.9482143 56.7132143,21.7842857 L49.9739286,0.400714286 Z" id="Shape"></path>
                            <path d="M7.6075,0 L4.0375,0 C3.72785714,0 3.49107143,0.236785714 3.49107143,0.546428571 L3.49107143,17.3035714 C3.49107143,19.4164286 1.88821429,20.1085714 0.795357143,20.1632143 C0.649642857,20.1632143 0.485714286,20.2542857 0.376428571,20.4 C0.285357143,20.5457143 0.248928571,20.7096429 0.303571429,20.8735714 L1.17785714,23.6967857 C1.25071429,23.9335714 1.50571429,24.0792857 1.90642857,24.0792857 C5.3125,24.0792857 8.15392857,21.4017857 8.15392857,17.8135714 L8.15392857,0.546428571 C8.15392857,0.400714286 8.09928571,0.255 7.99,0.163928571 C7.88071429,0.0546428571 7.75321429,0 7.6075,0 Z" id="Shape"></path>
                        </g>
                        <g class="logo-icon" transform="translate(0.000000, 0.728571)">
                            <path d="M22.8225,7.67428571 C22.7132143,7.58321429 22.5857143,7.54678571 22.44,7.54678571 C22.3671429,7.54678571 22.2942857,7.565 22.2214286,7.58321429 C20.8735714,8.09321429 19.5257143,8.49392857 18.2689286,8.76714286 C18.0139286,8.82178571 17.8135714,9.02214286 17.7225,9.24071429 C16.8117857,11.7178571 14.4985714,14.0857143 12.0760714,16.5628571 C11.985,16.6539286 11.8392857,16.7814286 11.6207143,16.7814286 C11.4021429,16.7814286 11.2564286,16.6721429 11.1653571,16.5628571 C8.74285714,14.0857143 6.42964286,11.7360714 5.51892857,9.24071429 C5.42785714,9.02214286 5.2275,8.82178571 4.9725,8.76714286 C3.73392857,8.47571429 2.36785714,8.075 1.02,7.565 C0.947142857,7.52857143 0.874285714,7.52857143 0.801428571,7.52857143 C0.673928571,7.52857143 0.528214286,7.565 0.418928571,7.65607143 C0.255,7.78357143 0.163928571,8.00214286 0.182142857,8.2025 C0.3825,10.2607143 1.20214286,12.2825 2.6775,14.3953571 C4.06178571,16.3807143 5.865,18.2203571 7.61357143,20.0053571 C10.8192857,23.2839286 13.8610714,26.3803571 14.1342857,29.9685714 C14.1525,30.2964286 14.4257143,30.5514286 14.7535714,30.5514286 L18.5239286,30.5514286 C18.6878571,30.5514286 18.8517857,30.4785714 18.9792857,30.3510714 C19.0885714,30.2235714 19.1614286,30.0596429 19.1432143,29.8957143 C19.0157143,27.4914286 18.1232143,25.0871429 16.3746429,22.5371429 C16.0103571,22.0089286 15.6278571,21.4807143 15.2089286,20.9707143 C15.045,20.7703571 15.1178571,20.5153571 15.2453571,20.3696429 C15.3728571,20.2421429 15.5003571,20.1146429 15.6278571,19.9871429 C17.3764286,18.2021429 19.1796429,16.3625 20.5639286,14.3771429 C22.0392857,12.2642857 22.8589286,10.2607143 23.0592857,8.18428571 C23.0775,8.02035714 22.9864286,7.80178571 22.8225,7.67428571 Z" id="Shape"></path>
                            <path d="M7.55892857,22.8103571 C7.46785714,22.7192857 7.34035714,22.6282143 7.12178571,22.6282143 C6.84857143,22.6282143 6.66642857,22.8285714 6.61178571,22.9196429 C5.02714286,25.3421429 4.2075,27.6189286 4.09821429,29.9139286 C4.09821429,30.0778571 4.15285714,30.26 4.26214286,30.3692857 C4.37142857,30.4967857 4.53535714,30.5696429 4.7175,30.5696429 L8.48785714,30.5696429 C8.81571429,30.5696429 9.08892857,30.3146429 9.10714286,29.9867857 C9.19821429,28.8757143 9.52607143,27.7828571 10.1635714,26.6171429 C10.3821429,26.2164286 10.2182143,25.8339286 10.0907143,25.67 C9.45321429,24.8503571 8.70642857,23.9942857 7.55892857,22.8103571 Z" id="Shape"></path>
                            <path d="M11.6207143,9.51392857 C12.8046429,9.51392857 13.4967857,9.44107143 13.7335714,9.44107143 C14.025,9.44107143 14.2982143,9.67785714 14.2982143,10.0239286 C14.2982143,10.115 14.28,10.1878571 14.2435714,10.2607143 C14.0796429,10.6796429 13.3692857,12.1914286 12.0396429,13.4846429 C11.8939286,13.6303571 11.7117857,13.6485714 11.6025,13.6485714 L11.6025,13.6485714 C11.4932143,13.6485714 11.3110714,13.6303571 11.1653571,13.4846429 C9.83571429,12.1914286 9.12535714,10.6796429 8.96142857,10.2607143 C8.94321429,10.2060714 8.90678571,10.1332143 8.90678571,10.0239286 C8.90678571,9.69607143 9.18,9.44107143 9.47142857,9.44107143 C9.74464286,9.44107143 10.4367857,9.51392857 11.6207143,9.51392857 L11.6207143,9.51392857 Z" id="Shape"></path>
                            <path d="M5.11821429,2.13714286 C4.02535714,2.13714286 3.13285714,3.02964286 3.13285714,4.1225 C3.13285714,5.21535714 4.02535714,6.10785714 5.11821429,6.10785714 C6.21107143,6.10785714 7.10357143,5.21535714 7.10357143,4.1225 C7.08535714,3.02964286 6.21107143,2.13714286 5.11821429,2.13714286 L5.11821429,2.13714286 L5.11821429,2.13714286 Z" id="Shape"></path>
                            <path d="M18.1232143,2.13714286 C17.0303571,2.13714286 16.1378571,3.02964286 16.1378571,4.1225 C16.1378571,5.21535714 17.0303571,6.10785714 18.1232143,6.10785714 C19.2160714,6.10785714 20.1085714,5.21535714 20.1085714,4.1225 C20.1085714,3.02964286 19.2160714,2.13714286 18.1232143,2.13714286 L18.1232143,2.13714286 L18.1232143,2.13714286 Z" id="Shape"></path>
                            <path d="M11.6207143,0.333928571 C10.5278571,0.333928571 9.63535714,1.22642857 9.63535714,2.31928571 C9.63535714,3.41214286 10.5278571,4.30464286 11.6207143,4.30464286 C12.7135714,4.30464286 13.6060714,3.41214286 13.6060714,2.31928571 C13.6060714,1.20821429 12.7135714,0.333928571 11.6207143,0.333928571 L11.6207143,0.333928571 L11.6207143,0.333928571 Z" id="Shape"></path>
                        </g>
                    </g>
                </g>
            </g>
        </g>
    </g>
</svg>
